<svg width="636" height="330" viewBox="0 0 636 330" fill="none" xmlns="http://www.w3.org/2000/svg">
<rect width="704" height="330" rx="25" fill="url(#paint0_linear_582_547)"/>
<circle cx="540.5" cy="141.5" r="116.5" fill="#D9EBE7"/>
<path d="M84.6875 221.328C84.6875 222.073 84.8047 222.815 85.0391 223.555C85.2734 224.289 85.6094 224.961 86.0469 225.57C86.4896 226.18 87.0104 226.661 87.6094 227.016L86.9062 227.969C86.25 227.573 85.6823 227.026 85.2031 226.328C84.7292 225.63 84.3672 224.846 84.1172 223.977C83.8568 224.919 83.474 225.766 82.9688 226.516C82.4635 227.266 81.8698 227.849 81.1875 228.266L80.4062 227.344C81.0312 226.979 81.5781 226.482 82.0469 225.852C82.5156 225.216 82.875 224.51 83.125 223.734C83.375 222.958 83.5 222.172 83.5 221.375V218.688H84.6875V221.328ZM86.0781 222.359H88.4375V217.672H89.5938V230.562H88.4375V223.406H86.0781V222.359ZM91.2812 217.375H92.4688V231.266H91.2812V217.375ZM101.312 224.297H107.047V225.312H94.3906V224.297H100.109V222.312H101.312V224.297ZM95.0938 222.031C95.9115 221.943 96.6849 221.758 97.4141 221.477C98.1432 221.195 98.737 220.844 99.1953 220.422C99.6536 219.995 99.8958 219.531 99.9219 219.031H95.5469V218.031H105.922V219.031H101.516C101.542 219.526 101.784 219.987 102.242 220.414C102.701 220.841 103.294 221.195 104.023 221.477C104.753 221.758 105.526 221.943 106.344 222.031L105.891 223C105.12 222.906 104.385 222.734 103.688 222.484C102.995 222.234 102.388 221.914 101.867 221.523C101.352 221.133 100.969 220.688 100.719 220.188C100.469 220.688 100.083 221.133 99.5625 221.523C99.0469 221.914 98.4427 222.234 97.75 222.484C97.0573 222.734 96.3229 222.906 95.5469 223L95.0938 222.031ZM95.9219 228.844C95.9219 228.333 96.1094 227.901 96.4844 227.547C96.8646 227.188 97.4141 226.917 98.1328 226.734C98.8516 226.547 99.7135 226.453 100.719 226.453C101.714 226.453 102.568 226.547 103.281 226.734C103.995 226.917 104.542 227.188 104.922 227.547C105.302 227.901 105.495 228.333 105.5 228.844C105.495 229.354 105.302 229.786 104.922 230.141C104.542 230.5 103.995 230.771 103.281 230.953C102.568 231.141 101.714 231.234 100.719 231.234C99.7135 231.234 98.8516 231.141 98.1328 230.953C97.4141 230.771 96.8646 230.5 96.4844 230.141C96.1094 229.786 95.9219 229.354 95.9219 228.844ZM97.1719 228.844C97.1667 229.146 97.3021 229.404 97.5781 229.617C97.8542 229.831 98.2552 229.995 98.7812 230.109C99.3073 230.224 99.9375 230.281 100.672 230.281C101.802 230.281 102.682 230.156 103.312 229.906C103.943 229.656 104.26 229.302 104.266 228.844C104.26 228.396 103.951 228.047 103.336 227.797C102.721 227.547 101.865 227.422 100.766 227.422C99.625 227.422 98.7396 227.547 98.1094 227.797C97.4792 228.042 97.1667 228.391 97.1719 228.844ZM114.5 226.156C115.49 226.156 116.349 226.258 117.078 226.461C117.812 226.659 118.378 226.951 118.773 227.336C119.174 227.716 119.375 228.172 119.375 228.703C119.375 229.229 119.174 229.682 118.773 230.062C118.378 230.443 117.812 230.732 117.078 230.93C116.349 231.133 115.49 231.234 114.5 231.234C113.51 231.234 112.648 231.133 111.914 230.93C111.185 230.732 110.622 230.443 110.227 230.062C109.836 229.682 109.641 229.229 109.641 228.703C109.641 228.172 109.836 227.716 110.227 227.336C110.622 226.951 111.185 226.659 111.914 226.461C112.648 226.258 113.51 226.156 114.5 226.156ZM108.234 223.859H113.469V221.172H114.672V223.859H120.875V224.859H108.234V223.859ZM109.734 218.094H119.266V219.266C119.26 220.031 119.237 220.68 119.195 221.211C119.154 221.737 119.047 222.318 118.875 222.953L117.672 222.812C117.839 222.177 117.943 221.607 117.984 221.102C118.026 220.591 118.047 219.979 118.047 219.266V219.094H109.734V218.094ZM110.859 228.703C110.859 229.021 111.008 229.299 111.305 229.539C111.602 229.773 112.023 229.953 112.57 230.078C113.122 230.203 113.766 230.266 114.5 230.266C115.234 230.266 115.875 230.203 116.422 230.078C116.974 229.953 117.398 229.773 117.695 229.539C117.997 229.299 118.151 229.021 118.156 228.703C118.151 228.375 117.997 228.091 117.695 227.852C117.398 227.612 116.974 227.427 116.422 227.297C115.875 227.161 115.234 227.094 114.5 227.094C113.766 227.094 113.122 227.161 112.57 227.297C112.023 227.427 111.602 227.612 111.305 227.852C111.008 228.091 110.859 228.375 110.859 228.703ZM134.719 225.234H122.047V224.25H127.781V222.625H123.656V218.031H133.141V219.016H124.859V221.625H133.234V222.625H128.969V224.25H134.719V225.234ZM123.578 228.75C123.578 228.224 123.768 227.776 124.148 227.406C124.529 227.031 125.078 226.745 125.797 226.547C126.516 226.349 127.375 226.25 128.375 226.25C129.365 226.25 130.216 226.349 130.93 226.547C131.643 226.745 132.19 227.031 132.57 227.406C132.956 227.776 133.151 228.224 133.156 228.75C133.151 229.281 132.958 229.732 132.578 230.102C132.198 230.477 131.648 230.763 130.93 230.961C130.216 231.159 129.365 231.26 128.375 231.266C127.375 231.26 126.516 231.159 125.797 230.961C125.078 230.763 124.529 230.477 124.148 230.102C123.768 229.727 123.578 229.276 123.578 228.75ZM124.828 228.75C124.823 229.068 124.958 229.344 125.234 229.578C125.516 229.807 125.919 229.982 126.445 230.102C126.971 230.221 127.599 230.281 128.328 230.281C129.453 230.281 130.331 230.148 130.961 229.883C131.596 229.617 131.917 229.24 131.922 228.75C131.922 228.432 131.779 228.159 131.492 227.93C131.206 227.701 130.797 227.526 130.266 227.406C129.734 227.281 129.104 227.219 128.375 227.219C127.635 227.219 126.997 227.281 126.461 227.406C125.93 227.526 125.523 227.701 125.242 227.93C124.961 228.159 124.823 228.432 124.828 228.75ZM142.094 218.328C142.083 221.859 140.26 224.37 136.625 225.859L136.016 224.922C137.979 224.156 139.349 223.102 140.125 221.758L136.188 222.172L135.984 221.156L140.531 220.859C140.698 220.406 140.807 219.896 140.859 219.328H136.656V218.328H142.094ZM138.5 226.219H147.672V231.078H138.5V226.219ZM146.469 230.078V227.219H139.703V230.078H146.469ZM143.438 217.656H144.609V220.906H146.5V217.391H147.672V225.578H146.5V221.938H144.609V225.469H143.438V217.656ZM157.766 219.875H156.156V226.602C156.969 226.549 157.651 226.49 158.203 226.422L158.281 227.328C156.099 227.661 153.359 227.828 150.062 227.828H149.719L149.594 226.781C149.958 226.781 150.583 226.776 151.469 226.766V219.875H150.031V218.844H157.766V219.875ZM152.672 226.742C153.438 226.727 154.203 226.703 154.969 226.672V219.875H152.672V226.742ZM157.281 222.625H160V217.375H161.219V231.266H160V223.641H157.281V222.625ZM170.453 219.422C170.453 220.182 170.708 220.914 171.219 221.617C171.729 222.32 172.38 222.919 173.172 223.414C173.969 223.904 174.776 224.224 175.594 224.375L175.031 225.406C174.318 225.24 173.617 224.969 172.93 224.594C172.247 224.219 171.633 223.755 171.086 223.203C170.539 222.651 170.12 222.047 169.828 221.391C169.536 222.047 169.117 222.651 168.57 223.203C168.023 223.75 167.406 224.214 166.719 224.594C166.036 224.969 165.339 225.24 164.625 225.406L164.062 224.375C164.88 224.219 165.682 223.896 166.469 223.406C167.26 222.917 167.909 222.32 168.414 221.617C168.919 220.914 169.172 220.182 169.172 219.422V218.359H170.453V219.422ZM163.531 228.359H176.25V229.375H163.531V228.359ZM194.094 229.453H181.375V228.438H187.062V225.031H188.266V228.438H194.094V229.453ZM181.875 224.172C182.698 224.031 183.505 223.727 184.297 223.258C185.094 222.789 185.745 222.214 186.25 221.531C186.76 220.849 187.016 220.135 187.016 219.391V218.328H188.297V219.391C188.297 220.13 188.552 220.841 189.062 221.523C189.578 222.206 190.237 222.784 191.039 223.258C191.841 223.727 192.651 224.031 193.469 224.172L192.922 225.188C192.203 225.036 191.497 224.784 190.805 224.43C190.112 224.07 189.49 223.625 188.938 223.094C188.385 222.557 187.964 221.966 187.672 221.32C187.375 221.966 186.951 222.555 186.398 223.086C185.852 223.617 185.232 224.065 184.539 224.43C183.846 224.789 183.141 225.042 182.422 225.188L181.875 224.172ZM207.906 225.375H195.203V224.359H200.922V222.219H202.125V224.359H207.906V225.375ZM195.969 221.984C196.797 221.87 197.591 221.633 198.352 221.273C199.112 220.914 199.727 220.469 200.195 219.938C200.669 219.406 200.906 218.844 200.906 218.25V217.594H202.141V218.25C202.141 218.844 202.378 219.406 202.852 219.938C203.326 220.469 203.943 220.914 204.703 221.273C205.469 221.633 206.266 221.87 207.094 221.984L206.594 222.969C205.88 222.844 205.19 222.641 204.523 222.359C203.857 222.073 203.26 221.719 202.734 221.297C202.214 220.87 201.812 220.398 201.531 219.883C201.25 220.404 200.846 220.878 200.32 221.305C199.794 221.727 199.195 222.078 198.523 222.359C197.857 222.641 197.161 222.844 196.438 222.969L195.969 221.984ZM196.609 226.734H206.297V231.266H205.062V227.719H196.609V226.734ZM224.5 231.297H223.266V217.375H224.5V231.297ZM213.562 223.297C213.562 222.328 213.714 221.479 214.016 220.75C214.318 220.016 214.737 219.451 215.273 219.055C215.81 218.654 216.422 218.453 217.109 218.453C217.797 218.453 218.409 218.654 218.945 219.055C219.482 219.451 219.901 220.016 220.203 220.75C220.505 221.479 220.656 222.328 220.656 223.297C220.656 224.266 220.505 225.117 220.203 225.852C219.901 226.581 219.482 227.143 218.945 227.539C218.409 227.93 217.797 228.125 217.109 228.125C216.422 228.125 215.81 227.93 215.273 227.539C214.737 227.143 214.318 226.581 214.016 225.852C213.714 225.117 213.562 224.266 213.562 223.297ZM214.75 223.297C214.75 224.042 214.849 224.698 215.047 225.266C215.245 225.828 215.523 226.263 215.883 226.57C216.242 226.878 216.651 227.031 217.109 227.031C217.573 227.031 217.982 226.878 218.336 226.57C218.695 226.263 218.974 225.828 219.172 225.266C219.37 224.698 219.469 224.042 219.469 223.297C219.469 222.552 219.37 221.898 219.172 221.336C218.974 220.768 218.695 220.328 218.336 220.016C217.982 219.703 217.573 219.547 217.109 219.547C216.651 219.547 216.242 219.703 215.883 220.016C215.523 220.328 215.245 220.768 215.047 221.336C214.849 221.904 214.75 222.557 214.75 223.297ZM231.422 218.281C232.141 218.286 232.781 218.427 233.344 218.703C233.911 218.974 234.354 219.357 234.672 219.852C234.995 220.346 235.156 220.911 235.156 221.547C235.156 222.12 235.023 222.638 234.758 223.102C234.497 223.56 234.13 223.932 233.656 224.219C233.188 224.505 232.646 224.685 232.031 224.758V227.125C233.594 227.047 234.958 226.917 236.125 226.734L236.219 227.641C235.24 227.823 234.224 227.958 233.172 228.047C232.12 228.135 231.146 228.19 230.25 228.211C229.354 228.232 228.312 228.245 227.125 228.25L226.953 227.219C228.589 227.219 229.87 227.203 230.797 227.172V224.758C230.177 224.685 229.63 224.505 229.156 224.219C228.688 223.927 228.323 223.552 228.062 223.094C227.802 222.635 227.672 222.12 227.672 221.547C227.672 220.911 227.831 220.349 228.148 219.859C228.466 219.365 228.909 218.979 229.477 218.703C230.049 218.427 230.698 218.286 231.422 218.281ZM228.875 221.547C228.875 221.969 228.982 222.346 229.195 222.68C229.414 223.013 229.716 223.273 230.102 223.461C230.492 223.643 230.932 223.734 231.422 223.734C231.906 223.734 232.341 223.643 232.727 223.461C233.112 223.273 233.411 223.013 233.625 222.68C233.844 222.346 233.953 221.969 233.953 221.547C233.953 221.12 233.844 220.74 233.625 220.406C233.411 220.073 233.112 219.815 232.727 219.633C232.341 219.451 231.906 219.359 231.422 219.359C230.932 219.359 230.492 219.451 230.102 219.633C229.716 219.815 229.414 220.073 229.195 220.406C228.982 220.74 228.875 221.12 228.875 221.547ZM237.047 217.375H238.266V231.297H237.047V217.375ZM256.594 231.266H255.422V223.984H253.375V230.547H252.25V217.688H253.375V222.969H255.422V217.375H256.594V231.266ZM245.234 219.078H250.438V220.094H246.453V226.781C247.479 226.776 248.349 226.747 249.062 226.695C249.776 226.638 250.5 226.536 251.234 226.391L251.344 227.422C250.562 227.583 249.792 227.69 249.031 227.742C248.271 227.794 247.302 227.823 246.125 227.828H245.234V219.078ZM266.859 219.875H258.578V218.875H262.109V217.312H263.328V218.875H266.859V219.875ZM259.375 223.109C259.375 222.604 259.513 222.164 259.789 221.789C260.065 221.409 260.456 221.117 260.961 220.914C261.466 220.706 262.052 220.599 262.719 220.594C263.38 220.599 263.961 220.706 264.461 220.914C264.966 221.117 265.357 221.409 265.633 221.789C265.914 222.164 266.057 222.604 266.062 223.109C266.057 223.604 265.914 224.042 265.633 224.422C265.357 224.797 264.966 225.089 264.461 225.297C263.956 225.505 263.375 225.609 262.719 225.609C262.057 225.609 261.471 225.505 260.961 225.297C260.456 225.089 260.065 224.797 259.789 224.422C259.513 224.042 259.375 223.604 259.375 223.109ZM260.312 226.828H269.406V231.266H268.188V227.828H260.312V226.828ZM260.547 223.109C260.547 223.411 260.635 223.677 260.812 223.906C260.99 224.135 261.24 224.312 261.562 224.438C261.891 224.562 262.268 224.625 262.695 224.625C263.128 224.625 263.51 224.565 263.844 224.445C264.177 224.32 264.435 224.143 264.617 223.914C264.805 223.685 264.901 223.417 264.906 223.109C264.901 222.797 264.807 222.523 264.625 222.289C264.443 222.055 264.185 221.872 263.852 221.742C263.523 221.612 263.146 221.547 262.719 221.547C262.286 221.547 261.904 221.612 261.57 221.742C261.242 221.872 260.99 222.055 260.812 222.289C260.635 222.523 260.547 222.797 260.547 223.109ZM268.188 217.375H269.406V221.234H271.5V222.266H269.406V226.062H268.188V217.375ZM276.516 220.141C276.521 220.656 276.638 221.161 276.867 221.656C277.096 222.151 277.427 222.596 277.859 222.992C278.292 223.383 278.797 223.688 279.375 223.906L278.734 224.844C278.078 224.589 277.51 224.227 277.031 223.758C276.557 223.289 276.193 222.75 275.938 222.141C275.677 222.823 275.299 223.438 274.805 223.984C274.31 224.531 273.729 224.948 273.062 225.234L272.391 224.281C272.984 224.026 273.503 223.672 273.945 223.219C274.393 222.766 274.737 222.271 274.977 221.734C275.216 221.193 275.339 220.661 275.344 220.141V218.25H276.516V220.141ZM274.922 228.766C274.917 228.245 275.099 227.799 275.469 227.43C275.844 227.055 276.383 226.771 277.086 226.578C277.789 226.38 278.62 226.281 279.578 226.281C280.531 226.281 281.357 226.38 282.055 226.578C282.758 226.771 283.299 227.055 283.68 227.43C284.06 227.799 284.25 228.245 284.25 228.766C284.25 229.281 284.06 229.724 283.68 230.094C283.299 230.464 282.758 230.745 282.055 230.938C281.357 231.135 280.531 231.234 279.578 231.234C278.62 231.234 277.789 231.135 277.086 230.938C276.383 230.745 275.844 230.464 275.469 230.094C275.099 229.724 274.917 229.281 274.922 228.766ZM276.141 228.766C276.135 229.078 276.268 229.349 276.539 229.578C276.815 229.802 277.208 229.974 277.719 230.094C278.234 230.219 278.841 230.281 279.539 230.281C280.247 230.281 280.862 230.221 281.383 230.102C281.904 229.982 282.307 229.807 282.594 229.578C282.88 229.349 283.026 229.078 283.031 228.766C283.026 228.448 282.883 228.174 282.602 227.945C282.32 227.711 281.919 227.531 281.398 227.406C280.883 227.281 280.276 227.219 279.578 227.219C278.87 227.219 278.255 227.281 277.734 227.406C277.219 227.531 276.823 227.711 276.547 227.945C276.271 228.174 276.135 228.448 276.141 228.766ZM280 217.656H281.156V221.125H283V217.391H284.172V225.969H283V222.141H281.156V225.531H280V217.656ZM287.062 225.688C287.078 222.854 287.828 220.359 289.312 218.203H290.5C290.146 218.724 289.812 219.398 289.5 220.227C289.188 221.049 288.935 221.943 288.742 222.906C288.549 223.865 288.453 224.792 288.453 225.688C288.453 226.583 288.549 227.513 288.742 228.477C288.935 229.435 289.188 230.328 289.5 231.156C289.812 231.984 290.146 232.661 290.5 233.188H289.312C288.578 232.12 288.021 230.966 287.641 229.727C287.26 228.487 287.068 227.141 287.062 225.688ZM303.531 231.266H302.359V223.984H300.312V230.547H299.188V217.688H300.312V222.969H302.359V217.375H303.531V231.266ZM292.172 219.078H297.375V220.094H293.391V226.781C294.417 226.776 295.286 226.747 296 226.695C296.714 226.638 297.438 226.536 298.172 226.391L298.281 227.422C297.5 227.583 296.729 227.69 295.969 227.742C295.208 227.794 294.24 227.823 293.062 227.828H292.172V219.078ZM313.797 219.875H305.516V218.875H309.047V217.312H310.266V218.875H313.797V219.875ZM306.312 223.109C306.312 222.604 306.451 222.164 306.727 221.789C307.003 221.409 307.393 221.117 307.898 220.914C308.404 220.706 308.99 220.599 309.656 220.594C310.318 220.599 310.898 220.706 311.398 220.914C311.904 221.117 312.294 221.409 312.57 221.789C312.852 222.164 312.995 222.604 313 223.109C312.995 223.604 312.852 224.042 312.57 224.422C312.294 224.797 311.904 225.089 311.398 225.297C310.893 225.505 310.312 225.609 309.656 225.609C308.995 225.609 308.409 225.505 307.898 225.297C307.393 225.089 307.003 224.797 306.727 224.422C306.451 224.042 306.312 223.604 306.312 223.109ZM307.25 226.828H316.344V231.266H315.125V227.828H307.25V226.828ZM307.484 223.109C307.484 223.411 307.573 223.677 307.75 223.906C307.927 224.135 308.177 224.312 308.5 224.438C308.828 224.562 309.206 224.625 309.633 224.625C310.065 224.625 310.448 224.565 310.781 224.445C311.115 224.32 311.372 224.143 311.555 223.914C311.742 223.685 311.839 223.417 311.844 223.109C311.839 222.797 311.745 222.523 311.562 222.289C311.38 222.055 311.122 221.872 310.789 221.742C310.461 221.612 310.083 221.547 309.656 221.547C309.224 221.547 308.841 221.612 308.508 221.742C308.18 221.872 307.927 222.055 307.75 222.289C307.573 222.523 307.484 222.797 307.484 223.109ZM315.125 217.375H316.344V221.234H318.438V222.266H316.344V226.062H315.125V217.375ZM330.766 227.938H329.531V226.5H326.656V225.609H329.531V217.391H330.766V227.938ZM319.234 223.828C321.094 223.818 322.74 223.789 324.172 223.742C325.604 223.69 326.974 223.583 328.281 223.422L328.359 224.312C327.229 224.49 325.958 224.622 324.547 224.711V227.453H323.312V224.773C322.375 224.81 321.073 224.828 319.406 224.828L319.234 223.828ZM320.359 220.375C320.359 219.896 320.503 219.474 320.789 219.109C321.076 218.74 321.479 218.456 322 218.258C322.521 218.055 323.12 217.953 323.797 217.953C324.469 217.953 325.065 218.055 325.586 218.258C326.107 218.456 326.51 218.74 326.797 219.109C327.089 219.474 327.234 219.896 327.234 220.375C327.234 220.865 327.089 221.292 326.797 221.656C326.51 222.016 326.107 222.294 325.586 222.492C325.07 222.685 324.474 222.781 323.797 222.781C323.115 222.781 322.513 222.685 321.992 222.492C321.471 222.294 321.068 222.016 320.781 221.656C320.5 221.292 320.359 220.865 320.359 220.375ZM321.234 226.906H322.469V229.938H331.109V230.969H321.234V226.906ZM321.531 220.375C321.526 220.672 321.617 220.935 321.805 221.164C321.992 221.388 322.258 221.562 322.602 221.688C322.951 221.812 323.349 221.875 323.797 221.875C324.234 221.875 324.622 221.812 324.961 221.688C325.305 221.562 325.573 221.388 325.766 221.164C325.964 220.935 326.062 220.672 326.062 220.375C326.062 220.083 325.964 219.826 325.766 219.602C325.573 219.372 325.305 219.195 324.961 219.07C324.622 218.945 324.234 218.885 323.797 218.891C323.349 218.885 322.953 218.945 322.609 219.07C322.266 219.195 321.997 219.372 321.805 219.602C321.617 219.826 321.526 220.083 321.531 220.375ZM337.281 220.141C337.286 220.656 337.404 221.161 337.633 221.656C337.862 222.151 338.193 222.596 338.625 222.992C339.057 223.383 339.562 223.688 340.141 223.906L339.5 224.844C338.844 224.589 338.276 224.227 337.797 223.758C337.323 223.289 336.958 222.75 336.703 222.141C336.443 222.823 336.065 223.438 335.57 223.984C335.076 224.531 334.495 224.948 333.828 225.234L333.156 224.281C333.75 224.026 334.268 223.672 334.711 223.219C335.159 222.766 335.503 222.271 335.742 221.734C335.982 221.193 336.104 220.661 336.109 220.141V218.25H337.281V220.141ZM335.688 228.766C335.682 228.245 335.865 227.799 336.234 227.43C336.609 227.055 337.148 226.771 337.852 226.578C338.555 226.38 339.385 226.281 340.344 226.281C341.297 226.281 342.122 226.38 342.82 226.578C343.523 226.771 344.065 227.055 344.445 227.43C344.826 227.799 345.016 228.245 345.016 228.766C345.016 229.281 344.826 229.724 344.445 230.094C344.065 230.464 343.523 230.745 342.82 230.938C342.122 231.135 341.297 231.234 340.344 231.234C339.385 231.234 338.555 231.135 337.852 230.938C337.148 230.745 336.609 230.464 336.234 230.094C335.865 229.724 335.682 229.281 335.688 228.766ZM336.906 228.766C336.901 229.078 337.034 229.349 337.305 229.578C337.581 229.802 337.974 229.974 338.484 230.094C339 230.219 339.607 230.281 340.305 230.281C341.013 230.281 341.628 230.221 342.148 230.102C342.669 229.982 343.073 229.807 343.359 229.578C343.646 229.349 343.792 229.078 343.797 228.766C343.792 228.448 343.648 228.174 343.367 227.945C343.086 227.711 342.685 227.531 342.164 227.406C341.648 227.281 341.042 227.219 340.344 227.219C339.635 227.219 339.021 227.281 338.5 227.406C337.984 227.531 337.589 227.711 337.312 227.945C337.036 228.174 336.901 228.448 336.906 228.766ZM340.766 217.656H341.922V221.125H343.766V217.391H344.938V225.969H343.766V222.141H341.922V225.531H340.766V217.656ZM350.438 225.688C350.432 227.141 350.24 228.487 349.859 229.727C349.479 230.966 348.922 232.12 348.188 233.188H347C347.354 232.661 347.688 231.984 348 231.156C348.312 230.328 348.565 229.435 348.758 228.477C348.951 227.513 349.047 226.583 349.047 225.688C349.047 224.792 348.951 223.865 348.758 222.906C348.565 221.943 348.312 221.049 348 220.227C347.688 219.398 347.354 218.724 347 218.203H348.188C349.672 220.359 350.422 222.854 350.438 225.688ZM92.2656 250.828H87.2344V244.703H92.0938V245.703H88.4688V249.828H92.2656V250.828ZM80.5625 254.469H86.2656V251.531H87.4688V254.469H93.2812V255.484H80.5625V254.469ZM81.6719 244.703H86.3906V245.719H82.8906V249.812C83.5312 249.807 84.1432 249.776 84.7266 249.719C85.3151 249.661 85.9115 249.562 86.5156 249.422L86.625 250.453C85.974 250.599 85.3438 250.698 84.7344 250.75C84.125 250.802 83.4557 250.828 82.7266 250.828H82.4375H81.6719V244.703ZM105.625 248.578H96.1094V243.891H97.3281V247.594H105.625V248.578ZM94.375 250.469H107.094V251.469H94.375V250.469ZM96.0312 252.891H97.25V255.906H105.703V256.922H96.0312V252.891ZM119.25 251.031H112.828V244.641H119.25V251.031ZM118.062 250.047V245.641H114.031V250.047H118.062ZM114.406 252.594H115.609V255.938H123.734V256.969H114.406V252.594ZM121.875 243.375H123.094V247.609H125.188V248.641H123.094V253.562H121.875V243.375ZM134.484 256.156C133.74 256.156 133.073 256.031 132.484 255.781C131.896 255.531 131.43 255.18 131.086 254.727C130.747 254.268 130.568 253.745 130.547 253.156H131.969C131.995 253.51 132.12 253.82 132.344 254.086C132.568 254.346 132.865 254.549 133.234 254.695C133.604 254.836 134.016 254.906 134.469 254.906C134.964 254.906 135.406 254.823 135.797 254.656C136.188 254.49 136.492 254.255 136.711 253.953C136.935 253.651 137.047 253.307 137.047 252.922C137.042 252.51 136.932 252.146 136.719 251.828C136.505 251.51 136.19 251.263 135.773 251.086C135.362 250.904 134.87 250.812 134.297 250.812H133.375V249.578H134.297C134.75 249.578 135.154 249.497 135.508 249.336C135.862 249.174 136.135 248.948 136.328 248.656C136.526 248.359 136.625 248.021 136.625 247.641C136.625 247.266 136.539 246.938 136.367 246.656C136.195 246.37 135.951 246.148 135.633 245.992C135.315 245.831 134.943 245.75 134.516 245.75C134.109 245.755 133.727 245.831 133.367 245.977C133.013 246.117 132.724 246.323 132.5 246.594C132.281 246.859 132.161 247.172 132.141 247.531H130.781C130.802 246.948 130.982 246.43 131.32 245.977C131.664 245.518 132.117 245.164 132.68 244.914C133.247 244.659 133.865 244.531 134.531 244.531C135.229 244.531 135.839 244.669 136.359 244.945C136.885 245.221 137.289 245.591 137.57 246.055C137.852 246.518 137.99 247.021 137.984 247.562C137.99 248.198 137.82 248.742 137.477 249.195C137.133 249.643 136.661 249.953 136.062 250.125V250.203C136.547 250.276 136.966 250.438 137.32 250.688C137.68 250.932 137.953 251.247 138.141 251.633C138.328 252.013 138.422 252.443 138.422 252.922C138.422 253.531 138.25 254.083 137.906 254.578C137.568 255.068 137.099 255.453 136.5 255.734C135.901 256.016 135.229 256.156 134.484 256.156ZM140.172 252.531L145.266 244.688H147V252.453H148.578V253.688H147V256H145.656V253.688H140.172V252.531ZM145.656 252.453V246.469H145.516L141.688 252.359V252.453H145.656ZM154.062 247.328C154.062 248.073 154.18 248.815 154.414 249.555C154.648 250.289 154.984 250.961 155.422 251.57C155.865 252.18 156.385 252.661 156.984 253.016L156.281 253.969C155.625 253.573 155.057 253.026 154.578 252.328C154.104 251.63 153.742 250.846 153.492 249.977C153.232 250.919 152.849 251.766 152.344 252.516C151.839 253.266 151.245 253.849 150.562 254.266L149.781 253.344C150.406 252.979 150.953 252.482 151.422 251.852C151.891 251.216 152.25 250.51 152.5 249.734C152.75 248.958 152.875 248.172 152.875 247.375V244.688H154.062V247.328ZM155.453 248.359H157.812V243.672H158.969V256.562H157.812V249.406H155.453V248.359ZM160.656 243.375H161.844V257.266H160.656V243.375ZM175.016 253.781H168.594V244.75H175.016V253.781ZM173.812 252.781V245.734H169.797V252.781H173.812ZM178 243.375H179.234V257.297H178V243.375ZM188.625 251.031H182.203V244.641H188.625V251.031ZM187.438 250.047V245.641H183.406V250.047H187.438ZM183.781 252.594H184.984V255.938H193.109V256.969H183.781V252.594ZM191.25 243.375H192.469V247.609H194.562V248.641H192.469V253.562H191.25V243.375ZM204.188 246.359C204.188 246.927 204.339 247.471 204.641 247.992C204.948 248.513 205.37 248.971 205.906 249.367C206.448 249.758 207.057 250.052 207.734 250.25L207.141 251.203C206.333 250.958 205.622 250.586 205.008 250.086C204.398 249.581 203.935 248.987 203.617 248.305C203.32 249.065 202.865 249.732 202.25 250.305C201.635 250.872 200.917 251.292 200.094 251.562L199.5 250.625C200.177 250.396 200.779 250.065 201.305 249.633C201.831 249.201 202.242 248.703 202.539 248.141C202.836 247.573 202.984 246.979 202.984 246.359V246.062H199.844V245.078H202.984V243.312H204.219V245.078H207.328V246.062H204.188V246.359ZM201.703 254.703C201.703 254.172 201.888 253.716 202.258 253.336C202.633 252.951 203.169 252.661 203.867 252.469C204.565 252.271 205.396 252.172 206.359 252.172C207.318 252.172 208.146 252.271 208.844 252.469C209.542 252.661 210.078 252.951 210.453 253.336C210.828 253.716 211.016 254.172 211.016 254.703C211.016 255.234 210.828 255.69 210.453 256.07C210.078 256.451 209.542 256.74 208.844 256.938C208.146 257.135 207.318 257.234 206.359 257.234C205.396 257.234 204.565 257.135 203.867 256.938C203.169 256.74 202.633 256.451 202.258 256.07C201.888 255.69 201.703 255.234 201.703 254.703ZM202.922 254.703C202.922 255.026 203.06 255.305 203.336 255.539C203.612 255.773 204.008 255.953 204.523 256.078C205.039 256.203 205.651 256.266 206.359 256.266C207.062 256.266 207.672 256.203 208.188 256.078C208.708 255.953 209.107 255.773 209.383 255.539C209.659 255.305 209.797 255.026 209.797 254.703C209.797 254.375 209.659 254.094 209.383 253.859C209.107 253.625 208.711 253.445 208.195 253.32C207.68 253.195 207.068 253.13 206.359 253.125C205.651 253.13 205.036 253.195 204.516 253.32C204 253.445 203.604 253.625 203.328 253.859C203.057 254.094 202.922 254.375 202.922 254.703ZM206.891 247.359H209.734V243.375H210.969V251.797H209.734V248.375H206.891V247.359ZM224.797 253.672H223.562V248.859H219.562V247.875H223.562V246.203H219.562V245.219H223.562V243.391H224.797V253.672ZM214.109 244.391H215.344V250.562C216.38 250.557 217.367 250.518 218.305 250.445C219.247 250.372 220.219 250.245 221.219 250.062L221.344 251.078C220.297 251.276 219.289 251.411 218.32 251.484C217.357 251.557 216.302 251.599 215.156 251.609H214.109V244.391ZM215.844 252.797H217.078V255.938H225.172V256.969H215.844V252.797ZM243 257.266H241.828V249.984H239.781V256.547H238.656V243.688H239.781V248.969H241.828V243.375H243V257.266ZM231.641 245.078H236.844V246.094H232.859V252.781C233.885 252.776 234.755 252.747 235.469 252.695C236.182 252.638 236.906 252.536 237.641 252.391L237.75 253.422C236.969 253.583 236.198 253.69 235.438 253.742C234.677 253.794 233.708 253.823 232.531 253.828H231.641V245.078ZM249.594 245.625C249.594 246.245 249.74 246.844 250.031 247.422C250.328 247.995 250.737 248.5 251.258 248.938C251.784 249.375 252.38 249.708 253.047 249.938L252.375 250.906C251.609 250.625 250.935 250.211 250.352 249.664C249.773 249.112 249.331 248.471 249.023 247.742C248.727 248.565 248.279 249.284 247.68 249.898C247.081 250.513 246.375 250.979 245.562 251.297L244.906 250.312C245.594 250.057 246.201 249.69 246.727 249.211C247.253 248.732 247.661 248.177 247.953 247.547C248.245 246.911 248.391 246.24 248.391 245.531V244.094H249.594V245.625ZM246.75 254.703C246.75 254.177 246.935 253.727 247.305 253.352C247.674 252.971 248.206 252.682 248.898 252.484C249.591 252.286 250.411 252.188 251.359 252.188C252.307 252.188 253.122 252.286 253.805 252.484C254.492 252.682 255.018 252.971 255.383 253.352C255.753 253.727 255.938 254.177 255.938 254.703C255.938 255.24 255.755 255.695 255.391 256.07C255.026 256.451 254.5 256.74 253.812 256.938C253.125 257.135 252.307 257.234 251.359 257.234C250.406 257.234 249.583 257.135 248.891 256.938C248.203 256.74 247.674 256.451 247.305 256.07C246.935 255.69 246.75 255.234 246.75 254.703ZM247.984 254.703C247.979 255.026 248.112 255.305 248.383 255.539C248.654 255.773 249.042 255.953 249.547 256.078C250.057 256.203 250.661 256.266 251.359 256.266C252.057 256.266 252.659 256.203 253.164 256.078C253.674 255.953 254.065 255.773 254.336 255.539C254.612 255.305 254.75 255.026 254.75 254.703C254.75 254.391 254.612 254.12 254.336 253.891C254.065 253.656 253.674 253.479 253.164 253.359C252.654 253.234 252.052 253.172 251.359 253.172C250.667 253.172 250.065 253.234 249.555 253.359C249.044 253.484 248.654 253.661 248.383 253.891C248.112 254.12 247.979 254.391 247.984 254.703ZM254.594 243.375H255.812V247H257.906V248.031H255.812V251.828H254.594V243.375Z" fill="#D9EBE7"/>
<path d="M88.7227 139.895C88.7135 142.118 89.0645 144.146 89.7754 145.979C90.4863 147.811 91.6393 149.237 93.2344 150.258L91.3477 152.965C89.3516 151.762 87.916 149.761 87.041 146.963C86.5762 148.43 85.9609 149.725 85.1953 150.846C84.4297 151.967 83.5 152.855 82.4062 153.512L80.2734 150.941C82.0143 149.866 83.2904 148.357 84.1016 146.416C84.9219 144.475 85.332 142.355 85.332 140.059V135.766H88.7227V139.895ZM90.6094 142.027H93.8359V133.988H97.0898V157.367H93.8359V144.871H90.6094V142.027ZM98.9766 133.633H102.312V158.516H98.9766V133.633ZM117.98 145.527H127.633V148.344H104.938V145.527H114.535V142.547H117.98V145.527ZM105.922 141.234C107.408 141.098 108.697 140.842 109.791 140.469C110.894 140.086 111.769 139.635 112.416 139.115C113.072 138.587 113.51 138.026 113.729 137.434H107.016V134.699H125.582V137.434H118.814C119.024 138.026 119.457 138.587 120.113 139.115C120.77 139.635 121.649 140.086 122.752 140.469C123.855 140.842 125.154 141.098 126.648 141.234L125.418 143.969C123.121 143.741 121.189 143.226 119.621 142.424C118.053 141.613 116.932 140.592 116.258 139.361C115.583 140.592 114.467 141.613 112.908 142.424C111.359 143.226 109.44 143.741 107.152 143.969L105.922 141.234ZM107.535 154.113C107.535 153.174 107.882 152.377 108.574 151.721C109.267 151.064 110.265 150.568 111.568 150.23C112.881 149.884 114.444 149.711 116.258 149.711C118.062 149.711 119.612 149.884 120.906 150.23C122.201 150.568 123.189 151.064 123.873 151.721C124.566 152.377 124.917 153.174 124.926 154.113C124.917 155.052 124.566 155.85 123.873 156.506C123.189 157.171 122.201 157.673 120.906 158.01C119.612 158.347 118.062 158.516 116.258 158.516C114.444 158.516 112.881 158.347 111.568 158.01C110.265 157.673 109.267 157.171 108.574 156.506C107.882 155.85 107.535 155.052 107.535 154.113ZM111.09 154.113C111.081 154.724 111.505 155.18 112.361 155.48C113.218 155.772 114.517 155.918 116.258 155.918C119.694 155.918 121.417 155.316 121.426 154.113C121.417 152.947 119.694 152.363 116.258 152.363C114.508 152.363 113.204 152.509 112.348 152.801C111.5 153.083 111.081 153.521 111.09 154.113ZM140.348 149.137C142.161 149.137 143.734 149.324 145.064 149.697C146.395 150.062 147.421 150.6 148.141 151.311C148.861 152.012 149.225 152.855 149.234 153.84C149.225 154.806 148.861 155.64 148.141 156.342C147.421 157.053 146.391 157.59 145.051 157.955C143.72 158.329 142.152 158.516 140.348 158.516C138.552 158.516 136.984 158.329 135.645 157.955C134.314 157.59 133.288 157.053 132.568 156.342C131.848 155.64 131.488 154.806 131.488 153.84C131.488 152.855 131.848 152.012 132.568 151.311C133.288 150.6 134.314 150.062 135.645 149.697C136.984 149.324 138.552 149.137 140.348 149.137ZM129.191 144.734H137.668V140.387H141.113V144.734H151.777V147.551H129.191V144.734ZM131.734 134.754H149.098V136.777V137.502C149.098 138.596 149.052 139.607 148.961 140.537C148.87 141.467 148.678 142.438 148.387 143.449L144.969 143.121C145.224 142.1 145.393 141.171 145.475 140.332C145.557 139.484 145.607 138.536 145.625 137.488H131.734V134.754ZM134.961 153.84C134.952 154.505 135.412 155.011 136.342 155.357C137.281 155.695 138.616 155.863 140.348 155.863C142.079 155.863 143.415 155.695 144.354 155.357C145.292 155.011 145.762 154.505 145.762 153.84C145.762 153.156 145.297 152.637 144.367 152.281C143.447 151.917 142.139 151.734 140.443 151.734C138.675 151.734 137.317 151.912 136.369 152.268C135.421 152.623 134.952 153.147 134.961 153.84ZM176.086 148.125H153.336V145.391H163.016V143.258H156.098V134.727H173.352V137.434H159.57V140.523H173.488V143.258H166.434V145.391H176.086V148.125ZM155.934 153.977C155.934 153.001 156.28 152.172 156.973 151.488C157.665 150.796 158.663 150.271 159.967 149.916C161.279 149.561 162.842 149.383 164.656 149.383C166.452 149.383 167.997 149.561 169.291 149.916C170.585 150.271 171.579 150.796 172.271 151.488C172.964 152.172 173.315 153.001 173.324 153.977C173.315 154.943 172.964 155.768 172.271 156.451C171.579 157.135 170.585 157.654 169.291 158.01C167.997 158.365 166.452 158.543 164.656 158.543C162.842 158.543 161.284 158.365 159.98 158.01C158.677 157.654 157.674 157.135 156.973 156.451C156.28 155.768 155.934 154.943 155.934 153.977ZM159.488 153.977C159.479 154.624 159.903 155.107 160.76 155.426C161.626 155.736 162.924 155.891 164.656 155.891C168.092 155.891 169.815 155.253 169.824 153.977C169.815 153.339 169.373 152.855 168.498 152.527C167.632 152.199 166.352 152.035 164.656 152.035C162.934 152.035 161.639 152.199 160.773 152.527C159.908 152.846 159.479 153.329 159.488 153.977ZM188.582 135.191C188.573 137.379 188.249 139.329 187.611 141.043C186.973 142.747 185.952 144.26 184.549 145.582C183.154 146.895 181.327 148.016 179.066 148.945L177.398 146.43C180.188 145.345 182.197 143.964 183.428 142.287L178.082 142.875L177.672 140.113L184.713 139.758C184.886 139.211 185.014 138.628 185.096 138.008H178.711V135.191H188.582ZM181.938 149.137H198.918V158.242H181.938V149.137ZM195.5 155.453V151.926H185.383V155.453H195.5ZM190.086 134.098H193.367V139.43H195.609V133.66H198.918V148.234H195.609V142.273H193.367V148.016H190.086V134.098ZM216.199 138.637H213.766V149.643C214.805 149.57 215.816 149.474 216.801 149.355L217.02 151.871C214.777 152.263 212.421 152.523 209.951 152.65C207.49 152.778 204.824 152.846 201.953 152.855L201.625 149.984L204.441 149.971V138.637H202.309V135.82H216.199V138.637ZM207.832 149.916C208.689 149.898 209.546 149.87 210.402 149.834V138.637H207.832V149.916ZM215.461 142.684H219.289V133.633H222.734V158.516H219.289V145.473H215.461V142.684ZM239.031 136.914C239.022 138.154 239.373 139.37 240.084 140.564C240.795 141.749 241.82 142.779 243.16 143.654C244.5 144.52 246.077 145.108 247.891 145.418L246.359 148.316C244.227 147.897 242.367 147.118 240.781 145.979C239.204 144.83 238.006 143.445 237.186 141.822C236.347 143.436 235.135 144.816 233.549 145.965C231.972 147.104 230.126 147.888 228.012 148.316L226.508 145.418C228.285 145.099 229.839 144.502 231.17 143.627C232.501 142.752 233.521 141.722 234.232 140.537C234.943 139.343 235.303 138.135 235.312 136.914V135.109H239.031V136.914ZM225.934 152.582H248.711V155.453H225.934V152.582ZM102.121 187.246H98.8125V180.629H96.8164V186.426H93.5625V172.098H96.8164V177.785H98.8125V171.633H102.121V187.246ZM80.6016 174.203H85.0039V171.852H88.4766V174.203H92.8242V176.91H80.6016V174.203ZM81.3672 182.078C81.3672 181.221 81.5951 180.465 82.0508 179.809C82.5156 179.152 83.1582 178.642 83.9785 178.277C84.7988 177.913 85.724 177.73 86.7539 177.73C87.8021 177.73 88.7363 177.913 89.5566 178.277C90.377 178.633 91.0195 179.143 91.4844 179.809C91.9583 180.465 92.1953 181.221 92.1953 182.078C92.1953 182.926 91.9583 183.678 91.4844 184.334C91.0195 184.981 90.377 185.487 89.5566 185.852C88.7363 186.216 87.8021 186.398 86.7539 186.398C85.724 186.398 84.7988 186.216 83.9785 185.852C83.1582 185.487 82.5156 184.981 82.0508 184.334C81.5951 183.678 81.3672 182.926 81.3672 182.078ZM84.4844 182.051C84.4844 182.625 84.6849 183.081 85.0859 183.418C85.487 183.746 86.0293 183.91 86.7129 183.91C87.4147 183.91 87.9753 183.751 88.3945 183.432C88.8229 183.104 89.0417 182.652 89.0508 182.078C89.0417 181.513 88.832 181.066 88.4219 180.738C88.0117 180.41 87.4694 180.246 86.7949 180.246C86.0931 180.246 85.5326 180.406 85.1133 180.725C84.694 181.035 84.4844 181.477 84.4844 182.051ZM85.0039 192.004C85.0039 191.056 85.3457 190.245 86.0293 189.57C86.722 188.887 87.7109 188.367 88.9961 188.012C90.2904 187.647 91.8307 187.465 93.6172 187.465C95.4036 187.465 96.9395 187.647 98.2246 188.012C99.5189 188.367 100.512 188.882 101.205 189.557C101.898 190.231 102.249 191.047 102.258 192.004C102.249 192.952 101.898 193.763 101.205 194.438C100.512 195.121 99.5189 195.636 98.2246 195.982C96.9395 196.338 95.4036 196.516 93.6172 196.516C91.8398 196.516 90.304 196.338 89.0098 195.982C87.7155 195.636 86.722 195.121 86.0293 194.438C85.3457 193.763 85.0039 192.952 85.0039 192.004ZM88.5039 192.004C88.4948 192.633 88.9186 193.107 89.7754 193.426C90.6413 193.736 91.9219 193.891 93.6172 193.891C97.026 193.891 98.7305 193.262 98.7305 192.004C98.7305 191.357 98.3112 190.878 97.4727 190.568C96.6432 190.249 95.3945 190.09 93.7266 190.09C91.9766 190.09 90.6641 190.245 89.7891 190.555C88.9232 190.865 88.4948 191.348 88.5039 192.004ZM127.633 186.781H104.938V183.965H114.508V181.859H107.836V172.234H111.281V174.504H121.262V172.234H124.734V181.859H118.008V183.965H127.633V186.781ZM107.453 188.477H124.871V196.516H121.398V191.238H107.453V188.477ZM121.262 179.125V177.074H111.281V179.125H121.262ZM150.055 196.516H146.527V171.633H150.055V196.516ZM129.219 189.461C131.342 188.458 133.092 187.342 134.469 186.111C135.854 184.881 136.911 183.518 137.641 182.023C138.379 180.52 138.844 178.833 139.035 176.965H130.559V174.23H142.59C142.581 176.892 142.221 179.312 141.51 181.49C140.799 183.669 139.591 185.669 137.887 187.492C136.191 189.315 133.913 190.901 131.051 192.25L129.219 189.461ZM166.488 172.754C166.488 173.665 166.812 174.559 167.459 175.434C168.115 176.299 169.081 177.056 170.357 177.703C171.633 178.35 173.16 178.788 174.938 179.016L173.625 181.695C171.547 181.404 169.742 180.834 168.211 179.986C166.68 179.139 165.504 178.086 164.684 176.828C163.872 178.086 162.701 179.139 161.17 179.986C159.639 180.834 157.839 181.404 155.77 181.695L154.457 179.016C156.225 178.788 157.743 178.35 159.01 177.703C160.286 177.056 161.252 176.295 161.908 175.42C162.564 174.545 162.897 173.656 162.906 172.754V171.934H166.488V172.754ZM153.336 183.008H176.031V185.77H166.379V188.23H173.27V196.516H169.797V190.965H155.852V188.23H162.934V185.77H153.336V183.008ZM186.695 177.266C186.686 178.788 186.9 180.264 187.338 181.695C187.775 183.117 188.436 184.393 189.32 185.523C190.204 186.654 191.289 187.529 192.574 188.148L190.469 190.938C189.174 190.29 188.067 189.388 187.146 188.23C186.226 187.064 185.501 185.706 184.973 184.156C184.408 185.824 183.637 187.283 182.662 188.531C181.687 189.771 180.516 190.728 179.148 191.402L176.988 188.586C178.346 187.966 179.49 187.068 180.42 185.893C181.35 184.708 182.042 183.372 182.498 181.887C182.963 180.392 183.195 178.852 183.195 177.266V173.547H186.695V177.266ZM193.668 171.633H197.168V181.23H200.832V184.184H197.168V196.516H193.668V171.633ZM229.023 185.004H225.523V171.633H229.023V185.004ZM208.57 178.578C208.57 177.43 208.867 176.409 209.459 175.516C210.051 174.613 210.863 173.911 211.893 173.41C212.932 172.909 214.094 172.663 215.379 172.672C216.655 172.663 217.808 172.909 218.838 173.41C219.877 173.911 220.693 174.613 221.285 175.516C221.887 176.409 222.188 177.43 222.188 178.578C222.188 179.69 221.887 180.688 221.285 181.572C220.693 182.456 219.877 183.149 218.838 183.65C217.808 184.152 216.655 184.402 215.379 184.402C214.094 184.402 212.932 184.152 211.893 183.65C210.863 183.149 210.051 182.456 209.459 181.572C208.867 180.688 208.57 179.69 208.57 178.578ZM211.988 178.578C211.979 179.18 212.116 179.704 212.398 180.15C212.69 180.597 213.091 180.939 213.602 181.176C214.121 181.413 214.714 181.531 215.379 181.531C216.026 181.531 216.6 181.413 217.102 181.176C217.612 180.939 218.013 180.597 218.305 180.15C218.596 179.704 218.742 179.18 218.742 178.578C218.742 177.967 218.596 177.434 218.305 176.979C218.013 176.523 217.612 176.176 217.102 175.939C216.6 175.693 216.026 175.57 215.379 175.57C214.714 175.57 214.121 175.693 213.602 175.939C213.091 176.176 212.69 176.523 212.398 176.979C212.116 177.434 211.979 177.967 211.988 178.578ZM212.371 186.098H215.816V188.422H225.551V186.098H229.023V196.242H212.371V186.098ZM225.551 193.426V191.129H215.816V193.426H225.551ZM255.082 188.148H245.402V196.516H241.957V188.148H232.387V185.359H255.082V188.148ZM233.508 181.176C235.121 180.975 236.52 180.602 237.705 180.055C238.899 179.508 239.829 178.852 240.494 178.086C241.169 177.32 241.57 176.518 241.697 175.68H234.438V172.945H253.059V175.68H245.799C245.917 176.518 246.309 177.32 246.975 178.086C247.64 178.852 248.57 179.508 249.764 180.055C250.958 180.602 252.375 180.975 254.016 181.176L252.758 183.91C250.607 183.618 248.757 183.04 247.207 182.174C245.667 181.299 244.514 180.21 243.748 178.906C242.973 180.21 241.82 181.299 240.289 182.174C238.758 183.04 236.926 183.618 234.793 183.91L233.508 181.176ZM264.543 176.062C264.543 177.493 264.93 178.806 265.705 180C266.489 181.185 267.669 182.078 269.246 182.68L267.387 185.332C266.348 184.94 265.454 184.393 264.707 183.691C263.96 182.99 263.358 182.165 262.902 181.217C262.428 182.338 261.79 183.318 260.988 184.156C260.195 184.995 259.238 185.651 258.117 186.125L256.23 183.445C257.352 182.953 258.281 182.311 259.02 181.518C259.758 180.725 260.296 179.863 260.633 178.934C260.979 177.995 261.152 177.038 261.152 176.062V173.137H264.543V176.062ZM260.852 191.867C260.852 190.91 261.198 190.081 261.891 189.379C262.592 188.677 263.59 188.144 264.885 187.779C266.188 187.406 267.715 187.219 269.465 187.219C271.206 187.219 272.723 187.406 274.018 187.779C275.321 188.144 276.324 188.677 277.025 189.379C277.736 190.081 278.096 190.91 278.105 191.867C278.096 192.815 277.736 193.64 277.025 194.342C276.324 195.044 275.321 195.581 274.018 195.955C272.723 196.329 271.206 196.516 269.465 196.516C267.715 196.516 266.188 196.329 264.885 195.955C263.59 195.581 262.592 195.044 261.891 194.342C261.198 193.64 260.852 192.815 260.852 191.867ZM264.352 191.867C264.342 192.533 264.78 193.038 265.664 193.385C266.548 193.722 267.815 193.891 269.465 193.891C271.105 193.891 272.368 193.722 273.252 193.385C274.136 193.038 274.578 192.533 274.578 191.867C274.578 191.193 274.136 190.682 273.252 190.336C272.368 189.99 271.105 189.816 269.465 189.816C267.815 189.816 266.548 189.99 265.664 190.336C264.78 190.682 264.342 191.193 264.352 191.867ZM269.328 172.098H272.582V177.73H274.66V171.66H277.969V186.863H274.66V180.547H272.582V186.098H269.328V172.098ZM310.016 193.617H287.238V190.746H296.836V185.66H289.645V173.465H307.473V185.66H300.309V190.746H310.016V193.617ZM304.027 182.926V176.254H293.09V182.926H304.027ZM326.148 175.789H321.158C321.213 176.701 321.468 177.571 321.924 178.4C322.38 179.23 323.045 179.968 323.92 180.615C324.795 181.262 325.857 181.759 327.105 182.105L325.355 184.812C323.97 184.411 322.776 183.81 321.773 183.008C320.771 182.197 319.978 181.235 319.395 180.123C318.82 181.335 318.014 182.383 316.975 183.268C315.945 184.152 314.71 184.812 313.27 185.25L311.52 182.516C312.796 182.151 313.876 181.622 314.76 180.93C315.653 180.237 316.332 179.449 316.797 178.564C317.262 177.68 317.521 176.755 317.576 175.789H312.477V173H326.148V175.789ZM315.621 186.18H319.066V188.504H328.801V186.18H332.273V196.242H315.621V186.18ZM328.801 193.453V191.211H319.066V193.453H328.801ZM328.773 171.633H332.273V185.141H328.773V171.633Z" fill="white"/>
<path d="M80.9961 116.439L85.2461 112.339C85.7054 111.88 86.0596 111.503 86.3086 111.21C86.5632 110.911 86.7568 110.618 86.8896 110.33C87.0225 110.037 87.0889 109.727 87.0889 109.4C87.0889 109.035 86.9976 108.714 86.8149 108.438C86.6379 108.161 86.3916 107.948 86.0762 107.798C85.7663 107.649 85.4176 107.574 85.0303 107.574C84.6208 107.574 84.2611 107.657 83.9512 107.823C83.6468 107.984 83.4116 108.213 83.2456 108.512C83.0851 108.811 83.0049 109.162 83.0049 109.566H80.9463C80.9463 108.819 81.1178 108.164 81.4609 107.599C81.8096 107.029 82.2938 106.589 82.9136 106.279C83.5389 105.969 84.25 105.814 85.0469 105.814C85.8548 105.814 86.5687 105.964 87.1885 106.263C87.8138 106.562 88.298 106.977 88.6411 107.508C88.9897 108.034 89.1641 108.631 89.1641 109.301C89.1585 109.766 89.0672 110.214 88.8901 110.646C88.7131 111.072 88.4087 111.548 87.9771 112.073C87.5454 112.599 86.9339 113.235 86.1426 113.982L84.001 116.107V116.19H89.3467V118H80.9961V116.439ZM95.5059 118.166C94.7145 118.166 94.0007 118.019 93.3643 117.726C92.7334 117.433 92.2326 117.026 91.8618 116.506C91.491 115.986 91.2946 115.399 91.2725 114.746H93.3809C93.403 115.062 93.5109 115.347 93.7046 115.601C93.8983 115.856 94.1528 116.058 94.4683 116.207C94.7837 116.351 95.1296 116.423 95.5059 116.423C95.9486 116.423 96.3442 116.323 96.6929 116.124C97.047 115.919 97.321 115.643 97.5146 115.294C97.7139 114.945 97.8135 114.552 97.8135 114.115C97.8135 113.661 97.7111 113.255 97.5063 112.895C97.3016 112.535 97.0166 112.256 96.6514 112.057C96.2861 111.857 95.8711 111.758 95.4062 111.758C94.46 111.758 93.807 112.101 93.4473 112.787H91.4385L92.1689 105.98H99.2744V107.79H93.9453L93.5801 110.978H93.6963C93.9342 110.706 94.2607 110.488 94.6758 110.322C95.0908 110.156 95.5391 110.07 96.0205 110.064C96.7565 110.064 97.4206 110.236 98.0127 110.579C98.6048 110.922 99.0669 111.398 99.3989 112.007C99.7365 112.61 99.9053 113.291 99.9053 114.049C99.9053 114.84 99.7199 115.549 99.3491 116.174C98.9784 116.799 98.4582 117.289 97.7886 117.643C97.119 117.992 96.3581 118.166 95.5059 118.166ZM102.661 118.133C102.429 118.133 102.213 118.075 102.014 117.958C101.814 117.842 101.657 117.685 101.541 117.485C101.424 117.286 101.366 117.07 101.366 116.838C101.366 116.611 101.424 116.401 101.541 116.207C101.657 116.008 101.814 115.85 102.014 115.734C102.213 115.618 102.429 115.56 102.661 115.56C102.888 115.56 103.098 115.618 103.292 115.734C103.491 115.85 103.649 116.008 103.765 116.207C103.881 116.401 103.939 116.611 103.939 116.838C103.939 117.07 103.881 117.286 103.765 117.485C103.649 117.685 103.491 117.842 103.292 117.958C103.098 118.075 102.888 118.133 102.661 118.133ZM109.916 118.166C108.953 118.166 108.126 117.925 107.434 117.444C106.742 116.957 106.214 116.251 105.849 115.327C105.483 114.403 105.301 113.291 105.301 111.99C105.301 110.695 105.483 109.586 105.849 108.662C106.219 107.732 106.751 107.026 107.442 106.545C108.134 106.058 108.959 105.814 109.916 105.814C110.873 105.814 111.698 106.058 112.39 106.545C113.081 107.026 113.61 107.732 113.975 108.662C114.346 109.586 114.531 110.695 114.531 111.99C114.531 113.291 114.346 114.406 113.975 115.335C113.61 116.26 113.081 116.962 112.39 117.444C111.703 117.925 110.879 118.166 109.916 118.166ZM107.476 111.99C107.476 113.412 107.689 114.494 108.115 115.236C108.546 115.977 109.147 116.351 109.916 116.356C110.42 116.351 110.854 116.185 111.219 115.858C111.584 115.532 111.864 115.042 112.058 114.389C112.257 113.736 112.356 112.937 112.356 111.99C112.356 111.049 112.257 110.253 112.058 109.6C111.864 108.941 111.584 108.446 111.219 108.114C110.854 107.782 110.42 107.613 109.916 107.607C109.412 107.613 108.978 107.782 108.613 108.114C108.248 108.446 107.965 108.941 107.766 109.6C107.572 110.253 107.476 111.049 107.476 111.99ZM121.222 118H119.047V108.089H118.98L116.175 109.882V107.906L119.146 105.98H121.222V118ZM124.808 118.133C124.575 118.133 124.359 118.075 124.16 117.958C123.961 117.842 123.803 117.685 123.687 117.485C123.571 117.286 123.513 117.07 123.513 116.838C123.513 116.611 123.571 116.401 123.687 116.207C123.803 116.008 123.961 115.85 124.16 115.734C124.359 115.618 124.575 115.56 124.808 115.56C125.035 115.56 125.245 115.618 125.438 115.734C125.638 115.85 125.795 116.008 125.912 116.207C126.028 116.401 126.086 116.611 126.086 116.838C126.086 117.07 126.028 117.286 125.912 117.485C125.795 117.685 125.638 117.842 125.438 117.958C125.245 118.075 125.035 118.133 124.808 118.133ZM131.515 118H129.34V108.089H129.273L126.468 109.882V107.906L129.439 105.98H131.515V118ZM138.803 118.166C137.956 118.166 137.198 118.022 136.528 117.734C135.859 117.447 135.333 117.043 134.951 116.522C134.569 116.002 134.37 115.41 134.354 114.746H136.528C136.545 115.062 136.656 115.341 136.86 115.584C137.065 115.828 137.336 116.016 137.674 116.149C138.011 116.276 138.388 116.34 138.803 116.34C139.24 116.34 139.63 116.265 139.973 116.116C140.322 115.966 140.593 115.756 140.787 115.485C140.98 115.214 141.077 114.901 141.077 114.547C141.077 114.187 140.978 113.869 140.778 113.592C140.579 113.31 140.291 113.089 139.915 112.928C139.539 112.768 139.096 112.688 138.587 112.688H137.508V111.027H138.587C139.007 111.027 139.381 110.955 139.708 110.812C140.04 110.662 140.294 110.455 140.471 110.189C140.654 109.918 140.745 109.611 140.745 109.268C140.745 108.936 140.665 108.642 140.504 108.388C140.349 108.128 140.125 107.928 139.832 107.79C139.544 107.646 139.207 107.574 138.819 107.574C138.443 107.574 138.092 107.643 137.765 107.782C137.444 107.915 137.184 108.105 136.985 108.354C136.791 108.604 136.689 108.891 136.678 109.218H134.603C134.619 108.559 134.816 107.973 135.192 107.458C135.568 106.938 136.075 106.534 136.711 106.246C137.347 105.958 138.056 105.814 138.836 105.814C139.627 105.814 140.327 105.964 140.936 106.263C141.545 106.556 142.015 106.957 142.347 107.466C142.679 107.975 142.842 108.537 142.837 109.151C142.842 109.594 142.754 109.995 142.571 110.355C142.389 110.709 142.131 111.005 141.799 111.243C141.467 111.481 141.083 111.647 140.646 111.741V111.841C141.204 111.913 141.683 112.076 142.082 112.331C142.48 112.585 142.782 112.912 142.986 113.31C143.191 113.708 143.291 114.16 143.285 114.663C143.291 115.333 143.1 115.933 142.712 116.464C142.331 116.996 141.797 117.413 141.11 117.718C140.43 118.017 139.66 118.166 138.803 118.166ZM145.576 113.418C145.576 110.485 146.406 107.834 148.066 105.466H150.059C149.666 106.03 149.292 106.752 148.938 107.632C148.589 108.507 148.307 109.453 148.091 110.471C147.875 111.484 147.768 112.466 147.768 113.418C147.768 114.37 147.875 115.355 148.091 116.373C148.307 117.391 148.589 118.338 148.938 119.212C149.292 120.092 149.666 120.817 150.059 121.387H148.066C147.258 120.225 146.641 118.985 146.215 117.668C145.789 116.351 145.576 114.934 145.576 113.418ZM163.622 113.235H161.763V112.621H158.957V111.492H161.763V104.486H163.622V113.235ZM151.021 109.898C152.925 109.898 154.666 109.876 156.243 109.832C157.825 109.788 159.333 109.694 160.767 109.55L160.866 110.712C159.51 110.895 158.121 111.019 156.699 111.085V113.252H154.873V111.16C154.004 111.182 153.058 111.193 152.034 111.193H151.221L151.021 109.898ZM152.084 106.977C152.084 106.528 152.239 106.135 152.549 105.798C152.864 105.455 153.307 105.189 153.877 105.001C154.452 104.813 155.117 104.719 155.869 104.719C156.605 104.719 157.255 104.813 157.82 105.001C158.39 105.189 158.833 105.455 159.148 105.798C159.463 106.135 159.621 106.528 159.621 106.977C159.621 107.436 159.463 107.834 159.148 108.172C158.833 108.509 158.393 108.77 157.828 108.952C157.264 109.129 156.611 109.218 155.869 109.218C155.111 109.218 154.447 109.129 153.877 108.952C153.307 108.77 152.864 108.509 152.549 108.172C152.239 107.834 152.084 107.436 152.084 106.977ZM153.213 113.7H163.622V117.07H155.089V118.033H164.021V119.345H153.279V115.858H161.796V114.962H153.213V113.7ZM153.844 106.977C153.833 107.286 154.004 107.533 154.358 107.715C154.718 107.898 155.208 107.989 155.828 107.989C156.464 107.989 156.968 107.901 157.338 107.724C157.709 107.541 157.895 107.292 157.895 106.977C157.895 106.667 157.715 106.418 157.355 106.229C156.995 106.041 156.511 105.947 155.902 105.947C155.26 105.947 154.754 106.039 154.383 106.221C154.018 106.404 153.838 106.656 153.844 106.977ZM170.196 113.418C170.196 114.934 169.983 116.351 169.557 117.668C169.131 118.985 168.514 120.225 167.706 121.387H165.714C166.107 120.817 166.478 120.092 166.826 119.212C167.18 118.338 167.465 117.391 167.681 116.373C167.897 115.355 168.005 114.37 168.005 113.418C168.005 112.466 167.897 111.484 167.681 110.471C167.465 109.453 167.18 108.507 166.826 107.632C166.478 106.752 166.107 106.03 165.714 105.466H167.706C169.366 107.834 170.196 110.485 170.196 113.418ZM172.458 114.379V113.053C173.002 112.458 173.682 112.152 174.481 112.152C175.161 112.152 175.875 112.322 176.623 112.645C177.371 112.968 178 113.155 178.493 113.155C179.088 113.155 179.853 112.781 180.448 112.152V113.461C179.887 114.073 179.207 114.379 178.408 114.379C177.694 114.379 176.98 114.209 176.249 113.869C175.535 113.546 174.906 113.376 174.379 113.376C173.784 113.376 173.07 113.75 172.458 114.379ZM190.782 118.166C189.819 118.166 188.992 117.925 188.3 117.444C187.609 116.957 187.08 116.251 186.715 115.327C186.35 114.403 186.167 113.291 186.167 111.99C186.167 110.695 186.35 109.586 186.715 108.662C187.086 107.732 187.617 107.026 188.309 106.545C189 106.058 189.825 105.814 190.782 105.814C191.74 105.814 192.564 106.058 193.256 106.545C193.948 107.026 194.476 107.732 194.841 108.662C195.212 109.586 195.397 110.695 195.397 111.99C195.397 113.291 195.212 114.406 194.841 115.335C194.476 116.26 193.948 116.962 193.256 117.444C192.57 117.925 191.745 118.166 190.782 118.166ZM188.342 111.99C188.342 113.412 188.555 114.494 188.981 115.236C189.413 115.977 190.013 116.351 190.782 116.356C191.286 116.351 191.72 116.185 192.085 115.858C192.451 115.532 192.73 115.042 192.924 114.389C193.123 113.736 193.223 112.937 193.223 111.99C193.223 111.049 193.123 110.253 192.924 109.6C192.73 108.941 192.451 108.446 192.085 108.114C191.72 107.782 191.286 107.613 190.782 107.607C190.279 107.613 189.844 107.782 189.479 108.114C189.114 108.446 188.832 108.941 188.632 109.6C188.439 110.253 188.342 111.049 188.342 111.99ZM202.088 118H199.913V108.089H199.847L197.041 109.882V107.906L200.013 105.98H202.088V118ZM205.674 118.133C205.441 118.133 205.226 118.075 205.026 117.958C204.827 117.842 204.669 117.685 204.553 117.485C204.437 117.286 204.379 117.07 204.379 116.838C204.379 116.611 204.437 116.401 204.553 116.207C204.669 116.008 204.827 115.85 205.026 115.734C205.226 115.618 205.441 115.56 205.674 115.56C205.901 115.56 206.111 115.618 206.305 115.734C206.504 115.85 206.662 116.008 206.778 116.207C206.894 116.401 206.952 116.611 206.952 116.838C206.952 117.07 206.894 117.286 206.778 117.485C206.662 117.685 206.504 117.842 206.305 117.958C206.111 118.075 205.901 118.133 205.674 118.133ZM208.978 116.439L213.228 112.339C213.687 111.88 214.041 111.503 214.29 111.21C214.545 110.911 214.738 110.618 214.871 110.33C215.004 110.037 215.07 109.727 215.07 109.4C215.07 109.035 214.979 108.714 214.796 108.438C214.619 108.161 214.373 107.948 214.058 107.798C213.748 107.649 213.399 107.574 213.012 107.574C212.602 107.574 212.243 107.657 211.933 107.823C211.628 107.984 211.393 108.213 211.227 108.512C211.067 108.811 210.986 109.162 210.986 109.566H208.928C208.928 108.819 209.099 108.164 209.442 107.599C209.791 107.029 210.275 106.589 210.895 106.279C211.52 105.969 212.231 105.814 213.028 105.814C213.836 105.814 214.55 105.964 215.17 106.263C215.795 106.562 216.279 106.977 216.623 107.508C216.971 108.034 217.146 108.631 217.146 109.301C217.14 109.766 217.049 110.214 216.872 110.646C216.694 111.072 216.39 111.548 215.958 112.073C215.527 112.599 214.915 113.235 214.124 113.982L211.982 116.107V116.19H217.328V118H208.978V116.439ZM223.653 118.166C222.69 118.166 221.863 117.925 221.171 117.444C220.48 116.957 219.951 116.251 219.586 115.327C219.221 114.403 219.038 113.291 219.038 111.99C219.038 110.695 219.221 109.586 219.586 108.662C219.957 107.732 220.488 107.026 221.18 106.545C221.871 106.058 222.696 105.814 223.653 105.814C224.611 105.814 225.435 106.058 226.127 106.545C226.819 107.026 227.347 107.732 227.712 108.662C228.083 109.586 228.269 110.695 228.269 111.99C228.269 113.291 228.083 114.406 227.712 115.335C227.347 116.26 226.819 116.962 226.127 117.444C225.441 117.925 224.616 118.166 223.653 118.166ZM221.213 111.99C221.213 113.412 221.426 114.494 221.852 115.236C222.284 115.977 222.884 116.351 223.653 116.356C224.157 116.351 224.591 116.185 224.957 115.858C225.322 115.532 225.601 115.042 225.795 114.389C225.994 113.736 226.094 112.937 226.094 111.99C226.094 111.049 225.994 110.253 225.795 109.6C225.601 108.941 225.322 108.446 224.957 108.114C224.591 107.782 224.157 107.613 223.653 107.607C223.15 107.613 222.715 107.782 222.35 108.114C221.985 108.446 221.703 108.941 221.503 109.6C221.31 110.253 221.213 111.049 221.213 111.99ZM230.477 113.418C230.477 110.485 231.307 107.834 232.967 105.466H234.959C234.566 106.03 234.193 106.752 233.838 107.632C233.49 108.507 233.208 109.453 232.992 110.471C232.776 111.484 232.668 112.466 232.668 113.418C232.668 114.37 232.776 115.355 232.992 116.373C233.208 117.391 233.49 118.338 233.838 119.212C234.193 120.092 234.566 120.817 234.959 121.387H232.967C232.159 120.225 231.542 118.985 231.116 117.668C230.69 116.351 230.477 114.934 230.477 113.418ZM248.522 113.235H246.663V112.621H243.857V111.492H246.663V104.486H248.522V113.235ZM235.922 109.898C237.826 109.898 239.566 109.876 241.143 109.832C242.726 109.788 244.234 109.694 245.667 109.55L245.767 110.712C244.411 110.895 243.022 111.019 241.6 111.085V113.252H239.773V111.16C238.905 111.182 237.958 111.193 236.935 111.193H236.121L235.922 109.898ZM236.984 106.977C236.984 106.528 237.139 106.135 237.449 105.798C237.765 105.455 238.207 105.189 238.777 105.001C239.353 104.813 240.017 104.719 240.77 104.719C241.506 104.719 242.156 104.813 242.72 105.001C243.29 105.189 243.733 105.455 244.048 105.798C244.364 106.135 244.521 106.528 244.521 106.977C244.521 107.436 244.364 107.834 244.048 108.172C243.733 108.509 243.293 108.77 242.729 108.952C242.164 109.129 241.511 109.218 240.77 109.218C240.011 109.218 239.347 109.129 238.777 108.952C238.207 108.77 237.765 108.509 237.449 108.172C237.139 107.834 236.984 107.436 236.984 106.977ZM238.113 113.7H248.522V117.07H239.989V118.033H248.921V119.345H238.18V115.858H246.696V114.962H238.113V113.7ZM238.744 106.977C238.733 107.286 238.905 107.533 239.259 107.715C239.618 107.898 240.108 107.989 240.728 107.989C241.364 107.989 241.868 107.901 242.239 107.724C242.61 107.541 242.795 107.292 242.795 106.977C242.795 106.667 242.615 106.418 242.255 106.229C241.896 106.041 241.411 105.947 240.803 105.947C240.161 105.947 239.654 106.039 239.284 106.221C238.918 106.404 238.739 106.656 238.744 106.977ZM255.097 113.418C255.097 114.934 254.884 116.351 254.458 117.668C254.031 118.985 253.414 120.225 252.606 121.387H250.614C251.007 120.817 251.378 120.092 251.727 119.212C252.081 118.338 252.366 117.391 252.582 116.373C252.797 115.355 252.905 114.37 252.905 113.418C252.905 112.466 252.797 111.484 252.582 110.471C252.366 109.453 252.081 108.507 251.727 107.632C251.378 106.752 251.007 106.03 250.614 105.466H252.606C254.267 107.834 255.097 110.485 255.097 113.418Z" fill="#D9EBE7"/>
<g clip-path="url(#clip0_582_547)">
<path d="M72.4171 110.954C67.2214 111.153 62.0226 110.704 56.9274 109.654C55.3035 109.319 55.9908 106.791 57.6124 107.125C62.4859 108.13 67.4486 108.522 72.4171 108.332C74.0753 108.268 74.0727 110.89 72.4171 110.954Z" fill="#E98375"/>
<path d="M76.0093 101.524C72.777 99.4682 69.5448 97.4125 66.3125 95.3567C65.7231 94.9818 65.4917 94.187 65.8504 93.5631C66.1944 92.9645 67.0206 92.716 67.613 93.0927C70.8453 95.1484 74.0775 97.2042 77.3097 99.2599C77.8992 99.6348 78.1305 100.43 77.7719 101.054C77.4279 101.652 76.6016 101.901 76.0093 101.524Z" fill="#E98375"/>
<path d="M81.8094 97.6184C79.749 95.3056 78.1903 92.6058 77.2024 89.6509C76.9852 89.001 77.4514 88.189 78.1022 88.0382C78.8168 87.8726 79.4544 88.258 79.687 88.9538C79.7942 89.2745 79.9072 89.593 80.0289 89.9083C80.0593 89.9872 80.0905 90.0656 80.1215 90.1442C80.2696 90.5195 80.0678 90.0284 80.1606 90.2409C80.2282 90.3957 80.2944 90.551 80.3641 90.7048C80.6516 91.3391 80.9703 91.9588 81.3186 92.5607C81.6563 93.1444 82.0219 93.7115 82.4136 94.2591C82.5115 94.396 82.6107 94.5321 82.7123 94.6661C82.6044 94.5238 82.7365 94.6952 82.7802 94.7507C82.8322 94.8168 82.8845 94.8826 82.9373 94.9481C83.1617 95.2263 83.3938 95.4977 83.6313 95.7644C84.0839 96.2724 84.1612 97.1234 83.6313 97.6184C83.1378 98.0794 82.2928 98.161 81.8094 97.6184Z" fill="#E98375"/>
</g>
<path d="M469.707 194.955H431.762V254.611H469.707V194.955Z" stroke="url(#paint1_linear_582_547)" stroke-width="1.04161" stroke-miterlimit="10" stroke-linecap="round"/>
<path d="M467.148 197.967H434.32V250.765H467.148V197.967Z" stroke="url(#paint2_linear_582_547)" stroke-width="1.04161" stroke-miterlimit="10" stroke-linecap="round"/>
<path d="M450.734 195.279V253.851" stroke="url(#paint3_linear_582_547)" stroke-width="1.04161" stroke-miterlimit="10" stroke-linecap="round"/>
<path d="M469.024 129.662H431.078V182.544H469.024V129.662Z" stroke="url(#paint4_linear_582_547)" stroke-width="1.04161" stroke-miterlimit="10" stroke-linecap="round"/>
<path d="M466.465 132.332H433.637V179.134H466.465V132.332Z" stroke="url(#paint5_linear_582_547)" stroke-width="1.04161" stroke-miterlimit="10" stroke-linecap="round"/>
<path d="M450.051 129.949V181.87" stroke="url(#paint6_linear_582_547)" stroke-width="1.04161" stroke-miterlimit="10" stroke-linecap="round"/>
<path d="M494.082 246.192H531.704V214.923C531.704 204.534 523.282 196.112 512.893 196.112C502.504 196.112 494.082 204.534 494.082 214.923V246.192Z" stroke="url(#paint7_linear_582_547)" stroke-width="1.04161" stroke-miterlimit="10" stroke-linecap="round"/>
<path d="M497.77 242.094H528.016V215.665C528.016 207.313 521.245 200.542 512.893 200.542C504.54 200.542 497.77 207.313 497.77 215.665V242.094Z" stroke="url(#paint8_linear_582_547)" stroke-width="1.04161" stroke-miterlimit="10" stroke-linecap="round"/>
<path d="M498.477 233.062H527.904" stroke="url(#paint9_linear_582_547)" stroke-width="1.04161" stroke-miterlimit="10" stroke-linecap="round"/>
<path d="M513.488 200.905V241.384" stroke="url(#paint10_linear_582_547)" stroke-width="1.04161" stroke-miterlimit="10" stroke-linecap="round"/>
<path d="M494.082 176.068H531.704V144.8C531.704 134.411 523.282 125.989 512.893 125.989C502.504 125.989 494.082 134.411 494.082 144.8V176.068Z" stroke="url(#paint11_linear_582_547)" stroke-width="1.04161" stroke-miterlimit="10" stroke-linecap="round"/>
<path d="M497.77 171.97H528.016V145.541C528.016 137.189 521.245 130.418 512.893 130.418C504.54 130.418 497.77 137.189 497.77 145.541V171.97Z" stroke="url(#paint12_linear_582_547)" stroke-width="1.04161" stroke-miterlimit="10" stroke-linecap="round"/>
<path d="M498.477 162.938H527.904" stroke="url(#paint13_linear_582_547)" stroke-width="1.04161" stroke-miterlimit="10" stroke-linecap="round"/>
<path d="M513.488 130.781V171.261" stroke="url(#paint14_linear_582_547)" stroke-width="1.04161" stroke-miterlimit="10" stroke-linecap="round"/>
<path d="M477.598 208.116H489.209" stroke="url(#paint15_linear_582_547)" stroke-width="1.04161" stroke-miterlimit="10" stroke-linecap="round"/>
<path d="M424.707 121.2H436.318" stroke="url(#paint16_linear_582_547)" stroke-width="1.04161" stroke-miterlimit="10" stroke-linecap="round"/>
<path d="M481.297 152.268H492.908" stroke="url(#paint17_linear_582_547)" stroke-width="1.04161" stroke-miterlimit="10" stroke-linecap="round"/>
<path d="M542.891 58.2279L578.538 90.4054" stroke="url(#paint18_linear_582_547)" stroke-width="1.04161" stroke-miterlimit="10" stroke-linecap="round"/>
<path d="M532.164 80.4192L567.811 112.597" stroke="url(#paint19_linear_582_547)" stroke-width="1.04161" stroke-miterlimit="10" stroke-linecap="round"/>
<path d="M586.164 136.267H614.074" stroke="url(#paint20_linear_582_547)" stroke-width="1.04161" stroke-miterlimit="10" stroke-linecap="round"/>
<path d="M543.629 226.882H571.539" stroke="url(#paint21_linear_582_547)" stroke-width="1.04161" stroke-miterlimit="10" stroke-linecap="round"/>
<path d="M552.613 175.854H577.024V138.161C577.024 131.421 571.559 125.956 564.819 125.956C558.078 125.956 552.613 131.421 552.613 138.161V175.854Z" stroke="url(#paint22_linear_582_547)" stroke-width="1.04161" stroke-miterlimit="10" stroke-linecap="round"/>
<path d="M555.504 171.689H574.132V140.649C574.132 135.505 569.962 131.335 564.818 131.335C559.674 131.335 555.504 135.505 555.504 140.649V171.689Z" stroke="url(#paint23_linear_582_547)" stroke-width="1.04161" stroke-miterlimit="10" stroke-linecap="round"/>
<path d="M564.82 131.312V170.97" stroke="url(#paint24_linear_582_547)" stroke-width="1.04161" stroke-miterlimit="10" stroke-linecap="round"/>
<path d="M555.672 162.181H573.909" stroke="url(#paint25_linear_582_547)" stroke-width="1.04161" stroke-miterlimit="10" stroke-linecap="round"/>
<path d="M579.934 247.799H604.344V210.106C604.344 203.365 598.88 197.901 592.139 197.901C585.398 197.901 579.934 203.365 579.934 210.106V247.799Z" stroke="url(#paint26_linear_582_547)" stroke-width="1.04161" stroke-miterlimit="10" stroke-linecap="round"/>
<path d="M582.824 243.634H601.453V212.594C601.453 207.449 597.283 203.279 592.138 203.279C586.994 203.279 582.824 207.449 582.824 212.594V243.634Z" stroke="url(#paint27_linear_582_547)" stroke-width="1.04161" stroke-miterlimit="10" stroke-linecap="round"/>
<path d="M592.141 203.256V242.915" stroke="url(#paint28_linear_582_547)" stroke-width="1.04161" stroke-miterlimit="10" stroke-linecap="round"/>
<path d="M582.992 234.126H601.229" stroke="url(#paint29_linear_582_547)" stroke-width="1.04161" stroke-miterlimit="10" stroke-linecap="round"/>
<path d="M594.905 129.772H579.727" stroke="url(#paint30_linear_582_547)" stroke-width="1.04161" stroke-miterlimit="10" stroke-linecap="round"/>
<path d="M573.655 232.984H558.477" stroke="url(#paint31_linear_582_547)" stroke-width="1.04161" stroke-miterlimit="10" stroke-linecap="round"/>
<path d="M478.907 103.35C486.465 103.35 492.592 97.2234 492.592 89.6656C492.592 82.1078 486.465 75.981 478.907 75.981C471.349 75.981 465.223 82.1078 465.223 89.6656C465.223 97.2234 471.349 103.35 478.907 103.35Z" stroke="url(#paint32_linear_582_547)" stroke-width="1.04161" stroke-miterlimit="10" stroke-linecap="round"/>
<path d="M468.125 89.8379C468.125 95.7918 472.951 100.618 478.905 100.618C484.859 100.618 489.685 95.7918 489.685 89.8379C489.685 83.884 484.859 79.0578 478.905 79.0578C472.951 79.0578 468.125 83.8842 468.125 89.8379Z" stroke="url(#paint33_linear_582_547)" stroke-width="0.820547" stroke-miterlimit="10" stroke-linecap="round"/>
<path d="M484.712 85.1481L480.918 88.9426" stroke="url(#paint34_linear_582_547)" stroke-width="0.820547" stroke-miterlimit="10" stroke-linecap="round"/>
<path d="M522.962 138.879L519.168 142.673" stroke="url(#paint35_linear_582_547)" stroke-width="0.820547" stroke-miterlimit="10" stroke-linecap="round"/>
<path d="M571.834 138.879L568.039 142.673" stroke="url(#paint36_linear_582_547)" stroke-width="0.820547" stroke-miterlimit="10" stroke-linecap="round"/>
<path d="M599.154 211.734L595.359 215.529" stroke="url(#paint37_linear_582_547)" stroke-width="0.820547" stroke-miterlimit="10" stroke-linecap="round"/>
<path d="M523.873 210.824L520.078 214.618" stroke="url(#paint38_linear_582_547)" stroke-width="0.820547" stroke-miterlimit="10" stroke-linecap="round"/>
<path d="M415.602 191.129H614.342" stroke="url(#paint39_linear_582_547)" stroke-width="2" stroke-miterlimit="10" stroke-linecap="round"/>
<path d="M415.602 182.658H614.342" stroke="url(#paint40_linear_582_547)" stroke-width="2" stroke-miterlimit="10" stroke-linecap="round"/>
<path d="M425.141 182.213V167.414C425.141 167.414 474.318 167.186 474.318 167.414V182.213" stroke="url(#paint41_linear_582_547)" stroke-width="2" stroke-miterlimit="10" stroke-linecap="round"/>
<path d="M415.109 113.781H543.062" stroke="url(#paint42_linear_582_547)" stroke-width="3" stroke-miterlimit="10" stroke-linecap="round"/>
<path d="M479.277 56.7486H551.399L614.566 113.325" stroke="url(#paint43_linear_582_547)" stroke-width="3" stroke-miterlimit="10" stroke-linecap="round"/>
<path d="M636.494 255.296H366.238V270.474H636.494V255.296Z" stroke="url(#paint44_linear_582_547)" stroke-width="2.5" stroke-miterlimit="10" stroke-linecap="round"/>
<path d="M542.658 255L415.109 254.781V113.325L478.412 57.5108C478.905 57.0757 479.646 57.0774 480.137 57.5145L542.876 113.325L542.658 255Z" stroke="url(#paint45_linear_582_547)" stroke-width="3" stroke-miterlimit="10" stroke-linecap="round"/>
<path d="M375.668 239.766H391.353C397.935 239.766 403.271 234.43 403.271 227.848L404.637 199.06C404.637 195.976 403.936 192.932 402.588 190.158C401.239 187.384 400.538 184.34 400.538 181.256L399.172 174.524C399.172 169.657 395.194 165.728 390.327 165.789L381.243 165.902C376.678 165.959 372.926 169.521 372.633 174.076L371.072 198.322C370.843 201.88 369.577 205.293 367.43 208.139C365.042 211.304 363.75 215.162 363.75 219.127V227.848C363.75 234.43 369.086 239.766 375.668 239.766Z" stroke="url(#paint46_linear_582_547)" stroke-width="2.5" stroke-miterlimit="10" stroke-linecap="round"/>
<path d="M386.004 254.943V219.083L394.535 210.552" stroke="url(#paint47_linear_582_547)" stroke-width="2" stroke-miterlimit="10" stroke-linecap="round"/>
<path d="M385.383 232.096L376.996 223.71" stroke="url(#paint48_linear_582_547)" stroke-width="2" stroke-miterlimit="10" stroke-linecap="round"/>
<path d="M614.566 113.325H543.062V254.994H614.566V113.325Z" stroke="url(#paint49_linear_582_547)" stroke-width="3" stroke-miterlimit="10" stroke-linecap="round"/>
<path d="M416.941 226.609H428.553" stroke="url(#paint50_linear_582_547)" stroke-width="1.04161" stroke-miterlimit="10" stroke-linecap="round"/>
<path d="M415.281 241.294H431.349" stroke="url(#paint51_linear_582_547)" stroke-width="1.00373" stroke-miterlimit="10" stroke-linecap="round"/>
<path d="M469.988 241.294H493.211" stroke="url(#paint52_linear_582_547)" stroke-width="1.04161" stroke-miterlimit="10" stroke-linecap="round"/>
<path d="M531.918 241.294H579.274" stroke="url(#paint53_linear_582_547)" stroke-width="1.04161" stroke-miterlimit="10" stroke-linecap="round"/>
<path d="M604.773 241.294H614.791" stroke="url(#paint54_linear_582_547)" stroke-width="1.04161" stroke-miterlimit="10" stroke-linecap="round"/>
<path d="M594.02 162.954H606.14" stroke="url(#paint55_linear_582_547)" stroke-width="1.04161" stroke-miterlimit="10" stroke-linecap="round"/>
<defs>
<linearGradient id="paint0_linear_582_547" x1="0" y1="165" x2="704" y2="165" gradientUnits="userSpaceOnUse">
<stop stop-color="#0054A7"/>
<stop offset="1" stop-color="#00A7EA"/>
</linearGradient>
<linearGradient id="paint1_linear_582_547" x1="459" y1="198" x2="440" y2="228.5" gradientUnits="userSpaceOnUse">
<stop stop-color="#0054A7"/>
<stop offset="1" stop-color="white"/>
</linearGradient>
<linearGradient id="paint2_linear_582_547" x1="462" y1="200" x2="438" y2="227" gradientUnits="userSpaceOnUse">
<stop stop-color="#0054A7"/>
<stop offset="1" stop-color="white"/>
</linearGradient>
<linearGradient id="paint3_linear_582_547" x1="451" y1="200" x2="451" y2="232" gradientUnits="userSpaceOnUse">
<stop stop-color="#0054A7"/>
<stop offset="1" stop-color="white"/>
</linearGradient>
<linearGradient id="paint4_linear_582_547" x1="434" y1="172.5" x2="428.5" y2="183" gradientUnits="userSpaceOnUse">
<stop stop-color="#0054A7"/>
<stop offset="1" stop-color="white"/>
</linearGradient>
<linearGradient id="paint5_linear_582_547" x1="450.051" y1="132.332" x2="450.051" y2="179.134" gradientUnits="userSpaceOnUse">
<stop stop-color="#0054A7"/>
<stop offset="1" stop-color="#0054A7"/>
</linearGradient>
<linearGradient id="paint6_linear_582_547" x1="450.551" y1="129.949" x2="450.551" y2="181.87" gradientUnits="userSpaceOnUse">
<stop stop-color="#0054A7"/>
<stop offset="1" stop-color="#0054A7"/>
</linearGradient>
<linearGradient id="paint7_linear_582_547" x1="512.893" y1="196.112" x2="512.893" y2="246.192" gradientUnits="userSpaceOnUse">
<stop stop-color="#0054A7"/>
<stop offset="1" stop-color="#0054A7"/>
</linearGradient>
<linearGradient id="paint8_linear_582_547" x1="512.893" y1="200.542" x2="512.893" y2="242.093" gradientUnits="userSpaceOnUse">
<stop stop-color="#0054A7"/>
<stop offset="1" stop-color="#0054A7"/>
</linearGradient>
<linearGradient id="paint9_linear_582_547" x1="513.19" y1="233.062" x2="513.19" y2="234.062" gradientUnits="userSpaceOnUse">
<stop stop-color="#0054A7"/>
<stop offset="1" stop-color="#0054A7"/>
</linearGradient>
<linearGradient id="paint10_linear_582_547" x1="513.988" y1="200.905" x2="513.988" y2="241.384" gradientUnits="userSpaceOnUse">
<stop stop-color="#0054A7"/>
<stop offset="1" stop-color="#0054A7"/>
</linearGradient>
<linearGradient id="paint11_linear_582_547" x1="512.893" y1="125.989" x2="512.893" y2="176.068" gradientUnits="userSpaceOnUse">
<stop stop-color="#0054A7"/>
<stop offset="1" stop-color="#0054A7"/>
</linearGradient>
<linearGradient id="paint12_linear_582_547" x1="512.893" y1="130.418" x2="512.893" y2="171.97" gradientUnits="userSpaceOnUse">
<stop stop-color="#0054A7"/>
<stop offset="1" stop-color="#0054A7"/>
</linearGradient>
<linearGradient id="paint13_linear_582_547" x1="513.19" y1="162.938" x2="513.19" y2="163.938" gradientUnits="userSpaceOnUse">
<stop stop-color="#0054A7"/>
<stop offset="1" stop-color="#0054A7"/>
</linearGradient>
<linearGradient id="paint14_linear_582_547" x1="513.988" y1="130.781" x2="513.988" y2="171.261" gradientUnits="userSpaceOnUse">
<stop stop-color="#0054A7"/>
<stop offset="1" stop-color="#0054A7"/>
</linearGradient>
<linearGradient id="paint15_linear_582_547" x1="483.403" y1="208.116" x2="483.403" y2="209.116" gradientUnits="userSpaceOnUse">
<stop stop-color="#0054A7"/>
<stop offset="1" stop-color="white"/>
</linearGradient>
<linearGradient id="paint16_linear_582_547" x1="430.513" y1="121.2" x2="425" y2="121" gradientUnits="userSpaceOnUse">
<stop stop-color="#0054A7"/>
<stop offset="1" stop-color="white"/>
</linearGradient>
<linearGradient id="paint17_linear_582_547" x1="487.102" y1="152.268" x2="487.102" y2="153.268" gradientUnits="userSpaceOnUse">
<stop stop-color="#0054A7"/>
<stop offset="1" stop-color="white"/>
</linearGradient>
<linearGradient id="paint18_linear_582_547" x1="560.714" y1="58.2279" x2="560.714" y2="90.4054" gradientUnits="userSpaceOnUse">
<stop stop-color="#0054A7"/>
<stop offset="1" stop-color="#0054A7"/>
</linearGradient>
<linearGradient id="paint19_linear_582_547" x1="549.988" y1="80.4192" x2="549.988" y2="112.597" gradientUnits="userSpaceOnUse">
<stop stop-color="#0054A7"/>
<stop offset="1" stop-color="#0054A7"/>
</linearGradient>
<linearGradient id="paint20_linear_582_547" x1="600.119" y1="136.267" x2="600.119" y2="137.267" gradientUnits="userSpaceOnUse">
<stop stop-color="#0054A7"/>
<stop offset="1" stop-color="white"/>
</linearGradient>
<linearGradient id="paint21_linear_582_547" x1="557.584" y1="226.882" x2="557.584" y2="227.882" gradientUnits="userSpaceOnUse">
<stop stop-color="#0054A7"/>
<stop offset="1" stop-color="white"/>
</linearGradient>
<linearGradient id="paint22_linear_582_547" x1="564.818" y1="125.956" x2="564.818" y2="175.854" gradientUnits="userSpaceOnUse">
<stop stop-color="#0054A7"/>
<stop offset="1" stop-color="#0054A7"/>
</linearGradient>
<linearGradient id="paint23_linear_582_547" x1="564.818" y1="131.335" x2="564.818" y2="171.689" gradientUnits="userSpaceOnUse">
<stop stop-color="#0054A7"/>
<stop offset="1" stop-color="#0054A7"/>
</linearGradient>
<linearGradient id="paint24_linear_582_547" x1="565.32" y1="131.312" x2="565.32" y2="170.97" gradientUnits="userSpaceOnUse">
<stop stop-color="#0054A7"/>
<stop offset="1" stop-color="#0054A7"/>
</linearGradient>
<linearGradient id="paint25_linear_582_547" x1="564.791" y1="162.181" x2="564.791" y2="163.181" gradientUnits="userSpaceOnUse">
<stop stop-color="#0054A7"/>
<stop offset="1" stop-color="#0054A7"/>
</linearGradient>
<linearGradient id="paint26_linear_582_547" x1="592.139" y1="197.901" x2="592.139" y2="247.799" gradientUnits="userSpaceOnUse">
<stop stop-color="#0054A7"/>
<stop offset="1" stop-color="#0054A7"/>
</linearGradient>
<linearGradient id="paint27_linear_582_547" x1="592.138" y1="203.279" x2="592.138" y2="243.634" gradientUnits="userSpaceOnUse">
<stop stop-color="#0054A7"/>
<stop offset="1" stop-color="#0054A7"/>
</linearGradient>
<linearGradient id="paint28_linear_582_547" x1="592.641" y1="203.256" x2="592.641" y2="242.915" gradientUnits="userSpaceOnUse">
<stop stop-color="#0054A7"/>
<stop offset="1" stop-color="#0054A7"/>
</linearGradient>
<linearGradient id="paint29_linear_582_547" x1="592.111" y1="234.126" x2="592.111" y2="235.126" gradientUnits="userSpaceOnUse">
<stop stop-color="#0054A7"/>
<stop offset="1" stop-color="#0054A7"/>
</linearGradient>
<linearGradient id="paint30_linear_582_547" x1="587.316" y1="129.772" x2="587.316" y2="130.772" gradientUnits="userSpaceOnUse">
<stop stop-color="#0054A7"/>
<stop offset="1" stop-color="white"/>
</linearGradient>
<linearGradient id="paint31_linear_582_547" x1="566.066" y1="232.984" x2="566.066" y2="233.984" gradientUnits="userSpaceOnUse">
<stop stop-color="#0054A7"/>
<stop offset="1" stop-color="white"/>
</linearGradient>
<linearGradient id="paint32_linear_582_547" x1="478.907" y1="75.981" x2="478.907" y2="103.35" gradientUnits="userSpaceOnUse">
<stop stop-color="#0054A7"/>
<stop offset="1" stop-color="#0054A7"/>
</linearGradient>
<linearGradient id="paint33_linear_582_547" x1="478.905" y1="79.0578" x2="478.905" y2="100.618" gradientUnits="userSpaceOnUse">
<stop stop-color="#0054A7"/>
<stop offset="1" stop-color="#0054A7"/>
</linearGradient>
<linearGradient id="paint34_linear_582_547" x1="482.815" y1="85.1481" x2="482.815" y2="88.9426" gradientUnits="userSpaceOnUse">
<stop stop-color="#0054A7"/>
<stop offset="1" stop-color="#0054A7"/>
</linearGradient>
<linearGradient id="paint35_linear_582_547" x1="521.065" y1="138.879" x2="521.065" y2="142.673" gradientUnits="userSpaceOnUse">
<stop stop-color="#0054A7"/>
<stop offset="1" stop-color="#0054A7"/>
</linearGradient>
<linearGradient id="paint36_linear_582_547" x1="569.936" y1="138.879" x2="569.936" y2="142.673" gradientUnits="userSpaceOnUse">
<stop stop-color="#0054A7"/>
<stop offset="1" stop-color="#0054A7"/>
</linearGradient>
<linearGradient id="paint37_linear_582_547" x1="597.257" y1="211.734" x2="597.257" y2="215.529" gradientUnits="userSpaceOnUse">
<stop stop-color="#0054A7"/>
<stop offset="1" stop-color="white"/>
</linearGradient>
<linearGradient id="paint38_linear_582_547" x1="521.975" y1="210.824" x2="521.975" y2="214.618" gradientUnits="userSpaceOnUse">
<stop stop-color="#0054A7"/>
<stop offset="1" stop-color="white"/>
</linearGradient>
<linearGradient id="paint39_linear_582_547" x1="464.5" y1="190" x2="419" y2="190.5" gradientUnits="userSpaceOnUse">
<stop stop-color="#0054A7"/>
<stop offset="1" stop-color="white"/>
</linearGradient>
<linearGradient id="paint40_linear_582_547" x1="452.5" y1="183" x2="425" y2="183" gradientUnits="userSpaceOnUse">
<stop stop-color="#0054A7"/>
<stop offset="1" stop-color="white"/>
</linearGradient>
<linearGradient id="paint41_linear_582_547" x1="431.5" y1="167" x2="425" y2="170.5" gradientUnits="userSpaceOnUse">
<stop stop-color="#0054A7"/>
<stop offset="1" stop-color="white"/>
</linearGradient>
<linearGradient id="paint42_linear_582_547" x1="435" y1="114" x2="417" y2="114" gradientUnits="userSpaceOnUse">
<stop stop-color="#0054A7"/>
<stop offset="1" stop-color="white"/>
</linearGradient>
<linearGradient id="paint43_linear_582_547" x1="546.922" y1="56.7486" x2="546.922" y2="113.325" gradientUnits="userSpaceOnUse">
<stop stop-color="#0054A7"/>
<stop offset="1" stop-color="#0054A7"/>
</linearGradient>
<linearGradient id="paint44_linear_582_547" x1="501.366" y1="255.296" x2="501.366" y2="270.474" gradientUnits="userSpaceOnUse">
<stop stop-color="white"/>
<stop offset="1" stop-color="white"/>
</linearGradient>
<linearGradient id="paint45_linear_582_547" x1="535.5" y1="198" x2="417.5" y2="251.5" gradientUnits="userSpaceOnUse">
<stop offset="0.12" stop-color="#0054A7"/>
<stop offset="0.295" stop-color="#0054A7"/>
<stop offset="0.475" stop-color="white"/>
<stop offset="1" stop-color="white"/>
</linearGradient>
<linearGradient id="paint46_linear_582_547" x1="384.193" y1="165.788" x2="384.193" y2="239.766" gradientUnits="userSpaceOnUse">
<stop stop-color="white"/>
<stop offset="1" stop-color="white"/>
</linearGradient>
<linearGradient id="paint47_linear_582_547" x1="390.269" y1="210.552" x2="390.269" y2="254.943" gradientUnits="userSpaceOnUse">
<stop stop-color="white"/>
<stop offset="1" stop-color="white"/>
</linearGradient>
<linearGradient id="paint48_linear_582_547" x1="381.189" y1="223.71" x2="381.189" y2="232.096" gradientUnits="userSpaceOnUse">
<stop stop-color="white"/>
<stop offset="1" stop-color="white"/>
</linearGradient>
<linearGradient id="paint49_linear_582_547" x1="596" y1="221" x2="615" y2="255" gradientUnits="userSpaceOnUse">
<stop stop-color="#0054A7"/>
<stop offset="1" stop-color="white"/>
</linearGradient>
<linearGradient id="paint50_linear_582_547" x1="422.747" y1="226.609" x2="422.747" y2="227.609" gradientUnits="userSpaceOnUse">
<stop stop-color="white"/>
<stop offset="1" stop-color="white"/>
</linearGradient>
<linearGradient id="paint51_linear_582_547" x1="423.315" y1="241.294" x2="423.315" y2="242.294" gradientUnits="userSpaceOnUse">
<stop stop-color="white"/>
<stop offset="1" stop-color="white"/>
</linearGradient>
<linearGradient id="paint52_linear_582_547" x1="485.5" y1="240.5" x2="469.5" y2="242.5" gradientUnits="userSpaceOnUse">
<stop stop-color="#0054A7"/>
<stop offset="1" stop-color="white"/>
</linearGradient>
<linearGradient id="paint53_linear_582_547" x1="555.596" y1="241.294" x2="555.596" y2="242.294" gradientUnits="userSpaceOnUse">
<stop stop-color="#0054A7"/>
<stop offset="1" stop-color="white"/>
</linearGradient>
<linearGradient id="paint54_linear_582_547" x1="609.782" y1="241.294" x2="609.782" y2="242.294" gradientUnits="userSpaceOnUse">
<stop stop-color="#0054A7"/>
<stop offset="1" stop-color="white"/>
</linearGradient>
<linearGradient id="paint55_linear_582_547" x1="600.08" y1="162.954" x2="600.08" y2="163.954" gradientUnits="userSpaceOnUse">
<stop stop-color="#0054A7"/>
<stop offset="1" stop-color="white"/>
</linearGradient>
<clipPath id="clip0_582_547">
<rect width="28" height="23" fill="white" transform="matrix(1 0 0 -1 56 111)"/>
</clipPath>
</defs>
</svg>
