<svg width="25" height="25" viewBox="0 0 25 25" fill="none" xmlns="http://www.w3.org/2000/svg">
<path d="M18.2016 7.58778C16.5319 6.37868 14.5019 5.47656 12.3125 5.47656C6.61706 5.47656 2 11.5814 2 13.3141C2 14.4168 3.8703 17.2907 6.69855 19.2345" stroke="#515151" stroke-width="2.475" stroke-linejoin="round"/>
<path d="M21.0529 10.3047C22.0494 11.5462 22.6256 12.7039 22.6256 13.316C22.6256 15.0487 18.0085 21.1535 12.3131 21.1535C11.59 21.1535 10.8842 21.0551 10.2031 20.8797" stroke="#515151" stroke-width="2.475" stroke-linecap="round" stroke-linejoin="round"/>
<path d="M12.4491 8.98438C9.98332 8.98438 7.98438 10.9833 7.98438 13.4491C7.98438 14.8341 8.61493 16.0717 9.60462 16.8906L15.8705 10.5805C15.0515 9.60468 13.8228 8.98438 12.4491 8.98438Z" fill="#515151" stroke="#515151" stroke-width="2.475" stroke-linecap="round" stroke-linejoin="round"/>
<path d="M21.8 3.5C15.1051 12.0759 10.7597 16.3749 2 23.3" stroke="#515151" stroke-width="2.475" stroke-linecap="round" stroke-linejoin="round"/>
</svg>
