<svg width="25" height="25" viewBox="0 0 25 25" fill="none" xmlns="http://www.w3.org/2000/svg">
<path d="M12.4955 23.2176C19.3527 23.2176 23.2098 19.3605 23.2098 12.5033C23.2098 5.64621 19.3527 1.78906 12.4955 1.78906C5.63839 1.78906 1.78125 5.64621 1.78125 12.5033C1.78125 19.3605 5.63839 23.2176 12.4955 23.2176Z" stroke="#515151" stroke-width="3.09375" stroke-linecap="round" stroke-linejoin="round"/>
<path d="M12.4922 1.78906L12.4922 23.2176" stroke="#515151" stroke-width="3.09375" stroke-linecap="round" stroke-linejoin="round"/>
<path d="M4.04688 5.17969C6.23575 6.75395 7.40139 9.23861 7.40139 12.5101C7.40139 15.7815 6.23575 18.2662 4.04688 19.8405" stroke="#515151" stroke-width="3.09375" stroke-linecap="round" stroke-linejoin="round"/>
<path d="M20.9688 5.17969C18.7799 6.75395 17.6142 9.23861 17.6142 12.5101C17.6142 15.7815 18.7799 18.2662 20.9688 19.8405" stroke="#515151" stroke-width="3.09375" stroke-linecap="round" stroke-linejoin="round"/>
</svg>
