<svg width="25" height="25" viewBox="0 0 25 25" fill="none" xmlns="http://www.w3.org/2000/svg">
<path d="M3.12349 4.31673C2.17652 9.62167 1.92814 17.2029 2.4699 22.118C2.56534 22.9839 3.31177 23.6116 4.18291 23.6116H20.7662C21.6374 23.6116 22.3838 22.9839 22.4793 22.118C23.021 17.2029 22.7726 9.62167 21.8257 4.31673C21.5944 3.02095 20.5834 2.04012 19.2801 1.85561C17.4351 1.59441 14.8256 1.33594 12.4746 1.33594C10.1235 1.33594 7.51401 1.59441 5.66903 1.85561C4.36576 2.04012 3.35479 3.02095 3.12349 4.31673Z" stroke="#515151" stroke-width="2.67308" stroke-linecap="round" stroke-linejoin="round"/>
<path d="M15.1484 13.3672H16.9305" stroke="#515151" stroke-width="2.67308" stroke-linecap="round" stroke-linejoin="round"/>
<path d="M9.80469 20.4934V23.612H15.1508V20.4934C15.1508 19.0171 13.9541 17.8203 12.4778 17.8203C11.0015 17.8203 9.80469 19.0171 9.80469 20.4934Z" fill="white" stroke="#515151" stroke-width="2.67308" stroke-linecap="round" stroke-linejoin="round"/>
<path d="M8.01562 8.01562H9.79768" stroke="#515151" stroke-width="2.67308" stroke-linecap="round" stroke-linejoin="round"/>
<path d="M15.1484 8.01562H16.9305" stroke="#515151" stroke-width="2.67308" stroke-linecap="round" stroke-linejoin="round"/>
<path d="M8.01562 13.3672H9.79768" stroke="#515151" stroke-width="2.67308" stroke-linecap="round" stroke-linejoin="round"/>
</svg>
