<svg width="636" height="456" viewBox="0 0 636 456" fill="none" xmlns="http://www.w3.org/2000/svg">
<path d="M0 0H627C631.971 0 636 4.02944 636 9V447C636 451.971 631.971 456 627 456H0V0Z" fill="#009A57"/>
<path d="M440.052 265.294C432.377 272.089 429.349 282.768 431.602 292.675C433.961 303.031 442.127 311.298 452.364 313.994C464.016 317.059 476.629 312.4 483.596 302.591C491.635 291.272 489.509 276.265 480.276 266.379C469.268 255.467 451.687 254.984 440.048 265.294H440.052ZM461.106 263.742C461.136 265.078 461.166 266.409 461.191 267.744C463.105 268.121 464.927 269.041 466.375 270.517C468.26 272.441 465.651 275.786 463.741 273.84C461.399 271.449 457.502 270.873 454.965 273.374C452.707 275.595 452.39 279.207 454.215 281.776C456.507 284.993 459.742 284.536 463.186 284.917C466.35 285.265 469.065 287.003 470.594 289.818C473.804 295.719 469.535 302.883 463.643 304.922C463.275 305.049 462.902 305.16 462.529 305.244L462.597 308.407C462.623 309.556 462 310.624 460.763 310.781C459.713 310.912 458.417 310.094 458.391 308.945L458.315 305.444C454.067 304.859 450.251 301.955 448.582 297.771C447.566 295.231 451.492 293.637 452.504 296.168C455.037 302.51 464.236 303.15 466.947 296.541C468.412 292.976 466.346 289.551 462.58 289.114C459.272 288.728 456.464 288.957 453.559 286.982C448.51 283.552 447.311 276.596 450.878 271.657C452.386 269.567 454.592 268.261 456.964 267.769C456.939 266.608 456.913 265.446 456.888 264.285C456.862 263.136 457.485 262.068 458.722 261.911C459.772 261.779 461.068 262.598 461.094 263.746L461.106 263.742Z" fill="#9EC200"/>
<path d="M509.853 247.052C509.12 236.157 508.586 225.254 508.247 214.342C502.339 215.178 496.384 215.504 490.438 215.016C490.615 219.548 490.764 224.076 490.87 228.612C497.057 234.898 503.347 241.096 509.853 247.057V247.052Z" fill="#9EC200"/>
<path d="M416.352 338.344C420.973 337.628 424.852 334.991 429.181 333.418C437.457 330.417 446.699 330.815 454.733 334.351C459.845 333.016 465.097 331.964 470.328 331.273C475.44 330.599 480.607 331.443 485.631 332.354C490.832 333.3 496.151 334.44 501.467 333.902C505.478 333.495 509.26 332.193 512.865 330.48C512.805 330.112 512.881 329.696 513.144 329.26C514.178 327.526 513.707 325.622 513.669 323.702C513.644 322.261 513.784 320.87 514.351 319.581C513.28 304.511 512.691 289.394 512.31 274.298C512.28 273.136 512.924 272.102 514.144 271.924C519.476 271.157 524.8 270.321 530.107 269.406C524.707 265.73 519.557 261.699 514.597 257.447C503.377 247.832 492.877 237.344 482.64 226.696C472.929 216.589 463.589 206.131 454.589 195.389C450.074 201.625 445.458 207.784 440.718 213.851C431.438 225.725 421.718 237.264 411.587 248.422C403.086 257.786 394.179 266.892 384.234 274.73C389.732 275.273 395.238 275.731 400.753 276.104C401.617 276.163 402.515 277.07 402.553 277.931C403.429 297.402 403.802 316.894 403.679 336.386C407.703 338.183 411.888 339.035 416.347 338.34L416.352 338.344ZM441.281 259.032C454.373 250.529 472.026 252.08 483.089 263.234C483.153 263.301 483.212 263.369 483.267 263.437C483.335 263.492 483.403 263.556 483.466 263.624C495.283 276.045 496.135 295.948 484.153 308.581C474.614 318.636 459.701 321.917 446.876 316.58C435.818 311.976 428.037 301.471 426.796 289.551C425.543 277.503 431.116 265.637 441.286 259.032H441.281Z" fill="#9EC200"/>
<path d="M452.51 296.164C451.498 293.633 447.572 295.227 448.588 297.766C450.257 301.95 454.073 304.859 458.321 305.439L458.398 308.941C458.423 310.086 459.719 310.908 460.77 310.777C462.002 310.62 462.625 309.551 462.604 308.403L462.536 305.24C462.908 305.151 463.281 305.045 463.65 304.918C469.541 302.875 473.81 295.71 470.6 289.814C469.071 287.003 466.352 285.265 463.192 284.913C459.745 284.531 456.513 284.994 454.222 281.772C452.392 279.203 452.714 275.591 454.971 273.37C457.508 270.868 461.405 271.449 463.747 273.836C465.657 275.782 468.266 272.437 466.382 270.512C464.933 269.033 463.112 268.117 461.197 267.74C461.168 266.404 461.138 265.073 461.113 263.738C461.087 262.593 459.791 261.771 458.741 261.902C457.508 262.059 456.886 263.128 456.907 264.276C456.932 265.438 456.958 266.6 456.983 267.761C454.611 268.253 452.405 269.558 450.897 271.648C447.331 276.587 448.529 283.539 453.578 286.973C456.483 288.949 459.291 288.72 462.599 289.106C466.365 289.542 468.431 292.968 466.966 296.533C464.251 303.142 455.052 302.502 452.523 296.16L452.51 296.164Z" fill="white"/>
<path d="M446.876 316.576C459.701 321.917 474.614 318.632 484.152 308.576C496.134 295.943 495.283 276.04 483.466 263.619C483.402 263.551 483.335 263.492 483.267 263.433C483.212 263.365 483.153 263.297 483.089 263.229C472.026 252.076 454.373 250.524 441.281 259.028C431.112 265.633 425.538 277.498 426.792 289.546C428.033 301.463 435.817 311.972 446.872 316.576H446.876ZM440.049 265.294C451.687 254.988 469.269 255.471 480.277 266.379C489.51 276.261 491.636 291.268 483.597 302.591C476.63 312.4 464.017 317.059 452.365 313.994C442.128 311.302 433.958 303.031 431.603 292.675C429.35 282.768 432.378 272.093 440.053 265.294H440.049Z" fill="white"/>
<path d="M562.389 372.017C556.341 359.371 563.367 344.737 558.547 331.718C557.201 328.081 554.93 324.88 552.656 321.773C550.322 318.589 547.984 315.406 545.646 312.226C545.329 311.79 545.007 311.357 544.689 310.921C543.723 309.607 542.732 307.839 541.148 307.182C539.484 306.491 537.73 307.084 536.1 307.555C532.275 308.653 528.548 310.09 524.969 311.836C522.927 312.833 520.429 313.935 518.302 315.368C517.434 302.213 516.926 289.029 516.574 275.858C523.063 274.904 529.535 273.853 535.99 272.674C537.595 272.382 538.696 269.953 537.036 268.91C528.988 263.852 521.534 257.964 514.41 251.682C513.436 238.345 512.758 224.987 512.373 211.621C512.339 210.502 511.047 209.616 510.001 209.785C502.877 210.947 495.715 211.439 488.527 210.57C487.075 210.391 486.071 211.557 486.126 212.935C486.291 216.844 486.426 220.756 486.537 224.669C481.132 219.061 475.838 213.35 470.654 207.534C468.129 204.702 465.631 201.845 463.157 198.967C462.009 197.627 460.861 196.283 459.726 194.935C458.608 193.613 457.367 191.472 455.948 190.484C453.128 188.517 451.056 193.066 449.765 194.838C447.503 197.937 445.216 201.01 442.899 204.067C433.628 216.293 423.899 228.175 413.738 239.672C402.611 252.267 391.045 264.666 377.406 274.586C375.954 275.646 376.547 278.181 378.376 278.38C385.047 279.101 391.731 279.699 398.423 280.169C399.147 296.842 399.507 313.528 399.503 330.213C399.494 330.078 399.49 329.942 399.498 329.811C399.511 329.603 399.494 329.408 399.456 329.221C399.405 328.611 399.092 328.03 398.435 327.661C398.232 327.513 398.012 327.399 397.775 327.339C392.116 324.719 387.067 321.434 382.12 317.636C379.6 315.703 377.402 315.987 374.874 317.725C372.468 319.378 370.282 321.434 368.432 323.689C364.493 328.492 362.349 334.296 361.108 340.324C359.711 347.107 358.97 354.046 357.987 360.897C357.504 364.246 357.021 367.599 356.543 370.948C355.861 375.7 355.175 380.453 354.493 385.205C354.281 386.676 355.505 387.642 356.856 387.608C364.154 387.418 370.113 392.912 375.145 397.524C375.695 398.029 376.593 398.092 377.262 397.825C377.805 397.609 378.317 397.354 378.808 397.07C379.016 397.053 379.232 397.003 379.461 396.914C383.366 395.349 387.334 393.238 388.605 389.084C391.443 389.843 393.992 391.39 396.309 393.357C397.266 394.171 398.685 395.761 400.21 396.685C398.85 401.662 400.079 407.537 405.246 409.797C407.512 410.789 409.82 410.581 411.98 409.708C412.129 411.535 412.802 413.485 413.365 414.638C414.738 417.448 417.135 419.877 420.1 420.967C422.671 421.912 424.644 421.552 426.444 420.446C426.482 420.865 426.559 421.293 426.673 421.743C427.478 424.829 429.833 427.784 432.552 429.433C435.22 431.052 438.02 430.476 440.392 428.814C440.383 429.878 440.523 430.946 440.857 432.006C441.785 434.923 444.072 437.144 447.092 437.805C452.166 438.916 456.778 435.893 460.54 432.341C465.304 436.203 472.178 441.32 477.845 436.385C480.459 434.109 482.547 430.242 482.288 426.843C482.297 426.843 482.301 426.843 482.31 426.847C485.266 427.411 488.214 426.643 490.518 424.71C491.661 423.752 492.598 422.599 493.39 421.34C493.881 420.56 494.317 419.75 494.719 418.919C494.847 418.661 495.228 417.453 495.533 416.808C495.694 416.8 495.85 416.766 495.994 416.715C502.017 416.715 507.307 411.412 506.63 404.866C509.747 404.103 512.678 401.852 514.495 399.249C516.18 396.833 517.248 393.734 516.333 390.835C519.221 389.122 522.102 387.392 524.982 385.667C526.578 386.93 528.133 388.342 529.827 389.469C531.009 390.254 532.55 390.538 533.698 389.787C534.05 389.749 534.384 389.618 534.66 389.368C542.25 382.407 551.292 377.443 561.228 374.759C562.292 374.471 562.838 372.932 562.389 371.995V372.017ZM508.243 214.342C508.586 225.254 509.116 236.162 509.848 247.052C503.343 241.092 497.049 234.898 490.865 228.607C490.759 224.076 490.611 219.544 490.433 215.012C496.38 215.5 502.339 215.173 508.243 214.338V214.342ZM384.242 274.735C394.187 266.896 403.09 257.79 411.595 248.426C421.726 237.268 431.446 225.733 440.726 213.855C445.466 207.789 450.082 201.629 454.597 195.393C463.598 206.135 472.937 216.593 482.648 226.7C492.881 237.349 503.381 247.837 514.605 257.451C519.569 261.703 524.719 265.735 530.115 269.41C524.804 270.326 519.484 271.161 514.152 271.928C512.936 272.102 512.288 273.136 512.318 274.302C512.699 289.402 513.288 304.519 514.359 319.586C513.792 320.874 513.652 322.265 513.677 323.706C513.715 325.627 514.186 327.53 513.152 329.264C512.889 329.701 512.817 330.116 512.873 330.485C509.264 332.197 505.482 333.499 501.475 333.906C496.164 334.444 490.84 333.304 485.639 332.358C480.611 331.447 475.448 330.603 470.336 331.278C465.105 331.964 459.858 333.016 454.741 334.355C446.707 330.82 437.465 330.421 429.189 333.423C424.86 334.995 420.981 337.628 416.36 338.349C411.9 339.04 407.711 338.192 403.692 336.394C403.814 316.902 403.442 297.414 402.565 277.939C402.527 277.075 401.629 276.167 400.765 276.112C395.25 275.744 389.744 275.281 384.247 274.739L384.242 274.735ZM383.633 360.164C383.395 363.763 383.188 367.362 382.976 370.957C382.815 373.712 382.654 376.472 382.476 379.227C382.159 384.243 381.553 390.61 376.83 393.344C371.667 388.689 365.971 384.302 359.02 383.53C359.622 379.342 360.228 375.149 360.829 370.961C361.282 367.811 361.735 364.657 362.189 361.507C363.315 353.686 363.972 345.585 366.009 337.937C366.949 334.402 368.381 330.968 370.507 327.979C372.282 325.482 374.869 322.235 377.711 320.938C379.473 320.133 381.273 322.434 382.641 323.435C384.043 324.461 385.488 325.427 386.962 326.343C389.185 327.721 391.472 328.988 393.81 330.154C393.344 330.663 392.891 331.184 392.455 331.723C392.383 331.79 392.311 331.854 392.247 331.935C392.184 332.015 392.129 332.108 392.078 332.202C389.804 335.101 387.978 338.349 386.72 341.829C384.602 347.683 384.039 354.004 383.633 360.172V360.164ZM406.063 405.413C403.874 403.777 403.531 400.894 404.115 398.389C404.763 395.612 406.534 393.403 408.168 391.148C409.714 389.016 410.909 386.854 413.416 385.747C415.737 384.891 418.541 384.798 420.93 385.485C424 386.366 423.386 389.936 422.264 392.195C421.125 394.484 419.426 396.574 417.969 398.677C416.525 400.763 415.017 402.743 412.946 404.239C410.934 405.693 408.367 407.13 406.063 405.409V405.413ZM424.327 417.012C422.768 417.936 420.76 416.821 419.519 415.804C418.3 414.803 417.368 413.472 416.834 411.984C416.567 411.246 416.398 410.479 416.351 409.695C416.313 409.322 416.322 408.945 416.368 408.571C416.436 408.478 416.495 408.385 416.546 408.292C420.803 402.391 425.263 395.888 430.959 391.322C433.479 389.3 436.647 387.634 439.964 388.401C442.662 389.029 445.195 391.131 444.661 394.15C443.996 397.914 439.955 401.013 437.444 403.612C434.496 406.66 431.544 409.708 428.596 412.756C427.3 414.095 425.94 416.054 424.331 417.008L424.327 417.012ZM439.578 424.002C438.6 424.918 437.257 426.347 435.788 426.236C434.276 426.122 432.78 424.261 431.98 423.129C431.069 421.849 430.26 420.229 430.769 418.631C431.268 417.063 432.98 415.778 434.06 414.638C438.943 409.47 443.064 403.073 448.773 398.766C450.79 397.354 453.687 397.761 455.499 399.351C458.015 401.551 457.202 405.265 455.652 407.791C454.936 408.961 454.064 410.034 453.115 411.047C452.361 411.628 451.671 412.289 451.069 413.023C451.018 413.082 450.976 413.141 450.934 413.205C449.976 414.104 449.002 414.977 448.079 415.863C445.245 418.576 442.446 421.323 439.578 423.998V424.002ZM449.328 433.799C447.075 433.842 445.326 432.57 444.775 430.365C444.178 427.974 445.182 425.575 446.287 423.498C447.537 422.268 448.773 421.026 450.027 419.822C451.785 418.139 453.864 416.329 455.753 414.35C458.515 412.251 462.7 411.666 465.135 414.57C468.384 418.445 463.297 423.256 460.76 426.033C457.943 429.119 453.843 433.714 449.324 433.799H449.328ZM474.487 433.642C470.942 435.707 466.465 431.879 463.487 429.331C463.864 428.916 464.229 428.509 464.58 428.114C466.537 425.91 468.849 423.358 469.908 420.488C471.979 422.027 474.165 423.549 476.469 424.748C476.647 425.104 476.931 425.427 477.341 425.668C480.035 427.254 476.202 432.646 474.483 433.647L474.487 433.642ZM512.03 395.065C511.017 397.596 508.497 399.957 505.867 400.708C502.407 401.695 498.942 398.325 496.38 396.435C489.747 391.542 483.305 386.392 477.053 381.021C474.978 379.236 472.356 382.568 474.419 384.344C481.175 390.152 488.155 395.697 495.355 400.937C497.494 402.492 499.806 404.154 502.352 404.824C502.907 408.41 500.84 411.853 497.112 412.45C496.664 412.522 496.223 412.539 495.787 412.514C495.376 412.361 494.995 412.306 494.652 412.344C491.674 411.641 489.019 409.05 486.689 407.346C483.064 404.693 479.442 402.039 475.817 399.389C474.004 398.062 472.191 396.736 470.383 395.409C469.133 394.493 467.913 393.175 466.249 393.365C463.542 393.675 464.072 397.884 466.787 397.571C465.838 397.681 467.083 398.245 467.409 398.482C467.977 398.898 468.54 399.313 469.108 399.724C470.129 400.47 471.145 401.216 472.166 401.963C474.317 403.54 476.469 405.112 478.621 406.689C482.678 409.661 486.702 413.29 491.196 415.57C491.306 415.626 491.416 415.672 491.53 415.723C491.276 416.278 491.052 416.808 490.84 417.245C489.616 419.763 487.646 422.726 484.521 422.832C481.768 422.93 478.968 421.306 476.698 419.907C474.461 418.525 472.314 416.986 470.217 415.401C469.807 413.828 468.943 412.374 467.752 411.191C465.618 409.08 462.873 408.245 460.133 408.393C461.234 406.108 461.721 403.624 461.111 400.89C459.908 395.489 453.953 392.679 448.96 394.086C449.142 392.365 448.79 390.593 447.647 388.804C444.034 383.136 436.385 383.026 431.086 386.104C429.769 386.871 428.554 387.782 427.41 388.778C427.41 388.27 427.38 387.757 427.3 387.235C426.22 380.376 417.533 379.876 412.158 381.703C412.044 381.733 411.929 381.771 411.815 381.822C411.646 381.885 411.497 381.958 411.366 382.042C408.927 383.238 407.258 385.031 405.703 387.282C404.437 389.113 403.031 390.868 401.904 392.785C401.078 392.28 400.379 391.318 399.753 390.75C398.431 389.55 397.016 388.469 395.5 387.528C392.675 385.777 389.583 384.599 386.267 384.404C386.995 380.02 387.114 375.446 387.275 370.952C387.33 369.452 387.389 367.955 387.478 366.484C388.114 355.958 388.512 344.758 394.475 336.047C396.538 337.306 398.601 338.565 400.744 339.68C407.787 343.198 415.568 343.864 422.929 340.837C426.631 339.315 430.07 337.289 434.009 336.386C437.753 335.525 441.649 335.385 445.444 335.97C446.164 336.081 446.872 336.225 447.579 336.386C446.156 336.903 444.801 337.53 443.61 338.37C441.196 340.074 439.523 342.745 437.639 344.974C433.479 349.892 429.786 355.768 427.431 361.779C426.44 364.305 425.402 367.998 426.025 370.957C426.406 372.771 427.41 374.314 429.439 375.141C431.739 376.082 434.449 375.976 436.885 375.984C439.646 375.989 442.281 375.997 444.94 375.124C447.49 374.289 449.693 372.818 451.548 370.957C452.255 370.249 452.912 369.481 453.517 368.672C455.821 365.586 457.647 362.563 460.942 360.689C461.209 360.711 461.492 360.689 461.789 360.6C468.718 358.532 475.486 364.339 480.671 368.129C481.962 369.074 483.254 370.016 484.542 370.961C489.391 374.505 494.241 378.049 499.09 381.593C502.161 383.836 505.232 386.082 508.303 388.325C510.717 390.088 513.372 391.716 512.03 395.065ZM514.033 387.32C512.208 385.527 509.764 384.145 507.866 382.755C502.483 378.82 497.104 374.887 491.721 370.952C489.484 369.316 487.248 367.684 485.008 366.048C478.43 361.24 470.963 354.958 462.437 356.179C461.954 355.895 461.344 355.814 460.662 356.102C458.007 357.226 455.698 358.866 453.818 361.062C451.844 363.364 450.48 366.2 448.269 368.303C446.91 369.596 445.398 370.427 443.793 370.957C440.972 371.889 437.859 371.877 434.767 371.741C433.568 371.69 431.684 371.813 430.705 370.957C430.493 370.77 430.32 370.537 430.21 370.249C429.434 368.201 430.565 365.361 431.307 363.474C433.412 358.099 436.622 353.016 440.209 348.514C441.844 346.458 443.462 344.038 445.444 342.316C447.765 340.299 451.463 339.536 454.5 338.76C454.843 338.785 455.199 338.73 455.487 338.616C455.609 338.565 455.728 338.501 455.847 338.421C456.13 338.344 456.418 338.255 456.719 338.179C459.968 337.357 463.263 336.882 466.541 336.284C466.55 336.284 466.558 336.288 466.567 336.292C466.943 336.343 467.312 336.301 467.664 336.157C467.812 336.11 467.964 336.072 468.112 336.025C468.701 335.953 469.29 335.881 469.879 335.813C470.179 335.78 470.463 335.669 470.717 335.508C478.053 334.495 485.452 336.911 492.686 337.848C501.827 339.031 510.039 337.005 518.044 332.562C518.925 332.07 519.793 331.557 520.657 331.04C524.651 337.933 526.849 345.831 526.735 353.873C526.65 359.591 525.507 365.251 525.558 370.965C525.566 371.766 525.596 372.568 525.655 373.369C525.816 375.522 526.223 377.634 526.849 379.673C522.559 382.203 518.298 384.789 514.016 387.329L514.033 387.32ZM533.766 384.539C531.17 380.444 529.903 375.836 529.797 370.957C529.785 370.461 529.785 369.965 529.797 369.465C529.963 363.14 531.246 356.904 530.89 350.558C530.428 342.24 527.726 334.092 523.249 327.085C523.203 326.996 523.156 326.911 523.101 326.831C523.08 326.805 523.055 326.784 523.033 326.758C521.733 324.753 520.285 322.846 518.7 321.057C518.692 320.925 518.684 320.798 518.675 320.667C520.204 318.589 523.626 317.246 525.57 316.258C528.675 314.677 531.898 313.333 535.206 312.243C536.222 311.908 538.539 310.73 539.552 311.128C540.119 311.353 540.928 312.939 541.305 313.456C541.97 314.363 542.639 315.27 543.304 316.177C544.054 317.195 544.846 318.221 545.651 319.255C549.458 324.139 553.613 329.26 555.223 335.135C556.836 341.045 556.18 347.323 555.862 353.351C555.545 359.447 555.46 365.679 557.569 371.436C548.827 374.106 540.712 378.575 533.77 384.527L533.766 384.539Z" fill="white"/>
<path opacity="0.8" d="M612.959 165.824C613.295 163.147 613.035 160.444 612.206 157.876C612.194 157.84 612.181 157.807 612.165 157.774C611.92 155.077 611.034 152.441 609.456 150.138C611.639 145.825 613.603 140.549 611.151 135.959C610.166 134.115 608.483 132.689 606.442 132.175C604.107 131.587 601.541 132.192 599.385 133.147C595.024 135.074 591.532 138.884 589.222 142.992C589.044 143.309 588.875 143.631 588.716 143.956C588.637 144.116 588.549 144.283 588.485 144.45C588.51 144.447 588.535 144.444 588.559 144.441C588.598 144.433 588.621 144.431 588.632 144.434C587.856 144.874 587.021 145.184 586.258 145.666C585.462 146.167 584.707 146.738 584.001 147.361C582.653 148.551 581.494 149.968 580.578 151.515C578.774 154.558 577.934 158.134 578.249 161.656C572.652 164.698 567.057 167.741 561.46 170.783C558.639 172.317 555.818 173.85 552.997 175.385C551.586 176.152 550.176 176.918 548.765 177.686C547.604 178.317 546.23 178.881 545.326 179.881C544.234 181.089 543.853 182.929 543.319 184.428C542.702 186.163 542.084 187.899 541.466 189.637C541.289 190.13 541.772 190.507 542.195 190.544C546.091 190.882 549.908 191.907 553.452 193.555C553.983 193.801 554.507 193.473 554.542 192.897C554.673 190.776 554.95 188.676 555.363 186.593C557.758 186.659 560.149 186.795 562.538 187.004C562.944 187.04 563.242 186.611 563.25 186.253C563.269 185.296 563.287 184.341 563.305 183.385C563.313 182.955 563.322 182.525 563.329 182.095C563.334 181.775 563.259 181.188 563.493 180.929C563.898 180.483 565.148 180.867 565.62 180.984C566.529 181.209 567.363 181.592 568.156 182.088C568.652 182.399 569.235 181.958 569.246 181.43C569.28 179.801 569.313 177.606 571.009 176.77C571.752 176.403 572.296 176.639 572.94 177.056C573.598 177.483 574.203 177.779 575.008 177.635C575.785 177.497 576.528 177.084 577.24 176.756C578.09 176.366 578.932 175.956 579.767 175.535C580.296 175.267 580.823 174.995 581.348 174.72C578.24 179.55 575.135 184.38 572.029 189.21C570.265 191.952 568.5 194.696 566.737 197.438C565.867 198.789 564.998 200.14 564.129 201.491C563.37 202.67 562.361 203.9 562.068 205.303C561.741 206.862 562.274 208.612 562.523 210.154C562.816 211.973 563.107 213.792 563.401 215.611C563.485 216.13 564.106 216.196 564.48 216.031C568.062 214.449 571.91 213.521 575.815 213.26C576.402 213.222 576.658 212.65 576.423 212.15C575.521 210.232 574.759 208.256 574.12 206.237C576.201 205.167 578.311 204.158 580.452 203.217C580.898 203.021 581.111 202.594 580.871 202.136C580.428 201.289 579.983 200.441 579.54 199.594C579.318 199.171 579.097 198.748 578.876 198.324C578.712 198.009 578.378 197.567 578.598 197.211C578.928 196.678 580.088 196.465 580.649 196.331C581.49 196.13 582.345 196.085 583.205 196.135C583.794 196.169 584.045 195.471 583.813 195.024C583.085 193.625 582.12 191.799 583.031 190.258C583.419 189.606 583.951 189.353 584.693 189.397C585.414 189.442 586.111 189.539 586.761 189.15C587.459 188.735 587.925 187.978 588.401 187.343C588.967 186.587 589.518 185.818 590.055 185.041C591.138 183.478 592.172 181.882 593.189 180.275C597.589 180.798 602.149 179.597 605.84 177.162C609.77 174.569 612.371 170.511 612.958 165.819L612.959 165.824ZM598.422 135.28C601.713 133.338 606.568 132.211 609.254 135.702C612.258 139.607 610.444 144.811 608.467 148.846C608.024 148.328 607.55 147.841 607.051 147.39C608.713 144.736 609.555 140.901 607.866 138.132C606.254 135.488 602.911 135.33 600.288 136.401C596.801 137.822 594.067 141.101 592.392 144.386C590.614 147.873 589.77 152.516 591.818 156.094C592.095 156.577 592.433 157.007 592.82 157.366C593.581 158.124 594.548 158.612 595.714 158.518C597.312 158.388 599.044 157.493 600.265 156.341C600.272 156.334 600.281 156.325 600.288 156.318C600.304 156.304 600.318 156.289 600.333 156.276C600.632 156.69 600.864 157.139 601.034 157.61C599.718 159.111 597.873 160.197 595.853 160.32C593.701 160.452 591.883 159.338 590.667 157.613C589.451 155.887 588.701 153.745 588.544 151.641C588.448 150.359 588.562 149.081 588.857 147.832C588.997 147.241 589.172 146.656 589.384 146.086C589.436 145.945 589.51 145.803 589.548 145.659C589.523 145.663 589.497 145.667 589.471 145.671C589.431 145.683 589.408 145.686 589.395 145.683C589.628 145.55 589.732 145.354 589.746 145.153C589.829 144.992 589.914 144.832 589.993 144.672C591.822 140.916 594.809 137.411 598.422 135.28ZM592.898 154.357C593.895 153.942 594.982 153.787 596.041 153.889C596.055 153.891 596.071 153.892 596.086 153.894C596.146 153.9 596.206 153.907 596.266 153.916C596.313 153.923 596.358 153.928 596.404 153.936C596.429 153.939 596.453 153.944 596.478 153.949C597.499 154.121 598.479 154.542 599.317 155.206C599.318 155.206 599.321 155.208 599.322 155.21C598.586 155.906 597.668 156.45 596.739 156.789C596.561 156.853 596.379 156.914 596.192 156.963C596.131 156.978 596.07 156.993 596.008 157.005C594.315 157.351 593.232 155.884 592.679 154.456C592.749 154.423 592.821 154.391 592.893 154.362C592.893 154.362 592.896 154.361 592.898 154.36L592.898 154.357ZM605.906 146.451C602.756 144.104 598.794 142.954 594.842 143.082C596.143 141.118 597.832 139.344 599.834 138.228C601.677 137.201 604.494 136.555 606.144 138.276C608.192 140.41 607.305 144.057 605.906 146.451ZM601.165 161.285C600.696 163.026 599.476 164.619 597.787 165.318C595.716 166.174 592.98 165.793 591.229 164.391C589.402 162.929 588.824 160.52 589.41 158.361C590.784 160.311 592.791 161.709 595.257 161.793C597.511 161.869 599.727 160.886 601.378 159.36C601.405 160.004 601.336 160.655 601.165 161.285ZM578.524 174.529C577.659 174.959 576.789 175.376 575.907 175.768C575.483 175.956 574.886 176.31 574.409 176.206C574.047 176.128 573.686 175.789 573.382 175.598C572.008 174.736 570.383 175.14 569.276 176.258C568.223 177.321 567.931 178.789 567.834 180.24C567.076 179.876 566.275 179.603 565.447 179.449C564.572 179.287 563.522 179.133 562.735 179.658C561.845 180.25 561.885 181.327 561.868 182.278C561.848 183.347 561.828 184.416 561.806 185.485C559.459 185.292 557.107 185.165 554.753 185.112C554.442 185.104 554.126 185.367 554.062 185.668C553.634 187.703 553.338 189.76 553.165 191.83C549.974 190.465 546.624 189.58 543.175 189.185C543.6 187.991 544.025 186.796 544.45 185.602C544.709 184.871 544.97 184.14 545.229 183.409C545.473 182.722 545.675 181.978 546.055 181.349C546.759 180.187 548.251 179.631 549.393 179.01C550.804 178.243 552.214 177.477 553.625 176.709C559.096 173.735 564.568 170.76 570.039 167.787C573.159 166.09 576.28 164.394 579.4 162.697C579.611 162.581 579.783 162.295 579.755 162.051C579.355 158.632 580.096 155.195 581.856 152.234C582.713 150.791 583.795 149.494 585.052 148.384C585.692 147.82 586.381 147.315 587.105 146.865C587.298 146.745 587.497 146.636 587.697 146.533C587.289 147.858 587.06 149.249 587.048 150.637C587.03 152.72 587.533 154.85 588.457 156.733C587.261 159.307 587.526 162.308 589.335 164.558C591.176 166.846 594.541 167.659 597.328 167C602.25 165.835 604.476 159.375 601.471 155.362C601.337 155.181 601.194 155.009 601.044 154.846C600.962 154.653 600.811 154.492 600.632 154.41C600.609 154.388 600.586 154.366 600.561 154.344C600.538 154.324 600.515 154.304 600.492 154.287C600.326 154.144 600.155 154.01 599.979 153.884C599.953 153.865 599.926 153.846 599.9 153.828C599.862 153.802 599.825 153.775 599.786 153.748C598.951 153.175 598.011 152.784 597.029 152.579C597.021 152.577 597.012 152.575 597.004 152.573C596.921 152.555 596.838 152.54 596.755 152.525C596.659 152.509 596.565 152.493 596.469 152.48L596.466 152.479C595.098 152.29 593.681 152.46 592.371 152.999C592.367 153 592.364 153.002 592.361 153.003C592.315 153.022 592.268 153.04 592.223 153.059C591.749 150.564 592.412 147.741 593.43 145.59C593.585 145.26 593.754 144.932 593.931 144.605C598.451 144.224 603.073 145.583 606.382 148.767C608.976 151.262 610.487 154.588 610.769 158.123C610.768 158.126 610.77 158.131 610.77 158.134C610.782 158.291 610.793 158.449 610.8 158.606C610.882 160.823 610.513 163.045 609.734 165.112C608.397 168.583 605.897 171.555 602.641 173.289C602.589 173.315 602.537 173.343 602.484 173.369C602.463 173.381 602.441 173.39 602.419 173.401C599.651 174.764 596.475 175.211 593.307 174.811C590.748 174.487 588.213 173.661 586.039 172.255C586.026 172.248 586.013 172.238 586 172.229C585.873 172.146 585.748 172.061 585.623 171.975C585.592 171.953 585.561 171.932 585.53 171.909C585.391 171.81 585.251 171.709 585.116 171.605C584.845 171.397 584.537 171.33 584.228 171.503C583.66 171.819 583.09 172.134 582.518 172.444C582.515 172.446 582.512 172.448 582.509 172.45C581.192 173.166 579.868 173.865 578.526 174.531L578.524 174.529ZM609.855 170.827C607.826 174.549 604.08 177.056 600.076 178.231C597.787 178.904 595.361 179.144 592.996 178.786C592.66 178.734 592.367 178.844 592.183 179.138C590.984 181.041 589.761 182.932 588.47 184.773C587.871 185.625 587.269 186.481 586.614 187.29C586.354 187.612 586.095 187.946 585.661 187.994C585.264 188.038 584.852 187.936 584.454 187.925C582.875 187.881 581.696 189.15 581.328 190.605C580.973 192.009 581.411 193.391 582.005 194.67C581.29 194.709 580.578 194.821 579.886 195.017C578.982 195.271 577.826 195.649 577.311 196.504C576.725 197.478 577.294 198.452 577.757 199.335C578.251 200.28 578.745 201.224 579.241 202.169C577.086 203.133 574.958 204.149 572.861 205.239C572.578 205.386 572.448 205.776 572.538 206.073C573.137 208.057 573.864 209.993 574.705 211.885C571.251 212.22 567.886 213.063 564.674 214.376C564.471 213.117 564.27 211.859 564.067 210.601C563.833 209.147 563.382 207.569 563.437 206.093C563.489 204.68 564.674 203.345 565.406 202.208C566.249 200.897 567.091 199.588 567.935 198.278C571.306 193.038 574.676 187.798 578.046 182.56C579.941 179.613 581.837 176.665 583.733 173.718C583.791 173.629 583.821 173.511 583.827 173.393C584.069 173.26 584.31 173.127 584.551 172.992C584.56 172.998 584.569 173.004 584.58 173.011C584.684 173.085 584.787 173.156 584.893 173.227C584.922 173.246 584.95 173.267 584.98 173.286C585.26 173.473 585.545 173.652 585.836 173.823C585.839 173.823 585.842 173.825 585.844 173.827C587.964 175.073 590.344 175.885 592.781 176.225C592.787 176.227 592.791 176.228 592.797 176.228C592.934 176.246 593.07 176.263 593.208 176.281C595.526 176.56 597.891 176.425 600.134 175.849C602.133 175.337 603.969 174.403 605.573 173.163C606.187 172.701 606.769 172.189 607.315 171.625C608.254 170.655 609.063 169.584 609.741 168.439C609.77 168.392 609.798 168.343 609.825 168.295C609.857 168.24 609.889 168.184 609.921 168.129C610.253 167.545 610.552 166.941 610.815 166.323C611.141 165.551 611.416 164.759 611.634 163.955C611.579 166.34 611.008 168.704 609.852 170.826L609.855 170.827Z" fill="white"/>
</svg>
