<svg width="62" height="63" viewBox="0 0 62 63" fill="none" xmlns="http://www.w3.org/2000/svg">
<path d="M7.75093 11.2065C5.40245 24.3628 4.78647 43.1642 6.13003 55.3538C6.36673 57.5012 8.21788 59.0578 10.3783 59.0578H51.505C53.6654 59.0578 55.5165 57.5012 55.7532 55.3538C57.0968 43.1642 56.4808 24.3628 54.1323 11.2065C53.5587 7.99301 51.0515 5.56055 47.8194 5.10297C43.2438 4.4552 36.7722 3.81418 30.9416 3.81418C25.111 3.81418 18.6394 4.4552 14.0639 5.10297C10.8318 5.56055 8.32457 7.99301 7.75093 11.2065Z" stroke="#002916" stroke-width="3" stroke-linecap="round" stroke-linejoin="round"/>
<path d="M37.5625 33.6462H41.982" stroke="#002916" stroke-width="3" stroke-linecap="round" stroke-linejoin="round"/>
<path d="M24.3203 51.3241V59.0582H37.5788V51.3241C37.5788 47.6629 34.6108 44.6949 30.9495 44.6949C27.2883 44.6949 24.3203 47.6629 24.3203 51.3241Z" fill="#A5CB00" stroke="#002916" stroke-width="3" stroke-linecap="round" stroke-linejoin="round"/>
<path d="M19.8828 20.3872H24.3023" stroke="#002916" stroke-width="3" stroke-linecap="round" stroke-linejoin="round"/>
<path d="M37.5625 20.3872H41.982" stroke="#002916" stroke-width="3" stroke-linecap="round" stroke-linejoin="round"/>
<path d="M19.8828 33.6462H24.3023" stroke="#002916" stroke-width="3" stroke-linecap="round" stroke-linejoin="round"/>
</svg>
