<svg width="636" height="457" viewBox="0 0 636 457" fill="none" xmlns="http://www.w3.org/2000/svg">
<path d="M0 0H627C631.971 0 636 4.02944 636 9V447C636 451.971 631.971 456 627 456H0V0Z" fill="#009A57"/>
<g clip-path="url(#clip0_693_3072)">
<path d="M621.883 334.285C620.604 334.406 619.597 334.597 618.71 335.463C613.951 337.902 613.354 343.15 610.924 347.13C605.279 356.373 599.383 365.206 589.927 371.249C584.412 374.774 579.668 379.468 573.992 382.852C571.975 384.054 570.197 385.279 567.497 385.286C565.611 385.291 564.248 388.27 561.671 388.021C561.382 387.993 561.057 388.158 560.773 388.287C559.095 389.051 556.671 387.359 555.529 389.931C554.422 392.424 555.33 394.844 556.153 397.021C557.399 400.318 558.58 403.745 560.851 406.54C561.7 407.584 561.458 408.26 560.79 409.096C560.607 409.225 560.463 409.359 560.344 409.497C556.492 412.898 552.5 411.815 548.183 409.856C543.615 407.783 538.729 406.421 534.084 404.502C529.933 402.787 528.015 405.895 525.559 407.979C524.087 408.332 522.948 409.134 522.202 410.464C519.794 412.073 516.737 412.683 514.905 415.18C512.469 415.493 510.277 416.432 508.241 417.769C507.356 418.075 506.359 416.76 505.534 417.954C504.216 417.277 502.912 418.127 501.599 417.992C501.145 417.91 500.69 417.828 500.236 417.746C498.913 417.806 497.59 417.866 496.267 417.926C495.802 417.887 495.337 417.848 494.872 417.808C491.135 417.241 487.392 416.759 483.597 417.069C481.631 416.562 479.628 416.45 477.609 416.509C476.558 415.991 475.562 415.255 474.276 415.679C473.841 415.479 473.406 415.278 472.971 415.077C471.141 414.617 469.598 413.332 467.642 413.233C466.288 412.525 465.431 413.006 464.935 414.357C464.103 415.78 462.307 416.504 462.03 418.332C461.312 418.827 460.576 419.268 459.643 419.102C456.775 417.896 454.077 416.407 451.704 414.375C451.572 412.742 450.438 412.092 449.054 411.686C447.962 408.52 445.016 406.914 442.826 404.751C441.673 403.612 441.01 402.008 439.527 401.207C438.914 400.089 438.301 398.972 437.687 397.854C434.877 394.15 435.076 393.312 439.729 389.269L439.713 389.299C441.19 389.386 441.851 388.73 441.594 387.24C441.908 384.373 439.537 382.47 438.953 379.926C439.046 378.599 437.946 377.756 437.6 376.607L437.603 375.954L437.604 373.297C437.639 370.653 437.674 368.01 437.709 365.367C438.727 363.247 439.24 360.982 439.633 358.683C440.705 356.374 441.823 354.077 441.698 351.428C442.703 350.726 442.373 349.693 442.365 348.741C445.113 344.398 445.997 339.266 448.318 334.743C449.716 332.998 451.1 331.24 452.516 329.51C454.568 327.003 453.997 324.817 451.744 322.813C451.092 320.071 448.789 317.911 448.937 314.886C448.782 314.458 448.626 314.03 448.471 313.602C449.255 312.335 448.725 310.904 448.976 309.57C450.606 308.349 449.855 305.445 452.343 304.829C453.357 305.121 454.241 304.899 454.994 304.161C458.74 304.786 462.686 303.937 466.282 305.681C466.46 306.221 466.671 306.509 467.019 305.779C467.18 305.79 467.332 305.758 467.474 305.682C468.281 306.582 469.315 306.279 470.304 306.213C473.084 307.429 476.302 307.554 478.751 309.629C479.092 309.918 479.535 309.504 479.691 309.041C480.746 307.38 479.378 307.189 478.327 306.806C478.135 306.124 477.549 306.255 477.057 306.193C476.647 305.335 475.982 304.842 475.02 304.771C479.358 297.287 484.08 290.021 487.653 282.107C489.945 277.029 493.222 272.53 496.426 268.003C496.764 267.526 497.014 267.1 496.966 266.522C499.992 263.127 503.409 260.052 505.64 256.005C506.568 255.588 507.166 254.851 507.621 253.976C509.611 252.182 511.601 250.388 513.59 248.594C514.251 247.909 514.911 247.225 515.571 246.54C516.863 245.636 518.154 244.733 519.446 243.83C520.325 243.382 521.204 242.935 522.083 242.487C527.238 238.989 532.394 235.491 537.55 231.992C540.414 231.769 542.332 229.566 544.812 228.54C546.243 227.747 547.674 226.953 549.104 226.159C549.26 226.141 549.397 226.082 549.5 225.94C550.115 225.427 551.128 225.52 551.495 224.632C552.131 224.292 553.258 225.42 553.519 223.959C566.294 218.698 579.473 219.698 592.699 221.449C596.676 222.357 600.653 223.266 604.63 224.175C604.954 225.687 606.266 225.299 607.255 225.532C607.174 225.73 607.237 225.86 607.442 225.922C608.181 226.628 609.077 227.001 610.076 227.157C612.144 229.962 615.634 230.601 618.354 232.433C623.198 235.694 628.113 238.831 632.642 242.53C632.571 243.947 633.402 244.471 634.668 244.567C634.697 244.577 635.974 244.596 636 244.609V333.818C631.769 334.815 626.158 333.882 621.883 334.285Z" fill="#9EC200"/>
<path d="M488.582 247.198C485.961 251.156 481.763 252.561 476.691 251.156C474.017 250.415 471.172 245.805 470.957 241.864C470.44 240.192 470.183 238.555 471.592 237.141C471.546 236.147 472.068 235.537 472.939 235.165C473.876 233.925 473.996 231.812 476.302 232.037C480.268 228.852 483.134 229.189 486.338 233.216C487.392 233.807 488.222 234.569 488.357 235.858C489.335 236.272 488.744 237.201 489.015 237.847C488.987 237.936 488.954 238.013 488.919 238.083C488.957 238.022 488.991 237.949 489.015 237.847C489.976 238.329 489.516 239.145 489.492 239.859C489.495 240.754 489.499 241.649 489.503 242.545C489.835 244.221 489.531 245.763 488.582 247.198ZM486.244 239.503C486.079 239.492 485.916 239.459 485.755 239.398C484.731 238.28 484.223 237.053 484.742 235.609C484.708 235.616 484.683 235.629 484.647 235.634C482.041 234.914 479.725 235.802 477.45 236.915C477.295 236.885 477.152 236.831 477.021 236.758C477.211 237.89 476.836 238.692 475.777 239.092C475.794 239.124 475.815 239.15 475.832 239.182C475.858 239.81 475.636 240.259 475.087 240.473C475.965 241.566 475.961 243.019 476.622 244.217C478.539 247.697 482.074 247.919 484.402 244.684C485.267 243.482 485.262 242 485.923 240.751C486.077 240.593 486.221 240.495 486.358 240.442C486.32 240.129 486.282 239.816 486.244 239.503Z" fill="white"/>
<path d="M476.21 201.401C477.409 195.833 483.498 191.534 488.917 194.189C491.747 193.961 494.115 195.093 496.328 196.687C502.038 199.962 502.509 208.708 497.375 213.185C493.577 216.497 489.532 218.739 484.291 217.817C482.362 217.354 480.658 216.428 479.064 215.278C475.461 212.069 474.351 208.032 475.084 203.38C475.459 202.72 475.834 202.061 476.21 201.401ZM479.818 208.001C480.066 208.147 480.304 208.31 480.523 208.512C481.3 209.535 481.896 210.631 481.94 211.95C483.336 211.806 484.058 212.493 484.244 213.84C484.853 213.274 485.668 213.294 486.447 213.2C495.218 212.137 498.26 206.912 494.668 199.085C494.719 198.981 494.76 198.87 494.796 198.755C492.496 199.347 490.843 198.177 489.245 196.857C488.107 198.61 486.414 199.129 484.398 198.944C484.25 198.892 484.152 198.793 484.081 198.669C484.03 198.682 483.979 198.696 483.929 198.71C483.927 198.756 483.927 198.799 483.92 198.851C483.25 200.844 482.181 202.562 480.465 203.831C480.537 204.412 480.238 204.922 479.949 205.432C479.827 205.583 479.694 205.711 479.554 205.827C479.637 206.553 479.587 207.306 479.818 208.001Z" fill="white"/>
<path d="M436.904 386.694C437.328 385.497 436.112 384.583 436.336 383.421C436.125 382.934 435.913 382.447 435.702 381.96C434.347 381.003 434.397 379.548 434.341 378.132L434.459 378.021C434.459 378.021 434.459 378.02 434.459 378.02C434.419 378.057 434.38 378.094 434.341 378.132C433.106 376.011 433.372 373.745 433.693 371.474L433.685 371.472C432.829 369.709 434.214 367.929 433.644 366.164C434.454 365.29 434.341 364.202 434.462 363.124C434.708 360.938 434.869 358.689 436.351 356.859C436.706 356.013 435.982 354.893 437.026 354.222L437.028 354.22C437.688 351.999 438.348 349.778 439.008 347.557C440.619 343.073 441.638 338.353 444.316 334.294C445.297 332.067 446.399 329.922 448.377 328.375C448.407 328.418 448.437 328.461 448.468 328.504C448.472 328.495 448.477 328.485 448.481 328.475L448.377 328.375C448.901 327.551 449.329 326.706 448.99 325.687C447.075 322.602 445.067 319.554 444.997 315.732C444.074 314.399 444.093 313.065 444.993 311.73C444.816 309.863 445.338 308.157 446.054 306.495C446.075 306.255 446.148 306.025 446.357 305.814C447.499 303.724 448.111 301.146 451.068 300.728C451.38 299.9 452.093 300.194 452.686 300.153C452.921 300.259 453.136 300.382 453.342 300.511C453.893 300.522 454.444 300.532 454.995 300.542C459.421 299.803 463.505 301.225 467.608 302.531C468.434 302.732 469.26 302.934 470.086 303.136C470.539 302.702 471.274 302.861 471.757 302.493C475.265 296.504 479.316 290.832 482.252 284.511C482.92 283.176 483.588 281.841 484.257 280.506C487.367 275.428 490.478 270.35 493.589 265.272L503.587 253.395C504.314 252.776 504.037 251.222 505.532 251.317C506.506 250.519 506.686 248.928 508.195 248.664C508.227 248.559 508.286 248.482 508.358 248.417C508.828 247.687 509.437 247.096 510.211 246.672C511.163 245.109 512.646 244.176 514.203 243.331C514.298 242.961 514.484 242.72 514.917 242.833C516.186 242.072 516.87 240.263 518.796 240.682C520.043 238.126 522.886 237.681 524.876 236.107C527.859 233.387 531.133 231.096 534.818 229.414C538.15 227.206 541.835 225.721 545.516 224.229C545.806 223.978 546.096 223.727 546.386 223.475C550.719 221.055 554.936 218.337 560.146 218.191C563.508 216.472 567.207 216.217 570.853 215.901C575.068 215.537 579.186 217.151 583.427 216.735C586.76 217.178 590.215 216.754 593.42 218.121C595.4 218.256 597.36 218.486 599.182 219.336C599.087 219.311 598.997 219.313 598.91 219.327C599.09 219.349 599.267 219.388 599.442 219.455C601.898 219.305 604.05 220.139 606.048 221.476C606.951 222.105 607.854 222.735 608.757 223.364C608.974 223.404 609.183 223.467 609.386 223.553C616.224 226.6 622.038 231.344 628.471 235.065C629.484 235.651 630.46 236.585 631.024 237.597C632.195 239.695 633.943 241.004 636 242.039V246.022C635.156 246.008 635.313 244.959 634.667 244.741C633.402 244.645 632.571 244.12 632.642 242.703C628.113 239.004 623.197 235.868 618.354 232.606C615.633 230.775 612.143 230.135 610.076 227.33C609.077 227.175 608.181 226.802 607.441 226.096C607.236 226.034 607.174 225.903 607.254 225.705C606.265 225.473 604.954 225.861 604.629 224.349C600.652 223.44 596.676 222.531 592.699 221.622C579.472 219.872 566.293 218.872 553.518 224.133C553.257 225.593 552.13 224.466 551.494 224.806C551.127 225.694 550.114 225.601 549.499 226.113C549.397 226.255 549.259 226.315 549.104 226.333C547.673 227.127 546.242 227.92 544.812 228.714C542.331 229.739 540.413 231.942 537.55 232.166C532.394 235.664 527.238 239.162 522.082 242.661C521.203 243.108 520.324 243.556 519.445 244.003C518.154 244.907 516.862 245.81 515.57 246.714C514.91 247.398 514.25 248.083 513.59 248.768C511.6 250.562 509.611 252.356 507.621 254.15C507.165 255.025 506.568 255.762 505.64 256.178C503.409 260.226 499.992 263.301 496.966 266.696C497.014 267.274 496.763 267.699 496.425 268.177C493.222 272.704 489.945 277.203 487.652 282.281C484.08 290.195 479.357 297.461 475.02 304.945C475.981 305.016 476.647 305.509 477.056 306.367C477.549 306.429 478.135 306.297 478.327 306.979C479.377 307.363 480.745 307.554 479.69 309.215C479.535 309.678 479.092 310.092 478.75 309.803C476.301 307.727 473.083 307.603 470.303 306.387C469.314 306.453 468.281 306.755 467.474 305.856C467.331 305.932 467.18 305.964 467.019 305.953C466.671 306.683 466.459 306.395 466.281 305.854C462.686 304.111 458.74 304.96 454.993 304.335C454.24 305.073 453.356 305.295 452.342 305.003C449.855 305.619 450.606 308.522 448.976 309.743C448.725 311.077 449.255 312.508 448.47 313.776C448.626 314.204 448.781 314.632 448.936 315.06C448.788 318.084 451.092 320.245 451.744 322.987C453.996 324.99 454.568 327.176 452.515 329.684C451.099 331.414 449.716 333.171 448.318 334.917C445.997 339.44 445.113 344.571 442.365 348.914C442.372 349.867 442.703 350.9 441.697 351.602C441.822 354.251 440.704 356.547 439.632 358.857C439.24 361.156 438.726 363.421 437.708 365.541C437.673 368.184 437.638 370.827 437.603 373.47L437.603 376.128C437.601 376.345 437.6 376.563 437.599 376.78C437.945 377.929 439.046 378.772 438.953 380.1C439.537 382.644 441.907 384.547 441.593 387.414C441.85 388.904 441.19 389.559 439.713 389.473C439.713 389.473 439.713 389.473 439.713 389.473L439.728 389.443C435.075 393.486 434.876 394.324 437.686 398.028C438.3 399.145 438.913 400.263 439.527 401.38C441.01 402.182 441.672 403.786 442.826 404.925C445.015 407.088 447.961 408.694 449.054 411.86C450.438 412.265 451.572 412.916 451.703 414.549C454.076 416.581 456.775 418.07 459.642 419.275C460.575 419.442 461.311 419 462.03 418.505C462.306 416.677 464.102 415.954 464.935 414.53C465.43 413.18 466.288 412.698 467.642 413.406C469.597 413.506 471.14 414.791 472.97 415.251C473.405 415.451 473.84 415.652 474.275 415.853C475.561 415.429 476.558 416.165 477.608 416.682C479.628 416.623 481.631 416.736 483.597 417.242C487.392 416.933 491.134 417.414 494.872 417.982C495.337 418.021 495.801 418.06 496.266 418.1C497.589 418.039 498.912 417.979 500.235 417.919L501.598 418.166C502.912 418.301 504.215 417.45 505.534 418.127C506.359 416.934 507.355 418.249 508.241 417.943C510.277 416.605 512.468 415.666 514.905 415.353C516.736 412.856 519.794 412.247 522.202 410.637C522.947 409.307 524.086 408.506 525.558 408.153C528.014 406.069 529.932 402.961 534.084 404.675C538.729 406.594 543.614 407.957 548.182 410.029C552.5 411.988 556.491 413.072 560.343 409.67C560.463 409.533 560.606 409.398 560.789 409.269C561.457 408.434 561.7 407.758 560.851 406.713C558.579 403.919 557.399 400.491 556.152 397.195C555.329 395.018 554.421 392.597 555.528 390.105C556.671 387.532 559.095 389.225 560.772 388.461C561.056 388.332 561.382 388.167 561.67 388.195C564.248 388.444 565.61 385.465 567.496 385.46C570.197 385.453 571.975 384.228 573.992 383.026C579.667 379.641 584.411 374.948 589.926 371.423C599.383 365.38 605.279 356.547 610.923 347.304C613.353 343.324 613.95 338.076 618.709 335.636C619.596 334.771 620.603 334.579 621.882 334.459C626.583 334.016 631.377 335.195 636 333.64V338.95C634.183 339.076 632.738 340.583 630.822 340.338C629.312 343.005 627.802 345.673 626.292 348.341C625.749 349.514 624.65 349.788 623.559 349.779C620.602 349.753 617.645 349.604 614.689 349.504C614.895 349.398 615.124 349.313 615.364 349.236C615.129 349.273 614.898 349.358 614.689 349.504C611.31 355.608 607.034 361.092 602.392 366.24C600.095 368.787 596.882 370.492 594.18 372.622C586.985 378.293 579.741 383.824 571.817 388.342C572.521 389.363 573.242 390.439 573.994 391.493C575.649 393.812 575.215 396.012 573.052 397.508C570.874 399.014 569.245 401.078 567.114 402.598C565.227 403.944 564.591 405.461 565.984 407.76C566.567 408.723 567.814 411.004 564.787 411.234C563.434 413.644 560.78 414.384 558.773 415.952C556.473 417.749 554.357 418.096 552.094 416.062C549.772 414.834 546.856 415.179 544.774 413.316C542.637 412.602 540.117 412.379 538.438 411.077C534.276 407.846 530.797 408.399 527.358 411.939C526.208 412.938 525.45 414.445 523.74 414.721C523.528 415.463 522.89 415.478 522.294 415.563C521.973 416.206 521.426 416.111 520.874 415.995C520.527 416.237 520.18 416.48 519.833 416.722C519.198 417.927 517.836 417.911 516.833 418.497L516.824 418.562C516.372 419.85 515.166 419.629 514.192 419.872C512.643 421.095 510.877 421.765 508.913 421.931C508.05 422.181 507.179 422.249 506.305 422.252C501.634 422.756 496.963 422.796 492.295 421.997C492.074 422.161 491.861 422.136 491.658 421.895C488.348 422.138 485.062 421.95 481.8 421.353C481.8 421.353 481.799 421.353 481.8 421.353C478.994 421.365 476.215 421.219 473.6 420.097C473.455 420.045 473.311 419.986 473.167 419.915C472.014 418.6 469.534 419.725 468.839 417.571C468.378 417.69 467.917 417.809 467.455 417.928C466.861 418.598 466.266 419.269 465.672 419.94C465.514 421.981 463.772 422.083 462.381 422.616C460.584 424.236 458.768 423.381 456.954 422.871C456.658 422.847 456.37 422.774 456.087 422.665C453.887 421.508 451.594 420.473 450.262 418.192C449.338 418.074 449.681 416.941 449.002 416.628C445.391 414.481 443.546 410.586 440.367 407.976C438.42 406.377 436.336 404.706 435.69 402.011C434.923 402.011 435.026 401.408 434.941 400.935C429.754 394.793 430.547 392.386 436.904 386.694ZM618.944 346.763C619.004 346.824 619.064 346.879 619.124 346.935C619.129 346.847 619.141 346.767 619.159 346.694C619.084 346.689 619.008 346.684 618.931 346.678C618.935 346.707 618.94 346.735 618.944 346.763ZM618.525 345.297C619.831 344.479 621.188 344.459 622.581 345.028C622.75 344.873 622.916 344.717 623.093 344.57C623.401 344.416 623.651 344.221 623.877 344.007C624.032 343.66 624.182 343.309 624.352 342.972C624.587 343.039 624.83 343.07 625.078 343.047C626.654 342.901 627.23 341.102 627.601 339.816C627.738 339.344 627.436 338.791 626.953 338.674C625.692 338.367 624.437 338.37 623.269 338.984C622.899 339.178 622.562 339.429 622.231 339.684C621.955 339.56 621.671 339.449 621.37 339.372C620.866 339.242 620.385 339.535 620.228 340.02C620.124 340.343 620.252 340.696 620.49 340.929C620.353 340.901 620.215 340.88 620.079 340.841C620.022 340.807 619.975 340.772 619.922 340.737C619.399 342.245 618.07 343.578 618.525 345.297ZM563.264 400.604C563.661 400.894 564.236 400.87 564.685 400.675C566.378 399.94 567.976 398.706 569.224 397.357C569.836 396.696 570.48 395.865 570.783 394.971C571.08 394.58 571.31 394.141 571.399 393.663C571.608 392.537 571.104 391.528 570.293 390.766C569.774 390.279 569.014 390.287 568.493 390.766C568.388 390.862 568.311 390.98 568.251 391.106C568.084 391.122 567.917 391.139 567.75 391.164C566.873 391.044 565.957 391.062 565.102 391.156C563.142 391.37 560.878 392.184 560.424 394.365C560.001 396.394 561.069 398.407 562.245 399.986C562.513 400.346 562.87 400.573 563.264 400.604ZM466.727 415.312C466.623 415.289 466.514 415.262 466.395 415.228C466.332 415.21 466.238 415.299 466.237 415.369C466.425 415.369 466.586 415.348 466.727 415.312Z" fill="white"/>
<path d="M439.182 384.271C439.218 384.251 439.255 384.231 439.289 384.209C439.242 384.23 439.198 384.242 439.152 384.26C439.162 384.264 439.172 384.267 439.182 384.271Z" fill="white"/>
<path d="M479.56 417.318C479.574 417.296 479.588 417.275 479.602 417.253C479.585 417.255 479.57 417.254 479.553 417.258C479.558 417.279 479.556 417.296 479.56 417.318Z" fill="#171716"/>
<path d="M476.282 419.136C476.3 419.121 476.318 419.105 476.336 419.091C476.317 419.089 476.302 419.09 476.282 419.089C476.282 419.104 476.282 419.12 476.282 419.136Z" fill="#171716"/>
<path d="M509.334 273.62C508.959 275.068 507.342 275.745 505.845 275.127C504.221 274.458 504.605 272.767 505.155 271.755C506.423 269.42 508.058 267.283 509.544 265.066C511.577 260.556 515.343 257.288 518.073 253.273C518.75 252.277 520.232 252.151 521.077 252.753C522.08 253.467 521.689 254.651 520.933 255.622C519.795 257.082 518.893 258.76 517.6 260.057C514.894 262.773 513.929 266.716 510.933 269.191C511.423 271.006 509.736 272.067 509.334 273.62Z" fill="white"/>
<path d="M445.209 378.322C445.034 377.266 446.027 376.614 447.592 376.705C447.893 377.68 450.053 376.669 449.949 378.814C449.869 380.468 448.921 381.242 447.531 381.337C445.486 381.477 445.419 379.578 445.209 378.322Z" fill="white"/>
<path d="M448.471 328.33C448.44 328.287 448.41 328.244 448.38 328.201L448.484 328.302C448.48 328.311 448.475 328.321 448.471 328.33Z" fill="white"/>
<path d="M434.461 377.848L434.343 377.958C434.382 377.921 434.421 377.883 434.461 377.846C434.461 377.846 434.461 377.847 434.461 377.848Z" fill="white"/>
<path d="M466.394 415.054C466.514 415.088 466.623 415.115 466.727 415.138C466.585 415.174 466.424 415.195 466.236 415.196C466.238 415.125 466.332 415.037 466.394 415.054Z" fill="white"/>
</g>
<path d="M506.934 302.071C507.007 302.031 507.081 301.993 507.148 301.951C507.055 301.991 506.967 302.013 506.874 302.049C506.895 302.057 506.914 302.063 506.934 302.071Z" fill="white"/>
<g opacity="0.8">
<path d="M604.697 99.6998C605.215 99.933 605.732 100.166 606.25 100.399C606.377 100.519 606.469 100.688 606.618 100.775C606.61 100.821 606.6 100.865 606.593 100.912C607.15 102.138 607.982 102.995 609.448 103.003C610.046 103.029 610.284 103.479 610.534 103.914C611.498 103.799 611.843 104.764 612.571 105.061C614.36 106.702 616.236 108.278 616.863 110.776C616.185 111.073 615.258 110.373 614.738 111.299C611.85 111.962 609.157 113.139 606.478 114.354C606.376 114.293 606.277 114.23 606.187 114.164C604.549 113.878 603.182 114.4 602.014 115.523L589.288 120.361C588.521 120.061 587.861 120.085 587.485 120.954C587.488 120.974 587.493 120.994 587.496 121.014C587.203 121.158 586.909 121.301 586.616 121.444L586.095 121.45C585.47 121.969 584.475 121.613 583.941 122.347C582.799 122.469 581.698 122.709 580.752 123.41C580.648 123.426 580.549 123.463 580.448 123.494C580.361 123.406 580.263 123.322 580.142 123.246C579.767 123.15 579.431 123.172 579.213 123.551C578.611 124.373 577.791 123.886 577.055 123.904C575.613 123.546 574.398 123.981 573.338 124.952C572.992 125.006 572.646 125.059 572.3 125.113C570.466 124.562 569.026 125.022 568.075 126.734C567.691 127.96 568.562 128.807 569.012 129.782C570.44 130.487 570.413 132.673 572.277 132.934C573.07 133.91 573.78 134.965 574.899 135.628C575.597 136.32 576.294 137.012 576.992 137.704C577.543 139.502 579.28 140.364 580.288 141.801L580.212 141.973C581.258 142.999 582.304 144.024 583.35 145.05C585.333 145.771 585.508 148.121 587.127 149.17C588.325 150.486 589.204 152.103 590.825 153.019C590.896 154.531 592.549 154.915 593.066 156.108C593.566 156.822 594.065 157.536 594.565 158.25C594.522 158.967 594.818 159.355 595.586 159.286C596.798 161.974 598.476 164.382 600.133 166.803C600.052 166.943 599.987 167.106 599.949 167.306C600.064 169.377 601.135 170.957 602.584 172.342C602.845 172.389 603.274 172.357 603.341 172.496C606.779 179.626 610.611 186.543 614.755 193.293C615.326 194.222 617.04 195.109 617.373 194.516C618.602 192.329 620.659 192.959 622.526 192.83C627.017 192.518 631.542 192.69 636 191.907L636 189.275C630.698 189.656 625.396 190.038 620.094 190.419C619.724 190.417 619.353 190.415 618.983 190.413C617.816 190.465 616.864 190.316 616.332 188.995C615.742 187.53 614.867 186.179 614.139 184.767C612.114 180.84 610.268 176.811 608.028 173.01C606.447 170.328 605.305 167.359 603.121 165.037C603.08 163.433 601.795 162.531 601.004 161.35C600.642 160.526 600.843 159.286 599.424 159.24C599.292 158.867 599.48 158.337 598.895 158.187C598.406 156.216 597.18 154.741 595.658 153.466C595.14 152.757 595.011 151.76 594.075 151.359C594.126 150.215 593.123 149.853 592.47 149.231C592.633 148.319 591.526 148.334 591.323 147.688C591.268 147.086 590.877 146.782 590.343 146.605C589.827 146.077 589.31 145.55 588.793 145.022C588.793 145.022 588.793 145.022 588.793 145.022C587.578 143.748 586.782 142.06 585.055 141.29C584.889 141.13 584.724 140.97 584.559 140.809C583.935 139.208 582.584 138.226 581.371 137.127C581.185 136.954 580.999 136.781 580.814 136.608C580.276 136.07 579.739 135.532 579.201 134.994C578.147 133.775 577.093 132.556 576.039 131.337L575.484 130.826C573.085 129.334 574.714 128.554 576.024 127.718L576.029 127.723C577.935 128.011 579.689 127.567 581.34 126.634C581.515 126.643 581.678 126.603 581.829 126.515C582.537 126.349 583.245 126.183 583.953 126.017C585.554 125.484 587.156 124.951 588.757 124.418C592.46 123.013 596.163 121.608 599.866 120.202C600.197 120.28 600.348 120.099 600.428 119.817C602.737 118.924 605.305 118.675 607.332 117.083C608.831 116.816 610.239 116.287 611.599 115.621C611.775 115.576 611.95 115.531 612.126 115.486C614.092 115.301 615.568 113.754 617.45 113.503C618.773 113.326 618.328 112.514 618.467 111.855C618.649 111.857 618.831 111.86 619.014 111.862C620.946 113.693 622.677 115.827 624.873 117.26C626.687 118.444 627.612 120.462 629.556 121.388C629.586 122.145 629.865 122.704 630.704 122.824C630.859 122.911 631.024 122.967 631.2 122.99C631.095 123.818 631.611 124.24 632.255 124.579C633.115 126.443 634.904 127.575 636 129.254L636 123.462C634.579 122.03 634.217 119.797 632.343 118.707C631.263 117.691 630.184 116.675 629.104 115.658C628.951 115.582 628.788 115.548 628.617 115.556C625.255 111.688 621.503 108.231 617.419 105.124C616.318 104.022 615.337 102.763 613.716 102.343C612.339 100.463 610.217 99.5322 608.389 98.2271C606.801 96.9712 605.214 95.7154 603.626 94.4596C603.626 94.4596 603.626 94.4597 603.626 94.4596C601.287 92.9603 599.365 90.8641 596.759 89.7471C596.445 89.0747 595.981 88.6235 595.167 88.692C594.994 88.1445 594.508 88.2312 594.094 88.1713C593.798 87.4605 593.271 87.0838 592.488 87.0782C592.488 87.0797 592.488 87.0807 592.488 87.0822C591.068 86.1994 589.647 85.3166 588.227 84.4339C588.161 84.1334 588.025 83.9366 587.67 84.0589C586.958 83.9347 586.658 82.4899 585.614 83.427C582.921 80.7613 579.24 79.856 576.016 78.134C574.094 76.6993 571.803 75.9986 569.66 75.0044C569.826 74.4867 570.383 74.0635 570.049 73.4246C570.436 72.7147 571.574 72.7866 571.732 71.8368C573.069 70.0736 574.541 68.3843 574.942 66.1051C576.555 65.3319 577.236 63.7763 578.115 62.3875C578.619 61.6846 579.122 60.9818 579.626 60.2789C579.801 59.9206 579.977 59.5624 580.153 59.2041C580.33 58.8665 580.508 58.529 580.685 58.1914C580.568 56.8806 582.775 57.0482 582.385 55.564C583.424 54.9979 583.802 54.0361 583.973 52.9508C585.458 51.8617 586.037 50.096 587.169 48.7437C587.729 48.5963 587.673 48.1322 587.707 47.7146C589.147 46.6344 589.64 44.9657 590.395 43.4598C590.739 43.1198 591.082 42.7799 591.426 42.4399C591.596 42.2571 591.766 42.0741 591.936 41.8912C592.642 41.5885 593.067 41.0952 593.038 40.2934C594.406 38.513 595.157 40.3114 596.131 40.8178C596.432 41.493 596.936 41.872 597.699 41.872C597.753 42.9085 598.268 43.4796 599.349 43.4784C600.124 45.2119 601.645 46.1722 603.183 47.1153C603.659 47.7011 604.04 48.4093 604.625 48.8535C609.192 52.3201 613.095 56.5053 617.355 60.3019C617.939 61.7051 619.402 62.2575 620.358 63.3341C624.213 67.6808 628.262 71.8592 632.24 76.0996C633.493 77.6718 634.747 79.2439 636 80.816L636 76.6041C635.176 76.3466 635.326 75.1629 634.427 74.9763C632.435 71.9527 629.101 70.0507 627.437 66.7531C627.025 66.6606 626.544 66.6795 626.418 66.1293C626.131 64.226 624.835 63.1812 623.207 62.4194L623.219 62.4311C622.01 61.3572 620.802 60.2833 619.593 59.2094C616.04 54.8064 611.169 51.791 607.297 47.7236C606.401 47.3809 605.7 46.8096 605.209 45.9889C604.971 45.5354 604.619 45.2955 604.084 45.3953C604.076 45.3992 604.07 45.4046 604.061 45.4086C602.14 43.667 600.219 41.9254 598.298 40.1838C598.074 40.0411 597.851 39.8983 597.628 39.7555C597.446 39.4253 597.265 39.095 597.084 38.7648C596.131 38.9022 595.905 37.8453 595.171 37.6222C595.098 37.1826 595.207 36.649 594.58 36.494C594.241 36.394 593.902 36.2941 593.563 36.1942C593.183 36.8435 592.327 37.2101 592.399 38.1267C592.4 38.1271 592.4 38.1273 592.4 38.1277C591.699 38.8212 590.998 39.5148 590.297 40.2083C590.27 40.2859 590.252 40.3554 590.233 40.4247C589.907 41.1861 588.598 41.287 588.799 42.4017C587.576 42.8617 587.24 44.0716 586.567 44.9964C586.263 45.0595 586.062 45.1955 586.17 45.5499C585.836 46.0776 585.502 46.6052 585.168 47.1329C584.952 47.3307 584.735 47.5287 584.518 47.7264C584.32 48.2046 584.123 48.6828 583.925 49.161C583.599 49.1889 583.273 49.2168 582.948 49.2446C583.064 50.2892 582.098 50.9281 581.946 51.872C581.535 52.3882 581.124 52.9044 580.713 53.4206C580.156 54.2971 579.231 54.9502 579.076 56.0704C578.906 56.4125 578.736 56.7547 578.567 57.0968C578.258 57.2872 577.95 57.4777 577.642 57.6682C577.617 58.0106 577.592 58.3531 577.567 58.6957C576.573 59.7237 575.72 60.8143 575.904 62.367C574.791 62.9242 574.993 64.159 574.504 65.0376C574.424 66.0365 574.022 66.8749 573.244 67.5252C571.769 68.7573 570.655 70.292 569.559 71.8418C569.387 72.0189 569.214 72.196 569.042 72.373C568.695 72.8829 568.348 73.3927 568.001 73.9026C566.844 75.5881 566.139 77.1472 569.077 77.6882C569.103 77.8222 569.12 77.9574 569.125 78.0937C569.644 78.3229 570.163 78.5521 570.682 78.7813C572.299 78.7538 573.193 80.6404 574.909 80.3506C577.758 82.7107 581.283 83.8488 584.485 85.5696C584.841 85.9382 585.196 86.3067 585.551 86.6753C585.886 86.6598 586.221 86.6442 586.556 86.6287C586.963 87.5663 587.745 87.7697 588.671 87.6896C588.703 88.0052 588.736 88.3209 588.768 88.6365C589.282 88.6819 589.796 88.7272 590.31 88.7726C590.245 89.5562 590.556 89.8959 591.321 89.7003C591.42 90.1883 591.596 90.6303 592.076 90.9054C592.206 90.7799 592.334 90.6671 592.458 90.5679L592.458 90.6591C592.634 90.7375 592.81 90.8158 592.986 90.8941C593.328 91.0499 593.671 91.2056 594.013 91.3615C594.765 91.8718 595.517 92.3822 596.269 92.8925C598.7 94.6871 600.94 96.7399 603.598 98.2282C603.851 98.8021 604.973 98.7373 604.697 99.6998ZM568.561 75.017C568.566 75.0197 568.57 75.0229 568.575 75.0255C568.578 75.0214 568.581 75.0173 568.583 75.0132C568.593 75.0132 568.602 75.013 568.611 75.013C568.598 75.0223 568.586 75.0301 568.574 75.0399C568.569 75.0323 568.566 75.0245 568.561 75.017Z" fill="white"/>
<path d="M602.341 132.673C603.208 133.783 604.057 134.907 604.914 136.025C605.482 137.373 605.516 138.689 604.136 139.517C603.491 139.904 603.521 140.377 603.307 140.912C601.675 145.004 605.076 147.896 608.586 148.581C609.301 149.381 610.35 149.206 611.249 149.47C612.416 149.421 613.234 149.714 613.909 150.877C615.315 153.303 616.485 155.907 618.635 157.86C619.761 158.883 620.248 159.932 618.689 161.12C618.426 161.32 617.407 161.574 617.927 162.456C618.41 163.273 618.994 162.547 619.489 162.639C620.577 162.843 621.885 161.613 622.765 163.106C622.769 163.656 623.013 164.091 623.415 164.455C623.878 164.873 624.11 165.607 624.965 165.476C625.468 165.4 625.391 165.05 625.402 164.736C625.427 163.982 625.631 163.114 624.414 163.08C624.304 161.451 624.147 159.819 624.927 158.279C625.754 156.648 625.432 154.925 624.877 153.395C623.341 149.165 620.519 145.741 616.074 146.551C614.4 146.856 613.727 146.218 612.835 145.336C612.667 143.823 611.476 142.89 610.73 141.703C610.735 141.54 610.699 141.386 610.623 141.241C610.144 140.378 609.664 139.515 609.185 138.652C610.672 137.823 612.283 137.005 613.945 137.209C614.961 137.333 615.782 137.447 615.821 136.457C615.854 135.578 615.151 134.92 613.928 134.949C611.672 135.001 609.564 135.462 607.57 136.482C607.308 136.035 607.016 135.621 606.452 135.514C606.115 133.722 604.36 132.938 603.49 131.511C603.345 131.274 602.406 131.223 602.079 131.442C601.469 131.85 602.037 132.283 602.341 132.673ZM619.418 149.05C620.728 149.457 621.696 150.644 622.326 151.794C622.924 152.886 623.468 154.339 623.069 155.584C622.979 155.865 622.685 156.151 622.359 156.117C620.962 155.969 620.114 154.866 619.503 153.716C618.939 152.656 618.573 151.45 617.848 150.48C617.61 150.163 617.797 149.669 618.112 149.487C618.263 149.4 618.42 149.377 618.569 149.4C618.734 149.123 619.112 148.955 619.418 149.05ZM608.312 141.448C608.375 141.447 608.44 141.456 608.504 141.467C608.195 142.253 608.546 142.665 609.217 142.896C609.182 144.145 609.278 145.31 610.491 145.778C609.628 145.816 608.832 145.128 607.953 145.32C607.91 145.263 607.867 145.206 607.824 145.149C605.947 142.745 605.858 142.507 607.525 140.846C607.662 141.124 607.984 141.289 608.312 141.448Z" fill="white"/>
<path d="M615.542 75.7192C614.029 76.1963 613.095 75.7511 612.001 75.0367C611.363 74.6195 611.006 73.742 610.069 73.8081C609.206 73.2877 608.343 72.7672 607.479 72.2468C607.111 71.74 606.743 71.2333 606.375 70.7264C606.715 70.1971 607.128 69.7008 607.377 69.1306C607.748 68.2798 608.085 68.3272 608.527 69.0372C608.409 69.5504 607.666 70.1452 608.513 70.5551C609.254 70.9135 609.573 70.3774 609.609 69.6582C610.656 68.9858 611 67.9894 610.331 66.9795C609.66 65.9667 608.489 65.8824 607.383 66.1881C606.141 66.5317 605.274 67.4028 604.868 68.6157C604.653 69.2587 604.589 69.8353 603.723 69.5295C603.169 68.8579 602.343 68.7502 601.598 68.4753C600.304 67.1484 598.868 66.2022 596.844 66.5192C597.339 68.983 599.399 69.5909 600.995 70.6841L602.633 71.7543C602.713 72.0384 602.855 72.234 603.19 72.1559C603.792 72.5703 604.403 72.9798 604.214 73.8775C603.512 75.3126 603.739 76.4377 605.271 77.1275C605.481 79.5212 607.559 79.1221 608.994 79.683C613.832 78.7228 617.07 81.5224 620.201 84.5756C620.08 85.2118 619.136 85.8965 619.846 86.429C620.707 87.0743 621.534 86.3373 622.238 85.7373C622.413 85.7052 622.589 85.6732 622.764 85.6411C623.712 86.0516 624.114 87.4053 625.411 87.213C625.779 87.4223 626.134 87.6585 626.517 87.8348C627.117 88.1114 627.979 88.7889 628.337 88.1336C628.692 87.484 628.642 86.4302 627.836 85.7123C627.419 85.3407 627.021 85.1075 626.484 85.0879C626.057 84.042 624.616 84.1073 624.25 82.9948C624.454 78.5485 619.673 74.4157 615.542 75.7192ZM606.922 75.7831C606.928 75.5076 606.714 75.3802 606.408 75.3151C606.379 75.3219 606.355 75.3235 606.328 75.3285C606.308 75.2341 606.289 75.1396 606.269 75.0451C606.329 75.035 606.388 75.0279 606.453 75.0056C606.531 74.9219 606.599 74.8318 606.658 74.7357C607.112 75.2027 607.54 75.7233 608.326 75.517C608.266 75.9528 608.436 76.2727 608.706 76.5485C608.144 76.2114 607.597 75.838 606.922 75.7831ZM620.272 78.8157C620.302 78.8267 620.332 78.8374 620.363 78.8476C620.546 78.9089 620.724 78.9682 620.9 79.0502C621.32 79.2457 621.588 79.6457 621.705 80.0871C621.85 80.6312 621.342 81.1674 620.795 81.0073C619.328 80.5779 618.054 79.6985 617.198 78.4136C617.011 78.1321 617.101 77.7418 617.314 77.5072C617.517 77.2833 617.961 77.2014 618.211 77.3902C618.868 77.8861 619.566 78.3236 620.237 78.7998C620.249 78.8054 620.262 78.8113 620.272 78.8157Z" fill="white"/>
</g>
<g opacity="0.6">
<path d="M214.218 405.381C219.401 401.177 224.838 397.473 230.902 394.802C242.173 389.837 253.561 385.135 264.83 380.354C259.641 372.303 260.038 363.535 260.529 354.752C260.259 353.788 259.989 352.825 259.719 351.861L259.711 349.701C258.73 348.39 257.334 347.286 257.552 345.379C257.171 342.005 260.432 341.914 262.086 340.375C263.745 339.023 265.255 337.308 267.775 338.057C268.519 337.675 269.263 337.293 270.007 336.911C271.869 335.317 274.007 334.523 276.477 334.693C276.998 334.532 277.71 334.759 277.928 333.982C281.652 333.192 284.863 330.863 288.7 330.414C289.412 330.091 289.956 329.273 290.912 329.665C293.278 330.073 295.072 328.33 297.31 328.008C302.557 327.253 307.905 326.541 312.89 324.86C316.354 323.691 319.908 322.804 323.385 321.753C328.706 320.145 333.997 318.458 339.274 316.716C345.284 314.253 351.294 311.79 357.305 309.327C358.25 308.239 359.467 307.796 360.884 307.831C361.82 306.097 363.792 306.41 365.219 305.648C365.671 304.562 366.645 305.248 367.35 305.023C370.226 302.984 373.552 301.911 376.789 300.648C377.232 299.566 378.242 300.21 378.953 299.942C380.788 298.223 383.386 298.334 385.48 297.234C387.669 295.746 390.281 295.34 392.696 294.429C393.171 294.269 393.331 294.557 393.426 294.939C394.234 295.105 395.421 294.545 395.515 296.068C395.578 297.096 394.868 297.119 394.163 297.181C395.003 299.008 395.779 300.843 394.981 302.902C395.179 303.564 395.504 304.216 395.554 304.889C396.092 312.151 396.587 319.417 397.094 326.682C397.997 327.997 397.677 329.511 397.792 330.955C399.243 331.588 398.105 332.848 398.148 333.603C398.438 338.6 400.67 343.234 400.702 348.241C400.875 348.971 401.048 349.701 401.221 350.431C401.073 351.482 402.445 352.152 401.943 353.292C401.945 353.784 401.948 354.275 401.95 354.767C402.048 354.959 402.104 355.163 402.12 355.377C404.238 359.722 404.894 364.431 405.554 369.138C405.819 370.497 406.688 371.708 406.44 373.202C406.262 374.28 406.625 375.702 404.999 375.836C403.775 375.936 402.275 376.104 402.117 374.179C400.415 374.848 398.713 375.516 397.011 376.185C394.399 377.495 391.309 377.778 389.059 379.867C387.87 380.152 386.68 380.436 385.49 380.721C385.031 381.732 384.066 381.246 383.333 381.447C383.06 382.16 382.427 382.069 381.852 382.106C381.697 382.242 381.527 382.332 381.36 382.383C381.074 382.544 380.789 382.705 380.503 382.866C378.855 384.357 376.416 383.777 374.693 385.072C374.588 385.458 374.406 385.737 373.935 385.609C373.209 385.884 372.483 386.159 371.757 386.433C370.923 386.968 369.964 386.567 368.98 387.001C366.09 388.277 363.191 389.676 359.962 390.036C356.464 390.426 353.38 392.273 350.063 393.269C347.51 394.035 344.991 396.167 342.205 397.063C339.467 397.945 336.563 398.315 333.839 398.887C343.788 405.086 353.783 411.15 363.066 418.294C364.265 419.209 365.464 420.125 366.663 421.04C368.086 422.036 369.593 422.941 370.427 424.563C370.976 424.601 371.596 424.501 371.778 425.255C374.654 426.598 376.373 429.382 379.002 431.034C379.919 431.552 380.687 432.221 381.172 433.174C385.439 436.84 389.884 440.318 393.436 444.739C394.559 445.733 395.674 446.738 396.809 447.72C398.104 448.84 398.335 449.995 396.991 451.242C396.896 451.76 397.281 452.541 396.268 452.556C396.085 452.661 395.889 452.717 395.679 452.725C396.317 454.122 395.196 455.121 394.864 456.298H391.254C391.711 455.57 392.169 454.842 392.626 454.115C393.18 452.933 393.733 451.751 394.287 450.569C394.156 450.105 394.415 449.904 394.812 449.796C394.7 447.952 392.485 447.752 391.991 446.207C390.843 445.089 389.405 444.391 388.189 443.285C381.911 437.57 375.721 431.735 368.901 426.639C366.769 424.994 364.637 423.349 362.506 421.703C357.316 418.142 352.184 414.493 346.918 411.049C342.987 408.477 338.882 406.17 334.854 403.745C334.629 403.524 334.403 403.304 334.178 403.084C326.719 398.992 319.259 394.9 311.8 390.808C310.661 390.641 309.663 390.194 308.868 389.344C307.741 389.23 306.8 388.745 306.021 387.932C306.022 387.932 306.021 387.932 306.021 387.932C305.947 387.917 305.909 387.864 305.883 387.8C305.69 387.616 305.497 387.432 305.304 387.248C298.51 385.255 292.521 381.521 286.22 378.464C278.204 374.576 281.078 373.681 274.296 379.315C274.108 380.118 273.388 379.884 272.87 380.043C272.378 380.463 271.929 380.948 271.389 381.291C268.652 383.034 266.343 385.616 262.765 385.733C262.818 386.713 262.507 387.346 261.368 387.185C258.323 389.47 254.554 390.152 251.176 391.709C242.423 395.741 233.538 399.481 224.871 403.717C219.554 406.316 219.04 408.091 223.107 412.176C223.605 412.676 224.056 413.22 224.529 413.744C224.529 413.744 224.529 413.744 224.529 413.744C224.998 414.231 225.467 414.718 225.936 415.205C226.906 415.84 227.918 416.419 228.839 417.118C237.112 423.398 245.353 429.719 253.635 435.986C259.748 440.611 265.271 445.883 270.725 451.237C270.964 451.474 271.203 451.712 271.442 451.95C271.676 452.173 271.91 452.396 272.144 452.619C272.382 452.846 272.62 453.074 272.858 453.301C274.83 453.332 274.856 455.212 275.718 456.298H267.775C267.754 455.824 267.734 455.351 267.713 454.878C266.138 454.985 265.583 453.717 264.813 452.738C260.002 448.522 255.301 444.172 250.348 440.129C245.48 436.156 240.483 432.336 235.571 428.416C231.456 425.133 226.823 422.481 222.922 418.875C218.933 416.503 216.382 412.681 213.507 409.237C213.157 408.819 212.263 406.967 214.218 405.381ZM334.225 395.163C334.185 395.119 334.142 395.08 334.1 395.041C334.099 395.041 334.098 395.041 334.097 395.04C334.141 395.079 334.185 395.118 334.225 395.163ZM264.932 354.291C266.795 355.142 266.379 356.803 266.348 358.303C266.263 362.33 266.108 366.4 267.04 370.321C268.374 375.936 268.532 375.899 273.6 373.682C274.027 373.84 274.222 373.85 274.294 373.782C274.306 373.743 274.317 373.704 274.329 373.665C274.31 373.442 274.017 373.046 274.122 372.91C277.208 369.71 279.342 369.217 282.959 371.284C287.116 373.66 291.277 376.017 295.61 378.061C297.871 379.128 300.368 379.75 302.249 381.553C302.459 381.644 302.52 381.963 302.589 382.266C302.902 382.27 303.068 382.488 303.164 382.805C303.162 382.826 303.159 382.849 303.156 382.871C303.304 382.831 303.491 382.729 303.739 382.532C306.573 383.279 309.303 384.224 311.26 386.524C312.877 386.138 314.058 386.537 314.6 388.093C315.964 388.115 317.222 388.639 318.299 389.319C322.548 392.004 326.957 394.007 332.153 393.522C332.191 393.569 332.221 393.626 332.248 393.686C332.314 393.663 332.381 393.644 332.448 393.626C332.439 393.501 332.441 393.367 332.463 393.216C333.337 391.836 334.809 391.513 336.222 391.43C340.297 391.19 343.884 389.667 347.429 387.795C349.279 386.818 351.222 385.558 353.558 386.46C353.667 386.587 353.765 386.683 353.858 386.766C354.137 386.402 354.566 386.47 354.997 386.544C355.153 386.262 355.293 385.937 355.491 385.771C360.045 383.221 365.092 382.38 370.156 381.617C370.233 381.657 370.312 381.693 370.392 381.73C371.022 380.017 372.818 380.458 374.118 379.986C374.416 379.855 374.748 379.954 375.08 380.051C375.427 379.878 375.84 379.928 376.249 379.967C376.333 379.889 376.413 379.786 376.489 379.648C376.718 379.226 377.07 378.99 377.565 378.985C377.662 379.003 377.747 379.03 377.834 379.056C378.854 377.636 380.239 377.519 381.869 378.282C381.937 378.361 381.992 378.439 382.038 378.518C382.399 378.28 382.76 378.042 383.12 377.804C383.443 377.382 383.757 376.952 384.085 376.536C388 374.55 391.77 372.121 396.462 372.539C396.462 372.539 396.462 372.539 396.462 372.539C397.283 371.011 398.45 370.383 400.094 371.003C400.311 370.085 400.479 369.143 401.31 368.552C401.193 368.521 401.077 368.49 400.96 368.46C399.093 366.16 399.675 363.209 398.873 360.628C398.906 360.473 398.963 360.323 399.028 360.175C397.813 359.138 397.96 357.774 398.375 356.345C396.864 354.917 396.194 353.346 397.481 351.437C396.202 350.609 395.822 349.225 395.576 347.891C394.797 343.678 393.693 339.505 393.744 335.17C393.978 334.504 394.097 333.808 394.241 333.12C394.012 330.499 393.782 327.879 393.553 325.258C393.221 324.988 392.918 324.682 392.671 324.3C391.432 318.503 391.235 312.627 391.448 306.725C391.607 306.587 391.741 306.426 391.861 306.252C390.907 305.172 391.453 303.749 391.207 302.51C390.969 301.316 391.621 299.941 390.736 298.88C390.731 298.918 390.734 298.955 390.726 298.994C390.27 299.863 389.431 300.001 388.576 300.107C387.311 300.158 386.041 300.192 385.179 301.335C380.402 304.651 375.106 306.898 369.668 308.853C369.581 308.786 369.498 308.716 369.413 308.647C367.941 309.986 366.586 311.638 364.317 310.851C364.182 310.947 364.039 311.037 363.878 311.114C363.572 311.214 363.256 311.271 362.935 311.284C362.369 312.73 361.451 313.547 359.744 312.95C359.167 313.695 358.403 314.018 357.468 313.964C357.409 313.942 357.352 313.915 357.296 313.885C357.208 314.171 357.039 314.341 356.734 314.318C356.694 314.517 356.597 314.695 356.431 314.843C352.393 317.315 347.899 318.869 343.742 321.104C342.956 321.526 342.028 321.638 341.141 321.256C340.921 321.456 340.654 321.542 340.352 321.542C340.267 321.751 340.161 321.954 339.996 322.141C334.039 324.923 328.065 327.655 321.351 328.067C321.239 328.001 321.128 327.941 321.018 327.885C320.495 328.805 319.59 328.233 318.804 328.124C318.685 328.314 318.578 328.551 318.49 328.851C317.303 330.782 315.223 330.586 313.392 330.953C306.139 332.41 299.032 334.485 291.868 336.281C284.24 338.193 277.063 341.659 269.652 344.345C267.434 345.149 265.566 346.298 264.385 348.395C264.373 348.409 264.356 348.421 264.344 348.434C265.602 350.265 264.607 352.344 264.855 354.287C264.881 354.29 264.906 354.287 264.932 354.291Z" fill="white"/>
<path d="M278.873 397.204C279.576 397.885 280.84 398.067 280.899 399.349C281.58 400.085 282.262 400.82 282.943 401.555C284.955 403.194 287.114 404.702 288.078 407.276C288.768 407.085 289.458 406.893 290.148 406.702C290.402 406.707 290.655 406.713 290.909 406.718C294.625 405.101 298.173 405.997 301.683 407.441C306.99 410.378 307.391 413.087 303.129 417.208C302.123 417.82 302.312 418.361 303.053 419.149C305.484 421.731 307.932 424.31 310.172 427.054C311.956 429.238 313.638 429.819 315.709 427.58C316.555 426.666 317.959 426.431 318.578 427.023C319.26 427.676 319.012 428.674 318.044 429.861C314.969 433.637 315.236 433.869 319.092 437.318C320.191 438.302 321.934 438.538 322.445 440.188C319.373 442.489 319.427 442.406 316.392 440.431C314.652 439.3 313.886 437.314 312.217 436.188C311.609 435.778 311.544 434.703 310.341 434.979C306.641 435.829 303.13 434.507 299.564 433.855C297.132 432.925 294.244 433.217 292.243 431.135C287.841 430.007 287.006 426.931 290.07 423.131C291.224 421.548 292.693 420.281 294.502 419.596C296.298 418.915 295.948 417.887 295.327 416.662C293.583 415.944 293.177 413.892 291.631 412.976C289.871 413.409 290.025 411.128 288.711 410.927C287.328 411.082 287.105 412.787 285.824 413.078C285.536 413.564 285.248 414.05 284.96 414.536C284.66 415.331 284.493 416.204 283.676 416.693C283.514 417.072 283.563 417.93 283.067 417.681C282.126 417.207 281.065 416.285 281.568 415.168C282.349 413.431 282.346 411.207 284.338 410.123C284.825 409.666 285.312 409.209 285.798 408.752C285.197 406.213 282.607 405.17 281.474 403.03C279.602 402.197 279.468 400.16 278.474 398.719C277.492 398.678 276.814 398.229 277.217 397.213C277.62 396.199 278.429 396.774 278.873 397.204ZM294.191 423.864C294.188 423.906 294.179 423.941 294.177 423.985C294.04 424.297 293.865 424.55 293.596 424.653C293.737 425.567 293.547 426.472 293.454 427.38C295.635 427.405 297.67 427.873 299.317 429.515C299.323 429.51 299.325 429.504 299.331 429.498C301.747 428.125 303.971 430.606 306.522 429.967C304.034 427.118 301.739 424.378 299.333 421.732C299.221 421.649 299.123 421.574 299.019 421.495C298.44 421.941 297.69 422.019 296.935 422.086C296.761 422.026 296.602 421.988 296.445 421.953C295.646 422.526 295.173 423.533 294.191 423.864ZM293.963 411.598C294.906 411.445 295.337 412.076 295.688 412.832C295.689 413.034 295.717 413.198 295.757 413.345C296.143 413.606 296.53 413.866 296.917 414.127C297.091 414.129 297.273 414.12 297.465 414.096C298.023 414.228 298.467 414.483 298.691 414.974C298.859 414.862 299.033 414.761 299.219 414.682C299.532 414.566 299.856 414.496 300.183 414.449C300.33 413.938 300.786 413.587 301.226 413.226C301.447 413.101 301.604 412.977 301.728 412.853C301.664 412.271 301.471 411.726 301.109 411.229C300.976 411.272 300.836 411.312 300.676 411.348C298.187 410.845 295.621 410.72 293.214 409.808C293.254 409.573 293.237 409.38 293.18 409.216C293.138 409.257 293.097 409.298 293.059 409.338C293.147 410.168 294.065 410.652 293.983 411.552C293.977 411.569 293.969 411.581 293.963 411.598Z" fill="white"/>
<path d="M303.436 361.189C307.024 359.932 310.414 358.066 314.258 357.605C316.473 357.339 317.205 356.054 317.01 354.009C316.857 351.573 317.206 349.303 319.149 347.558C319.622 345.25 321.136 344.202 323.402 344.064C325.768 345.08 328.801 344.313 330.632 346.758C331.164 346.879 331.858 346.666 332.067 347.452C332.836 347.748 333.799 347.845 334.34 348.373C336.925 350.897 339.653 350.526 342.815 349.519C347.808 347.929 352.951 346.808 358.031 345.488C359.434 345.376 360.223 344.634 360.363 343.226C359.804 342.05 358.716 342.678 357.865 342.482C357.183 342.325 356.15 343.071 355.882 341.796C355.566 340.295 356.913 340.066 357.759 339.749C359.94 338.933 361.86 340.087 362.851 341.698C363.729 343.126 364.753 343.186 365.993 343.364C367.048 343.516 367.713 342.19 368.841 342.616C370.302 342.259 371.763 341.9 373.225 341.547C373.993 341.361 374.861 341.603 374.949 342.268C375.011 342.733 374.29 343.613 373.748 343.79C371.91 344.391 369.996 344.763 368.112 345.222C367.243 345.737 366.409 346.388 365.292 345.955C365.07 346.043 364.839 346.098 364.601 346.122C364.579 346.357 364.519 346.582 364.42 346.796C364.183 349.713 365.574 352.855 363.214 355.478C360.831 361.523 359.029 362.778 353.006 362.586C351.224 362.956 349.448 363.274 347.855 361.998C345.769 360.975 343.623 359.94 342.119 358.166C339.55 355.137 336.603 353.944 332.787 355.468C329.979 356.42 327.196 357.459 324.353 358.289C322.79 358.746 324.237 359.255 324.18 359.721C324.18 359.722 324.179 359.722 324.179 359.723C326.071 361.801 327.969 363.873 329.853 365.959C330.757 366.958 330.991 368.129 330.105 369.175C329.089 370.376 328.206 369.716 327.095 368.931C325.096 367.518 323.472 365.905 321.982 363.935C320.728 362.278 319.615 359.571 316.567 360.528C312.572 361.782 308.496 362.873 304.677 364.541C303.152 365.207 301.495 366.315 300.738 364.804C299.772 362.875 301.681 361.804 303.436 361.189ZM349.573 358.572C349.705 358.731 349.823 358.892 349.924 359.055C353.438 358.196 357.243 358.094 359.954 355.146C360.004 355.216 360.055 355.274 360.106 355.33C359.386 353.059 359.734 350.888 360.448 348.752C355.084 350.457 349.375 351.14 344.073 353.92C345.504 356.163 347.934 356.928 349.573 358.572ZM320.834 354.097C323.955 354.471 326.651 352.148 329.801 352.68C329.843 352.697 329.881 352.718 329.923 352.736C330.224 351.816 330.96 351.013 330.907 349.999C330.176 350.27 329.543 350.302 329.248 349.508C328.328 349.699 327.478 349.667 326.873 348.794C326.572 348.601 326.971 348.408 327.119 348.22C327.033 348.242 326.953 348.266 326.898 348.296C325.659 347.805 324.421 347.684 323.185 348.132C323.093 348.308 323.009 348.484 322.949 348.664C322.667 349.421 322.2 349.93 321.349 349.93C322.045 351.021 322.076 351.977 320.937 352.695C320.916 352.795 320.901 352.896 320.867 352.996C320.848 353.262 320.651 353.326 320.437 353.36C320.426 353.595 320.416 353.83 320.406 354.064C320.554 354.076 320.709 354.081 320.834 354.097Z" fill="white"/>
</g>
<defs>
<clipPath id="clip0_693_3072">
<rect width="204.468" height="230" fill="white" transform="matrix(-1 0 0 1 636 193.383)"/>
</clipPath>
</defs>
</svg>
