<svg width="29" height="29" viewBox="0 0 29 29" fill="none" xmlns="http://www.w3.org/2000/svg">
<path d="M9.37864 9.12574C14.151 9.12574 16.8354 7.80514 16.8354 5.4574C16.8354 4.89712 16.6825 4.39534 16.3849 3.95605C15.4352 2.55456 13.0121 1.78906 9.37864 1.78906C4.60631 1.78906 1.92188 3.10966 1.92188 5.4574C1.92188 7.32564 3.62176 8.54346 6.72093 8.96298C7.51636 9.07065 8.40395 9.12574 9.37864 9.12574Z" fill="white"/>
<path d="M1.97198 5.11719C1.85979 6.60142 1.77344 8.57873 1.77344 10.1209C1.77344 12.2888 1.94409 14.4066 2.11726 16.4544C2.26183 18.1639 3.58275 19.5742 5.27967 19.8267C5.81565 19.9065 6.35758 19.9823 6.90485 20.0444" stroke="#515151" stroke-width="2.67857" stroke-linecap="round" stroke-linejoin="round"/>
<path d="M6.31115 14.7051C3.91572 14.5216 1.99034 13.074 1.77344 11.3125" stroke="#515151" stroke-width="2.67857" stroke-linecap="round"/>
<path d="M6.72093 8.96298C3.62176 8.54346 1.92188 7.32564 1.92188 5.4574C1.92188 3.10966 4.60631 1.78906 9.37864 1.78906C13.0121 1.78906 15.4352 2.55456 16.3849 3.95605" stroke="#515151" stroke-width="2.67857" stroke-linecap="round" stroke-linejoin="round"/>
<path d="M15.0609 26.4127C16.395 26.6112 17.7661 26.785 19.1646 26.785C20.5632 26.785 21.9342 26.6112 23.2684 26.4127C24.9653 26.1601 26.2862 24.7498 26.4307 23.0403C26.6039 20.9926 26.7746 18.8747 26.7746 16.7068C26.7746 15.0048 26.6694 13.3337 26.5404 11.7031H11.7532C11.641 13.1874 11.5547 15.1647 11.5547 16.7068C11.5547 18.8747 11.7253 20.9926 11.8985 23.0403C12.0431 24.7498 13.364 26.1601 15.0609 26.4127Z" stroke="#515151" stroke-width="2.67857" stroke-linejoin="round"/>
<path d="M26.7746 17.8984C26.5576 19.6599 24.6323 21.1075 22.2368 21.2911C21.2301 21.3682 20.2048 21.4242 19.1646 21.4242C18.1245 21.4242 17.0992 21.3682 16.0924 21.2911C13.697 21.1075 11.7716 19.6599 11.5547 17.8984" stroke="#515151" stroke-width="2.67857" stroke-linecap="round"/>
<path d="M19.1599 15.7117C23.9322 15.7117 26.6167 14.3911 26.6167 12.0433C26.6167 9.6956 23.9322 8.375 19.1599 8.375C14.3876 8.375 11.7031 9.6956 11.7031 12.0433C11.7031 14.3911 14.3876 15.7117 19.1599 15.7117Z" fill="white" stroke="#515151" stroke-width="2.67857" stroke-linecap="round" stroke-linejoin="round"/>
</svg>
