<svg width="62" height="63" viewBox="0 0 62 63" fill="none" xmlns="http://www.w3.org/2000/svg">
<path d="M15.3004 7.67899C18.9131 5.50431 23.045 4.35511 27.2562 4.35379C30.76 4.35172 34.219 5.14441 37.3754 6.67279C40.5319 8.20118 43.3043 10.4258 45.4862 13.1809C47.668 15.936 49.2029 19.1504 49.9764 22.5846C50.75 26.0188 50.7422 29.5842 49.9538 33.015C49.1653 36.4457 47.6165 39.6534 45.4227 42.3989C43.229 45.1444 40.4469 47.3569 37.2838 48.8714C34.1208 50.3859 30.6584 51.1635 27.1547 51.146C24.2304 51.1315 21.3403 50.5635 18.6342 49.4772L6.96628 51.4296C5.06467 51.7479 3.50817 49.9274 4.11797 48.0983L7.03862 39.3379C5.22537 36.1417 4.18389 32.5536 4.00894 28.8636C3.80851 24.6363 4.75279 20.4336 6.74121 16.703C8.72962 12.9724 11.6877 9.85367 15.3004 7.67899Z" stroke="#002916" stroke-width="3" stroke-linecap="round" stroke-linejoin="round"/>
<path d="M49.8392 25.3073C47.1297 23.6763 44.0307 22.8144 40.8723 22.8134C38.2445 22.8118 35.6502 23.4064 33.2829 24.5526C30.9156 25.6989 28.8362 27.3674 27.1998 29.4337C25.5635 31.5 24.4123 33.9109 23.8321 36.4865C23.252 39.0622 23.2578 41.7362 23.8491 44.3093C24.4405 46.8823 25.6021 49.2881 27.2474 51.3472C28.8927 53.4063 30.9793 55.0657 33.3516 56.2016C35.7239 57.3375 38.3207 57.9206 40.9484 57.9076C43.1416 57.8966 45.3092 57.4706 47.3388 56.6559L56.0897 58.1203C57.516 58.3589 58.6833 56.9936 58.226 55.6218L56.0355 49.0514C57.3954 46.6543 58.1765 43.9632 58.3078 41.1957C58.4581 38.0253 57.7499 34.8732 56.2585 32.0753C54.7672 29.2773 52.5487 26.9383 49.8392 25.3073Z" fill="#A5CB00" stroke="#002916" stroke-width="3" stroke-linecap="round" stroke-linejoin="round"/>
</svg>
