<svg width="15" height="15" viewBox="0 0 15 15" fill="none" xmlns="http://www.w3.org/2000/svg">
<path d="M3.70259 1.73698C4.57662 1.21085 5.5763 0.932815 6.59513 0.932495C7.44281 0.931993 8.27967 1.12377 9.04332 1.49354C9.80698 1.86331 10.4777 2.40153 11.0056 3.06809C11.5335 3.73464 11.9048 4.51233 12.092 5.34318C12.2791 6.17404 12.2772 7.03663 12.0865 7.86665C11.8957 8.69668 11.521 9.47273 10.9903 10.137C10.4595 10.8012 9.78642 11.3365 9.02117 11.7029C8.25591 12.0693 7.41823 12.2574 6.57057 12.2532C5.86308 12.2497 5.16387 12.1123 4.50916 11.8494L1.68627 12.3218C1.2262 12.3988 0.849633 11.9584 0.997165 11.5159L1.70377 9.39639C1.26508 8.62312 1.01311 7.75503 0.970786 6.86228C0.922296 5.83955 1.15075 4.82276 1.63182 3.9202C2.11289 3.01764 2.82855 2.26311 3.70259 1.73698Z" fill="white"/>
<path d="M3.70259 1.73698C4.57662 1.21085 5.5763 0.932815 6.59513 0.932495C7.44281 0.931993 8.27967 1.12377 9.04332 1.49354C9.80698 1.86331 10.4777 2.40153 11.0056 3.06809C11.5335 3.73464 11.9048 4.51233 12.092 5.34318C12.2791 6.17404 12.2772 7.03663 12.0865 7.86665C11.8957 8.69668 11.521 9.47273 10.9903 10.137C10.4595 10.8012 9.78642 11.3365 9.02117 11.7029C8.25591 12.0693 7.41823 12.2574 6.57057 12.2532C5.86308 12.2497 5.16387 12.1123 4.50916 11.8494L1.68627 12.3218C1.2262 12.3988 0.849633 11.9584 0.997165 11.5159L1.70377 9.39639C1.26508 8.62312 1.01311 7.75503 0.970786 6.86228C0.922296 5.83955 1.15075 4.82276 1.63182 3.9202C2.11289 3.01764 2.82855 2.26311 3.70259 1.73698Z" stroke="#515151" stroke-width="1.5" stroke-linecap="round" stroke-linejoin="round"/>
<path d="M12.0629 6.0018C11.4074 5.6072 10.6576 5.39868 9.89349 5.39844C9.25773 5.39806 8.63009 5.5419 8.05735 5.81922C7.48461 6.09655 6.98154 6.50022 6.58564 7.00013C6.18975 7.50004 5.91124 8.08331 5.77088 8.70645C5.63052 9.32959 5.63192 9.97653 5.77499 10.5991C5.91805 11.2216 6.19909 11.8036 6.59715 12.3018C6.99521 12.8 7.50003 13.2014 8.07397 13.4762C8.64791 13.751 9.27617 13.8921 9.91192 13.889C10.4425 13.8863 10.9669 13.7833 11.458 13.5861L13.5751 13.9404C13.9202 13.9982 14.2026 13.6678 14.092 13.336L13.562 11.7464C13.891 11.1664 14.08 10.5153 14.1118 9.84577C14.1481 9.07873 13.9768 8.31614 13.616 7.63922C13.2552 6.9623 12.7184 6.3964 12.0629 6.0018Z" fill="white" stroke="#515151" stroke-width="1.5" stroke-linecap="round" stroke-linejoin="round"/>
</svg>
