<svg width="25" height="25" viewBox="0 0 25 25" fill="none" xmlns="http://www.w3.org/2000/svg">
<path d="M11.8449 1.60683C8.19304 3.14114 4.60029 5.27407 2.04692 8.0056C1.54449 8.54309 1.9484 9.37165 2.68415 9.37165H22.327C23.0628 9.37165 23.4667 8.54309 22.9642 8.0056C20.4109 5.27407 16.8181 3.14114 13.1663 1.60683C12.7436 1.42922 12.2676 1.42922 11.8449 1.60683Z" stroke="#515151" stroke-width="2.67857" stroke-linecap="round" stroke-linejoin="round"/>
<path d="M5.36049 18.2969C3.28467 18.2969 2.28132 19.9055 1.93487 21.8763C1.76411 22.8476 2.58855 23.654 3.57478 23.654H21.4319C22.4181 23.654 23.2426 22.8476 23.0718 21.8763C22.7254 19.9055 21.722 18.2969 19.6462 18.2969H5.36049Z" stroke="#515151" stroke-width="2.67857" stroke-linecap="round" stroke-linejoin="round"/>
<path d="M5.35938 18.3036V9.375" stroke="#515151" stroke-width="2.67857" stroke-linecap="round" stroke-linejoin="round"/>
<path d="M12.5 18.3036V9.375" stroke="#515151" stroke-width="2.67857" stroke-linecap="round" stroke-linejoin="round"/>
<path d="M19.6406 18.3036V9.375" stroke="#515151" stroke-width="2.67857" stroke-linecap="round" stroke-linejoin="round"/>
</svg>
