<svg width="80" height="100" viewBox="0 0 80 100" fill="none" xmlns="http://www.w3.org/2000/svg">
<path d="M38.3581 6.49283C29.3016 10.2979 20.3915 15.5876 14.0592 22.3618C12.8132 23.6948 13.8148 25.7496 15.6395 25.7496H64.3538C66.1785 25.7496 67.1802 23.6948 65.9341 22.3618C59.6018 15.5876 50.6918 10.2979 41.6352 6.49283C40.5868 6.05236 39.4065 6.05236 38.3581 6.49283Z" fill="#A5CB00" stroke="#002916" stroke-width="3" stroke-linecap="round" stroke-linejoin="round"/>
<path d="M22.2556 47.8931C17.1075 47.8931 14.6192 51.8826 13.76 56.77C13.3366 59.1789 15.3812 61.1788 17.827 61.1788H62.1127C64.5586 61.1788 66.6032 59.1789 66.1797 56.77C65.3205 51.8826 62.8322 47.8931 57.6842 47.8931H22.2556Z" stroke="#002916" stroke-width="3" stroke-linecap="round" stroke-linejoin="round"/>
<path d="M22.2812 47.8931V25.7502" stroke="#002916" stroke-width="3" stroke-linecap="round" stroke-linejoin="round"/>
<path d="M39.9688 47.8931V25.7502" stroke="#002916" stroke-width="3" stroke-linecap="round" stroke-linejoin="round"/>
<path d="M57.7031 47.8931V25.7502" stroke="#002916" stroke-width="3" stroke-linecap="round" stroke-linejoin="round"/>
<path d="M39.5156 89.2656H26.6406V87.875H32.1875V86.5156H28.3125V81.1094H30.0312V82.5156H36.125V81.1094H37.8438V86.5156H33.9375V87.875H39.5156V89.2656ZM28.0625 90.3906H37.9375V94.8906H36.2031V91.7656H28.0625V90.3906ZM36.125 85.125V83.8125H30.0312V85.125H36.125ZM45.7969 84.7812C45.7969 85.5573 45.9427 86.3255 46.2344 87.0859C46.5312 87.8411 46.9531 88.5208 47.5 89.125C48.0521 89.724 48.6979 90.1771 49.4375 90.4844L48.4844 91.8594C47.6667 91.5052 46.9557 90.9818 46.3516 90.2891C45.7474 89.5911 45.2786 88.7812 44.9453 87.8594C44.612 88.849 44.1406 89.724 43.5312 90.4844C42.9219 91.2448 42.2135 91.8177 41.4062 92.2031L40.4062 90.8438C41.1302 90.5104 41.7656 90.0208 42.3125 89.375C42.8594 88.7292 43.2812 88.0026 43.5781 87.1953C43.875 86.388 44.026 85.5833 44.0312 84.7812V83.5938H40.9219V82.1562H48.8906V83.5938H45.7969V84.7812ZM50.4688 80.7656H52.2188V94.8906H50.4688V80.7656Z" fill="#002916"/>
</svg>
