<svg width="20" height="19" viewBox="0 0 20 19" fill="none" xmlns="http://www.w3.org/2000/svg">
<path d="M7.81492 3.271C6.63515 3.32414 5.47799 3.4533 4.34965 3.58382C3.04745 3.73446 2.00603 4.77537 1.86051 6.07815C1.69692 7.54261 1.53906 9.05575 1.53906 10.6039C1.53906 12.152 1.69692 13.6652 1.86051 15.1296C2.00603 16.4324 3.04745 17.4733 4.34965 17.6239C5.82109 17.7942 7.34156 17.9621 8.89724 17.9621C10.4529 17.9621 11.9734 17.7942 13.4448 17.6239C14.747 17.4733 15.7884 16.4324 15.934 15.1297C16.0516 14.0762 16.1664 12.9976 16.2215 11.8988" stroke="white" stroke-width="2.03571" stroke-linecap="round"/>
<path d="M14.2132 1.76817L9.2122 7.4426L8.52709 10.6649C8.41685 11.1834 8.95731 11.674 9.46344 11.5149L12.6701 10.5068L17.8355 5.07152C18.6934 4.16879 18.5438 2.65891 17.5053 1.74038C16.4912 0.843369 15.0172 0.855809 14.2132 1.76817Z" stroke="white" stroke-width="2.03571" stroke-linecap="round" stroke-linejoin="round"/>
</svg>
