<svg width="19" height="19" viewBox="0 0 19 19" fill="none" xmlns="http://www.w3.org/2000/svg">
<g clip-path="url(#clip0_1141_2791)">
<path d="M14.5275 3.39136C13.9125 3.39136 13.4141 3.88969 13.4141 4.5047C13.4141 5.11971 13.9125 5.61804 14.5275 5.61804C15.1426 5.61804 15.641 5.11971 15.641 4.5047C15.641 3.88969 15.1426 3.39136 14.5275 3.39136Z" fill="#ADADAD"/>
<path d="M9.57773 4.82129C6.9968 4.82129 4.89844 6.91944 4.89844 9.5001C4.89844 12.0808 6.9968 14.1789 9.57773 14.1789C12.1587 14.1789 14.257 12.0808 14.257 9.5001C14.257 6.91944 12.1587 4.82129 9.57773 4.82129ZM9.57773 12.496C7.92436 12.496 6.5795 11.1513 6.5795 9.49812C6.5795 7.84492 7.92436 6.5002 9.57773 6.5002C11.2311 6.5002 12.576 7.84492 12.576 9.49812C12.576 11.1513 11.2311 12.496 9.57773 12.496Z" fill="#ADADAD"/>
<path d="M13.2943 19H5.70771C2.56115 19 0 16.4391 0 13.2929V5.70712C0 2.56089 2.56115 0 5.70771 0H13.2943C16.4408 0 19.002 2.56089 19.002 5.70712V13.2929C19.002 16.4391 16.4408 19 13.2943 19ZM5.70771 1.78768C3.54606 1.78768 1.78786 3.54569 1.78786 5.70712V13.2929C1.78786 15.4543 3.54606 17.2123 5.70771 17.2123H13.2943C15.4559 17.2123 17.2141 15.4543 17.2141 13.2929V5.70712C17.2141 3.54569 15.4559 1.78768 13.2943 1.78768H5.70771Z" fill="#ADADAD"/>
</g>
<defs>
<clipPath id="clip0_1141_2791">
<rect width="19" height="19" fill="white"/>
</clipPath>
</defs>
</svg>
