<svg width="636" height="457" viewBox="0 0 636 457" fill="none" xmlns="http://www.w3.org/2000/svg">
<path d="M0 0.383484H627C631.971 0.383484 636 4.41292 636 9.38348V447.383C636 452.354 631.971 456.383 627 456.383H0V0.383484Z" fill="#009A57"/>
<path d="M521.927 297.15C521.991 297.111 522.057 297.073 522.117 297.03C522.034 297.071 521.956 297.093 521.874 297.129C521.892 297.136 521.909 297.143 521.927 297.15Z" fill="white"/>
<g clip-path="url(#clip0_782_18025)">
<path d="M364.582 309.643C364.372 307.856 364.144 306.069 363.881 304.287C362.871 297.331 361.481 290.44 359.711 283.636C358.806 280.166 357.807 276.715 356.727 273.298C356.341 272.089 355.967 270.857 355.57 269.636C355.348 269.63 355.126 269.625 354.899 269.613C353.018 269.502 351.102 269.321 349.268 268.877C346.08 268.106 343.043 266.114 342.523 262.639C342.05 259.445 344.386 256.822 347.621 256.922C351.102 257.033 353.468 259.684 354.817 262.663C355.588 264.362 356.242 266.126 356.849 267.913C358.911 267.907 360.961 267.662 362.917 266.979C363.501 266.774 364.068 266.512 364.617 266.214C364.056 265.682 363.542 265.098 363.099 264.444C361.259 261.763 360.622 257.698 362.958 255.094C365.061 252.746 368.962 252.722 370.633 255.561C372.256 258.329 371.316 261.904 369.488 264.316C368.933 265.052 368.296 265.7 367.607 266.272C367.701 266.331 367.788 266.389 367.882 266.442C370.084 267.691 372.642 268.287 375.153 268.451C375.398 268.468 375.65 268.48 375.907 268.492C376.012 267.551 376.152 266.611 376.374 265.694C377.116 262.599 379.125 259.859 382.512 259.62C383.896 259.521 385.345 260 386.244 261.092C387.243 262.301 387.4 263.983 386.887 265.437C385.672 268.895 381.963 269.876 378.675 270.168C378.284 270.203 377.892 270.226 377.489 270.238C377.483 270.32 377.472 270.401 377.466 270.483L376.917 276.125C376.543 279.933 376.175 283.741 375.801 287.549C375.083 294.902 374.365 302.261 373.646 309.62C373.676 309.62 373.705 309.62 373.734 309.614C374.616 309.52 375.492 309.415 376.374 309.298C376.823 309.24 377.267 309.182 377.717 309.123C377.916 309.094 378.12 309.047 378.319 309.036C377.787 307.05 378.219 304.977 379.329 303.189C380.795 300.83 383.073 299.241 385.678 298.371C388.755 297.337 392.032 297.209 395.209 296.625C400.857 295.585 405.88 292.624 409.909 288.583C414.214 284.272 417.251 278.882 419.353 273.193C421.66 266.95 423.056 260.309 423.926 253.715C424.802 247.075 424.995 240.247 423.71 233.648C422.706 228.485 420.86 223.509 418.32 218.906C413.221 209.661 405.424 201.94 396.126 196.941C386.425 191.719 375.276 189.868 364.366 191.147C353.304 192.438 342.523 196.941 333.891 203.978C325.112 211.139 318.676 220.898 315.102 231.615C311.504 242.397 310.698 254.13 313.058 265.268C314.354 271.383 316.609 277.398 320.586 282.298C324.114 286.644 328.675 290.031 333.704 292.449C336.203 293.652 338.826 294.598 341.501 295.317C344.415 296.093 347.405 296.397 350.349 297.051C353.123 297.664 355.862 298.768 357.673 301.046C359.337 303.143 360.05 305.841 358.94 308.358C358.917 308.417 358.888 308.463 358.853 308.51C360.727 309.188 362.66 309.591 364.623 309.795C364.611 309.748 364.594 309.696 364.588 309.643H364.582Z" fill="#9EC200"/>
<path d="M375.009 277.719C375.214 275.599 375.424 273.479 375.628 271.353C375.663 270.985 375.699 270.612 375.734 270.244C372.34 270.127 368.813 269.286 366.062 267.382C364.485 268.346 362.715 268.994 360.881 269.321C359.742 269.525 358.586 269.619 357.43 269.648C357.879 271.055 358.312 272.469 358.744 273.865C359.941 277.708 361.033 281.586 361.997 285.499C363.959 293.448 365.384 301.513 366.336 309.637C366.348 309.742 366.336 309.83 366.325 309.912C367.072 309.947 367.826 309.958 368.573 309.947C369.677 309.929 370.781 309.865 371.879 309.777C372.066 307.862 372.253 305.946 372.44 304.036C373.298 295.264 374.151 286.492 375.009 277.714V277.719Z" fill="#9EC200"/>
<path d="M385.422 263.866C385.457 262.651 384.71 261.67 383.512 261.425C380.715 260.858 378.84 263.34 378.18 265.717C377.923 266.634 377.783 267.575 377.672 268.515C379.681 268.468 381.754 268.141 383.39 267.131C384.523 266.43 385.387 265.227 385.422 263.866Z" fill="#9EC200"/>
<path d="M369.067 261.652C369.978 259.661 370.212 255.619 367.304 255.129C366.106 254.93 364.798 255.537 364.074 256.489C363.128 257.716 363.04 259.445 363.396 260.899C363.823 262.628 364.833 264.082 366.147 265.221C367.379 264.269 368.413 263.066 369.062 261.652H369.067Z" fill="#9EC200"/>
<path d="M347.339 258.674C346.142 258.703 344.968 259.269 344.465 260.403C343.951 261.565 344.226 262.972 344.828 264.041C346.323 266.716 349.757 267.341 352.543 267.65C353.349 267.738 354.16 267.814 354.978 267.861C354.488 266.43 353.962 265.016 353.355 263.65C352.239 261.144 350.364 258.604 347.333 258.674H347.339Z" fill="#9EC200"/>
<path d="M378.539 308.977C378.539 308.977 378.504 309.036 378.469 309.135C378.486 309.077 378.515 309.024 378.539 308.977Z" fill="white"/>
<path d="M379.219 310.572C379.359 310.601 379.511 310.589 379.657 310.537C379.645 310.472 379.633 310.414 379.628 310.35C379.505 310.443 379.365 310.507 379.225 310.566L379.219 310.572Z" fill="white"/>
<path d="M358.529 308.399C358.634 308.44 358.745 308.475 358.851 308.51C358.88 308.463 358.909 308.417 358.938 308.358C360.048 305.841 359.335 303.143 357.671 301.046C355.86 298.768 353.121 297.664 350.347 297.051C347.409 296.403 344.419 296.093 341.499 295.317C338.818 294.604 336.201 293.652 333.702 292.449C328.673 290.031 324.112 286.644 320.584 282.298C316.607 277.398 314.352 271.383 313.056 265.268C310.696 254.136 311.502 242.397 315.1 231.615C318.68 220.898 325.11 211.139 333.889 203.978C342.527 196.935 353.302 192.438 364.364 191.147C375.274 189.874 386.423 191.719 396.124 196.941C405.422 201.946 413.219 209.661 418.318 218.906C420.858 223.509 422.698 228.485 423.708 233.648C424.993 240.247 424.806 247.075 423.924 253.715C423.054 260.303 421.658 266.944 419.351 273.193C417.249 278.882 414.212 284.272 409.907 288.583C405.872 292.618 400.849 295.579 395.207 296.625C392.036 297.209 388.759 297.337 385.676 298.371C383.071 299.241 380.787 300.83 379.327 303.189C378.217 304.977 377.785 307.05 378.317 309.036C378.317 309.036 378.322 309.036 378.328 309.036C378.463 309.036 378.527 308.983 378.539 308.971C378.702 308.679 378.988 308.539 379.28 308.533C379.263 308.463 379.251 308.387 379.234 308.317C379.111 307.798 379.426 307.424 379.818 307.284C379.841 305.526 380.828 303.797 382.049 302.547C384.198 300.351 387.206 299.609 390.149 299.136C393.262 298.64 396.404 298.377 399.406 297.349C402.093 296.426 404.634 295.083 406.935 293.418C417.231 285.972 421.91 273.684 424.351 261.652C425.758 254.708 426.675 247.583 426.29 240.481C425.98 234.798 424.777 229.209 422.64 223.929C418.633 214.047 411.741 205.462 403.098 199.236C394.138 192.788 383.409 189.243 372.377 189.009C361.14 188.77 349.845 191.813 340.167 197.507C330.285 203.324 322.336 211.956 317.162 222.171C312.005 232.351 309.517 243.886 310.036 255.292C310.311 261.355 311.368 267.493 313.506 273.181C315.626 278.829 318.955 283.863 323.504 287.841C327.756 291.561 332.785 294.318 338.123 296.123C340.839 297.039 343.619 297.664 346.44 298.12C349.372 298.593 352.712 298.99 355.101 300.923C356.935 302.407 358.448 305.088 357.425 307.447C357.974 307.319 358.646 307.722 358.523 308.393L358.529 308.399Z" fill="white"/>
<path d="M369.496 311.681C371.441 311.611 373.386 311.419 375.319 311.185C376.271 311.068 377.229 310.94 378.181 310.811C378.555 310.759 378.911 310.694 379.221 310.572C379.022 310.525 378.835 310.391 378.718 310.139C378.549 309.777 378.42 309.409 378.321 309.036C378.123 309.042 377.918 309.094 377.72 309.123C377.276 309.182 376.826 309.24 376.376 309.298C375.5 309.409 374.618 309.52 373.736 309.614C373.707 309.614 373.678 309.614 373.649 309.62C373.625 309.883 373.596 310.139 373.573 310.402C373.462 311.518 371.71 311.524 371.821 310.402C371.838 310.198 371.862 309.988 371.879 309.783C370.781 309.871 369.677 309.935 368.573 309.953C367.82 309.964 367.072 309.953 366.325 309.918C366.167 310.7 364.859 310.653 364.619 309.795C362.657 309.596 360.724 309.187 358.849 308.51C358.738 308.674 358.592 308.767 358.429 308.802C358.306 309.234 358.195 309.666 358.102 310.104C361.734 311.471 365.642 311.827 369.496 311.681Z" fill="white"/>
<path d="M358.43 308.802C358.587 308.767 358.733 308.674 358.85 308.51C358.745 308.469 358.634 308.44 358.529 308.399C358.523 308.434 358.517 308.469 358.506 308.51C358.476 308.609 358.459 308.703 358.43 308.802Z" fill="white"/>
<path d="M379.224 310.572C379.37 310.513 379.51 310.443 379.627 310.356C379.527 309.742 379.416 309.135 379.276 308.533C378.984 308.545 378.698 308.679 378.534 308.971C378.505 309.018 378.482 309.071 378.464 309.129C378.499 309.024 378.529 308.983 378.534 308.971C378.523 308.983 378.464 309.03 378.324 309.036C378.324 309.036 378.318 309.036 378.312 309.036C378.412 309.409 378.54 309.777 378.71 310.139C378.826 310.391 379.013 310.531 379.212 310.572H379.224Z" fill="white"/>
<path d="M357.592 319.426C357.767 319.472 357.942 319.519 358.118 319.566C358.118 319.543 358.106 319.513 358.1 319.49C357.826 318.275 357.668 317.037 357.615 315.799C357.44 315.764 357.265 315.729 357.09 315.688C355.986 315.443 356.459 313.755 357.557 314C357.574 314 357.586 314.006 357.604 314.012C357.65 312.698 357.826 311.395 358.106 310.104C358.059 310.087 358.013 310.075 357.966 310.058C357.259 309.789 357.242 308.925 357.627 308.522C357.376 308.271 357.247 307.885 357.423 307.482C357.423 307.476 357.423 307.47 357.428 307.459C357.16 307.523 356.92 307.704 356.815 308.049C355.746 311.623 355.554 315.408 356.231 319.081C356.313 319.537 356.412 319.998 356.523 320.454C356.436 319.893 356.879 319.233 357.592 319.432V319.426Z" fill="white"/>
<path d="M380.118 308.983C380.141 309.024 380.159 309.065 380.17 309.112C380.194 309.158 380.205 309.211 380.229 309.258C380.503 309.842 380.118 310.379 379.656 310.543C379.831 311.681 379.937 312.826 379.972 313.977C379.983 313.977 380.001 313.971 380.013 313.965C381.111 313.72 381.578 315.408 380.48 315.653C380.31 315.688 380.147 315.723 379.977 315.758C379.948 316.698 379.878 317.633 379.756 318.567C379.726 318.801 379.691 319.046 379.656 319.291C379.796 319.227 379.937 319.175 380.077 319.105C380.643 318.83 381.175 319.18 381.35 319.636C381.975 315.723 381.823 311.716 380.918 307.85C380.783 307.272 380.252 307.132 379.814 307.284C379.808 307.85 379.902 308.422 380.118 308.983Z" fill="white"/>
<path d="M363.555 326.826C367.165 327.281 370.815 327.363 374.442 327.007C374.664 326.983 374.886 326.966 375.108 326.937C375.131 326.738 375.166 326.534 375.19 326.335C375.318 325.225 377.07 325.219 376.942 326.335C376.93 326.434 376.912 326.534 376.901 326.633C377.672 326.434 378.408 326.119 379.038 325.593C380.393 324.466 380.785 322.58 381.118 320.938C381.153 320.775 381.176 320.606 381.205 320.436C381.141 320.5 381.065 320.565 380.96 320.611C380.411 320.88 379.85 321.114 379.29 321.336C379.12 322.054 378.904 322.749 378.583 323.362C377.87 324.729 376.416 325.033 375.003 325.19C371.493 325.582 367.924 325.564 364.414 325.173C363.555 325.079 362.697 324.957 361.844 324.805C361.102 324.676 360.261 324.571 359.742 323.958C359.251 323.374 359.012 322.545 358.766 321.838C358.731 321.733 358.702 321.628 358.667 321.522C358.147 321.394 357.633 321.254 357.125 321.114C356.833 321.032 356.658 320.851 356.57 320.641C356.88 321.885 357.289 323.123 357.861 324.244C358.79 326.055 360.501 326.382 362.352 326.656C362.364 326.656 362.376 326.656 362.387 326.656C362.744 326.446 363.258 326.463 363.55 326.814L363.555 326.826Z" fill="white"/>
<path d="M357.626 308.516C357.813 308.323 358.087 308.23 358.426 308.364C358.461 308.376 358.496 308.387 358.531 308.399C358.654 307.727 357.982 307.33 357.433 307.453C357.433 307.459 357.433 307.465 357.427 307.476C357.246 307.879 357.38 308.265 357.632 308.516H357.626Z" fill="white"/>
<path d="M379.232 308.317C379.249 308.387 379.261 308.463 379.279 308.533C379.623 308.522 379.968 308.691 380.126 308.983C379.909 308.422 379.81 307.85 379.822 307.284C379.431 307.424 379.115 307.797 379.238 308.317H379.232Z" fill="white"/>
<path d="M380.158 309.602C380.042 309.947 379.861 310.186 379.633 310.356C379.644 310.42 379.656 310.478 379.662 310.542C380.129 310.379 380.509 309.842 380.234 309.258C380.211 309.211 380.193 309.158 380.176 309.112C380.217 309.252 380.217 309.421 380.158 309.602Z" fill="white"/>
<path d="M357.626 308.516C357.241 308.919 357.258 309.783 357.965 310.052C358.012 310.069 358.058 310.081 358.105 310.099C358.199 309.661 358.31 309.228 358.432 308.796C358.152 308.855 357.842 308.732 357.626 308.51V308.516Z" fill="white"/>
<path d="M380.117 308.983C380.135 309.024 380.152 309.065 380.17 309.112C380.158 309.065 380.141 309.024 380.117 308.983Z" fill="white"/>
<path d="M380.155 309.602C380.22 309.421 380.214 309.258 380.173 309.112C380.155 309.071 380.138 309.03 380.12 308.983C379.968 308.691 379.624 308.522 379.273 308.533C379.408 309.135 379.525 309.748 379.624 310.356C379.852 310.186 380.033 309.947 380.149 309.602H380.155Z" fill="white"/>
<path d="M358.431 308.802C358.46 308.703 358.478 308.609 358.507 308.51C358.519 308.469 358.524 308.434 358.53 308.399C358.495 308.387 358.46 308.376 358.425 308.364C358.086 308.235 357.806 308.323 357.625 308.516C357.847 308.738 358.156 308.86 358.431 308.802Z" fill="white"/>
<path d="M379.981 315.764C379.998 315.168 379.992 314.572 379.981 313.977C376.301 314.8 372.569 315.314 368.796 315.32C365.023 315.326 361.286 314.823 357.606 314.006C357.583 314.602 357.594 315.203 357.624 315.799C361.297 316.587 365.035 317.078 368.796 317.072C372.563 317.072 376.313 316.564 379.987 315.764H379.981Z" fill="white"/>
<path d="M379.982 315.764C380.152 315.729 380.315 315.694 380.485 315.659C381.583 315.413 381.121 313.72 380.017 313.971C380.006 313.971 379.988 313.977 379.977 313.982C379.994 314.578 380 315.174 379.977 315.77L379.982 315.764Z" fill="white"/>
<path d="M357.601 314.006C357.601 314.006 357.572 314 357.554 313.994C356.456 313.749 355.989 315.437 357.087 315.682C357.262 315.723 357.437 315.758 357.613 315.793C357.583 315.197 357.572 314.596 357.595 314L357.601 314.006Z" fill="white"/>
<path d="M381.351 319.636C381.31 319.905 381.258 320.173 381.211 320.442C381.433 320.214 381.456 319.91 381.351 319.636Z" fill="white"/>
<path d="M358.123 319.566C358.275 320.226 358.462 320.88 358.672 321.522C365.464 323.239 372.701 323.923 379.295 321.341C379.452 320.664 379.563 319.963 379.657 319.291C372.858 322.416 365.137 321.458 358.117 319.566H358.123Z" fill="white"/>
<path d="M356.576 320.641C356.558 320.576 356.541 320.512 356.523 320.448C356.535 320.512 356.553 320.576 356.576 320.641Z" fill="white"/>
<path d="M380.087 319.105C379.947 319.175 379.807 319.227 379.667 319.291C379.573 319.963 379.462 320.658 379.305 321.341C379.865 321.119 380.42 320.886 380.975 320.617C381.074 320.57 381.156 320.506 381.22 320.442C381.273 320.173 381.32 319.905 381.361 319.636C381.185 319.186 380.66 318.83 380.087 319.105Z" fill="white"/>
<path d="M357.136 321.119C357.65 321.26 358.164 321.394 358.678 321.528C358.468 320.886 358.281 320.232 358.129 319.572C357.954 319.525 357.778 319.478 357.603 319.432C356.891 319.233 356.447 319.893 356.534 320.454C356.552 320.518 356.569 320.582 356.587 320.646C356.675 320.862 356.85 321.044 357.142 321.119H357.136Z" fill="white"/>
<path d="M369.665 336.859C368.824 336.965 367.592 337.04 366.914 336.421C366.733 336.258 366.587 336.042 366.471 335.814H364.602C365.005 336.889 365.583 337.864 366.727 338.325C368.485 339.032 370.705 338.629 372.381 337.881C373.193 337.519 373.94 337.017 374.478 336.293C374.589 336.141 374.682 335.977 374.776 335.814H372.509C371.709 336.41 370.646 336.737 369.665 336.859Z" fill="white"/>
<path d="M365.84 333.916C365.139 331.656 364.432 329.395 363.731 327.141C363.691 327.012 363.632 326.913 363.562 326.826C363.177 326.779 362.785 326.726 362.4 326.668C362.102 326.843 361.909 327.17 362.044 327.608C362.698 329.705 363.346 331.796 364 333.892C364.193 334.517 364.368 335.183 364.607 335.82H366.476C366.167 335.23 366.027 334.488 365.846 333.922L365.84 333.916Z" fill="white"/>
<path d="M376.9 326.633C376.316 326.785 375.708 326.872 375.107 326.936C374.838 329.027 374.435 331.095 373.886 333.127C373.617 334.114 373.378 335.16 372.519 335.802C372.519 335.802 372.514 335.802 372.508 335.808H374.774C375.154 335.119 375.37 334.348 375.574 333.589C376.193 331.305 376.619 328.975 376.9 326.627V326.633Z" fill="white"/>
<path d="M375.191 326.335C375.168 326.534 375.139 326.738 375.109 326.937C375.711 326.872 376.318 326.785 376.902 326.633C376.914 326.534 376.932 326.434 376.943 326.335C377.072 325.219 375.32 325.225 375.191 326.335Z" fill="white"/>
<path d="M362.398 326.668C362.784 326.726 363.175 326.779 363.561 326.826C363.269 326.475 362.761 326.458 362.398 326.668Z" fill="white"/>
<path d="M357.433 269.648C357.247 269.07 357.06 268.492 356.861 267.913C356.236 267.913 355.611 267.902 354.992 267.867C355.191 268.456 355.389 269.046 355.582 269.636C356.201 269.66 356.82 269.665 357.439 269.648H357.433Z" fill="white"/>
<path d="M352.555 267.656C349.769 267.347 346.335 266.716 344.84 264.047C344.238 262.972 343.964 261.571 344.478 260.408C344.98 259.269 346.154 258.703 347.351 258.68C350.382 258.615 352.257 261.15 353.373 263.656C353.98 265.022 354.506 266.436 354.996 267.867C355.621 267.902 356.246 267.919 356.865 267.913C356.264 266.126 355.61 264.362 354.833 262.663C353.484 259.684 351.118 257.033 347.637 256.922C344.402 256.822 342.06 259.445 342.539 262.639C343.053 266.114 346.09 268.106 349.284 268.877C351.118 269.321 353.034 269.502 354.915 269.613C355.137 269.625 355.358 269.63 355.586 269.636C355.394 269.046 355.201 268.456 354.996 267.867C354.179 267.82 353.367 267.75 352.561 267.656H352.555Z" fill="white"/>
<path d="M376.923 276.131L377.472 270.489C377.478 270.407 377.49 270.325 377.495 270.244C376.917 270.267 376.327 270.267 375.737 270.244C375.702 270.612 375.673 270.985 375.632 271.353C375.428 273.473 375.218 275.593 375.013 277.719C374.155 286.492 373.302 295.264 372.444 304.042C372.257 305.958 372.07 307.873 371.883 309.783C372.473 309.736 373.063 309.684 373.652 309.62C374.371 302.261 375.089 294.908 375.808 287.549C376.181 283.741 376.549 279.933 376.923 276.125V276.131Z" fill="white"/>
<path d="M366.334 309.643C365.382 301.513 363.957 293.448 361.995 285.505C361.031 281.597 359.939 277.713 358.742 273.87C358.304 272.475 357.877 271.061 357.428 269.654C356.808 269.671 356.189 269.665 355.57 269.642C355.962 270.869 356.341 272.095 356.727 273.304C357.813 276.721 358.812 280.172 359.711 283.642C361.481 290.44 362.871 297.337 363.881 304.293C364.138 306.075 364.372 307.862 364.582 309.649C364.588 309.701 364.6 309.754 364.617 309.801C365.184 309.859 365.75 309.894 366.323 309.923C366.34 309.842 366.346 309.748 366.334 309.649V309.643Z" fill="white"/>
<path d="M377.67 268.515C377.781 267.569 377.921 266.634 378.178 265.717C378.838 263.34 380.719 260.858 383.51 261.425C384.708 261.67 385.455 262.651 385.42 263.866C385.379 265.227 384.515 266.436 383.388 267.131C381.753 268.141 379.685 268.468 377.67 268.515C377.606 269.093 377.547 269.665 377.489 270.244C377.886 270.226 378.283 270.209 378.675 270.174C381.963 269.887 385.671 268.9 386.886 265.443C387.394 263.989 387.237 262.306 386.244 261.098C385.344 260.005 383.896 259.526 382.512 259.626C379.124 259.871 377.115 262.604 376.373 265.7C376.152 266.617 376.017 267.557 375.906 268.497C376.479 268.521 377.068 268.527 377.67 268.515Z" fill="white"/>
<path d="M377.492 270.244C377.545 269.665 377.603 269.093 377.673 268.515C377.072 268.532 376.482 268.521 375.91 268.497C375.845 269.081 375.787 269.665 375.734 270.244C376.324 270.261 376.914 270.261 377.492 270.244Z" fill="white"/>
<path d="M375.732 270.244C375.785 269.66 375.837 269.076 375.907 268.497C375.656 268.486 375.399 268.474 375.154 268.456C372.643 268.293 370.085 267.697 367.883 266.447C367.789 266.395 367.702 266.331 367.608 266.278C367.118 266.687 366.598 267.049 366.055 267.382C368.806 269.286 372.333 270.133 375.726 270.244H375.732Z" fill="white"/>
<path d="M363.398 260.899C363.042 259.445 363.129 257.722 364.076 256.489C364.806 255.537 366.108 254.93 367.305 255.129C370.214 255.613 369.98 259.661 369.069 261.652C368.421 263.066 367.387 264.269 366.155 265.221C366.61 265.612 367.101 265.968 367.615 266.284C368.304 265.706 368.941 265.057 369.495 264.327C371.318 261.915 372.264 258.341 370.64 255.572C368.97 252.734 365.074 252.757 362.966 255.105C360.636 257.704 361.272 261.775 363.106 264.456C363.556 265.11 364.07 265.694 364.625 266.225C365.162 265.933 365.67 265.6 366.149 265.227C364.835 264.088 363.819 262.634 363.398 260.905V260.899Z" fill="white"/>
<path d="M367.617 266.278C367.103 265.963 366.613 265.612 366.157 265.215C365.678 265.589 365.164 265.922 364.633 266.214C365.083 266.64 365.561 267.025 366.07 267.376C366.613 267.043 367.133 266.681 367.623 266.272L367.617 266.278Z" fill="white"/>
<path d="M360.883 269.321C362.723 268.994 364.493 268.345 366.064 267.382C365.556 267.031 365.077 266.64 364.627 266.22C364.078 266.517 363.506 266.78 362.928 266.985C360.971 267.668 358.921 267.907 356.859 267.919C357.052 268.497 357.245 269.076 357.432 269.654C358.588 269.625 359.739 269.531 360.883 269.327V269.321Z" fill="white"/>
<path d="M371.825 310.402C371.714 311.524 373.467 311.518 373.577 310.402C373.601 310.139 373.63 309.883 373.653 309.62C373.064 309.684 372.474 309.736 371.884 309.783C371.866 309.988 371.843 310.198 371.825 310.402Z" fill="white"/>
<path d="M366.323 309.918C365.75 309.888 365.184 309.853 364.617 309.795C364.857 310.653 366.165 310.7 366.323 309.918Z" fill="white"/>
<path d="M492.429 374.477C486.734 373.847 481.928 370.202 478.447 365.84C474.569 360.986 471.736 354.725 471.356 348.482C470.959 341.958 473.395 335.44 476.59 329.851C479.492 324.776 483.382 320.191 488.142 316.763C498.135 309.573 512.158 307.955 522.729 314.899C525.474 316.704 527.892 318.964 530.111 321.376C532.33 323.789 534.345 326.352 536.033 329.15C539.333 334.622 541.015 340.802 540.635 347.203C540.256 353.604 538.042 359.357 534.17 364.14C530.578 368.573 525.748 372.013 520.352 373.864C519.026 374.32 517.671 374.676 516.298 374.951C515.195 375.167 515.662 376.86 516.766 376.638C529.101 374.203 539.193 364.344 541.751 352.009C543.112 345.439 542.423 338.6 539.73 332.456C537.009 326.247 532.453 320.617 527.337 316.208C522.221 311.798 516.123 309.158 509.372 308.726C502.62 308.294 496.243 309.906 490.566 313.118C485.233 316.138 480.742 320.495 477.255 325.511C473.488 330.926 470.586 337.362 469.762 343.938C468.892 350.923 471.193 357.949 474.896 363.819C478.055 368.824 482.553 373.292 488.224 375.278C489.59 375.757 490.998 376.049 492.435 376.206C493.556 376.329 493.544 374.577 492.435 374.454L492.429 374.477Z" fill="white"/>
<path d="M492.061 376.124C492.908 378.706 493.474 381.416 493.404 384.143C493.375 385.282 495.063 385.253 495.156 384.143C495.156 384.196 495.22 384.009 495.226 384.003C495.396 383.81 495.507 383.729 495.711 383.606C496.225 383.302 496.797 383.115 497.37 382.964C498.73 382.59 500.144 382.403 501.551 382.286C503.414 382.128 505.19 382.21 507.047 382.432C508.408 382.596 509.763 382.812 511.1 383.115C512.216 383.372 513.425 383.653 514.394 384.289C514.552 384.389 514.593 384.424 514.762 384.605C514.663 384.5 514.792 384.651 514.821 384.704C514.786 384.646 514.838 384.757 514.832 384.739C514.78 384.99 514.821 384.593 514.832 384.739C514.809 384.862 514.78 384.984 514.774 385.107C514.774 385.247 514.792 385.393 514.803 385.533C514.821 385.714 514.757 386.246 514.932 385.82C515.089 385.434 514.949 385.662 514.751 385.779C514.657 385.831 514.564 385.884 514.465 385.936C514.243 386.059 514.015 386.17 513.781 386.275C513.285 386.509 512.765 386.707 512.245 386.877C511.2 387.221 510.113 387.467 509.021 387.607C506.446 387.945 503.8 387.794 501.259 387.28C499.939 387.011 498.631 386.655 497.358 386.199C496.283 385.814 495.302 385.095 495.139 383.904C494.981 382.794 493.293 383.267 493.451 384.371C493.825 387.029 496.751 387.934 498.952 388.53C501.569 389.236 504.308 389.61 507.018 389.517C509.541 389.429 512.052 388.944 514.371 387.922C515.311 387.507 516.602 387.099 516.59 385.895C516.59 385.703 516.561 385.51 516.544 385.323C516.538 385.253 516.532 385.177 516.532 385.107C516.532 385.136 516.52 385.306 516.544 385.13C516.579 384.821 516.602 384.558 516.52 384.254C516.182 383.028 514.78 382.426 513.699 382.029C512.216 381.486 510.645 381.194 509.091 380.949C506.819 380.592 504.542 380.33 502.241 380.476C500.389 380.592 498.491 380.803 496.71 381.322C495.296 381.737 493.562 382.455 493.416 384.132H495.168C495.244 381.258 494.66 378.367 493.76 375.651C493.41 374.583 491.716 375.044 492.072 376.119L492.061 376.124Z" fill="white"/>
<path d="M516.885 384.307C516.967 381.574 517.113 378.84 517.154 376.107C517.172 374.98 515.419 374.98 515.402 376.107C515.361 378.84 515.209 381.574 515.133 384.307C515.098 385.434 516.85 385.434 516.885 384.307Z" fill="white"/>
<path d="M493.776 385.896C494.179 386.824 494.039 387.934 494.179 388.921C494.331 389.995 494.781 390.907 495.651 391.572C497.502 392.986 500.008 393.617 502.28 393.914C504.552 394.212 507.063 394.142 509.446 393.938C511.618 393.751 514.212 393.681 515.765 391.911C517.681 389.727 517.237 386.725 516.711 384.114C516.489 383.01 514.796 383.478 515.023 384.581C515.497 386.923 516.069 390.428 513.271 391.567C512.121 392.034 510.795 392.075 509.574 392.18C508.254 392.297 506.929 392.378 505.603 392.373C503.01 392.373 500.335 392.051 497.975 390.907C497.432 390.644 496.79 390.358 496.393 389.89C496.036 389.47 495.937 388.921 495.884 388.395C495.768 387.227 495.785 386.123 495.306 385.025C494.856 383.992 493.344 384.885 493.794 385.907L493.776 385.896Z" fill="white"/>
<path d="M495.47 391.093C494.921 395.702 499.219 398.54 502.753 400.391C504.692 401.408 506.66 402.155 508.815 401.314C510.719 400.572 512.249 399.089 513.546 397.547C515.093 395.702 516.273 393.634 516.548 391.21C516.676 390.089 514.918 390.101 514.796 391.21C514.544 393.459 513.166 395.41 511.671 397.033C510.31 398.511 508.424 400.251 506.239 399.918C505.112 399.749 504.084 399.118 503.091 398.587C502.098 398.055 501.059 397.483 500.142 396.788C498.349 395.427 496.941 393.43 497.222 391.088C497.356 389.972 495.604 389.978 495.47 391.088V391.093Z" fill="white"/>
<path d="M505.656 383.992C504.856 373.999 504.027 364.006 503.162 354.019C503.069 352.903 501.311 352.891 501.41 354.019C502.275 364.006 503.104 373.999 503.904 383.992C503.992 385.107 505.744 385.119 505.656 383.992Z" fill="white"/>
<path d="M501.292 352.231C499.464 352.734 497.601 353.09 495.708 353.259C494.015 353.411 492.181 353.61 490.89 352.278C489.897 351.25 489.208 349.556 489.722 348.143C490.137 347.004 491.544 346.333 492.584 347.086C493.25 347.565 494.021 346.776 493.869 346.099C493.215 343.079 494.984 339.499 498.062 338.641C501.14 337.782 504.44 339.972 504.872 343.05C504.989 343.885 506.087 343.78 506.472 343.26C507.67 341.637 510.099 340.994 511.939 341.853C513.779 342.711 514.847 344.96 514.398 346.952C514.193 347.857 515.192 348.336 515.864 347.804C516.454 347.331 517.265 347.939 517.598 348.423C517.896 348.861 518.574 350.135 518.176 350.608C517.809 351.04 516.711 351.011 516.22 351.069C515.233 351.186 514.24 351.303 513.247 351.414C509.352 351.846 505.444 352.179 501.52 352.208C500.392 352.214 500.392 353.966 501.52 353.96C506.811 353.919 512.137 353.411 517.376 352.681C518.264 352.558 519.21 352.272 519.718 351.472C520.332 350.508 519.94 349.294 519.526 348.336C518.696 346.403 516.494 345.083 514.626 346.572L516.091 347.425C516.728 344.61 515.332 341.462 512.646 340.264C509.959 339.067 506.706 340.031 504.965 342.384L506.566 342.595C505.999 338.576 501.426 335.896 497.601 336.959C493.571 338.08 491.328 342.624 492.181 346.572L493.466 345.585C491.959 344.499 489.786 345.083 488.682 346.467C487.362 348.12 487.672 350.526 488.682 352.249C489.856 354.264 491.76 355.169 494.056 355.122C496.643 355.07 499.254 354.614 501.747 353.931C502.834 353.633 502.372 351.945 501.28 352.243L501.292 352.231Z" fill="white"/>
<path d="M547.954 315.997C549.006 310.373 546.144 304.994 542.248 301.11C537.985 296.858 532.436 294.23 527.647 290.662C518.25 283.665 512.748 272.346 509.332 261.407C507.416 255.269 506.289 248.745 507.176 242.315C508.041 236.089 510.611 230.237 513.449 224.683C518.84 214.129 525.901 204.165 535.397 196.923C544.362 190.084 555.173 185.972 566.521 186.253C577.221 186.515 587.628 190.347 596.476 196.257C600.95 199.248 605.05 202.798 608.648 206.805C612.59 211.197 616.071 216.156 618.255 221.669C620.632 227.679 621.257 234.156 620.936 240.574C620.615 246.993 619.575 253.19 617.753 259.223C615.931 265.256 613.472 270.407 610.009 275.301C606.814 279.816 602.93 283.823 598.684 287.35C594.438 290.878 589.713 293.991 584.836 296.677C579.936 299.376 574.33 301.975 571.958 307.406C570.936 309.76 570.609 312.406 571.514 314.853C571.906 315.898 573.6 315.448 573.202 314.385C572.25 311.81 572.864 309.077 574.248 306.775C575.755 304.276 578.143 302.494 580.614 301.011C583.084 299.527 585.753 298.219 588.271 296.73C590.788 295.241 593.083 293.757 595.373 292.104C604.641 285.417 612.567 276.808 617.076 266.202C619.552 260.379 621.082 254.206 621.952 247.951C622.846 241.52 623.161 234.956 622.011 228.531C619.92 216.862 612.275 206.747 603.362 199.248C595.069 192.268 585.012 187.158 574.289 185.277C568.991 184.349 563.589 184.214 558.263 184.997C552.586 185.832 547.107 187.783 542.061 190.504C531.519 196.193 523.162 205.158 516.801 215.198C513.507 220.396 510.587 225.921 508.31 231.644C505.915 237.66 504.688 243.956 505.267 250.433C505.839 256.887 507.807 263.13 510.266 269.099C512.468 274.443 515.143 279.617 518.688 284.202C520.446 286.48 522.408 288.6 524.604 290.463C526.929 292.437 529.493 294.096 532.057 295.737C537.044 298.926 542.207 302.249 544.952 307.704C546.161 310.11 546.751 312.844 546.249 315.513C546.044 316.617 547.732 317.09 547.937 315.98L547.954 315.997Z" fill="white"/>
<path d="M546.731 317.066C549.178 317.563 551.66 317.522 554.143 317.382C556.625 317.241 559.183 317.078 561.706 316.926C564.229 316.774 566.863 316.616 569.439 316.459C571.302 316.348 574.134 316.091 575.168 318.088C576.097 319.881 574.023 321.435 572.657 322.159C570.624 323.234 568.253 323.824 566.022 324.302C563.686 324.811 561.315 325.126 558.938 325.377C556.561 325.628 553.991 326.119 551.62 325.745C549.412 325.395 547.315 324.162 545.989 322.346C545.277 321.371 544.675 320.109 544.88 318.865C545.037 317.901 545.791 316.944 546.819 316.873C547.94 316.798 547.946 315.045 546.819 315.121C544.436 315.279 542.888 317.533 543.116 319.829C543.367 322.299 545.113 324.431 547.105 325.798C549.207 327.234 551.678 327.707 554.189 327.561C556.964 327.404 559.755 327.071 562.506 326.685C565.292 326.288 568.066 325.733 570.735 324.816C572.896 324.075 575.273 323.094 576.523 321.055C577.773 319.017 576.967 316.757 575.081 315.559C572.779 314.099 569.696 314.683 567.138 314.835C563.797 315.034 560.45 315.238 557.11 315.437C553.769 315.635 550.44 316.021 547.187 315.361C546.083 315.139 545.616 316.827 546.719 317.049L546.731 317.066Z" fill="white"/>
<path d="M546.062 324.338C545.081 327.007 543.872 331.626 547.026 333.343C548.241 334.009 549.701 334.068 551.056 334.003C552.884 333.916 554.718 333.752 556.546 333.595C560.383 333.262 564.208 332.824 567.999 332.134C570.855 331.615 574.172 330.99 576.018 328.508C577.589 326.399 577.46 322.679 574.838 321.447C573.822 320.968 572.934 322.48 573.956 322.959C575.685 323.771 575.609 326.242 574.534 327.579C572.917 329.6 569.915 330.014 567.532 330.441C564.36 331.013 561.16 331.41 557.953 331.708C556.406 331.854 554.852 331.977 553.299 332.088C551.985 332.181 550.618 332.368 549.298 332.21C547.89 332.041 546.857 331.323 546.775 329.822C546.681 328.128 547.172 326.364 547.75 324.787C548.142 323.724 546.448 323.269 546.062 324.32V324.338Z" fill="white"/>
<path d="M551.409 333.974C552.127 334.792 552.746 335.691 553.249 336.661C553.722 337.572 553.984 338.536 554.352 339.482C554.72 340.428 555.293 341.152 556.245 341.532C557.197 341.911 558.271 341.876 559.288 341.859C561.682 341.824 564.077 341.654 566.454 341.357C567.458 341.228 568.609 341.199 569.526 340.726C570.373 340.288 570.799 339.453 571.073 338.582C571.856 336.094 572.055 333.402 571.751 330.815C571.622 329.711 569.865 329.693 569.999 330.815C570.291 333.279 570.227 336.094 569.28 338.43C568.831 339.54 567.476 339.476 566.448 339.604C565.14 339.768 563.831 339.891 562.517 339.978C561.203 340.066 559.889 340.118 558.575 340.113C557.483 340.113 556.461 340.042 555.999 338.909C555.567 337.864 555.287 336.789 554.761 335.773C554.189 334.669 553.465 333.659 552.647 332.73C551.899 331.883 550.667 333.127 551.409 333.968V333.974Z" fill="white"/>
<path d="M555.474 315.104C554.855 304.597 554.218 294.078 552.635 283.665C551.841 278.461 550.807 273.286 549.411 268.205C548.728 265.711 547.963 263.235 547.081 260.806C546.339 258.761 545.487 256.717 544.237 254.924C542.987 253.131 541.264 251.426 539.132 250.678C537.386 250.065 534.892 250.316 533.724 251.922C533.146 252.717 533.181 253.774 533.268 254.714C533.338 255.491 533.514 256.25 533.952 256.91C534.816 258.218 536.416 259.275 537.754 260.029C541.235 261.979 545.428 262.499 549.312 261.658C551.251 261.238 553.143 260.449 554.779 259.322C556.414 258.195 558.242 256.513 558.692 254.41C558.99 253.014 558.919 251.198 558.061 250.001C557.051 248.593 554.773 248.249 553.313 249.16C552.086 249.925 552.092 251.385 551.876 252.635C551.479 254.877 552.635 257.161 554.078 258.808C556.846 261.968 561.367 263.107 565.186 261.261C568.55 259.632 570.711 255.707 569.736 251.986C569.304 250.345 567.89 249.212 566.179 249.855C564.468 250.497 562.903 252.173 562.616 254.007C561.916 258.464 566.243 261.979 570.174 262.832C572.633 263.364 575.197 263.107 577.609 262.47C579.816 261.886 582.427 261.098 584.074 259.433C585.248 258.247 586.749 256.606 586.58 254.819C586.492 253.92 585.978 252.921 585.178 252.454C584.378 251.986 583.473 252.016 582.62 252.144C580.652 252.436 578.771 253.341 577.469 254.866C575.909 256.694 574.706 258.89 573.579 260.998C571.26 265.344 569.473 269.969 568.124 274.7C565.192 284.956 564.322 295.661 563.878 306.273C563.767 308.931 563.685 311.588 563.598 314.245C563.563 315.373 565.315 315.373 565.35 314.245C565.916 296.391 566.547 277.62 575.273 261.547C576.26 259.725 577.299 257.798 578.625 256.197C579.7 254.907 581.148 254.159 582.795 253.879C583.321 253.791 584.033 253.692 584.442 254.112C585.079 254.755 584.828 255.619 584.407 256.285C583.49 257.745 582.194 258.907 580.617 259.597C576.966 261.191 572.387 262.231 568.609 260.484C565.63 259.106 562.43 255.006 565.665 252.203C566.045 251.87 566.775 251.268 567.33 251.426C567.838 251.566 568.013 252.249 568.101 252.693C568.363 254.025 568.118 255.59 567.482 256.781C565.829 259.877 561.986 261.156 558.75 259.976C557.103 259.375 555.643 258.195 554.679 256.735C554.165 255.952 553.733 255.07 553.587 254.142C553.465 253.371 553.663 252.606 553.762 251.84C553.809 251.496 553.832 251.052 554.078 250.783C554.463 250.363 555.328 250.38 555.824 250.497C557.021 250.778 557.103 252.214 557.074 253.225C557.021 255.059 555.701 256.454 554.317 257.512C552.933 258.569 551.397 259.293 549.756 259.748C546.549 260.648 543.004 260.467 539.932 259.159C538.49 258.545 537.176 257.658 536.013 256.606C535.669 256.297 535.371 255.97 535.202 255.532C534.968 254.901 534.822 253.815 535.026 253.172C535.219 252.576 536.019 252.319 536.562 252.203C537.52 251.986 538.501 252.232 539.36 252.687C540.995 253.558 542.263 255.018 543.226 256.577C544.237 258.218 544.955 260.005 545.592 261.822C546.339 263.953 547.011 266.109 547.618 268.287C548.839 272.662 549.785 277.106 550.538 281.58C552.039 290.504 552.758 299.533 553.33 308.557C553.47 310.741 553.599 312.925 553.727 315.11C553.792 316.231 555.544 316.237 555.479 315.11L555.474 315.104Z" fill="white"/>
<path d="M297.087 373.274C294.739 372.381 292.397 371.575 290.177 370.366C288.092 369.233 286.148 367.866 284.419 366.237C281.107 363.1 278.689 359.181 276.809 355.052C275.033 351.151 273.818 347.08 273.702 342.77C273.591 338.734 274.373 334.728 275.833 330.966C278.806 323.321 284.524 316.809 291.211 312.16C299.084 306.694 308.657 303.604 318.276 304.1C326.283 304.515 334.08 307.593 340.405 312.481C346.637 317.294 351.519 323.981 353.645 331.603C355.695 338.933 354.936 346.87 351.975 353.849C349.043 360.77 343.939 366.832 337.31 370.453C334.191 372.153 330.652 372.918 327.591 374.717C326.184 375.546 324.852 376.644 324.064 378.104C323.643 378.881 323.392 379.722 323.293 380.604C323.188 381.55 323.555 382.876 322.884 383.647C322.364 384.248 321.394 384.371 320.653 384.441C319.38 384.558 318.101 384.616 316.821 384.687C314.071 384.833 311.302 384.955 308.546 384.926C306.455 384.908 304.346 384.447 303.575 382.263C302.898 380.347 302.997 378.198 301.782 376.481C300.644 374.863 298.868 373.981 297.075 373.28C296.024 372.871 295.568 374.565 296.608 374.968C298.523 375.716 300.387 376.773 300.988 378.875C301.59 380.978 301.572 383.098 303.032 384.768C304.492 386.439 306.975 386.701 309.118 386.684C311.98 386.661 314.836 386.561 317.692 386.398C319.654 386.287 322.352 386.485 323.935 385.072C325.623 383.565 324.578 381.171 325.424 379.296C326.814 376.2 330.809 375.062 333.718 373.987C341.211 371.213 347.361 365.81 351.385 358.93C355.409 352.05 357.272 343.979 356.309 336.118C355.304 327.947 351.262 320.413 345.463 314.625C339.663 308.837 331.96 304.632 323.818 303.049C314.041 301.145 303.809 303.096 295.072 307.762C287.462 311.827 280.769 317.995 276.499 325.523C272.294 332.94 270.717 341.695 273.024 349.989C274.257 354.41 276.371 358.784 278.981 362.551C281.75 366.54 285.318 369.799 289.617 372.071C291.865 373.263 294.237 374.074 296.608 374.974C297.665 375.377 298.12 373.683 297.075 373.286L297.087 373.274Z" fill="white"/>
<path d="M304.121 384.348C302.608 385.563 302.474 387.835 303.811 389.23C304.565 390.013 305.569 390.229 306.609 390.328C307.847 390.445 309.091 390.527 310.329 390.591C312.77 390.714 315.223 390.731 317.665 390.58C319.744 390.451 322.314 390.463 323.949 388.956C325.584 387.449 325.38 384.739 323.149 384.073C322.068 383.752 321.601 385.44 322.682 385.761C323.417 385.977 323.382 386.877 323.003 387.396C322.436 388.173 321.42 388.419 320.515 388.559C318.354 388.892 316.117 388.938 313.933 388.933C311.748 388.927 309.517 388.816 307.321 388.635C306.445 388.565 305.394 388.582 304.868 387.747C304.378 386.97 304.699 386.123 305.365 385.586C306.241 384.879 304.997 383.647 304.127 384.348H304.121Z" fill="white"/>
<path d="M304.692 388.763C303.501 390.223 302.234 392.297 303.624 394.06C304.833 395.602 307.175 395.626 308.956 395.684C311.421 395.772 313.885 395.567 316.327 395.246C317.582 395.082 318.838 394.884 320.088 394.679C321.139 394.504 322.284 394.422 323.288 394.049C324.293 393.675 325.029 392.886 325.058 391.788C325.087 390.62 324.351 389.592 323.65 388.734C322.95 387.875 321.7 389.108 322.412 389.972C322.856 390.515 323.802 391.689 322.979 392.273C322.284 392.764 321.005 392.758 320.199 392.892C317.886 393.284 315.567 393.646 313.225 393.827C311.099 393.99 308.804 394.13 306.696 393.745C306.018 393.622 305.084 393.395 304.833 392.659C304.511 391.73 305.405 390.655 305.942 389.995C306.649 389.131 305.417 387.881 304.704 388.757L304.692 388.763Z" fill="white"/>
<path d="M306.929 395.953C307.268 397.173 307.606 398.394 307.945 399.615C308.115 400.222 308.284 400.835 308.453 401.443C308.588 401.933 308.675 402.488 308.979 402.909C309.61 403.773 311.029 403.65 311.981 403.703C313.219 403.773 314.457 403.779 315.695 403.703C316.934 403.627 318.143 403.493 319.357 403.294C320.572 403.095 321.565 403.02 321.851 401.676C322.371 399.264 322.622 396.776 322.675 394.311C322.698 393.184 320.946 393.184 320.923 394.311C320.876 396.361 320.683 398.406 320.309 400.426C320.263 400.678 320.175 400.958 320.158 401.209L320.105 401.472C320.268 401.32 320.21 401.302 319.936 401.413C319.48 401.413 318.949 401.594 318.499 401.665C317.483 401.816 316.455 401.91 315.433 401.962C314.463 402.009 313.488 402.009 312.512 401.974C311.981 401.951 311.449 401.916 310.924 401.869C310.76 401.851 310.433 401.869 310.276 401.787C310.497 401.904 310.357 401.74 310.293 401.495C309.744 399.486 309.183 397.489 308.623 395.48C308.319 394.393 306.631 394.855 306.935 395.947L306.929 395.953Z" fill="white"/>
<path d="M312.415 385.002C309.501 375.108 306.995 365.104 304.91 355C304.32 352.126 303.76 349.247 303.234 346.368L301.949 347.355C304.279 348.955 306.481 350.719 308.543 352.652C308.952 353.031 309.629 352.979 309.921 352.477C311.2 350.257 312.135 347.863 312.696 345.363L311.095 345.573C311.895 346.747 312.696 347.915 313.496 349.089C313.869 349.638 314.243 350.181 314.617 350.73C314.903 351.151 315.184 351.659 315.633 351.928C316.766 352.611 317.619 351.449 318.308 350.707C319.295 349.65 320.276 348.593 321.263 347.536L319.768 346.917C320.79 356.991 317.152 366.71 316.264 376.656C316.013 379.494 316.001 382.35 316.369 385.177C316.433 385.65 316.725 386.047 317.245 386.053C317.672 386.053 318.18 385.644 318.121 385.177C316.807 375.126 320.399 365.361 321.433 355.461C321.731 352.623 321.807 349.761 321.515 346.917C321.444 346.216 320.58 345.696 320.019 346.297C319.295 347.074 318.577 347.851 317.853 348.622C317.461 349.042 317.064 349.469 316.673 349.889L316.474 350.1C316.223 350.24 316.2 350.327 316.41 350.368C316.579 350.468 316.591 350.444 316.439 350.31C316.357 350.193 316.282 350.076 316.2 349.959C315.002 348.201 313.799 346.443 312.602 344.686C312.205 344.101 311.177 344.107 311.002 344.896C310.476 347.255 309.612 349.492 308.403 351.595L309.781 351.42C307.609 349.387 305.284 347.524 302.831 345.848C302.142 345.375 301.418 346.151 301.546 346.835C303.392 356.98 305.652 367.043 308.333 377.001C309.098 379.833 309.892 382.654 310.721 385.469C311.037 386.55 312.731 386.088 312.409 385.002H312.415Z" fill="white"/>
<path d="M335.383 318.848C341.89 322.299 346.492 328.765 347.601 336.048C347.771 337.157 349.459 336.684 349.289 335.58C348.121 327.888 343.134 320.968 336.265 317.335C335.272 316.809 334.385 318.316 335.383 318.848Z" fill="white"/>
<path d="M446.068 352.786C442.774 352.745 439.468 352.885 436.18 352.687C433.715 352.535 430.819 352.366 428.681 350.993C427.776 350.415 426.83 349.586 426.409 348.569C426.018 347.641 426.14 346.584 426.222 345.602C426.479 342.513 426.456 339.394 426.543 336.293C426.631 333.192 426.946 330.149 425.434 327.427C424.201 325.208 422.14 323.602 420.125 322.136C417.993 320.588 415.89 319.058 413.969 317.247C412.047 315.437 410.26 313.439 408.683 311.308C402.306 302.693 399.006 291.982 399.654 281.264C400.302 270.547 405.033 259.415 412.631 251.356C420.236 243.284 430.608 238.045 441.53 236.293C452.726 234.5 464.757 236.404 473.652 243.792C481.35 250.188 486.267 259.491 488.382 269.186C490.817 280.353 489.538 292.548 484.691 302.909C480.123 312.68 472.256 320.851 462.421 325.377C461.218 325.932 459.991 326.417 458.747 326.849C457.62 327.24 456.464 327.62 455.424 328.216C454.385 328.811 453.526 329.588 453.047 330.651C452.411 332.064 452.592 333.595 452.738 335.09C453.082 338.489 453.351 341.9 453.544 345.31C453.666 347.501 454.157 351.081 451.768 352.284C450.069 353.142 447.908 352.821 446.08 352.792C444.952 352.775 444.952 354.527 446.08 354.544C448.194 354.573 450.448 354.813 452.428 353.902C454.957 352.745 455.43 349.837 455.389 347.325C455.331 343.967 455.004 340.586 454.7 337.245C454.554 335.662 454.157 333.916 454.373 332.327C454.554 331.007 455.448 330.178 456.575 329.588C457.702 328.998 458.975 328.648 460.178 328.204C461.451 327.731 462.701 327.199 463.928 326.609C466.41 325.418 468.775 323.993 470.989 322.363C475.375 319.145 479.189 315.197 482.267 310.712C489.205 300.614 492.096 287.975 491.127 275.833C490.309 265.548 486.484 255.362 479.802 247.448C476.531 243.57 472.513 240.276 467.969 237.999C462.333 235.178 456.02 233.98 449.747 233.934C438.323 233.858 426.853 237.619 417.724 244.493C408.561 251.397 401.979 261.384 399.239 272.533C396.553 283.484 397.838 295.036 402.86 305.128C405.302 310.04 408.602 314.555 412.579 318.334C414.57 320.232 416.761 321.855 418.986 323.461C421.048 324.945 423.302 326.627 424.301 329.057C424.896 330.505 424.908 332.088 424.879 333.635C424.844 335.329 424.785 337.023 424.744 338.722C424.704 340.422 424.663 342.139 424.604 343.845C424.563 345.001 424.365 346.163 424.417 347.325C424.523 349.749 426.21 351.659 428.278 352.786C430.632 354.065 433.581 354.287 436.203 354.445C439.492 354.649 442.797 354.503 446.091 354.544C447.218 354.556 447.218 352.804 446.091 352.792L446.068 352.786Z" fill="white"/>
<path d="M426.149 332.946C434.968 331.539 444.032 331.959 452.694 334.126C453.786 334.401 454.253 332.713 453.161 332.438C444.178 330.19 434.828 329.804 425.688 331.258C424.578 331.434 425.051 333.122 426.155 332.946H426.149Z" fill="white"/>
<path d="M425.901 338.974C435.234 339.896 444.608 340.334 453.988 340.288C455.115 340.288 455.115 338.53 453.988 338.536C444.608 338.582 435.234 338.144 425.901 337.221C424.78 337.111 424.786 338.863 425.901 338.974Z" fill="white"/>
<path d="M426.624 345.585C435.87 346.292 445.15 346.502 454.419 346.216C455.546 346.181 455.546 344.429 454.419 344.464C445.15 344.75 435.87 344.54 426.624 343.833C425.497 343.745 425.503 345.497 426.624 345.585Z" fill="white"/>
<path d="M431.868 353.931C432.849 356.693 432.259 360.893 435.962 361.658C436.82 361.833 437.696 361.845 438.567 361.862C439.665 361.886 440.757 361.967 441.855 361.991C443.519 362.026 445.493 362.172 446.766 360.881C448.355 359.263 448.46 356.612 448.776 354.509C448.939 353.405 447.251 352.932 447.088 354.042C446.924 355.152 446.807 356.267 446.545 357.359C446.323 358.265 446.007 359.473 445.125 359.947C444.407 360.332 443.484 360.262 442.702 360.256C441.452 360.244 440.202 360.168 438.952 360.128C437.323 360.075 435.413 360.309 434.683 358.516C434.029 356.91 434.134 355.099 433.555 353.47C433.182 352.412 431.488 352.868 431.868 353.937V353.931Z" fill="white"/>
<path d="M437.817 331.369C441.198 322.247 444.084 312.949 447.407 303.808C449.118 299.095 450.981 294.417 452.032 289.499C452.745 286.165 453.837 280.54 449.685 278.928C447.705 278.157 445.368 278.993 443.908 280.418C442.133 282.146 441.49 284.693 440.936 287.023L442.536 286.813C440.609 284.009 439.072 279.816 434.926 280.178C433.244 280.324 431.842 281.37 431.597 283.104C431.293 285.242 432.251 287.666 433.016 289.622C433.857 291.766 434.838 293.856 435.72 295.982C436.602 298.108 437.478 300.386 438.284 302.617C439.878 307.032 441.268 311.524 442.454 316.068C443.803 321.23 444.884 326.458 445.701 331.726C445.877 332.835 447.564 332.362 447.389 331.258C446.058 322.696 444.031 314.251 441.309 306.028C439.966 301.975 438.459 297.974 436.789 294.043C435.942 292.04 435.002 290.072 434.278 288.022C433.95 287.099 433.67 286.153 433.472 285.195C433.296 284.342 433.045 283.18 433.711 282.473C434.663 281.463 436.549 281.913 437.513 282.66C439.131 283.91 439.89 286.059 441.017 287.701C441.42 288.285 442.437 288.273 442.618 287.49C443.067 285.581 443.523 283.472 444.854 281.954C445.882 280.786 447.757 279.915 449.27 280.657C450.783 281.399 451.01 283.367 450.952 284.874C450.876 286.994 450.356 289.137 449.825 291.182C448.68 295.585 446.98 299.814 445.439 304.083C443.897 308.352 442.483 312.552 441.047 316.798C439.446 321.517 437.846 326.236 436.111 330.908C435.72 331.965 437.414 332.421 437.799 331.375L437.817 331.369Z" fill="white"/>
<path d="M227.637 417.48C227.555 414.718 226.638 412.043 225.102 409.754C224.291 408.545 223.327 407.429 222.241 406.46C221.09 405.426 219.788 404.626 218.538 403.732C213.854 400.368 210.279 395.509 208.545 390.001C206.682 384.091 207.102 377.812 208.948 371.949C209.976 368.672 211.424 365.553 213.13 362.575C214.724 359.783 216.499 357.026 218.789 354.749C223.327 350.234 229.81 348.289 236.042 347.658C242.343 347.022 249.241 347.466 254.9 350.543C260.414 353.545 264.589 359.111 266.797 364.911C268.952 370.564 269.291 376.79 267.486 382.59C265.647 388.5 261.844 393.617 257.669 398.09C255.42 400.497 253.02 402.757 250.561 404.941C249.375 405.992 248.02 406.974 247.045 408.235C246.163 409.374 245.964 410.682 246.128 412.09C246.291 413.497 246.729 414.911 247.185 416.283C247.541 417.346 249.229 416.891 248.873 415.816C248.406 414.408 247.886 412.931 247.822 411.436C247.752 409.794 248.715 408.878 249.883 407.855C252.436 405.624 254.959 403.37 257.342 400.958C261.833 396.414 265.939 391.304 268.357 385.335C270.774 379.366 271.02 373.134 269.367 367.13C267.714 361.126 264.099 355.263 259.193 351.326C253.977 347.144 247.296 345.684 240.726 345.673C234.237 345.661 227.339 346.858 221.721 350.251C216.102 353.645 212.289 359.795 209.532 365.694C206.775 371.592 204.971 378.49 205.741 385.195C206.401 390.924 208.808 396.332 212.598 400.683C213.603 401.84 214.706 402.909 215.886 403.884C217.066 404.859 218.45 405.73 219.729 406.664C222.065 408.369 224.045 410.746 225.073 413.468C225.558 414.759 225.838 416.102 225.879 417.486C225.914 418.614 227.666 418.614 227.631 417.486L227.637 417.48Z" fill="white"/>
<path d="M226.995 417.317C226.171 417.58 225.219 418.012 224.927 418.906C224.635 419.799 225.149 420.623 225.827 421.16C227.205 422.264 229.162 422.416 230.85 422.579C232.923 422.784 234.979 423.017 237.07 423.029C239.435 423.046 241.806 422.912 244.16 422.673C245.597 422.527 247.033 422.34 248.435 421.995C249.697 421.686 251.174 421.242 252.068 420.237C253.177 418.981 252.634 417.288 251.338 416.394C249.399 415.057 246.66 415.635 244.481 415.793C241.549 416.009 238.611 416.19 235.674 416.406C234.184 416.517 232.695 416.634 231.212 416.774C229.816 416.902 228.35 416.943 226.995 417.311C225.909 417.609 226.37 419.297 227.462 418.999C228.443 418.73 229.489 418.689 230.499 418.59C231.65 418.479 232.8 418.38 233.951 418.286C236.065 418.117 238.185 417.971 240.299 417.831C242.414 417.691 244.703 417.504 246.911 417.358C247.869 417.294 248.908 417.218 249.825 417.562C250.327 417.749 251.011 418.193 250.941 418.76C250.923 418.888 250.695 419.157 250.468 419.326C250.018 419.659 249.463 419.858 248.937 420.027C247.793 420.395 246.601 420.611 245.41 420.774C241.929 421.242 238.337 421.405 234.827 421.201C233.092 421.102 231.317 420.932 229.6 420.675C228.829 420.558 227.994 420.412 227.299 420.039C227.153 419.963 226.557 419.624 226.58 419.408C226.592 419.297 227.293 419.052 227.45 418.999C228.519 418.654 228.064 416.961 226.983 417.311L226.995 417.317Z" fill="white"/>
<path d="M227.027 420.611C225.894 421.078 224.258 421.802 224.183 423.239C224.112 424.582 225.339 425.312 226.484 425.605C228.125 426.025 229.924 426.031 231.606 426.13C233.457 426.241 235.309 426.311 237.16 426.335C240.419 426.375 243.672 426.224 246.931 426.13C248.753 426.078 250.949 426.095 252.567 425.126C253.373 424.647 253.922 423.852 253.858 422.889C253.758 421.294 252.427 420.208 251.154 419.46C250.178 418.888 249.296 420.401 250.272 420.973C251.002 421.399 252.071 422.048 252.117 423C252.123 423.175 252.1 423.251 252.012 423.35C251.854 423.543 251.609 423.671 251.37 423.776C250.085 424.337 248.514 424.325 247.135 424.372C241.762 424.542 236.412 424.699 231.045 424.343C229.638 424.25 228.113 424.261 226.752 423.858C226.449 423.771 225.835 423.613 225.993 423.227C226.174 422.789 227.097 422.462 227.494 422.299C228.522 421.878 228.072 420.179 227.027 420.611Z" fill="white"/>
<path d="M226.821 424.507C225.839 425.161 225.214 426.189 225.664 427.374C226.061 428.414 227.095 429.155 228.152 429.424C229.373 429.734 230.728 429.734 231.978 429.792C233.368 429.856 234.758 429.903 236.148 429.856C237.643 429.81 239.132 429.669 240.621 429.588C242.268 429.494 243.915 429.523 245.568 429.506C247.887 429.488 250.55 429.652 252.77 428.84C253.856 428.443 254.808 427.573 255.158 426.451C255.573 425.131 254.732 424.086 253.581 423.543C252.565 423.064 251.677 424.577 252.699 425.056C253.47 425.418 253.739 425.745 253.19 426.457C252.723 427.07 252.086 427.257 251.35 427.415C249.47 427.806 247.472 427.742 245.568 427.754C243.104 427.771 240.662 427.83 238.204 427.993C235.967 428.145 233.747 428.133 231.51 428.011C230.506 427.958 229.291 428.011 228.339 427.643C227.603 427.357 226.809 426.603 227.702 426.007C228.596 425.412 227.761 423.87 226.821 424.495V424.507Z" fill="white"/>
<path d="M228.569 428.163C226.607 428.63 226.081 431.749 227.395 433.092C228.219 433.939 229.574 434.324 230.724 434.353C232.447 434.4 234.188 434.295 235.911 434.231C239.386 434.102 242.855 433.91 246.324 433.781C248.03 433.723 249.741 433.752 251.446 433.664C252.55 433.606 253.905 433.296 254.863 432.718C257.024 431.416 255.774 427.993 253.759 427.298C252.69 426.93 252.229 428.624 253.292 428.986C253.841 429.173 254.15 429.839 254.209 430.382C254.285 431.13 253.882 431.287 253.245 431.497C252.217 431.836 251.289 431.906 250.214 431.924C248.917 431.941 247.627 431.982 246.33 432.029C243.667 432.122 241.004 432.263 238.346 432.379C237.009 432.438 235.677 432.49 234.34 432.531C233.078 432.566 231.746 432.712 230.491 432.59C229.819 432.525 228.622 432.245 228.464 431.462C228.371 430.989 228.464 429.985 229.037 429.845C230.135 429.582 229.667 427.894 228.569 428.157V428.163Z" fill="white"/>
<path d="M235.335 416.797C234.833 411.331 233.828 405.922 232.321 400.643C231.568 398.009 230.692 395.415 229.699 392.863C228.946 390.918 228.105 388.787 226.236 387.653C224.811 386.795 223.053 386.929 221.92 388.197C221.248 388.95 220.559 390.083 220.752 391.129C220.944 392.174 221.838 393.073 222.685 393.716C226.189 396.385 231.586 396.502 235.201 393.984C236.76 392.898 238.15 391.28 238.46 389.353C238.711 387.794 238.396 385.685 236.684 385.09C235.16 384.558 232.467 385.253 232.053 387.011C231.638 388.769 232.981 391 234.336 392.086C236.124 393.517 238.32 394.09 240.574 394.13C242.536 394.166 244.639 394.405 246.543 393.803C247.308 393.564 248.155 393.143 248.599 392.443C249.043 391.742 249.019 390.895 248.891 390.124C248.575 388.232 247.472 386.818 245.527 386.497C243.319 386.135 241.719 387.905 240.866 389.762C240.013 391.619 239.774 393.471 239.581 395.392C239.015 401.034 238.699 406.705 238.594 412.376C238.565 413.819 238.553 415.261 238.559 416.704C238.559 417.831 240.311 417.831 240.311 416.704C240.311 412.084 240.446 407.464 240.738 402.856C240.884 400.549 241.065 398.242 241.287 395.941C241.433 394.393 241.608 392.834 242.11 391.35C242.519 390.141 243.529 388.033 245.077 388.191C245.743 388.261 246.327 388.477 246.677 389.061C246.993 389.587 247.197 390.223 247.22 390.836C247.244 391.368 247.121 391.602 246.654 391.87C246.023 392.232 245.246 392.337 244.534 392.39C242.922 392.513 241.199 392.483 239.593 392.343C237.847 392.191 236.001 391.461 234.815 390.136C234.377 389.645 234.085 389.014 233.898 388.389C233.694 387.689 233.636 387.262 234.36 386.947C234.827 386.742 235.656 386.538 236.153 386.754C236.678 386.982 236.778 387.753 236.795 388.255C236.836 389.686 236.065 390.947 235.037 391.894C232.45 394.282 228.35 394.627 225.214 393.19C224.443 392.84 223.713 392.378 223.111 391.771C222.842 391.502 222.445 391.105 222.469 390.69C222.486 390.352 222.86 389.814 223.064 389.552C223.812 388.594 224.857 388.716 225.733 389.423C227.34 390.731 227.982 393.155 228.665 395.024C229.524 397.372 230.283 399.755 230.943 402.167C232.246 406.956 233.139 411.85 233.595 416.791C233.7 417.907 235.452 417.913 235.347 416.791L235.335 416.797Z" fill="white"/>
<path d="M343.8 428.788C342.58 428.367 341.394 427.438 340.88 426.229C340.325 424.921 340.822 423.519 341.926 422.678C344.805 420.488 348.187 422.696 350.307 424.81C350.605 425.108 350.902 425.412 351.2 425.715C351.329 425.564 351.451 425.412 351.574 425.26C351.813 424.95 352.047 424.629 352.275 424.302C351.165 423.163 350.032 422.013 348.648 421.207C345.991 419.659 342.317 419.495 340.127 421.966C338.077 424.279 338.848 427.468 341.137 429.278C343.637 431.258 346.855 431.188 349.512 429.541C350.61 428.858 351.568 427.987 352.421 427.006C352.03 426.568 351.621 426.142 351.212 425.715C349.401 427.853 346.691 429.775 343.812 428.788H343.8Z" fill="white"/>
<path d="M353.51 425.593C354.345 424.407 355.063 423.134 355.676 421.861C357.347 418.386 358.048 414.794 357.551 410.957C357.294 408.959 356.891 406.985 356.722 404.97C356.564 403.096 356.541 401.215 356.646 399.34C356.868 395.398 357.697 391.491 359.081 387.794C359.882 385.656 360.95 383.46 362.451 381.673C362.247 381.001 362.072 380.318 361.937 379.623C358.69 382.899 356.915 387.928 355.916 392.203C355.046 395.935 354.689 399.802 354.882 403.627C354.981 405.613 355.274 407.569 355.589 409.532C355.91 411.523 356.167 413.538 355.881 415.547C355.449 418.625 354.088 421.709 352.289 424.285C352.365 424.361 352.441 424.442 352.517 424.518C352.856 424.869 353.188 425.219 353.516 425.581L353.51 425.593Z" fill="white"/>
<path d="M363.849 380.236C363.732 379.751 363.633 379.272 363.557 378.799C363.528 378.63 363.51 378.455 363.481 378.28C362.926 378.683 362.407 379.138 361.922 379.629C362.056 380.324 362.231 381.001 362.436 381.679C362.868 381.159 363.335 380.674 363.849 380.242V380.236Z" fill="white"/>
<path d="M352.506 424.536C352.43 424.46 352.354 424.378 352.278 424.302C352.05 424.629 351.816 424.95 351.577 425.26C351.46 425.412 351.332 425.564 351.203 425.715C351.618 426.136 352.021 426.568 352.412 427.006C352.798 426.556 353.16 426.083 353.504 425.599C353.177 425.242 352.844 424.886 352.506 424.536Z" fill="white"/>
<path d="M363.851 380.236C364.137 379.991 364.435 379.757 364.744 379.547C367.221 377.871 370.906 377.111 373.488 379.01C375.462 380.458 376.525 383.588 375.088 385.749C373.558 388.056 370.188 387.881 368.021 386.678C365.656 385.37 364.47 382.8 363.851 380.236C363.337 380.674 362.87 381.159 362.438 381.673C362.619 382.274 362.823 382.864 363.08 383.442C364.283 386.187 366.473 388.413 369.464 389.078C372.127 389.674 375.129 388.979 376.647 386.55C378.131 384.178 377.523 381.025 375.87 378.916C373.943 376.457 370.702 375.762 367.746 376.376C366.134 376.708 364.721 377.374 363.483 378.28C363.506 378.455 363.53 378.624 363.559 378.799C363.641 379.272 363.734 379.751 363.851 380.236Z" fill="white"/>
<path d="M363.484 378.285C362.953 374.734 363.052 371.032 363.333 367.469C363.975 359.386 366.113 351.501 368.495 343.78C369.074 341.911 369.669 340.048 370.265 338.185C370.61 337.11 368.922 336.649 368.577 337.718C366.101 345.421 363.66 353.183 362.357 361.185C361.715 365.133 361.335 369.128 361.388 373.128C361.417 375.278 361.516 377.491 361.925 379.629C362.41 379.138 362.93 378.688 363.484 378.28V378.285Z" fill="white"/>
<path d="M359.119 435.679C358.278 432.841 357.145 430.137 355.34 427.771C354.762 427.018 354.143 426.299 353.506 425.599C353.162 426.083 352.805 426.556 352.414 427.006C353.658 428.39 354.797 429.862 355.661 431.532C357.18 434.459 357.933 437.782 358.815 440.941C359.469 443.278 360.088 445.637 360.456 448.037C360.778 450.152 360.848 452.295 360.877 454.433C360.883 455.081 360.877 455.735 360.883 456.383H362.635C362.611 452.43 362.465 448.522 361.578 444.633C360.889 441.613 359.995 438.64 359.119 435.679Z" fill="white"/>
<path d="M511.63 413.532C511.022 409.269 510.415 404.999 509.808 400.736C509.65 399.626 507.962 400.099 508.12 401.203C509.183 408.679 510.246 416.155 511.309 423.63C512.366 431.071 513.528 438.512 514.235 445.999C514.562 449.451 514.766 452.914 514.807 456.378H516.559C516.466 449.568 515.718 442.793 514.813 436.047C513.802 428.536 512.693 421.031 511.624 413.526L511.63 413.532Z" fill="white"/>
<path d="M565.672 398.155C567.997 396.081 573.002 396.35 574.31 399.515C574.894 400.929 574.526 402.622 573.621 403.814C572.511 405.274 570.648 405.811 568.884 405.391C566.589 404.842 564.948 403.259 563.792 401.302C563.558 402.068 563.406 402.862 563.301 403.644C564.335 404.929 565.614 405.998 567.214 406.676C569.153 407.499 571.466 407.54 573.3 406.419C574.842 405.478 575.945 403.826 576.238 402.044C576.541 400.21 576.033 398.347 574.678 397.039C573.294 395.696 571.314 395.077 569.41 395.094C567.459 395.112 565.485 395.801 564.113 397.22C563.546 397.804 563.108 398.47 562.758 399.177C563.044 399.912 563.389 400.631 563.786 401.302C564.148 400.111 564.72 399.001 565.661 398.16L565.672 398.155Z" fill="white"/>
<path d="M562.609 411.5C562.796 408.983 562.954 406.448 563.263 403.937C563.275 403.837 563.292 403.738 563.304 403.639C562.784 402.99 562.323 402.284 561.932 401.536C561.774 402.179 561.657 402.833 561.569 403.487C560.834 409.018 560.635 414.648 560.255 420.214C559.49 431.626 558.643 443.108 555.84 454.234C555.659 454.953 555.472 455.671 555.273 456.383H557.084C559.619 446.975 560.734 437.244 561.488 427.544C561.902 422.2 562.212 416.844 562.609 411.5Z" fill="white"/>
<path d="M563.799 401.297C563.401 400.625 563.063 399.907 562.771 399.171C562.397 399.918 562.128 400.713 561.93 401.536C562.327 402.284 562.782 402.99 563.302 403.639C563.407 402.856 563.559 402.062 563.793 401.297H563.799Z" fill="white"/>
<path d="M561.667 395.158C560.774 390.083 561.282 384.774 561.445 379.658C561.807 368.503 562.164 357.348 562.526 346.186C562.573 344.779 562.619 343.371 562.66 341.964C562.695 340.837 560.943 340.837 560.908 341.964C560.517 353.995 560.131 366.021 559.74 378.052C559.559 383.618 559.033 389.318 559.851 394.855C560.184 397.097 560.832 399.463 561.93 401.53C562.129 400.713 562.397 399.912 562.771 399.165C562.251 397.833 561.895 396.443 561.667 395.153V395.158Z" fill="white"/>
<path d="M315.173 415.144C315.05 411.015 315.173 406.886 315.693 402.786C315.833 401.67 314.081 401.682 313.941 402.786C312.095 417.311 315.372 431.754 315.944 446.245C316.078 449.626 316.049 453.008 315.792 456.378H317.538C318.601 442.588 315.588 428.904 315.173 415.138V415.144Z" fill="white"/>
<path d="M443.996 427.503C443.634 424.133 443.167 420.751 442.454 417.434C441.695 413.889 440.661 410.414 439.82 406.892C438.167 399.965 437.355 392.857 437.396 385.738C437.437 377.707 438.559 369.712 440.731 361.979C441.035 360.893 439.347 360.425 439.043 361.512C435.189 375.26 434.61 389.873 437.379 403.884C438.08 407.423 439.055 410.887 439.937 414.379C440.819 417.854 441.461 421.358 441.934 424.915C442.612 429.979 442.892 435.06 442.402 440.153C441.876 445.59 440.866 450.975 440.071 456.383H441.823C442.524 451.536 443.389 446.712 443.967 441.847C444.539 437.063 444.516 432.292 444.002 427.503H443.996Z" fill="white"/>
<path d="M242.944 446.764C242.553 444.522 241.408 442.483 240.871 440.27C240.316 437.986 240.211 435.597 240.567 433.273C240.737 432.169 239.049 431.696 238.879 432.806C238.535 435.054 238.535 437.303 238.932 439.546C239.329 441.794 240.316 443.809 240.953 445.982C242.062 449.737 240.375 453.224 238.43 456.383H240.468C242.185 453.434 243.546 450.21 242.944 446.764Z" fill="white"/>
</g>
<defs>
<clipPath id="clip0_782_18025">
<rect width="516.877" height="324.12" fill="white" transform="translate(106.953 132.264)"/>
</clipPath>
</defs>
</svg>
