<svg width="105" height="224" viewBox="0 0 105 224" fill="none" xmlns="http://www.w3.org/2000/svg">
<g clip-path="url(#clip0_1029_4503)">
<path d="M91.8787 162.349L97.826 146.955L83.949 164.872L98.0065 136.437L75.1184 167.936L96.0203 127.089L66.2876 169.197L94.2214 114.952L57.457 169.558L91.1577 107.383L48.5307 170.522L89.6346 98.5393L65.9227 134.044L42.2107 169.548L85.4815 91.3329L36.3716 169.017L81.6896 84.5161L30.6046 167.035L78.7714 76.7334L26.1271 164.315L69.5316 79.8094L20.8906 158.277L60.5207 82.5126L30.0639 129.369L54.2131 83.4137L33.4881 109.185L46.6559 85.5561L36.7246 96.8527L40.5165 83.4137L36.3635 86.7247" stroke="#858585" stroke-width="3.82964" stroke-linecap="round" stroke-linejoin="round"/>
<path d="M30.6413 110.282C30.1322 110.378 29.9136 110.354 29.7982 110.451C26.0899 113.587 22.8798 110.547 22.4902 107.001C22.0979 103.433 22.441 99.8698 23.5118 96.4976C25.1011 91.4931 27.0593 86.6053 28.879 81.6745C29.2507 80.6676 29.7036 79.6908 30.1511 78.623C29.3092 78.0612 28.5579 77.5668 27.8135 77.0622C13.8499 67.5956 6.85162 50.5083 10.2859 34.2699C13.8292 17.5154 26.7384 4.75803 43.3616 1.63994C45.139 1.30651 46.9585 1.11898 48.7647 1.06473C49.3056 1.04852 50.2108 1.61479 50.3481 2.08852C50.6427 3.10503 49.767 3.45851 48.8897 3.5831C46.7364 3.88883 44.5448 4.02414 42.4333 4.50936C26.5529 8.15862 14.5023 20.9321 12.4854 37.0943C10.5185 52.8538 16.2535 65.5799 29.2449 74.8475C31.2565 76.2826 33.5829 77.2764 36.2506 78.7416C36.5733 74.7975 36.9057 71.3236 37.0992 67.842C37.1354 67.192 36.6692 66.4825 36.3406 65.8493C35.1396 63.5356 34.6212 61.043 34.7071 58.4867C34.7512 57.1757 35.1302 55.7782 35.7249 54.6062C36.6196 52.8432 38.6002 52.606 40.1012 53.9055C41.3974 55.0278 42.0249 56.5082 42.1951 58.203C42.4671 60.9116 41.7995 63.3959 40.6277 65.8284C40.0959 66.9326 39.8028 68.2013 39.6475 69.4268C39.3512 71.7648 39.2223 74.1245 39.0424 76.4768C38.9676 77.4559 38.94 78.4388 38.8827 79.5829C47.8151 82.4953 56.4505 82.1887 65.1179 78.9622C65.326 74.8015 65.4596 70.8181 65.7531 66.8465C65.8883 65.017 65.7535 63.2774 65.377 61.4798C64.7736 58.5989 64.9616 55.699 65.9645 52.8948C66.1469 52.3848 66.3559 51.8732 66.6321 51.4099C67.6119 49.7672 69.0111 49.0305 70.4213 49.3653C71.7158 49.6724 72.5281 50.8033 72.738 52.7018C72.9829 54.9181 72.5709 57.0419 71.7074 59.0835C71.3187 60.0023 71.0404 61.007 70.4762 61.8062C67.1084 66.5763 68.2702 72.0051 67.8277 77.6226C68.9311 77.1243 69.6741 76.8512 70.3571 76.4707C84.5773 68.5471 92.3023 52.1589 89.5485 35.786C86.9203 20.1581 74.2831 7.22521 58.7175 4.2723C57.1168 3.96861 55.4866 3.80356 53.8636 3.63927C52.8292 3.53446 51.6366 3.45557 51.7477 2.13498C51.8638 0.75772 53.1832 0.886523 54.1255 1.04367C57.2512 1.5645 60.4396 1.93112 63.4565 2.84436C79.6141 7.7357 91.1612 22.1932 92.4959 39.0413C93.4922 51.6163 89.4979 62.4371 80.8842 71.5966C80.5114 71.9929 80.1218 72.374 79.759 72.7793C79.6453 72.9062 79.594 73.089 79.4668 73.3397C80.074 74.2851 80.7083 75.273 81.3429 76.2607C85.8852 83.3301 89.2281 90.9301 91.8337 98.92C94.5137 107.138 96.7971 115.439 98.0143 123.992C99.656 135.529 100.144 147.121 98.954 158.743C98.8876 159.391 98.5502 160.125 98.1065 160.603C92.4018 166.752 84.9063 169.325 76.9809 170.869C74.5445 171.343 72.8042 172.379 71.6062 174.519C68.9023 179.348 66.1344 184.141 63.4168 188.962C61.2981 192.721 61.0996 196.496 63.2656 200.351C64.9983 203.434 66.5627 206.611 68.2948 209.695C68.6508 210.328 69.3447 210.895 70.0157 211.202C71.133 211.712 71.2214 212.451 70.8303 213.402C69.4705 216.71 67.7735 219.797 64.8986 222.065C64.4033 222.455 63.8669 222.84 63.2867 223.067C62.1654 223.505 60.9205 223.838 60.0072 222.76C59.1436 221.74 59.273 220.412 60.0233 219.464C61.3013 217.848 62.761 216.361 64.2625 214.945C65.0331 214.218 66.0591 213.762 67.1415 213.074C65.9827 211.007 64.83 209.07 63.794 207.072C62.5418 204.658 61.3633 202.204 60.1985 199.745C58.7151 196.615 58.5444 193.386 60.0762 190.269C61.9542 186.447 64.0012 182.706 66.0619 178.978C67.2761 176.781 68.6588 174.677 70.2168 172.119C58.6683 173.509 47.6513 173.471 36.6559 171.454C36.3558 171.741 36.0266 171.94 35.8598 172.233C33.0279 177.194 30.1764 182.146 27.4151 187.147C25.8 190.072 26.0151 192.873 27.692 195.884C30.4829 200.897 33.6601 205.624 37.1954 210.112C37.9747 211.101 38.1353 211.816 37.3882 212.711C35.567 214.895 33.4925 216.788 30.8112 217.861C29.0661 218.56 27.2618 218.607 25.4953 217.904C23.3833 217.064 22.8858 215.355 24.3723 213.61C25.0502 212.815 26.0018 212.128 26.9686 211.729C28.9572 210.908 31.0395 210.314 33.3005 209.554C32.9534 208.962 32.6255 208.365 32.2632 207.79C29.9448 204.113 27.6408 200.426 25.289 196.77C23.1103 193.384 23.0844 189.878 24.9036 186.427C27.1447 182.176 29.5917 178.034 31.9643 173.853C32.4539 172.99 33.0069 172.164 33.6568 171.117C33.0153 170.833 32.4965 170.57 31.955 170.368C29.4934 169.451 26.9987 168.617 24.567 167.627C21.7152 166.467 19.6232 164.283 17.7042 161.983C17.3167 161.519 17.3581 160.434 17.5866 159.768C18.2623 157.797 19.1745 155.909 19.9167 153.96C24.5799 141.711 28.2068 129.184 29.9515 116.16C30.203 114.283 30.3946 112.398 30.6413 110.282ZM38.5325 82.2417C38.2794 83.3207 38.0877 84.0987 37.915 84.8808C36.6837 90.4543 35.4401 96.0252 34.2393 101.605C33.9353 103.018 33.6471 104.453 33.5642 105.891C33.0873 114.158 31.7665 122.296 29.951 130.362C27.7939 139.945 24.6621 149.222 20.8983 158.277C20.1248 160.139 20.3817 161.507 21.7965 162.589C23.4387 163.844 25.1905 165.034 27.0574 165.903C31.031 167.751 35.3091 168.647 39.6199 169.324C49.0029 170.799 58.4191 170.848 67.8388 169.768C74.1619 169.043 80.3914 167.834 86.3385 165.473C89.5646 164.193 92.4698 162.499 94.9256 159.896C96.1008 158.651 96.5761 157.507 96.6849 155.941C98.3074 132.598 94.3835 110.188 85.1861 88.7195C83.4084 84.57 80.961 80.7055 78.7791 76.7334C78.4269 76.0919 77.8475 75.5752 77.1381 74.7163C76.6723 76.4716 77.1256 77.6796 77.3637 78.8678C78.7556 85.8124 80.1447 92.7604 79.906 99.8918C79.8398 101.871 79.6042 103.882 79.1246 105.798C78.6703 107.613 77.5633 109.121 75.4762 109.392C73.463 109.653 71.8237 108.771 70.8643 107.11C69.6963 105.088 68.5146 102.968 67.9408 100.735C67.0879 97.4152 66.7021 93.9685 66.2315 90.5602C65.8398 87.7227 65.6124 84.8625 65.2822 81.7281C56.3789 84.7127 47.6315 85.0191 38.5325 82.2417ZM68.0025 80.7258C68.0025 81.3869 67.9523 82.0178 68.0107 82.6383C68.3746 86.5085 68.6281 90.3962 69.1893 94.2385C69.579 96.907 70.2583 99.5589 71.0896 102.127C71.5486 103.545 72.437 104.902 73.4068 106.055C74.4354 107.278 75.7223 106.993 76.4361 105.562C76.7533 104.927 77.0075 104.2 77.0532 103.499C77.2055 101.159 77.5246 98.7826 77.2826 96.4724C76.6995 90.9066 75.842 85.3695 75.0756 79.8235C74.959 78.9798 74.7377 78.1506 74.5242 77.1186C72.1741 78.4184 70.1342 79.5468 68.0025 80.7258ZM31.2208 83.1877C30.6263 84.0033 30.3676 84.2344 30.2621 84.5217C28.9816 88.0055 27.4723 91.4315 26.5334 95.0069C25.6661 98.3093 25.3321 101.764 24.9334 105.172C24.7535 106.709 25.0599 108.263 26.8594 109.273C27.4314 108.795 28.1642 108.383 28.6189 107.766C30.0881 105.771 31.1625 103.55 31.3174 101.05C31.5248 97.7046 31.6351 94.3484 31.6368 90.997C31.638 88.6053 31.3923 86.2135 31.2208 83.1877ZM38.0731 64.0385C40.2985 60.9987 40.164 57.4286 37.8044 55.8666C36.5407 58.6346 37.2527 61.2083 38.0731 64.0385ZM33.3485 80.3177C33.6486 83.5153 33.9023 86.218 34.1558 88.9207C34.3091 88.9304 34.4623 88.9401 34.6156 88.9499C35.027 86.4284 35.4383 83.9068 35.8561 81.3462C35.0038 80.9965 34.4436 80.7669 33.3485 80.3177ZM25.9579 215.382C29.7063 216.04 31.9865 215.017 33.5156 212.326C30.8451 212.624 28.4491 213.289 25.9579 215.382ZM68.0576 60.1279C69.6515 57.7509 70.6586 55.2531 69.7156 51.7316C67.5055 54.6046 67.6508 57.3393 68.0576 60.1279ZM65.5892 217.672C64.1568 217.771 63.4413 218.597 63.0877 219.817C63.4872 219.794 63.7998 219.662 64.0169 219.437C64.5639 218.871 65.0678 218.263 65.5892 217.672Z" fill="#858585"/>
<path d="M52.8241 41.5639C54.6835 41.5477 56.5444 42.3968 58.0696 43.9543C60.5281 46.465 61.7356 49.5553 61.9397 53.0151C62.0747 55.3047 60.6358 56.2082 58.632 55.0378C54.1307 52.4086 49.8616 52.6321 45.6512 55.6684C45.1527 56.0278 44.1986 56.302 43.7665 56.0603C43.2894 55.7933 42.8974 54.8667 42.9408 54.2611C43.1902 50.7704 44.018 47.4447 46.3714 44.6971C47.9729 42.8272 49.9294 41.6179 52.8241 41.5639ZM45.8962 52.5863C50.4885 50.2321 54.6957 50.4396 59.1274 52.2083C58.7983 49.1392 57.6603 46.8705 55.5066 45.1828C53.6866 43.7567 51.5658 43.7329 49.7104 45.1264C47.4332 46.8367 46.2944 49.2005 45.8962 52.5863Z" fill="#858585"/>
<path d="M4.42969 31.1423C5.15962 28.4737 5.66985 25.9866 6.52309 23.6235C8.09184 19.278 10.9128 15.7491 14.2784 12.6406C14.673 12.276 15.0979 11.8387 15.5822 11.7084C16.017 11.5914 16.763 11.6912 16.988 11.9871C17.2334 12.3102 17.2273 13.0904 16.9935 13.4545C16.5636 14.1234 15.8993 14.6469 15.3103 15.2073C12.3186 18.0543 9.87415 21.3013 8.51834 25.2228C7.87559 27.0818 7.5848 29.0696 7.22532 31.0158C7.06397 31.8895 7.27027 33.1168 6.0292 32.9954C5.4605 32.9398 4.99456 31.8354 4.42969 31.1423Z" fill="#858585"/>
<path d="M101.484 99.7437C101.157 100.099 100.782 100.884 100.261 100.998C99.2175 101.225 99.0194 100.268 98.8054 99.4539C97.4389 94.2573 95.3583 89.3661 92.4427 84.8464C91.7092 83.7091 90.7917 82.6846 90.1254 81.5133C89.8924 81.1036 90.1605 80.4087 90.1998 79.844C90.7543 79.9376 91.481 79.8435 91.8288 80.1625C92.6186 80.8872 93.2777 81.7767 93.8915 82.6668C96.9443 87.0925 99.1625 91.9297 100.835 97.0244C101.087 97.7935 101.216 98.6033 101.484 99.7437Z" fill="#858585"/>
<path d="M23.2314 127.193C22.4536 133.183 21.1435 139.278 18.8212 145.127C18.6888 145.46 18.561 145.879 18.296 146.057C17.8993 146.323 17.2779 146.652 16.946 146.508C16.6027 146.359 16.3953 145.694 16.3117 145.222C16.2575 144.914 16.5307 144.55 16.6569 144.21C18.6271 138.921 19.8981 133.466 20.5262 127.858C20.5966 127.229 20.6196 126.544 20.8961 126.004C21.1423 125.523 21.7093 125.206 22.1349 124.816C22.5004 125.258 22.9071 125.674 23.2112 126.155C23.3337 126.349 23.2314 126.685 23.2314 127.193Z" fill="#858585"/>
<path d="M96.3168 78.2722C96.9602 78.8058 97.539 79.1144 97.8722 79.5937C98.9551 81.1515 100.044 82.7194 100.952 84.3809C102.166 86.6012 103.231 88.9042 104.322 91.1898C104.63 91.8363 104.934 92.5347 104.996 93.2309C105.034 93.6597 104.711 94.3733 104.367 94.5137C104.016 94.6573 103.305 94.3872 103 94.0636C102.587 93.6246 102.426 92.9542 102.13 92.3973C100.137 88.6494 98.134 84.9069 96.1431 81.1581C95.893 80.6874 95.5256 80.1902 95.5234 79.704C95.5217 79.2872 95.9651 78.8684 96.3168 78.2722Z" fill="#858585"/>
<path d="M17.8974 128.547C16.8944 132.593 15.9614 136.365 15.0195 140.135C14.9546 140.396 14.8956 140.735 14.7109 140.873C14.2521 141.216 13.7221 141.463 13.2206 141.749C12.9962 141.225 12.7492 140.708 12.563 140.171C12.5162 140.036 12.6809 139.837 12.7202 139.661C13.4697 136.309 14.2153 132.956 14.9603 129.603C15.0582 129.162 15.0194 128.618 15.2702 128.301C15.668 127.797 16.2566 127.444 16.7646 127.027C17.1492 127.543 17.5339 128.059 17.8974 128.547Z" fill="#858585"/>
<path d="M0 27.1268C0.244203 26.0678 0.302924 25.3234 0.584786 24.6765C1.69857 22.1207 2.83929 19.5742 4.06784 17.0723C4.41098 16.3736 4.9987 15.6947 5.64935 15.2849C6.03412 15.0428 6.76212 15.3458 7.3358 15.4036C7.27733 15.8979 7.39375 16.5266 7.13334 16.8657C4.77785 19.9312 3.44744 23.4369 2.45378 27.1221C2.29931 27.6949 1.6604 28.1371 1.2454 28.6395C0.794777 28.0921 0.344029 27.5446 0 27.1268Z" fill="#858585"/>
<path d="M32.7283 37.3583C32.7827 35.6793 34.0404 34.1897 35.4256 34.1637C36.8907 34.1363 38.0399 35.6134 37.9257 37.3772C37.8244 38.9403 36.6198 40.0824 35.1108 40.046C33.6722 40.0113 32.6787 38.8904 32.7283 37.3583Z" fill="#858585"/>
<path d="M66.2385 34.5928C66.201 36.1019 65.1167 37.37 63.8549 37.3808C62.6232 37.3912 61.6004 36.2151 61.6336 34.8265C61.6727 33.1919 62.8641 31.8192 64.182 31.8903C65.3946 31.9558 66.2752 33.113 66.2385 34.5928Z" fill="#858585"/>
</g>
<defs>
<clipPath id="clip0_1029_4503">
<rect width="105" height="222.532" fill="white" transform="translate(0 0.949707)"/>
</clipPath>
</defs>
</svg>
