<svg width="636" height="456" viewBox="0 0 636 456" fill="none" xmlns="http://www.w3.org/2000/svg">
<path d="M0 0H627C631.971 0 636 4.02944 636 9V447C636 451.971 631.971 456 627 456H0V0Z" fill="#009A57"/>
<path d="M589.787 419.301C590.943 420.039 590.413 421.708 589.097 421.773C570.703 422.88 550.865 417.038 537.688 403.668C521.911 418.948 493.213 416.283 473.311 414.133C449.044 411.517 425.049 403.764 406.093 387.955C390.75 375.147 379.563 357.701 376.304 337.847C372.886 316.997 375.101 292.152 385.132 273.325C395.292 254.209 414.921 242.413 434.438 234.612C454.292 226.651 475.992 222.815 497.338 225.143C539.245 229.701 583.046 251.256 596.4 293.709C602.226 312.263 602.707 332.325 599.61 351.425C596.592 369.834 588.182 390.395 567.654 393.813C572.629 404.294 579.756 412.945 589.787 419.317V419.301ZM566.611 390.988C592.483 386.912 597.587 355.534 598.422 333.93C599.144 314.831 595.982 295.105 586.657 278.22C566.9 242.477 517.176 225.416 478.255 227.566C439.622 229.685 392.948 249.378 381.89 289.712C376.465 309.518 375.743 333.112 383.367 352.436C390.348 370.188 404.103 384.633 420.282 394.439C438.515 405.45 459.813 410.425 480.887 411.822C499.2 413.057 522.232 414.373 536.886 401.373C537.191 401.1 537.528 401.036 537.833 401.1C538.202 401.036 538.603 401.068 538.94 401.357C552.743 412.303 567.493 418.996 584.988 419.189C575.021 411.773 567.461 401.678 564.123 389.528C563.85 388.533 565.278 388.196 565.648 389.127C565.904 389.785 566.209 390.395 566.466 391.053C566.53 391.037 566.562 390.988 566.627 390.988H566.611Z" fill="white"/>
<path d="M505.038 379.48C512.356 380.46 516.529 387.859 513.753 394.728C510.944 401.678 502.839 404.567 495.889 402.544C488.955 400.538 484.702 393.685 487.736 386.751C490.496 380.46 497.783 377.988 504.107 379.785C504.347 379.561 504.652 379.416 505.038 379.48ZM510.671 394.343C513.271 389.094 510.43 383.397 504.652 382.321C504.331 382.257 504.107 382.081 503.93 381.872C499.035 381.262 493.626 382.129 490.914 386.783C487.976 391.871 490.528 397.36 495.745 399.367C501.153 401.437 507.975 399.752 510.671 394.343Z" fill="white"/>
<path d="M504.65 382.321C510.428 383.381 513.269 389.095 510.669 394.343C507.972 399.768 501.151 401.453 495.742 399.367C490.526 397.36 487.974 391.855 490.911 386.783C493.624 382.129 499.033 381.246 503.928 381.872C504.088 382.097 504.313 382.273 504.65 382.321Z" fill="#9EC200"/>
<path d="M526.541 270.918C537.247 285.78 539.751 306.822 528.869 322.278C524.455 328.57 518.195 333.657 510.909 336.225C509.512 336.723 507.795 336.851 506.479 337.461C503.863 338.681 505.211 336.562 503.991 339.756C502.916 342.597 505.211 347.846 505.901 350.815C507.297 356.898 508.71 362.981 510.106 369.064C510.283 369.882 509.833 370.46 509.239 370.733C509.111 371.086 508.822 371.407 508.357 371.552C498.55 374.746 488.567 377.49 478.664 380.395C477.958 380.604 476.995 380.122 476.85 379.336C474.009 362.708 470.783 345.101 471.441 328.184C471.233 327.462 471.473 326.563 472.372 326.242C483.078 322.262 493.237 314.526 494.666 302.44C495.34 296.678 494.04 288.958 489.225 285.042C484.683 281.382 479.177 280.387 474.362 284.046C469.082 288.091 472.131 295.779 475.406 299.455C476.032 300.145 475.55 300.931 474.876 301.076C474.828 301.188 474.796 301.3 474.716 301.429C469.002 309.229 464.508 317.367 460.303 326.066C459.885 326.932 458.681 326.531 458.489 325.777C437.736 323.096 428.86 299.487 434.141 281.206C439.229 263.551 455.215 246.168 474.411 245.253C493.879 244.339 515.242 255.237 526.541 270.918ZM507.056 369.016C505.596 362.708 504.151 356.384 502.675 350.061C502.001 347.123 498.903 340.35 500.203 337.204C500.62 336.225 501.294 335.76 502.193 335.23C503.686 334.348 506.222 334.556 507.971 334.059C510.796 333.272 513.493 332.052 515.996 330.528C538.739 316.58 536.621 285.17 519.881 267.467C501.888 248.431 469.628 240.053 449.806 260.533C431.188 279.745 429.037 315.055 458.922 324.075C461.908 315.376 466.626 307.191 472.26 299.952C472.372 299.808 472.501 299.727 472.613 299.647C460.319 287.481 480.494 269.264 492.948 284.833C506.944 302.36 490.509 322.856 473.399 329.003C475.39 341.458 475.983 354.153 477.797 366.64C478.006 368.037 478.006 374.601 479.21 375.612C481.681 377.715 485.533 375.291 488.294 374.489C494.537 372.643 500.765 370.717 507.056 369.032V369.016Z" fill="white"/>
<path d="M502.676 350.061C504.137 356.368 505.581 362.692 507.058 369.016C500.766 370.717 494.555 372.627 488.296 374.473C485.535 375.291 481.683 377.715 479.211 375.596C478.007 374.569 478.007 368.021 477.799 366.624C475.985 354.137 475.391 341.426 473.401 328.987C490.51 322.84 506.946 302.344 492.95 284.817C480.511 269.248 460.32 287.481 472.615 299.631C472.486 299.711 472.358 299.808 472.261 299.936C466.644 307.175 461.925 315.344 458.924 324.059C429.022 315.039 431.173 279.713 449.807 260.517C469.629 240.053 501.89 248.415 519.882 267.451C536.622 285.154 538.741 316.564 515.998 330.512C513.494 332.036 510.798 333.272 507.973 334.043C506.223 334.54 503.688 334.332 502.195 335.214C501.296 335.744 500.622 336.209 500.205 337.188C498.905 340.334 502.018 347.123 502.676 350.045V350.061Z" fill="#9EC200"/>
<g opacity="0.7">
<path d="M272.579 440.45C276.145 439.403 277.311 435.484 279.018 432.599C281.432 432.88 283.312 430.719 282.991 428.651C285.172 428.275 286.939 425.495 285.823 423.475C303.698 398.846 322.288 374.161 338.273 348.239C338.536 348.18 338.769 347.99 338.828 347.664C338.846 347.554 338.877 347.441 338.902 347.336C339.347 347.125 339.383 346.574 339.14 346.242C340.354 340.357 341.984 334.595 344.056 328.953C344.28 328.327 343.574 327.542 342.933 327.909C337.366 331.08 330.852 334.376 326.291 338.912C326.125 339.076 326.105 339.294 326.179 339.483C308.625 364.351 291.795 389.563 273.273 413.756C273.157 413.919 273.119 414.076 273.109 414.228C273.109 414.228 273.109 414.228 273.103 414.237C273.052 414.188 272.995 414.147 272.912 414.125C270.673 413.772 268.49 415.963 268.872 418.222C266.915 418.23 264.924 420.704 265.738 422.595C265.604 422.647 265.474 422.726 265.356 422.875C263.753 425.061 260.04 428.507 260.325 431.471C260.565 434.033 263.498 435.775 265.273 437.196C267.379 438.877 269.645 441.298 272.59 440.434L272.579 440.45ZM338.76 334.954C338.985 335.138 339.266 335.277 339.614 335.34C340.05 335.417 340.331 335.04 340.375 334.666C340.418 334.623 340.469 334.586 340.518 334.535C340.367 335.041 340.238 335.55 340.095 336.062C339.92 335.876 339.744 335.727 339.488 335.569C339.346 335.493 339.204 335.417 339.064 335.354C338.705 335.307 338.617 335.171 338.768 334.96L338.76 334.954ZM327.791 339.217C330.562 337.788 333.232 336.067 335.877 334.315C336.056 336.185 337.867 337.521 339.741 337.319C338.96 340.212 338.287 343.145 337.732 346.1C335.761 346.232 333.931 345.078 333.475 343.061C333.604 342.846 333.577 342.643 333.465 342.489C333.418 342.002 332.793 341.57 332.236 341.923C330.041 343.319 327.614 341.607 327.789 339.203L327.791 339.217ZM326.742 340.693C327.174 342.864 329.386 344.326 331.596 343.824C322.5 355.516 314.276 368 305.701 380.063C296.819 392.558 287.854 404.981 278.988 417.487C277.598 416.474 276.161 415.527 274.67 414.725C292.915 390.887 311.213 366.424 326.756 340.69L326.742 340.693ZM280.263 418.455C289.151 405.952 297.957 393.391 306.836 380.882C315.458 368.754 324.592 356.819 332.661 344.311C333.278 346.135 335.053 347.557 336.966 347.678C328.002 359.771 319.783 372.455 311.154 384.785C302.408 397.279 293.54 409.685 284.647 422.074C283.236 420.85 281.772 419.613 280.261 418.441L280.263 418.455ZM270.121 418.57C270.134 418.518 270.152 418.457 270.149 418.393C270.123 416.669 271.108 415.162 272.868 414.793C272.874 414.957 272.93 415.119 273.071 415.232C276.518 418.149 280.337 420.63 283.813 423.542C283.821 424.1 284.434 424.549 284.978 424.371C284.934 425.762 284.248 427.054 282.745 427.409C282.669 427.429 282.61 427.46 282.545 427.5C282.497 427.429 282.441 427.352 282.394 427.282C282.379 427.112 282.303 426.96 282.124 426.832C278.193 424.026 274.305 421.004 270.121 418.57ZM266.803 422.616C266.873 421.758 266.839 421.047 267.358 420.299C267.833 419.631 268.508 419.252 269.251 418.982C273.018 422.261 277.286 425.025 281.351 427.902C281.449 427.972 281.548 428.005 281.65 428.017C282.286 429.745 281.21 431.605 279.184 431.417C279.167 431.233 279.059 431.058 278.803 430.986C274.026 429.664 270.746 425.492 266.763 422.759C266.778 422.721 266.799 422.674 266.798 422.624L266.803 422.616ZM266.218 435.867C264.009 434.089 261.384 432.898 262.794 429.361C263.539 427.485 265.539 425.533 266.705 423.859C266.705 423.859 266.711 423.851 266.717 423.843C269.864 427.148 273.853 430.891 278.244 432.049C276.71 433.879 275.749 436.25 273.956 437.822C271.189 440.248 268.369 437.605 266.218 435.867Z" fill="white"/>
</g>
<path d="M609.531 183.07C605.476 168.356 588.212 160.722 574.021 161.878C560.812 162.955 549.108 171.967 547.73 185.699C546.288 200.096 558.009 209.805 571.503 210.803C572.2 215.016 570.584 219.276 567.052 221.747C566.213 222.333 566.166 223.917 567.369 224.139C576.682 225.913 585.694 220.401 587.69 211.009C587.753 211.009 587.817 211.025 587.896 211.009C601.928 208.348 613.871 198.75 609.547 183.07H609.531ZM587.12 208.237C586.597 208.332 586.312 208.649 586.185 209.013C585.773 209.092 585.409 209.362 585.282 209.916C583.651 217.138 577.87 221.985 570.743 221.858C573.625 218.643 574.734 214.335 573.34 209.948C573.293 209.789 573.214 209.663 573.119 209.552C573.024 209.314 572.849 209.108 572.533 209.029C561.129 206.257 549.82 200.318 550.612 186.76C551.357 173.789 562.998 165.363 575.225 164.713C586.454 164.112 599.505 169.291 605.049 179.57C613.079 194.474 601.026 205.608 587.151 208.221L587.12 208.237Z" fill="white"/>
<path d="M565.443 186.523C563.638 185.968 561.167 187.236 561.626 189.374C561.642 189.469 561.69 189.548 561.721 189.627C561.721 189.77 561.721 189.912 561.753 190.039C562.181 192.288 564.905 192.652 566.441 191.258C568.057 189.801 567.566 187.156 565.443 186.507V186.523Z" fill="white"/>
<path d="M583.354 185.351C582.34 184.844 581.025 184.923 580.281 185.715C579.394 186.158 578.665 186.95 578.475 187.948C577.953 190.704 581.374 192.7 583.702 191.448C586.157 190.134 585.682 186.507 583.354 185.351Z" fill="white"/>
<path d="M599.216 185.414C597.585 184.828 595.288 185.604 594.908 187.457C594.829 187.853 594.861 188.265 595.035 188.613C595.051 189.057 595.162 189.485 595.368 189.912C596.334 191.86 598.852 191.876 600.277 190.451C601.845 188.867 601.339 186.174 599.216 185.414Z" fill="white"/>
<g opacity="0.6">
<path d="M365.958 265.703C366.091 265.326 366.018 264.888 365.544 264.645C358.178 260.719 351.602 255.602 346.205 249.22C340.565 242.547 336.165 234.913 330.622 228.142C330.415 227.899 330.111 227.997 329.965 228.215C329.613 227.96 329.127 227.887 328.725 228.288C321.274 235.691 313.008 241.647 304.694 247.992C304.354 248.248 304.366 248.649 304.56 248.892C304.305 249.086 304.123 249.402 304.184 249.791C304.512 252.113 304.658 254.556 305.18 256.841C305.205 256.951 305.265 257.036 305.351 257.109C305.351 257.17 305.351 257.23 305.375 257.303C311.051 274.041 326.076 286.805 342.169 293.016C342.656 293.211 343.178 292.882 343.446 292.493C350.095 283.146 357.813 274.868 366.626 267.526C367.441 266.858 366.784 265.824 365.945 265.715L365.958 265.703ZM349.633 280.934C347.7 283.158 346.035 285.699 344.041 287.862C340.699 291.485 337.66 288.822 333.831 286.659C321.432 279.621 313.312 269.143 306.517 256.902C308.414 256.076 310.225 255.055 312.012 254.009C312.449 253.754 312.595 253.061 312.182 252.709C310.675 251.432 309.18 249.84 307.453 248.867C306.663 248.418 305.995 249.415 306.53 250.059C307.526 251.25 308.876 252.235 310.14 253.207C308.863 253.997 307.599 254.812 306.396 255.711C306.566 253.596 306.299 251.359 305.898 249.329C305.849 249.111 305.752 248.977 305.63 248.867C314.783 244.261 323.061 237.016 330.135 229.698C330.233 229.601 330.294 229.492 330.342 229.382C338.729 244.564 348.916 258.166 364.584 266.311C364.608 266.323 364.645 266.323 364.669 266.335C359.296 270.82 354.24 275.658 349.633 280.946V280.934Z" fill="white"/>
<path d="M333.204 246.12C327.151 250.958 320.417 255.833 315.153 261.521C314.898 261.801 315.226 262.287 315.579 262.068C322.167 257.911 328.245 252.125 334.128 247.032C334.772 246.473 333.848 245.61 333.216 246.12H333.204Z" fill="white"/>
<path d="M337.178 250.107C331.405 255.76 325.546 261.315 319.796 266.991C319.492 267.295 319.942 267.745 320.27 267.465C326.372 262.166 332.243 256.598 338.041 250.958C338.601 250.423 337.75 249.56 337.19 250.107H337.178Z" fill="white"/>
<path d="M341.047 255.638C336.234 261.521 330.8 266.481 325.099 271.477C324.686 271.841 325.233 272.558 325.695 272.255C331.992 268.158 337.486 262.615 342.226 256.829C342.907 256.003 341.728 254.811 341.047 255.65V255.638Z" fill="white"/>
<path d="M347.141 262.129C341.853 267.745 336.153 272.559 330.245 277.494C329.868 277.81 330.354 278.405 330.756 278.162C337.247 274.248 343.142 268.79 348.138 263.138C348.733 262.457 347.761 261.461 347.129 262.129H347.141Z" fill="white"/>
<path d="M352.651 266.809C347.278 271.258 342.124 276.12 337.128 280.982C336.557 281.541 337.396 282.344 337.991 281.845C343.4 277.433 348.822 272.85 353.854 268.012C354.656 267.234 353.477 266.116 352.651 266.809Z" fill="white"/>
</g>
</svg>
