<svg width="1920" height="1081" viewBox="0 0 1920 1081" fill="none" xmlns="http://www.w3.org/2000/svg">
<g clip-path="url(#clip0_215_3)">
<rect width="1920" height="1080" transform="translate(0 0.63681)" fill="#E6F2EF"/>
<g opacity="0.7">
<path d="M1699.05 624.055L1698.47 633.389C1698.47 633.389 1706.11 661.706 1732.01 675.04C1757.91 688.375 1772.82 694.65 1772.82 694.65L1817.55 663.275L1850.52 629.546L1846.39 604.369L1808.14 587.189L1784.59 566.795L1761.05 573.855L1699.05 624.055Z" fill="white"/>
<path d="M1667.65 706.416L1678.31 695.399L1801.07 761.323L1831.68 734.654L1869.35 703.278H1898.39L1921.15 718.966L1926.75 722.294L1926.64 941.732L1819.64 916.93L1780.66 873.49L1785.6 830.577L1777.52 808.386L1722.59 756.617L1667.65 706.416Z" fill="white"/>
<path d="M1326.95 870.881C1359.52 905.48 1391.15 939.082 1423.21 973.136C1434.78 971.23 1446.9 969.138 1460.26 973.036C1489.62 1008.16 1520.06 1044.57 1550.51 1081.01C1540.72 1084.79 1536.97 1083.97 1530.61 1076.41C1518.76 1062.34 1506.54 1048.55 1495.28 1034.03C1484.23 1019.77 1472.14 1006.33 1461.88 991.471C1459.32 987.764 1457.05 983.863 1454.24 979.421C1442.68 982.288 1431 985.185 1417.92 988.43C1415.18 985.527 1411.33 981.695 1407.76 977.618C1396.49 964.748 1385.11 951.964 1374.18 938.812C1362.59 924.87 1348.63 913.042 1338.38 897.878C1335.16 893.105 1330.3 889.433 1326.21 885.24C1321.63 880.552 1317.7 875.49 1316.7 868.301C1318.08 866.845 1319.47 865.021 1321.19 863.602C1338.31 849.51 1355.54 835.562 1372.61 821.418C1389.82 807.164 1406.78 792.617 1424.03 778.412C1440.52 764.823 1457.3 751.571 1473.84 738.043C1480.56 732.545 1486.56 726.053 1493.67 721.156C1509.94 709.956 1524.24 696.342 1540 684.521C1552.43 675.19 1564.29 665.101 1576.45 655.395C1581.99 650.969 1587.68 646.72 1593.18 642.242C1594.36 641.283 1594.97 639.647 1595.93 638.387C1596.84 637.179 1597.71 635.253 1598.88 635.019C1609.04 632.983 1614.86 624.518 1622.55 619.002C1639.66 606.736 1655.99 593.391 1672.67 580.534C1690.32 566.933 1707.86 553.198 1725.72 539.871C1743.83 526.353 1762.28 513.284 1780.55 499.976C1789.97 493.115 1799.26 486.076 1808.71 479.27C1822.33 469.471 1835.98 459.713 1849.76 450.143C1855.12 446.416 1857.42 446.372 1862.48 451.392C1868.14 456.988 1873.04 463.377 1877.96 469.662C1890.03 485.082 1901.92 500.641 1913.89 516.142C1916.62 519.674 1919.22 523.316 1922.12 526.697C1928.83 534.515 1926.79 543.429 1926.03 553.962C1900.64 523.273 1876.98 493.32 1857.62 459.517C1848.71 462.721 1841.76 469.694 1833.84 475.014C1824.49 481.294 1815.84 488.598 1806.78 495.315C1795.92 503.362 1784.89 511.179 1774.05 519.244C1764.53 526.327 1755.14 533.589 1745.73 540.82C1734.68 549.306 1723.71 557.879 1712.65 566.352C1701.06 575.236 1689.36 583.969 1677.81 592.903C1659.07 607.396 1640.41 621.987 1621.74 636.571C1618.98 638.724 1616.37 641.064 1613.1 643.82C1616.35 648.135 1619.13 652.466 1622.53 656.232C1635.73 670.829 1645.48 688.303 1660.09 702.178C1662.05 698.824 1663.46 696.07 1665.18 693.527C1670.22 686.089 1676.63 683.707 1684.9 685.864C1691.84 687.675 1698.42 690.314 1704.25 694.485C1721.89 707.102 1741.2 716.926 1759.83 727.893C1770.7 734.291 1781.13 741.435 1791.82 748.14C1800.82 753.785 1801.46 753.866 1809.55 746.829C1818.05 739.446 1826.21 731.675 1835.21 723.437C1828.84 716.463 1822.65 710.258 1817.16 703.491C1811.7 696.769 1806.94 689.481 1801.41 681.784C1795.27 687.302 1790.15 692.409 1784.46 696.773C1782.09 698.584 1778.5 699.649 1775.48 699.608C1761.15 699.412 1748 694.482 1736.58 686.389C1720.91 675.293 1707.74 661.333 1695.72 646.361C1694.1 644.343 1692.74 642.093 1691.45 639.84C1688.75 635.119 1688.83 634.89 1692.74 628.2C1694.71 629.945 1697.05 631.347 1698.47 633.389C1709.03 648.573 1723.18 660.327 1736.78 672.415C1745.44 680.106 1756.43 684.886 1767.98 687.486C1773.51 688.732 1778.35 688.262 1782.76 683.322C1789.81 675.432 1796.9 667.399 1806.21 661.893C1806.75 661.576 1807.3 661.058 1807.53 660.503C1811.34 651.296 1814.98 642.021 1818.91 632.869C1820.45 629.289 1819.02 625.974 1818.78 622.562C1817.99 611.392 1818.81 610.275 1830.51 608.752C1823.4 605.107 1816.85 601.944 1810.5 598.441C1804.13 594.931 1798.17 590.786 1792.57 586.107C1787.16 581.593 1782.7 576.217 1778.35 569.771C1767.53 577.637 1757.36 584.858 1747.38 592.336C1736.26 600.669 1725.33 609.255 1714.29 617.689C1710.95 620.239 1707.61 622.823 1704.08 625.079C1699.47 628.018 1696.61 627.972 1694.46 625.43C1692.35 622.935 1693.39 620.165 1697.67 616.572C1702.12 612.843 1706.42 608.935 1710.94 605.306C1721.28 597.015 1731.67 588.788 1742.12 580.646C1751.23 573.555 1760.59 566.785 1769.58 559.556C1776.79 553.765 1783.42 553.736 1790 560.16C1795.56 565.589 1801.11 571.022 1806.8 576.582C1819.55 570.733 1828.68 561.064 1838.69 552.537C1844.57 547.524 1850.68 542.761 1856.88 538.129C1858.9 536.614 1861.44 535.696 1863.85 534.8C1872.76 531.493 1877.37 532.558 1883.13 540.131C1891.9 551.647 1900.31 563.44 1908.87 575.114C1913.98 582.079 1919.16 588.989 1924.14 596.045C1925.35 597.754 1926.52 599.913 1926.6 601.908C1926.89 609.346 1926.72 616.802 1926.72 624.438C1922.64 625.829 1919.06 627.053 1915.22 628.363C1914.93 634.911 1914.64 641.392 1914.32 648.757C1918.62 646.447 1921.88 644.693 1925.7 642.644C1926.14 644.395 1926.49 645.534 1926.7 646.7C1928.35 656.11 1924.71 661.933 1916.31 667.117C1905.45 673.82 1895.95 682.726 1884.89 691.449C1897.45 691.249 1906.16 697.481 1915.7 702.186C1924.83 706.688 1928.36 712.661 1926.75 722.294C1926.44 724.179 1926.43 726.115 1926.2 728.97C1917.13 720.334 1907.38 714.301 1897.01 708.963C1889.14 704.909 1882.21 705.301 1875.05 709.889C1872.94 711.239 1870.7 712.374 1867.71 714.061C1873.47 716.709 1881.47 712.127 1883.58 720.664C1881.65 724.049 1878.78 725.089 1875.31 725.064C1872.05 725.04 1868.71 725.58 1865.56 725.03C1854.5 723.101 1846.98 728.35 1839.7 737.482C1844.57 738.629 1848.72 739.837 1852.96 740.554C1859.74 741.7 1859.77 741.562 1859.27 749.324C1854.21 752.503 1848.8 751.317 1843.48 750.206C1840.97 749.684 1838.61 748.526 1836.14 747.806C1830.86 746.265 1826.37 747.008 1822.35 751.39C1819.57 754.431 1815.79 756.572 1811.94 759.512C1815.54 761.166 1818.91 762.715 1822.29 764.26C1822.87 764.526 1823.7 764.619 1823.99 765.067C1825.4 767.278 1828.51 768.482 1826.93 772.366C1825.46 776.001 1823.04 776.845 1820.09 775.868C1813.68 773.744 1807.22 771.541 1801.19 768.553C1793.12 764.558 1785.23 760.113 1777.63 755.288C1758.09 742.885 1737.05 733.007 1718.02 719.778C1711.26 715.083 1704.63 710.184 1697.64 705.864C1691.48 702.058 1684.9 698.93 1678.31 695.399C1675.93 697.406 1674.01 699.018 1672.03 700.687C1672.61 701.932 1672.81 702.962 1673.43 703.589C1682.85 713.213 1692.69 722.466 1701.72 732.447C1713.68 745.668 1727.57 756.61 1741.38 767.674C1751.43 775.72 1761.62 783.589 1771.81 791.454C1778.04 796.26 1783 801.975 1787.13 808.765C1793.02 818.425 1800.04 827.389 1806.24 836.869C1812.04 845.742 1817.27 854.987 1823.02 863.899C1826.14 868.747 1829.82 873.244 1833.83 878.699C1832.99 879.851 1831.94 882.731 1830.53 882.919C1827.89 883.271 1824.37 882.889 1822.43 881.321C1818.7 878.308 1815.33 874.573 1812.66 870.571C1804.22 857.917 1796.19 844.997 1787.96 832.204C1787.66 831.727 1786.97 831.497 1785.6 830.577C1785.28 832.596 1784.91 834.179 1784.8 835.781C1784.38 841.607 1784.39 847.484 1783.62 853.258C1782.29 863.175 1787.02 870.39 1792.72 877.794C1807.12 896.48 1826.79 906.472 1848.63 913.317C1859.57 916.746 1870.31 920.871 1881.34 923.942C1892.8 927.132 1904.53 929.341 1916.1 932.172C1919.52 933.011 1922.79 934.504 1926.31 935.765V946.687C1902.83 941.473 1879.77 936.35 1856.95 931.282C1875.99 950.529 1895.21 969.957 1914.52 989.476C1917.59 987.08 1921.36 984.146 1926.16 980.398V1002.58C1906.08 1019.34 1886.03 1036.13 1865.9 1052.81C1854.58 1062.19 1843.12 1071.4 1831.7 1080.67C1830.72 1081.46 1829.59 1082.6 1828.49 1082.63C1823.44 1082.81 1818.29 1083.65 1812.06 1081.57C1843.94 1053.15 1875.05 1025.41 1906.63 997.256C1886.62 976.768 1866.81 956.49 1847.02 936.2C1845.88 935.038 1844.21 933.926 1843.88 932.531C1842.16 925.307 1835.77 924.017 1830.36 921.499C1826.84 919.863 1823.23 918.42 1819.65 916.93C1801 909.182 1788.49 894.375 1776.71 878.995C1772.79 873.877 1771 867.258 1771.74 860.535C1772.33 855.203 1770.47 851.361 1766.53 847.778C1753.59 836.004 1743.25 821.957 1732.33 808.392C1727.72 802.656 1722.05 797.772 1717.02 792.357C1713.72 788.801 1710.65 785.016 1707.54 781.283C1691.41 761.913 1674.83 742.883 1659.29 723.053C1641.55 700.43 1624.73 677.086 1607.49 654.073C1606.72 653.044 1605.72 652.19 1604.4 650.807C1602.28 652.181 1600.08 653.373 1598.15 654.902C1576.47 672.053 1554.77 689.178 1533.21 706.471C1515.52 720.664 1498.03 735.118 1480.39 749.377C1459.78 766.036 1439.21 782.747 1418.41 799.164C1407.08 808.105 1394.73 815.824 1383.88 825.282C1370.24 837.171 1355.98 848.21 1341.74 859.321C1336.93 863.08 1332.11 866.843 1326.95 870.881ZM1832.66 658.52C1824.56 664.071 1816.44 669.595 1809.28 675.665C1815.03 682.334 1819.85 688.724 1825.5 694.267C1831.07 699.732 1835.7 706.554 1843.34 709.506C1860.54 690.834 1879.84 675.366 1899.24 660.684C1899.72 656.986 1899.41 653.262 1900.76 650.282C1904.34 642.337 1905.09 634.707 1901.64 626.483C1899.69 621.83 1901.01 619.627 1905.89 617.387C1908.49 616.196 1911.33 615.545 1914.08 614.701C1916.05 614.096 1918.05 613.576 1920.08 613.006C1911.47 601.01 1903.14 589.552 1894.96 577.982C1886.9 566.565 1879 555.034 1871 543.511C1861.78 549.467 1853.77 555.15 1846.42 562.187C1837.88 570.362 1827.47 576.587 1818.08 583.498C1826.38 587.786 1834.94 592.21 1843.38 596.571C1844.7 595.346 1846.54 593.972 1847.97 592.257C1861.44 576.1 1882.27 582.019 1890.78 595.587C1899.79 609.949 1898.65 625.775 1881.59 637.692C1876.92 640.951 1872.04 644.285 1866.08 644.934C1863.2 645.247 1860.74 644.12 1860.13 641.163C1859.52 638.259 1861.06 636.348 1863.98 635.312C1867.59 634.033 1871.53 633.014 1874.52 630.801C1884.14 623.672 1888.79 613.67 1881.73 602.142C1877.11 594.599 1868.1 591.571 1860.24 595.529C1855.46 597.938 1851.15 601.288 1846.39 604.369C1855.94 609.572 1855.56 619.839 1859.91 627.383C1860.36 628.166 1859.64 629.933 1859.01 630.97C1857.36 633.69 1855.81 636.619 1853.59 638.821C1846.7 645.618 1839.53 652.115 1832.46 658.729L1832.66 658.52ZM1770.44 835.08C1771.29 834.65 1772.14 834.221 1772.99 833.791C1773.58 827.191 1773.57 820.75 1772.62 813.964C1771.71 807.494 1769.46 803.314 1763.92 800.197C1759.44 797.679 1755.14 794.75 1751.12 791.548C1736.72 780.085 1722.49 768.423 1708.16 756.882C1707.81 756.595 1707.02 756.845 1705.83 756.845C1706.41 758.063 1706.7 759.186 1707.36 760.002C1725.78 782.593 1747.2 802.65 1763.74 826.833C1765.73 829.747 1768.19 832.339 1770.44 835.08ZM1830.54 622.684C1830.54 625.988 1830.75 629.202 1830.48 632.376C1830.22 635.472 1829.47 638.527 1828.74 642.761C1835.16 636.63 1840.46 631.576 1845.58 626.698C1843.95 624.295 1842.53 622.19 1841.1 620.072C1837.78 620.894 1834.47 621.713 1830.54 622.684Z" fill="#395659"/>
<path d="M1666.98 326.149C1674.84 324.154 1682.82 324.777 1690.91 325.316C1697.67 325.767 1704.28 326.015 1709.66 330.634C1712.32 332.925 1715.37 335.295 1716.89 338.311C1722.83 350.158 1726.45 362.75 1725.94 376.142C1725.31 392.694 1724.65 409.228 1722.03 425.666C1720.49 435.329 1719.86 445.231 1719.87 455.025C1719.88 473.321 1708.81 481.301 1695.4 482.999C1692.82 483.325 1690.21 483.355 1686.71 483.58C1686.47 488.99 1686.05 494.378 1686.02 499.767C1685.99 507.183 1684.32 512.535 1675.86 515.16C1669.94 517 1665.04 522.023 1659.56 525.409C1656.23 527.462 1652.82 527.656 1648.6 527.369C1642.21 526.934 1635.59 529.131 1629.12 530.453C1618.14 532.696 1607.27 536.54 1596.22 537.134C1581.27 537.936 1566.15 536.767 1551.4 533.384C1544.51 531.807 1537.67 530.469 1531.02 527.606C1518.85 522.371 1510.83 513.685 1505.42 501.97C1499.27 488.649 1499.01 474.274 1498.02 460.128C1496.78 442.362 1496.11 424.535 1495.85 406.725C1495.57 387.085 1495.08 367.399 1501.71 348.335C1504.76 339.553 1509.52 332.075 1515.52 325.195C1515.94 324.713 1516.18 323.973 1516.7 323.686C1526.26 318.307 1535.62 312.509 1545.51 307.81C1551.83 304.805 1559 303.615 1565.67 301.302C1579.83 296.399 1594.29 296.66 1608.88 298.361C1609.8 298.47 1610.8 298.854 1611.65 298.633C1623.01 295.639 1632.24 300.122 1641.4 306.253C1647.76 310.509 1654.56 314.081 1660.05 319.549C1662.29 321.783 1664.63 323.919 1666.98 326.149ZM1510.44 358.459C1509.84 364.741 1509.09 369.874 1508.91 375.027C1508.55 384.885 1507.53 394.86 1508.58 404.595C1510.41 421.618 1511.8 438.625 1511.91 455.735C1512.02 471.683 1514.48 487.099 1521.64 501.56C1525.01 508.363 1530.13 512.888 1537.6 514.567C1546.37 516.536 1554.67 520.013 1563.78 521.072C1574.49 522.316 1585.11 523.307 1595.84 522.259C1603.56 521.505 1611.3 520.697 1618.94 519.415C1626.71 518.113 1634.31 515.381 1642.1 514.818C1648.14 514.382 1652.56 511.741 1656.85 508.414C1661.2 505.045 1665.27 501.45 1671.21 502.493C1671.62 500.777 1672.01 499.861 1672.03 498.936C1672.59 478.888 1673.06 458.837 1673.65 438.791C1673.91 429.814 1674.55 420.848 1674.77 411.872C1675.02 402.233 1675.05 392.586 1675 382.944C1674.99 381.42 1674.08 379.901 1673.35 377.639C1671.61 380.15 1670.59 381.815 1669.39 383.341C1662.73 391.809 1654.78 398.825 1644.75 402.927C1636.39 406.345 1627.88 409.604 1619.16 411.879C1607.76 414.852 1596.19 415.776 1584.31 413.23C1571.56 410.498 1559.78 405.339 1547.83 400.574C1534.22 395.15 1523.92 385.54 1516.32 373.213C1513.83 369.169 1512.7 364.284 1510.44 358.459ZM1673.26 333.888C1676.12 341.862 1678.36 348.427 1680.87 354.89C1681.96 357.703 1681.99 361.418 1686.27 362.036C1695.7 363.398 1698.81 370.417 1699.7 378.439C1701.07 390.828 1702.26 403.291 1702.46 415.739C1702.6 424.333 1701.06 432.969 1700.05 441.562C1699.2 448.858 1695.3 453.353 1687.62 454.018C1686.7 454.098 1685.82 454.588 1684.81 454.926V469.447C1686.67 469.245 1688.22 469.14 1689.75 468.901C1699.63 467.355 1702.96 463.586 1703.31 453.722C1703.39 451.462 1703.59 449.197 1703.89 446.956C1705.61 434.319 1708.71 421.694 1708.76 409.055C1708.8 397.024 1711.44 385.398 1711.73 373.468C1711.99 362.99 1710.26 353.304 1705.45 344.011C1703.36 339.954 1700.65 337.251 1695.99 336.704C1688.68 335.849 1681.39 334.9 1673.26 333.888ZM1524.1 356.504C1526.69 353.004 1528.7 350.864 1530.04 348.363C1534.09 340.796 1540.66 336.076 1548.18 332.831C1560.32 327.587 1572.76 323.612 1586.21 322.305C1597.17 321.24 1607.68 321.652 1618.09 324.756C1623 326.222 1627.51 329.338 1632.48 330.253C1637.47 331.174 1641.53 332.971 1645.51 335.976C1648.39 338.149 1651.3 341.436 1656.54 339.604C1654.15 336.474 1652.3 333.435 1649.84 331.005C1646.64 327.832 1642.78 325.324 1639.51 322.21C1629.68 312.852 1617.3 309.161 1604.49 307.549C1582.12 304.735 1561.69 311.905 1542.76 322.902C1530.89 329.799 1524.22 340.75 1524.1 356.504ZM1688.92 409.791C1688.23 409.753 1687.54 409.714 1686.86 409.676V435.242C1688.1 426.789 1690.83 418.416 1688.92 409.791ZM1685.78 371.396C1686.2 379.468 1686.5 385.216 1686.8 390.964C1687.54 390.92 1688.29 390.876 1689.03 390.832C1690.28 384.92 1690.36 379.064 1685.78 371.396ZM1688.23 406.042L1689.13 406.03V396.147C1688.83 396.153 1688.53 396.158 1688.23 396.164V406.042Z" fill="#395659"/>
<path d="M1552.68 1047.48C1555.17 1055.09 1561.48 1059.73 1566.55 1065.34C1571.26 1070.55 1575.89 1075.81 1581.19 1081.77C1572.46 1083.89 1566.57 1083.08 1561 1076.63C1552.77 1067.09 1544.19 1057.99 1537.12 1047.42C1531.22 1038.61 1523.59 1030.96 1516.82 1022.72C1506.14 1009.72 1495.76 996.461 1484.81 983.687C1476.65 974.163 1468.84 964.366 1459.82 955.501C1444.45 940.393 1429.86 924.471 1415.22 908.64C1407.16 899.92 1399.51 890.801 1392.01 881.591C1390.58 879.844 1390.19 876.798 1390.3 874.392C1390.42 871.558 1391.06 868.473 1392.42 866.021C1395.13 861.137 1394.39 856.862 1391.04 853.071C1399.23 847.284 1407.25 842.333 1414.42 836.367C1425.15 827.447 1435.42 817.961 1445.62 808.432C1452.66 801.849 1459.1 794.621 1466.08 787.968C1487.52 767.521 1509.09 747.202 1530.64 726.856C1539.32 718.654 1547.72 710.105 1556.86 702.443C1567.74 693.33 1579.2 684.908 1590.57 676.404C1593.12 674.502 1596.23 673.174 1599.27 672.163C1604.88 670.302 1608.16 672.314 1607.95 678.354C1607.82 681.853 1609.08 684.005 1611.18 685.801C1620.41 693.692 1626.6 703.867 1633.25 713.78C1638.97 722.301 1645.29 730.424 1651.47 738.628C1657.28 746.328 1664 753.231 1669.19 761.525C1674.1 769.378 1680.8 776.106 1686.62 783.4C1691.46 789.462 1696.01 795.773 1700.99 801.71C1707.34 809.271 1714.15 816.45 1720.51 824.009C1726.75 831.442 1732.62 839.195 1738.77 846.714C1743.26 852.2 1747.98 857.495 1752.5 862.948C1758.05 869.628 1763.34 876.529 1769.05 883.073C1776.64 891.785 1784.52 900.244 1792.28 908.812C1800.26 917.623 1808.14 926.523 1816.23 935.221C1825.41 945.077 1835.07 954.497 1843.98 964.583C1851.45 973.041 1858.03 982.276 1865.22 990.99C1869.78 996.509 1866.7 1002.86 1867.38 1008.76C1867.66 1011.18 1864.56 1014.31 1862.47 1016.64C1853.04 1027.15 1843.41 1037.49 1833.87 1047.9C1832.99 1048.85 1832.29 1049.99 1831.34 1050.86C1822.84 1058.57 1813.4 1065.46 1806.03 1074.13C1798.24 1083.3 1789.24 1083.85 1778.24 1082.22C1785.48 1075.24 1792.45 1068.72 1799.21 1061.98C1809.42 1051.8 1819.6 1041.58 1829.55 1031.14C1832.62 1027.91 1834.75 1023.8 1837.57 1020.29C1843.18 1013.29 1848.95 1006.42 1854.87 999.255C1848.54 992.181 1841.8 984.885 1835.33 977.357C1821.33 961.069 1805.89 946.214 1790.57 931.198C1782.12 922.914 1774.59 913.682 1766.76 904.775C1761.9 899.238 1757.2 893.55 1752.51 887.86C1738.61 870.984 1724.6 854.196 1710.92 837.143C1697.57 820.507 1684.4 803.724 1671.49 786.755C1657.44 768.3 1643.68 749.624 1630 730.896C1626.21 725.705 1622.38 720.308 1619.9 714.444C1615.22 703.388 1606.06 695.94 1599.57 686.271C1585.59 698.155 1571.99 709.616 1558.5 721.206C1544.35 733.366 1530.14 745.477 1516.26 757.939C1506.19 766.977 1496.66 776.608 1486.78 785.864C1481.45 790.858 1475.86 795.578 1470.46 800.497C1463.03 807.267 1455.54 813.983 1448.29 820.947C1436.38 832.392 1423.39 842.481 1409.91 851.985C1404.93 855.497 1404.6 857.249 1408.69 861.858C1415.3 869.305 1422.96 876.018 1428.51 884.17C1440.26 901.409 1455.78 915.379 1468.3 931.911C1474.29 939.809 1481.39 946.863 1488 954.283C1501.07 968.946 1514.08 983.657 1527.24 998.238C1538.69 1010.93 1550.28 1023.5 1561.87 1036.06C1567.97 1042.68 1574.25 1049.15 1580.39 1055.74C1588.44 1064.38 1596.44 1073.07 1605.1 1082.43H1586.9C1577.17 1071.66 1567.05 1060.38 1556.78 1049.23C1555.86 1048.24 1553.99 1048.12 1552.56 1047.59C1550.59 1044.39 1548.62 1041.19 1546.65 1037.99C1546.05 1038.42 1545.46 1038.85 1544.87 1039.28C1546.6 1042.7 1549.5 1045.2 1552.68 1047.48ZM1400.96 869.49C1399.54 873.959 1399.93 876.386 1402.2 878.923C1409.92 887.555 1417.19 896.589 1425.06 905.072C1427.6 907.808 1429.85 911.631 1436.36 913.019C1422.17 899.093 1415.25 882.107 1400.96 869.49Z" fill="#395659"/>
<path d="M642.862 1093.39C637.485 1094.02 630.269 1095.12 623.011 1095.63C616.857 1096.07 610.603 1096.37 604.488 1095.77C596.224 1094.96 588.074 1093.05 579.83 1091.95C574.604 1091.25 569.294 1091.19 564.022 1090.82C562.521 1090.72 561.011 1090.64 559.526 1090.41C555.085 1089.72 550.679 1088.65 546.214 1088.29C536.624 1087.52 527.001 1087.17 517.402 1086.49C513.045 1086.18 511.288 1084.17 511.774 1080.48C512.907 1071.85 513.96 1063.21 515.318 1054.62C516.971 1044.17 519.192 1033.8 520.629 1023.32C521.84 1014.49 522.125 1005.53 523.12 996.659C523.824 990.381 524.647 984.069 526.102 977.935C527.976 970.034 529.721 968.735 537.458 969.35C539.812 969.537 540.019 969.195 541.36 967.399C543.014 965.184 546.434 963.517 549.305 963.11C560.871 961.466 572.518 960.39 584.137 959.121C595.666 957.863 607.178 956.401 618.733 955.461C625.859 954.882 633.05 955.054 640.212 954.997C648.227 954.935 656.284 955.479 664.241 954.802C668.307 954.456 670.818 955.53 671.755 958.924C673.458 965.088 674.766 971.392 675.753 977.713C676.881 984.945 677.549 992.253 678.287 999.542C678.857 1005.17 677.836 1010.81 673.967 1014.81C669.718 1019.21 669.122 1024.45 668.279 1029.79C665.579 1046.89 663.117 1064.03 660.305 1081.11C659.857 1083.83 658.345 1086.5 656.854 1088.9C654.14 1093.26 650.525 1096.2 642.862 1093.39ZM580 1019.56C585.453 1018.82 591.365 1018.04 597.271 1017.21C610.031 1015.43 622.751 1013.27 635.56 1011.98C642.59 1011.26 649.476 1010.75 656.224 1008.28C663.483 1005.63 663.638 1005.69 663.039 997.462C662.554 990.79 662.55 984.083 662.291 977.393C662.143 973.592 661.911 969.794 661.739 966.411C660.383 965.811 659.8 965.314 659.24 965.339C644.23 966.021 629.222 966.754 614.215 967.491C613.898 967.507 613.594 967.707 613.275 967.742C603.114 968.831 592.877 969.456 582.814 971.129C574.096 972.578 564.275 968.883 556.697 976.372C556.132 976.93 554.269 976.267 553.034 976.038C551.245 975.708 549.479 975.257 546.975 974.693C558.281 990.053 568.998 1004.61 580 1019.56ZM656.479 1023.33C648.621 1023.86 642.257 1024.35 635.884 1024.69C619.554 1025.58 603.351 1027.74 587.167 1029.89C577.885 1031.12 576.751 1032.18 575.974 1041.25C574.94 1053.32 573.139 1065.33 571.652 1077.49C596.017 1083.01 620.795 1082.79 646.27 1081.51C651.686 1063.01 652.102 1043.48 656.479 1023.33ZM559.223 1076.5C561.422 1064.57 563.45 1053.9 565.321 1043.2C565.816 1040.38 566.816 1037.06 565.84 1034.68C564.189 1030.65 562.634 1027.35 565.96 1023.39C566.518 1022.73 565.055 1019.89 563.996 1018.43C558.313 1010.63 552.472 1002.94 546.667 995.228C543.221 990.647 539.74 986.092 535.09 979.963C533.16 1013.25 529.728 1044.59 522.947 1076.5L559.223 1076.5Z" fill="#395659"/>
<path d="M1714.32 1082.88C1723.48 1072.43 1731.28 1063.54 1739.23 1054.46C1728.74 1035.71 1712.06 1023.13 1698.89 1006.75C1672.79 1024.35 1651.35 1047.15 1627.79 1066.08C1632.44 1071.76 1636.68 1076.94 1640.56 1081.68C1632.09 1084.21 1623.96 1080.92 1619.88 1072.32C1617.76 1067.85 1618.85 1063.45 1621.54 1059.73C1623.57 1056.92 1626.55 1054.84 1628.95 1052.28C1641.6 1038.79 1655.18 1026.28 1669.1 1014.13C1677.17 1007.09 1685.47 1000.29 1693.92 993.695C1700.02 988.941 1704.38 989.963 1709.77 995.629C1718.18 1004.48 1727.24 1012.73 1735.47 1021.74C1742.62 1029.56 1749.19 1037.94 1755.67 1046.34C1759.57 1051.39 1758.27 1056.79 1754.62 1061.42C1750 1067.27 1745.04 1072.85 1740.08 1078.42C1737.43 1081.38 1734.35 1083.39 1729.91 1082.98C1725.41 1082.56 1720.85 1082.88 1714.32 1082.88Z" fill="#395659"/>
<path d="M1674.31 820.9C1673.17 822.891 1672.64 825.107 1671.24 826.061C1655.13 837.076 1642.8 852.251 1628.22 864.945C1616.85 874.834 1606.67 886.065 1595.54 896.243C1579.49 910.924 1563.06 925.183 1546.81 939.645C1543.9 942.234 1541.17 945.026 1538.21 947.547C1536.51 948.989 1534.64 950.443 1532.59 951.178C1531.39 951.609 1529.21 951.091 1528.34 950.175C1527.43 949.22 1527.2 947.231 1527.37 945.773C1527.5 944.648 1528.6 943.566 1529.43 942.601C1534.49 936.715 1539.23 930.499 1544.75 925.079C1561.07 909.058 1577.86 893.507 1594.18 877.483C1607.47 864.437 1619.99 850.596 1633.54 837.836C1641.95 829.911 1651.51 823.151 1660.86 816.284C1663.87 814.074 1667.96 812.706 1671.41 816.055C1672.68 817.286 1673.31 819.174 1674.31 820.9Z" fill="#395659"/>
<path d="M1706.67 859.121C1707.65 861.303 1708.31 862.762 1709.34 865.06C1706.34 867.933 1703.24 871.036 1700 873.974C1694.71 878.764 1689.23 883.341 1684 888.194C1667.67 903.357 1651.33 918.509 1635.17 933.851C1620.19 948.065 1605.45 962.512 1590.61 976.868C1585.02 982.279 1579.68 987.974 1573.79 993.035C1571.31 995.162 1567.71 995.982 1564.77 997.328C1561.98 993.923 1561.32 991.54 1563.85 988.803C1577.36 974.143 1590.25 958.935 1605.09 945.472C1609.85 941.152 1613.84 935.684 1618.32 930.828C1629.02 919.212 1640.73 908.735 1652.38 898.137C1659.52 891.648 1665.86 884.303 1672.85 877.642C1678.48 872.28 1684.47 867.291 1690.42 862.279C1695.13 858.306 1700.65 857.591 1706.67 859.121Z" fill="#395659"/>
<path d="M1743.69 898.015C1746.01 904.552 1741.57 908.319 1738.14 911.769C1719.63 930.415 1701.03 948.979 1682.05 967.14C1666.02 982.47 1649.39 997.171 1633.11 1012.23C1624.86 1019.87 1616.88 1027.81 1608.57 1035.37C1604.92 1038.68 1604.67 1038.41 1599.89 1033.06C1603.59 1028.54 1607.07 1023.61 1611.22 1019.31C1632.22 997.607 1653.35 976.027 1674.52 954.486C1685.81 942.994 1697.22 931.616 1708.7 920.31C1711.45 917.601 1714.73 915.435 1717.69 912.93C1722.37 908.966 1727.1 905.042 1731.6 900.879C1734.93 897.805 1738.39 896.016 1743.69 898.015Z" fill="#395659"/>
<path d="M1460.62 866.591C1462.95 863.616 1464.78 860.636 1467.21 858.287C1479.07 846.852 1490.88 835.35 1503.11 824.323C1516.54 812.212 1530.45 800.623 1544.09 788.738C1547.76 785.542 1551.14 782.019 1554.77 778.78C1571.19 764.149 1587.56 749.46 1606.45 737.609C1608.51 739.097 1610.56 740.584 1612.43 741.937C1613.61 745.648 1611.47 747.67 1609.25 749.686C1606.19 752.465 1603.33 755.488 1600.09 758.045C1585.13 769.875 1571.46 783.21 1556.6 795.154C1547.99 802.082 1538.6 808.202 1530.74 815.894C1517.25 829.108 1503.17 841.619 1488.86 853.901C1483.05 858.888 1476.84 863.405 1470.79 868.118C1467.83 870.43 1464.91 870.51 1460.62 866.591Z" fill="#395659"/>
<path d="M1630.92 790.103C1628.83 793.235 1627.53 796.211 1625.35 798.262C1615.29 807.746 1605.66 817.885 1594.59 826.065C1580.48 836.5 1568.47 849.133 1555.34 860.565C1542.02 872.163 1529.45 884.636 1516.65 896.824C1512.05 901.208 1512.17 901.34 1505.12 899.419C1506.15 896.739 1506.64 893.778 1508.23 891.632C1511.68 886.983 1515.4 882.439 1519.55 878.41C1530.6 867.676 1541.64 856.893 1553.24 846.763C1570.99 831.259 1589.23 816.304 1607.22 801.074C1610.88 797.972 1614.21 794.45 1618.02 791.548C1621.26 789.082 1624.8 786.337 1630.92 790.103Z" fill="#395659"/>
<path d="M1752.19 1006.09C1745.2 1002.41 1744.48 1000.54 1749.32 994.804C1762.39 979.299 1775.9 964.186 1793.12 952.022C1794.78 952.898 1797.75 953.509 1798.21 954.923C1798.84 956.91 1798.43 960.274 1797.05 961.701C1782.47 976.865 1770.66 994.847 1752.19 1006.09Z" fill="#395659"/>
<path d="M421.087 1067.7C419.952 1072.32 418.501 1074.6 415.047 1075.02C412.261 1075.36 409.503 1076.05 406.711 1076.2C389.939 1077.09 373.184 1078.67 356.356 1077.69C353.177 1077.5 349.957 1077.48 346.844 1076.9C344.746 1076.51 342.255 1075.77 340.947 1074.3C339.699 1072.9 338.809 1069.9 339.498 1068.4C340.216 1066.84 343.193 1065.1 344.867 1065.37C367.495 1069.04 390.244 1066.29 412.914 1067C415.428 1067.07 417.933 1067.42 421.087 1067.7Z" fill="#395659"/>
<path d="M1766.63 1036.77C1765.62 1032.43 1765.02 1029.83 1764.27 1026.61C1777.75 1014.85 1791.23 1003.06 1804.77 991.339C1805.96 990.311 1807.51 989.254 1808.98 989.111C1810.76 988.938 1813.45 989.128 1814.26 990.24C1815.36 991.763 1816.03 994.888 1815.18 996.29C1812.86 1000.09 1810.05 1003.8 1806.71 1006.72C1797.54 1014.74 1788.11 1022.47 1778.54 1030.02C1775.4 1032.49 1771.54 1034.04 1766.63 1036.77Z" fill="#395659"/>
<path d="M1775.56 587.192C1777.44 590.364 1778.41 591.985 1779.63 594.038C1778.09 596.061 1776.81 598.358 1774.97 600.043C1763.1 610.923 1750.24 620.586 1736.7 629.27C1733.98 631.014 1730.19 631.101 1727.16 631.884C1724.6 627.083 1726.09 624.312 1729.12 621.966C1739.09 614.246 1749 606.445 1759.05 598.83C1764.1 595 1769.41 591.504 1775.56 587.192Z" fill="#395659"/>
<path d="M1770.62 947.017C1772.59 948.663 1774.5 949.61 1775.27 951.131C1775.78 952.151 1775.16 954.468 1774.24 955.381C1764.47 965.008 1754.58 974.518 1744.61 983.929C1743 985.443 1740.75 986.254 1738.86 987.491C1736.41 989.101 1733.58 989.762 1732.14 986.935C1731.16 984.994 1731.24 981.949 1732.03 979.839C1732.73 977.974 1735.06 976.716 1736.68 975.195C1744.14 968.159 1751.43 960.924 1759.15 954.184C1762.46 951.295 1766.67 949.434 1770.62 947.017Z" fill="#395659"/>
<path d="M-39.3205 135.341C-46.3934 141.715 -51.4853 149.086 -54.0392 158.582C-55.854 165.33 -57.2464 171.937 -57.0872 178.869C-56.9175 186.257 -55.2575 193.427 -52.246 200.097C-46.7733 212.219 -37.8314 221.584 -27.1398 229.299C-18.1917 235.756 -8.52727 241.008 1.82759 244.801C8.69945 247.318 15.7222 249.552 22.8366 251.241C30.2704 253.006 37.8652 254.185 45.4441 255.217C53.7169 256.343 62.0563 256.241 70.3628 255.336C71.5468 255.207 72.6939 254.745 74.1867 254.35C73.6724 252.731 73.3199 251.278 72.7567 249.911C70.8118 245.19 71.392 240.264 72.1396 235.542C72.577 232.78 74.4154 230.095 76.0924 227.704C80.1435 221.929 85.2407 217.341 92.1249 215.058C95.8448 213.824 99.6404 213.383 103.427 214.393C110.936 216.394 116.371 220.958 119.077 228.304C120.943 233.37 119.464 237.907 115.76 241.662C110.784 246.707 104.598 249.996 98.2347 252.846C93.8335 254.818 89.1546 256.173 84.2113 257.942C85.4617 261.349 87.7038 264.431 90.4157 266.923C102.198 277.75 115.415 286.229 130.448 292.093C149.574 299.553 169.406 303.686 189.627 306.386C193.384 306.887 197.159 307.253 200.933 307.608C204.347 307.93 207.413 307.269 210.223 305.001C213.321 302.5 216.808 300.485 220.003 298.094C221.75 296.786 223.282 296.857 225.347 297.401C233.969 299.672 241.983 303.489 250.171 306.846C256.129 309.288 261.93 312.11 267.801 314.762C274.655 317.859 281.525 320.921 288.358 324.062C295.367 327.284 302.349 330.567 309.319 333.873C310.078 334.233 310.665 334.942 311.363 335.446C313.558 337.031 315.367 339.061 317.945 340.24C319.778 341.078 321.761 342.42 321.182 345.251C320.655 347.493 318.38 347.914 316.521 348.493C313.297 349.498 309.961 350.335 306.612 350.707C302.305 351.185 297.938 351.287 293.597 351.278C287.222 351.263 280.848 350.996 274.473 350.855C261.14 350.562 247.802 350.403 234.475 349.913C231.051 349.787 227.681 348.514 224.253 347.979C217.072 346.859 209.862 345.918 202.679 344.807C201.32 344.597 199.973 344.063 198.719 343.47C195.293 341.849 194.698 338.885 197.251 335.928C198.7 334.25 200.368 332.76 202.389 330.733C198.17 330.434 194.442 330.513 190.864 329.82C187.423 329.153 183.654 331.793 180.164 327.93C180.305 327.506 180.325 326.076 181.023 325.56C186.533 321.492 192.177 317.604 197.763 313.639C198.287 313.267 198.701 312.74 199.557 311.901C191.897 310.935 184.715 310.248 177.61 309.085C165.463 307.096 153.318 305.244 141.5 301.402C132.562 298.496 123.714 295.39 115.35 291.244C103.624 285.431 92.6977 278.275 84.0646 268.173C81.7289 265.44 79.5998 262.53 77.1742 259.445C75.3248 259.61 73.2454 259.677 71.2056 259.995C57.8006 262.085 44.5067 260.813 31.3303 258.3C23.7223 256.848 16.236 254.75 8.73439 252.738C-2.16569 249.815 -11.9489 244.635 -21.7177 239.469C-26.629 236.871 -31.2164 233.395 -35.6266 229.712C-40.0772 225.996 -44.1617 222.098 -47.8183 217.685C-54.7446 209.325 -59.3671 199.747 -61.578 189.199C-63.2221 181.355 -63.3084 173.345 -61.2705 165.451C-60.2555 161.52 -59.5529 157.494 -58.3222 153.634C-56.4456 147.749 -52.7682 142.857 -48.8789 138.16C-47.447 136.43 -45.7537 134.917 -44.1796 133.305C-42.5599 133.984 -40.9402 134.662 -39.3205 135.341ZM81.2263 253.142C91.2959 251.051 100.745 247.269 109.105 241.186C111.373 239.535 112.903 236.782 114.528 234.371C115.794 232.493 115.581 230.376 114.381 228.444C108.961 219.705 100.574 216.097 90.4474 221.418C86.4283 223.53 83.7579 226.798 81.0661 230.164C75.6694 236.912 75.7136 245.761 81.2263 253.142ZM202.674 338.024C233.87 343.636 264.8 343.618 296.577 343.83C295.355 343.065 294.955 342.643 294.489 342.549C284.944 340.612 275.448 338.329 265.826 336.91C255.537 335.392 245.148 334.306 234.765 333.768C226.994 333.365 219.378 331.938 211.657 331.323C211.244 331.29 210.862 330.877 210.42 330.614C207.931 332.994 205.551 335.272 202.674 338.024ZM210.017 312.564C206.149 316.48 200.316 318.906 195.506 324.029C217.33 325.898 238.228 327.689 259.453 329.507C242.871 323.824 226.663 318.269 210.017 312.564ZM283.344 328.856C274.973 325.167 266.582 321.52 258.236 317.775C251.739 314.859 245.283 311.849 238.836 308.823C235.811 307.403 232.913 305.701 229.847 304.383C225.886 302.681 221.927 301.657 218.843 306.145C218.191 307.093 217.065 307.716 215.92 308.692C238.111 316.943 260.771 322.538 283.344 328.856Z" fill="#395659"/>
<path d="M202.656 338.021C205.532 335.268 207.913 332.99 210.401 330.61C210.843 330.873 211.226 331.286 211.638 331.319C219.359 331.934 226.975 333.361 234.747 333.764C245.129 334.302 255.519 335.388 265.807 336.906C275.429 338.325 284.926 340.608 294.471 342.545C294.936 342.639 295.336 343.061 296.558 343.826C264.782 343.614 233.852 343.632 202.656 338.021Z" fill="#A5CB00"/>
<path d="M209.995 312.559C226.641 318.264 242.849 323.819 259.431 329.503C238.206 327.684 217.308 325.893 195.484 324.024C200.294 318.901 206.127 316.475 209.995 312.559Z" fill="#A5CB00"/>
<path d="M283.324 328.852C260.751 322.534 238.091 316.939 215.9 308.688C217.046 307.712 218.172 307.089 218.823 306.141C221.908 301.653 225.867 302.677 229.827 304.379C232.893 305.697 235.791 307.399 238.816 308.819C245.263 311.846 251.719 314.855 258.217 317.771C266.563 321.516 274.953 325.163 283.324 328.852Z" fill="#A5CB00"/>
<path d="M1832.46 658.729C1839.52 652.115 1846.7 645.619 1853.58 638.821C1855.81 636.619 1857.36 633.69 1859.01 630.97C1859.64 629.934 1860.36 628.166 1859.91 627.383C1855.55 619.839 1855.94 609.572 1846.39 604.369C1851.15 601.288 1855.45 597.938 1860.24 595.529C1868.1 591.571 1877.11 594.599 1881.73 602.142C1888.79 613.67 1884.14 623.672 1874.51 630.801C1871.52 633.014 1867.59 634.033 1863.98 635.312C1861.06 636.348 1859.52 638.259 1860.12 641.163C1860.74 644.12 1863.19 645.248 1866.07 644.934C1872.04 644.285 1876.92 640.951 1881.58 637.692C1898.65 625.775 1899.79 609.949 1890.78 595.587C1882.27 582.019 1861.44 576.1 1847.97 592.257C1846.54 593.972 1844.69 595.346 1843.38 596.571C1834.94 592.21 1826.38 587.786 1818.08 583.498C1827.47 576.587 1837.88 570.362 1846.42 562.187C1853.77 555.15 1861.77 549.467 1870.99 543.511C1879 555.034 1886.9 566.565 1894.96 577.982C1901.1 586.671 1908.87 595.228 1913.98 604.535C1915.56 607.406 1915.59 610.607 1918.78 611.812C1921.41 612.804 1924.9 609.36 1927.22 612.225C1927.94 613.112 1926.76 618.489 1926.79 619.629C1926.98 627.189 1926.96 629.094 1926.79 636.655C1926.74 638.981 1927.93 642.885 1927.01 645.022C1925.33 648.92 1921.29 651.168 1917.46 653.008C1910.67 656.276 1902.43 658.252 1896.22 662.385C1890.27 666.346 1884.56 671.959 1878.95 676.521C1866.4 686.746 1854.32 697.587 1843.34 709.506C1835.7 706.554 1831.07 699.732 1825.5 694.267C1819.84 688.724 1815.03 682.334 1809.28 675.665C1816.43 669.595 1824.56 664.072 1832.66 658.52C1832.42 668.632 1839.39 673.618 1847.09 677.376C1849.93 678.765 1854.19 678.272 1857.47 677.385C1859.38 676.869 1860.61 673.872 1862.96 670.993C1857.3 669.579 1852.47 669.328 1848.73 667.189C1844.42 664.723 1841.06 660.588 1837.5 657.37C1835.57 657.892 1834.01 658.31 1832.46 658.729ZM1851.56 653.936C1853.99 656.803 1855.56 659.899 1858.07 661.29C1861.33 663.091 1865.29 664.153 1869.03 664.4C1873.81 664.717 1874.63 663.332 1876.03 656.295C1868.76 652.958 1862.18 645.3 1851.56 653.936ZM1875.38 619.834C1872.75 616.913 1870.29 613.691 1867.28 611.121C1866.21 610.211 1862.94 610.15 1862.17 611.02C1860.96 612.391 1860.26 615.083 1860.74 616.834C1861.24 618.657 1863.11 620.669 1864.89 621.455C1868.05 622.852 1871.62 623.617 1875.38 619.834Z" fill="white"/>
<path d="M1830.54 622.684C1834.47 621.713 1837.78 620.894 1841.09 620.072C1842.53 622.19 1843.95 624.296 1845.58 626.698C1840.46 631.576 1835.16 636.63 1828.73 642.761C1829.47 638.527 1830.22 635.472 1830.48 632.376C1830.75 629.202 1830.54 625.988 1830.54 622.684Z" fill="white"/>
<path d="M1510.44 358.459C1512.7 364.284 1513.82 369.169 1516.32 373.213C1523.91 385.54 1534.22 395.15 1547.83 400.574C1559.78 405.339 1571.56 410.498 1584.31 413.23C1596.19 415.776 1607.76 414.852 1619.16 411.879C1627.88 409.604 1636.39 406.345 1644.75 402.927C1654.78 398.825 1662.73 391.809 1669.39 383.341C1670.59 381.815 1671.61 380.15 1673.35 377.639C1674.08 379.901 1674.99 381.42 1674.99 382.944C1675.04 392.586 1675.01 402.233 1674.77 411.872C1674.54 420.848 1673.91 429.814 1673.65 438.791C1673.05 458.837 1672.59 478.888 1672.03 498.936C1672 499.861 1671.62 500.777 1671.21 502.493C1665.27 501.45 1661.2 505.045 1656.85 508.414C1652.56 511.741 1648.14 514.382 1642.09 514.818C1634.31 515.381 1626.71 518.113 1618.94 519.415C1611.29 520.697 1603.56 521.505 1595.83 522.259C1585.11 523.307 1574.48 522.316 1563.78 521.072C1554.67 520.013 1546.37 516.536 1537.6 514.567C1530.12 512.888 1525.01 508.363 1521.64 501.56C1514.48 487.099 1512.02 471.683 1511.91 455.735C1511.79 438.625 1510.41 421.618 1508.58 404.595C1507.53 394.86 1508.55 384.884 1508.9 375.027C1509.09 369.874 1509.83 364.741 1510.44 358.459Z" fill="white"/>
<path d="M1524.09 356.504C1524.21 340.75 1530.88 329.799 1542.75 322.902C1561.68 311.905 1582.11 304.735 1604.48 307.549C1617.3 309.161 1629.68 312.852 1639.51 322.21C1642.78 325.324 1646.63 327.832 1649.84 331.005C1652.29 333.435 1654.14 336.474 1656.54 339.604C1651.3 341.436 1648.38 338.149 1645.5 335.976C1641.52 332.971 1637.46 331.174 1632.47 330.253C1627.51 329.338 1623 326.222 1618.08 324.756C1607.68 321.652 1597.17 321.241 1586.2 322.305C1572.75 323.612 1560.32 327.587 1548.17 332.831C1540.65 336.076 1534.09 340.796 1530.04 348.363C1528.7 350.864 1526.68 353.004 1524.09 356.504Z" fill="white"/>
<path d="M1688.23 406.042V396.164C1688.53 396.159 1688.83 396.153 1689.13 396.147V406.03L1688.23 406.042Z" fill="white"/>
<path d="M1400.95 869.49C1415.24 882.107 1422.17 899.093 1436.36 913.019C1429.85 911.63 1427.6 907.808 1425.06 905.072C1417.19 896.588 1409.91 887.554 1402.19 878.923C1399.93 876.386 1399.54 873.959 1400.95 869.49Z" fill="white"/>
<path d="M1552.68 1047.48C1549.5 1045.2 1546.6 1042.7 1544.87 1039.28C1545.46 1038.85 1546.05 1038.42 1546.65 1037.99C1548.62 1041.19 1550.59 1044.39 1552.56 1047.59L1552.68 1047.48Z" fill="white"/>
<path d="M321.743 944.904C327.87 949.135 333.657 953.132 339.765 957.35C330.903 958.71 321.918 960.088 311.789 961.642C315.492 955.416 318.652 950.102 321.743 944.904Z" fill="white"/>
<path d="M1222.91 1035.98C1212.99 1038.57 1200.27 1042.05 1187.45 1045.16C1181.19 1046.67 1174.79 1047.73 1168.41 1048.57C1159.66 1049.73 1154.05 1043.23 1156.45 1034.67C1160.96 1018.55 1165.78 1002.52 1170.34 986.419C1175.27 969.014 1179.74 951.471 1185.03 934.175C1188.04 924.338 1194.1 917.219 1204.82 913.919C1213.26 911.321 1221.6 908.587 1230.28 906.887C1235.24 905.916 1238.74 907.359 1242.14 911.274C1260.01 931.863 1278.12 952.251 1296.27 972.602C1299.48 976.202 1303.15 979.424 1306.8 982.59C1312.91 987.885 1313.06 995.565 1303.92 999.412C1292.03 1004.42 1281.17 1010.97 1270.57 1018.27C1265.1 1022.04 1258.52 1024.38 1252.19 1026.67C1243.5 1029.82 1234.57 1032.32 1222.91 1035.98ZM1167.93 1038.12L1254.1 1013.32C1246.52 997.924 1234.74 986.484 1225.4 973.315C1216.03 960.118 1206.85 946.791 1197.72 933.697C1189.17 968.617 1179.43 1003.27 1167.93 1038.12ZM1206.97 926.847C1214.19 936.712 1220.36 946.712 1228.08 955.337C1241.21 970.026 1252.53 985.98 1263.47 1002.25C1265.72 1005.59 1267.76 1005.47 1270.66 1003.69C1275.88 1000.5 1281.22 997.507 1286.34 994.169C1288 993.086 1289.14 991.191 1290.4 989.787C1268.33 966.58 1247.89 943.27 1230.46 916.544C1222.3 920.125 1215 923.325 1206.97 926.847Z" fill="#395659"/>
<path d="M1167.93 1038.12C1179.43 1003.27 1189.17 968.617 1197.72 933.697C1206.86 946.79 1216.04 960.117 1225.4 973.314C1234.74 986.484 1246.52 997.924 1254.1 1013.32L1167.93 1038.12Z" fill="#A5CB00"/>
<path d="M1206.98 926.845C1215.01 923.322 1222.31 920.123 1230.47 916.542C1247.9 943.268 1268.34 966.577 1290.41 989.785C1289.14 991.189 1288.01 993.084 1286.35 994.167C1281.23 997.505 1275.89 1000.5 1270.67 1003.69C1267.77 1005.47 1265.72 1005.59 1263.47 1002.25C1252.53 985.978 1241.22 970.024 1228.08 955.335C1220.37 946.709 1214.2 936.71 1206.98 926.845Z" fill="#A5CB00"/>
<path d="M1832.47 658.729C1834.02 658.31 1835.58 657.892 1837.51 657.371C1841.07 660.589 1844.43 664.723 1848.74 667.189C1852.48 669.329 1857.31 669.579 1862.97 670.993C1860.62 673.872 1859.39 676.869 1857.48 677.385C1854.2 678.272 1849.94 678.766 1847.09 677.377C1839.39 673.618 1832.42 668.632 1832.67 658.52L1832.47 658.729Z" fill="#395659"/>
<path d="M1851.56 653.936C1862.18 645.3 1868.76 652.958 1876.04 656.295C1874.63 663.332 1873.81 664.717 1869.03 664.4C1865.3 664.153 1861.33 663.091 1858.08 661.29C1855.56 659.9 1854 656.803 1851.56 653.936Z" fill="#395659"/>
<path d="M1875.39 619.834C1871.63 623.617 1868.06 622.852 1864.9 621.455C1863.12 620.669 1861.25 618.657 1860.75 616.834C1860.27 615.083 1860.97 612.391 1862.18 611.02C1862.94 610.15 1866.22 610.211 1867.28 611.121C1870.3 613.691 1872.75 616.913 1875.39 619.834Z" fill="#395659"/>
<path d="M-22.1138 919.39C-23.0131 932.426 -24.1935 944.027 -24.5246 955.652C-25.0052 972.527 -26.2103 989.302 -29.0472 1005.95C-31.6454 1021.19 -34.4247 1036.41 -36.7736 1051.7C-38.0944 1060.29 -38.7056 1068.99 -39.6998 1078.24H-52.7165C-52.7165 1072.73 -53.4124 1067.24 -52.593 1061.98C-49.4661 1041.92 -45.0555 1022.03 -42.652 1001.89C-40.4433 983.384 -37.2971 964.926 -37.3177 946.158C-37.3274 937.25 -36.0167 928.349 -35.6551 919.43C-35.4199 913.632 -32.2794 910.393 -27.1652 909.13C-20.9248 907.59 -14.5738 906.136 -8.19003 905.599C14.9572 903.652 38 900.085 61.3325 900.746C61.9017 900.763 62.4836 900.333 64.1532 899.691C63.8304 895.099 64.072 890.009 63.0031 885.209C61.1137 876.724 60.2635 868.201 60.2513 859.564C60.2406 851.967 63.4049 847.861 71.0246 845.951C93.8125 840.238 116.57 834.381 139.461 829.109C156.123 825.272 172.966 822.208 189.76 818.961C192.606 818.411 195.61 818.625 198.542 818.573C207.505 818.414 211.477 820.871 212.89 829.43C215.976 848.128 220.826 866.579 221.16 885.691C221.277 892.415 222.202 893.106 229.872 893.326C247.888 893.843 265.919 894.052 283.916 894.956C297.966 895.661 311.976 897.199 326 898.413C334.388 899.139 342.771 899.922 351.151 900.735C364.623 902.043 370.552 909.443 370.512 923.127C370.469 937.692 367.206 951.804 365.461 966.119C363.342 983.502 360.63 1000.82 357.853 1018.11C355.968 1029.86 353.472 1041.5 351.357 1053.21C349.885 1061.35 348.598 1069.54 347.127 1078.3H334.455C337.087 1062.19 339.848 1046.81 342.062 1031.36C345.018 1010.73 347.42 990.022 350.325 969.387C351.494 961.087 353.66 952.927 354.839 944.628C356.222 934.896 358.794 925.192 356.796 915.379C346.582 910.245 335.307 910.129 324.515 909.391C310.709 908.447 296.997 906.434 283.049 906.412C267.247 906.387 251.453 904.181 235.646 903.054C231.795 902.779 227.907 903.013 224.219 903.013C225.771 916.7 226.998 929.919 228.937 943.035C229.461 946.579 232.141 949.807 234.048 953.612C231.363 964.183 229.37 965.977 218.144 967.369C208.259 968.595 198.356 969.695 188.492 971.073C185.36 971.511 182.329 972.665 179.861 973.328C179.966 993.847 181.159 1013.58 178.517 1033.42C176.575 1048 176.579 1062.84 175.68 1078.19H164.98C165.874 1044.08 170.822 1010.23 169.88 976.233C162.739 973.048 156.612 976.834 150.445 977.582C133.872 979.59 117.435 982.739 100.961 985.529C94.9715 986.543 89.0698 988.372 83.0515 988.835C76.0487 989.375 73.7779 987.176 72.5348 980.443C72.1246 978.221 72.2109 975.906 72.0911 973.633C71.6558 965.376 70.8929 957.341 68.5399 949.179C65.8527 939.858 65.7732 929.783 64.6306 920.027C64.2811 917.042 64.1626 914.031 63.9106 910.662C34.3411 910.473 6.09116 914.359 -22.1138 919.39ZM84.5205 974.808C113.037 969.978 140.802 965.275 168.892 960.517C169.045 956.419 166.038 952.173 169.967 949.31C176.808 944.325 179.017 937.337 180.153 929.379C181.335 921.099 187.381 918.931 194.215 923.997C197.325 926.302 200.057 929.117 202.948 931.715C205.858 934.328 208.753 936.959 212.52 940.364C208.554 902.764 205.273 866.756 198.542 830.782C155.634 839.219 113.302 847.543 70.7846 855.904C70.7846 857.175 70.5971 858.139 70.8123 859.003C75.2213 876.7 78.1082 894.607 78.3317 912.882C78.3899 917.637 78.0144 922.417 78.381 927.143C78.8804 933.581 79.6448 940.027 80.8507 946.364C81.222 948.315 84.1751 949.773 84.5563 951.727C84.9638 953.815 83.2607 956.232 83.3071 958.489C83.4113 963.575 84.0268 968.652 84.5205 974.808ZM190.162 940.876C187.07 946.075 183.91 951.388 180.207 957.615C190.336 956.061 199.322 954.682 208.184 953.323C202.075 949.104 196.289 945.108 190.162 940.876Z" fill="#395659"/>
<path d="M207.414 985.483C209.761 984.981 211.567 984.15 213.293 984.293C239.48 986.464 265.726 986.474 291.971 986.82C302.927 986.964 313.884 987.936 324.808 988.892C327.931 989.165 331.076 990.411 333.965 991.742C336.506 992.912 336.323 997.107 333.644 997.894C330.662 998.77 327.372 999.05 324.247 998.908C313.917 998.44 303.605 997.58 293.276 997.054C289.781 996.876 286.237 997.049 282.75 997.399C265.592 999.124 248.51 996.608 231.384 996.514C225.287 996.481 219.201 995.191 213.104 994.529C208.26 994.002 207.979 990.379 207.414 985.483Z" fill="#395659"/>
<path d="M134.584 1053.18C128.506 1055.05 124.958 1056.79 121.276 1057.15C111.622 1058.08 101.907 1058.35 92.2226 1058.98C84.1976 1059.5 76.1814 1060.64 68.1612 1060.64C56.2721 1060.64 44.3983 1061.25 32.5142 1061.16C25.3694 1061.11 18.2012 1061.22 11.0938 1060.65C8.44423 1060.43 4.26224 1060.25 4.64127 1055.77C4.9477 1052.15 8.04724 1051.27 11.109 1051.12C26.6253 1050.34 42.1412 1049.51 57.6669 1048.98C77.7123 1048.29 97.7655 1047.79 117.819 1047.39C121.297 1047.32 124.851 1047.9 128.254 1048.68C129.804 1049.03 131.074 1050.61 134.584 1053.18Z" fill="#395659"/>
<path d="M121.331 1010.92C120.673 1017.42 117.382 1018.02 113.559 1018.27C99.476 1019.2 85.3966 1020.18 71.3257 1021.27C52.6056 1022.72 33.896 1024.31 15.1784 1025.79C12.9094 1025.97 10.6184 1025.85 8.33857 1025.91C3.61557 1026.04 1.03911 1023.79 0.671875 1018.93C2.47849 1015.32 6.00035 1014.62 9.57719 1014.36C26.1912 1013.13 42.8108 1011.97 59.4338 1010.87C64.9518 1010.51 70.4877 1010.42 76.0121 1010.13C86.9179 1009.58 97.8171 1008.71 108.728 1008.54C112.752 1008.47 116.8 1010.01 121.331 1010.92Z" fill="#395659"/>
<path d="M319.137 1028.72C316.99 1035.25 313.046 1035.89 308.663 1035.4C300.423 1034.48 292.228 1032.92 283.967 1032.46C261.154 1031.21 238.431 1029.14 215.792 1026.1C214.2 1025.89 212.266 1025.99 211.135 1025.12C209.537 1023.89 207.831 1022.02 207.454 1020.17C206.9 1017.44 208.464 1014.57 211.413 1014.43C217.323 1014.15 224.038 1008.96 229.012 1016.74C229.402 1017.36 231.265 1017.03 232.443 1017.14C242.377 1018.08 252.318 1018.95 262.242 1019.99C270.893 1020.9 279.53 1021.96 288.163 1023.03C295.213 1023.9 302.273 1024.75 309.282 1025.89C312.373 1026.4 315.348 1027.61 319.137 1028.72Z" fill="#395659"/>
<path d="M333.816 945.148C330.512 947.76 327.382 949.48 323.159 949.579C303.229 950.044 283.308 950.478 263.404 948.897C262.483 948.824 261.429 949.134 260.65 948.787C257.862 947.546 255.598 945.874 256.325 942.207C257.055 938.523 259.767 937.356 262.813 937.946C274.881 940.287 287.082 939.422 299.225 939.783C308.214 940.05 317.218 939.906 326.215 939.84C329.686 939.814 332.797 940.098 333.816 945.148Z" fill="#395659"/>
<path d="M-7.39844 975.466C-2.75652 974.029 1.67094 971.863 6.27551 971.38C20.717 969.866 34.9526 965.903 49.6456 967.275C54.1184 967.693 58.617 968.316 62.9671 969.395C65.9239 970.128 66.9615 972.844 65.9329 975.629C65.0725 977.958 63.2708 978.532 60.445 977.999C47.128 975.487 33.9965 978.076 20.8322 979.923C13.9385 980.891 6.97777 981.539 0.0252209 981.873C-4.43216 982.087 -4.45021 981.711 -7.39844 975.466Z" fill="#395659"/>
<path d="M84.5226 974.808C84.0288 968.652 83.4134 963.575 83.3091 958.489C83.2628 956.232 84.9659 953.815 84.5584 951.727C84.1772 949.773 81.224 948.315 80.8527 946.364C79.6468 940.027 78.8825 933.581 78.3831 927.143C78.0164 922.417 78.392 917.637 78.3338 912.882C78.1102 894.607 75.2233 876.7 70.8144 859.003C70.5991 858.139 70.7866 857.175 70.7866 855.904C113.304 847.543 155.636 839.219 198.544 830.782C205.275 866.756 208.556 902.764 212.522 940.364C208.755 936.959 205.86 934.328 202.95 931.715C200.059 929.117 197.327 926.302 194.217 923.997C187.383 918.931 181.337 921.099 180.155 929.379C179.019 937.337 176.81 944.325 169.969 949.31C166.04 952.173 169.047 956.419 168.894 960.517C140.804 965.275 113.039 969.978 84.5226 974.808ZM113.71 907.41C109.774 913.469 110.853 919.486 111.391 925.456C112.186 934.273 122.424 940.152 130.959 933.238C133.963 930.805 137.33 928.755 140.053 926.051C151.669 914.516 163.133 902.829 174.589 891.136C177.765 887.894 177.65 885.142 174.44 880.369C163.453 883.64 156.581 892.502 148.69 899.827C141.619 906.391 135.325 913.783 128.456 920.574C126.888 922.125 124.364 922.711 121.925 923.916C120.188 917.408 122.542 909.97 113.71 907.41ZM121.921 865.143C119.649 867.652 117.015 869.352 116.24 871.672C114.73 876.191 113.709 881.032 113.485 885.786C113.125 893.408 119.923 897.507 126.735 894.096C129.022 892.951 131.223 891.493 133.165 889.829C145.623 879.153 158.16 868.558 170.275 857.504C173.003 855.015 176.76 851.869 174.53 846.805C170.354 844.761 166.737 845.082 162.703 848.672C150.039 859.945 136.947 870.739 123.832 881.878C122.556 876.537 126.96 871.484 121.921 865.143Z" fill="white"/>
<path d="M113.708 907.409C122.539 909.97 120.186 917.407 121.923 923.916C124.362 922.711 126.886 922.124 128.454 920.574C135.323 913.783 141.617 906.391 148.688 899.827C156.579 892.502 163.451 883.64 174.438 880.369C177.647 885.142 177.763 887.894 174.587 891.136C163.131 902.829 151.667 914.516 140.051 926.051C137.328 928.755 133.961 930.805 130.957 933.238C122.422 940.152 112.184 934.273 111.389 925.456C110.85 919.486 109.771 913.469 113.708 907.409Z" fill="#395659"/>
<path d="M121.918 865.143C126.958 871.484 122.553 876.537 123.83 881.878C136.945 870.739 150.036 859.945 162.701 848.672C166.734 845.082 170.351 844.76 174.528 846.805C176.757 851.869 173 855.015 170.273 857.504C158.158 868.558 145.62 879.153 133.162 889.829C131.221 891.493 129.019 892.951 126.733 894.096C119.92 897.507 113.123 893.408 113.482 885.786C113.707 881.032 114.727 876.191 116.238 871.672C117.013 869.352 119.646 867.652 121.918 865.143Z" fill="#395659"/>
<path d="M1047.49 209.716C1037.73 217.591 1026.69 219.19 1015.57 219.19C1005.53 219.19 996.248 215.485 988.136 209.519C980.75 204.086 975.988 196.961 973.213 187.955C969.709 176.583 968.525 165.348 972.633 154.22C979.289 136.191 995.985 119.975 1018.16 119.76C1026.04 119.683 1033.18 120.991 1040.47 124.094C1051.97 119.669 1059.56 126.489 1067.43 134.691C1078.02 131.543 1089.06 128.557 1099.89 124.962C1113.34 120.502 1126.59 115.442 1140 110.853C1143.99 109.486 1148.19 108.483 1152.37 107.944C1156.61 107.397 1159.1 109.71 1158.45 113.87C1156.73 124.979 1157.14 136.076 1158.03 147.165C1159.31 163.275 1161.39 179.173 1168.76 193.997C1172.62 201.741 1176.3 209.376 1181.84 216.182C1186.87 222.356 1185.14 233.476 1179.8 239.357C1172.34 247.564 1162.98 252.18 1152.51 255.017C1136.57 259.335 1120.55 263.177 1104.18 265.677C1093.3 267.339 1082.74 270.723 1072.72 275.334C1069.05 277.026 1066.2 280.604 1061.37 279.326C1057.2 276.807 1057.67 272.29 1057.24 268.265C1056.14 257.749 1055.79 247.124 1054.14 236.702C1052.75 227.955 1049.94 219.434 1047.49 209.716ZM1067.88 265.208C1082.05 259.264 1095.4 253.806 1110.17 252.691C1115.48 252.291 1120.69 250.489 1125.9 249.186C1126.91 248.933 1128.12 248.239 1128.63 247.388C1132.64 240.631 1136.88 233.848 1136.95 225.68C1136.99 221.823 1135.98 217.956 1135.49 214.399C1139.19 210.124 1142.91 209.478 1147.75 212.002C1151.96 214.196 1156.61 215.689 1161.22 216.907C1163.5 217.511 1166.5 219.82 1168.71 216.085C1159.08 203.023 1153.26 188.386 1150.55 172.451C1148.1 158.095 1146.79 143.697 1148.09 129.123C1148.35 126.195 1148.04 123.215 1147.98 119.409C1134.37 122.644 1122.64 128.608 1110.16 132.244C1097.34 135.985 1084.34 139.157 1071.3 142.61C1072.15 145.985 1072.94 148.416 1073.36 150.91C1075.18 161.722 1076.51 172.568 1072.17 183.133C1069.23 190.278 1064.65 196.371 1058.6 201.117C1054.65 204.207 1055.52 207.609 1056.56 211.417C1061.34 229.012 1067.09 246.402 1067.88 265.208ZM1011.88 128.773C1001.18 131.55 993.044 137.375 986.976 146.963C979.24 159.186 978.424 171.833 983.292 184.731C991.427 206.284 1011.9 211.412 1030.71 205.374C1039.65 202.509 1046.12 196.279 1052.73 190.292C1058.97 184.645 1062.43 177.254 1062.86 168.827C1063.38 158.839 1061.39 149.348 1056.7 140.344C1054.2 135.542 1050.7 133.238 1045.48 132.754C1042.73 132.498 1039.71 132.305 1037.34 131.069C1029.1 126.759 1020.65 126.776 1011.88 128.773ZM1141.65 244.889C1154.65 242.903 1165.79 238.446 1175.17 228.723C1165.03 230.736 1156.43 226.547 1147.64 224.769C1145.62 231.547 1143.71 237.952 1141.65 244.889Z" fill="#395659"/>
<path d="M1011.92 128.919C1020.69 126.922 1029.14 126.905 1037.39 131.215C1039.75 132.451 1042.77 132.644 1045.52 132.9C1050.74 133.383 1054.25 135.688 1056.74 140.49C1061.43 149.494 1063.42 158.985 1062.9 168.973C1062.47 177.4 1059.01 184.791 1052.77 190.438C1046.16 196.425 1039.69 202.655 1030.76 205.52C1011.94 211.558 991.467 206.43 983.333 184.877C978.465 171.979 979.281 159.332 987.016 147.109C993.084 137.521 1001.22 131.696 1011.92 128.919ZM991.558 164.652C994.633 166.121 996.356 167.474 998.234 167.738C1002.84 168.385 1006.85 165.82 1011.15 164.744C1022.77 161.837 1034 157.493 1045.87 155.462C1049.52 154.838 1052.63 152.767 1053.49 147.364C1052.5 147.088 1051.37 146.404 1050.35 146.541C1032.26 148.964 1015.03 154.886 997.575 159.856C995.903 160.333 994.614 162.156 991.558 164.652ZM1008.95 186.134C1012.12 185.105 1014.87 184.542 1017.32 183.357C1023.58 180.326 1029.68 176.949 1035.91 173.855C1038.39 172.621 1039.39 170.717 1040.14 167.924C1033.34 166.16 1027.99 168.705 1022.74 171.271C1018.75 173.222 1014.99 175.644 1011.04 177.685C1007.01 179.767 1006.96 179.675 1008.95 186.134Z" fill="#A5CB00"/>
<path d="M1080.93 185.918C1083.28 184.849 1085.87 183.304 1088.68 182.464C1097.72 179.752 1106.84 177.285 1115.95 174.764C1117.29 174.39 1118.71 174.005 1120.09 174.025C1123.73 174.08 1124.83 176.208 1123.93 180.435C1115.8 182.873 1107.9 185.314 1099.96 187.593C1095.35 188.915 1090.66 189.947 1086.02 191.166C1082.14 192.186 1080.86 190.316 1080.93 185.918Z" fill="#395659"/>
<path d="M1113.9 200.569C1115.35 204.021 1114.41 205.934 1111.8 207.459C1104.82 211.542 1097.25 213.183 1089.26 213.031C1085.92 212.967 1083.98 210.759 1084.15 207.657C1084.29 205.137 1086.6 203.486 1090.23 204.248C1094.68 205.182 1098.96 204.305 1102.43 202.238C1106.2 199.991 1109.66 199.871 1113.9 200.569Z" fill="#395659"/>
<path d="M998.184 167.729C994.371 167.148 993.562 161.689 997.056 160.054C997.228 159.973 997.402 159.907 997.581 159.856C1015.04 154.886 1032.26 148.964 1050.36 146.54C1051.38 146.403 1052.51 147.088 1053.49 147.363C1052.64 152.766 1049.53 154.838 1045.88 155.462C1034.01 157.492 1022.78 161.836 1011.15 164.744C1006.85 165.819 1002.85 168.385 998.24 167.737C998.221 167.735 998.202 167.732 998.184 167.729Z" fill="#395659"/>
<path d="M1008.95 186.134C1006.97 179.675 1007.02 179.767 1011.04 177.685C1015 175.644 1018.75 173.222 1022.75 171.27C1028 168.705 1033.34 166.16 1040.14 167.924C1039.4 170.717 1038.4 172.621 1035.91 173.855C1029.68 176.949 1023.59 180.326 1017.33 183.357C1014.88 184.542 1012.13 185.105 1008.95 186.134Z" fill="#395659"/>
<path d="M1161.48 743.28C1163.79 745.361 1166.58 746.594 1163.77 750.87C1162.69 752.522 1164.14 756.628 1165.54 758.952C1172.91 771.15 1181.08 782.777 1192 792.199C1194.84 794.656 1197.86 796.934 1200.55 799.554C1202.04 801.006 1204.08 803.042 1204 804.733C1203.72 811.022 1210.07 812.666 1212.11 817.211C1212.32 817.683 1213.49 817.876 1214.23 817.941C1219.9 818.44 1221.42 819.944 1219.77 824.656C1218.56 828.104 1216.54 831.354 1214.43 834.384C1210.49 840.042 1204.66 843.719 1198.97 847.262C1187.8 854.213 1176.11 860.106 1163.64 864.666C1147.21 870.675 1130.65 876.327 1114.22 882.328C1097.95 888.271 1092.89 882.995 1086.03 872.137C1077.87 859.211 1071.21 845.424 1066.04 831.076C1061.07 817.256 1057.01 803.1 1052.82 789.013C1050.98 782.823 1052 781.099 1058.35 779.215C1069.12 776.021 1080.07 773.431 1090.78 770.09C1108.77 764.482 1126.38 757.898 1143.33 749.542C1148.94 746.772 1155.25 745.382 1161.48 743.28ZM1190.09 803.94C1182.4 796.148 1175.04 789.478 1168.65 781.987C1161.99 774.183 1157.18 765.096 1154.35 755.177C1144.69 759.562 1135.44 763.947 1126.04 767.963C1119.36 770.816 1112.66 774.144 1105.63 775.549C1090.69 778.533 1076.48 785.178 1060.81 784.107C1061.47 795.542 1079.52 842.945 1086.48 851.95C1087.24 851.989 1088.08 852.195 1088.86 852.047C1111.41 847.731 1132.55 838.749 1154.43 832.205C1155.85 831.781 1157.47 830.534 1158.1 829.239C1161.11 822.959 1164.5 816.765 1164.43 809.46C1164.38 804.747 1167.8 801.776 1172.38 802.238C1177.99 802.803 1183.6 803.319 1190.09 803.94ZM1174.33 847.468C1174.19 847.115 1174.04 846.762 1173.89 846.408C1148.07 854.692 1122.24 862.975 1096.41 871.26C1097.31 874.413 1099.43 875.465 1102.1 874.755C1106.76 873.518 1111.38 872.116 1115.89 870.44C1129.04 865.555 1142.15 860.571 1155.21 855.482C1161.65 852.974 1167.96 850.149 1174.33 847.468ZM1173.58 813.976C1173.44 814.226 1172.85 815.073 1172.53 816.013C1172.04 817.465 1171.74 818.981 1171.35 820.521C1178.47 821.309 1188.59 818.552 1194.43 813.976H1173.58ZM1195.02 827.63C1184.12 827.341 1176.6 830.424 1167.53 838.634C1177.83 834.511 1186.43 831.07 1195.02 827.63ZM1089.67 859.649C1090.55 863.098 1092.32 864.163 1094.71 863.349C1099.31 861.78 1103.81 859.903 1108.34 858.154C1108.26 857.845 1108.17 857.537 1108.09 857.229C1102.08 858.018 1096.07 858.808 1089.67 859.649Z" fill="#395659"/>
<path d="M1092.01 796.128C1090.63 791.956 1091.65 789.677 1095.19 788.635C1104.11 786.017 1112.99 783.297 1121.94 780.812C1125.52 779.819 1129.24 779.307 1132.9 778.641C1134.14 778.416 1135.6 777.968 1136.64 778.385C1137.93 778.899 1139.64 780.121 1139.77 781.201C1139.91 782.351 1138.7 784.397 1137.59 784.822C1133.89 786.241 1129.97 787.116 1126.13 788.189C1118.46 790.331 1110.83 792.62 1103.1 794.538C1099.46 795.442 1095.64 795.631 1092.01 796.128Z" fill="#395659"/>
<path d="M1135.09 800.618C1138.02 800.389 1140.04 803.735 1138.16 805.913C1138.04 806.049 1137.91 806.173 1137.78 806.285C1133.21 810.013 1127.39 810.196 1121.8 810.458C1119.44 810.568 1116.77 806.928 1117.52 804.803C1117.9 803.726 1120.29 802.205 1120.99 802.516C1125.31 804.441 1128.81 802.88 1132.65 801.161C1133.37 800.837 1134.18 800.689 1135.09 800.618Z" fill="#395659"/>
</g>
<path d="M263.099 209.102C280.147 213.6 297.512 216.697 315.045 218.537C318.573 218.907 321.603 215.259 321.603 211.982C321.603 208.13 318.583 205.799 315.045 205.427C298.683 203.711 282.491 200.658 266.586 196.461C258.417 194.305 254.932 206.947 263.099 209.102Z" fill="#A5CB00"/>
<path d="M278.199 150.836C289.681 169.559 306.867 183.825 327.148 192.123C330.428 193.464 334.357 190.667 335.216 187.545C336.249 183.787 333.927 180.828 330.635 179.482C323.204 176.441 313.924 170.745 307.681 165.402C300.178 158.981 294.484 152.307 289.525 144.22C287.675 141.204 283.654 140.055 280.552 141.868C277.536 143.631 276.341 147.807 278.199 150.836Z" fill="#A5CB00"/>
<path d="M326.652 143.958C331.906 154.332 337.159 164.706 342.412 175.08C343.964 178.145 348.532 179.27 351.385 177.431C354.518 175.412 355.398 171.742 353.738 168.463C348.485 158.089 343.231 147.715 337.978 137.341C336.426 134.276 331.858 133.152 329.005 134.99C325.872 137.009 324.992 140.679 326.652 143.958Z" fill="#A5CB00"/>
<path d="M1307.57 779.842C1334.99 747.117 1362.96 714.854 1391.48 683.08C1399.44 674.205 1407.45 665.368 1415.5 656.568C1417.1 654.812 1416.51 651.774 1414.74 650.389C1412.75 648.829 1410.17 649.385 1408.56 651.145C1379.74 682.649 1351.46 714.638 1323.74 747.103C1315.99 756.172 1308.29 765.278 1300.63 774.419C1296.98 778.773 1303.93 784.185 1307.57 779.842Z" fill="#A5CB00"/>
<path d="M1302.07 780.296C1306.62 787.759 1313.58 793.633 1321.59 797.085C1323.27 797.807 1325.74 797.363 1326.81 795.754C1350.21 760.418 1378.63 728.804 1407.92 698.298C1416.11 689.771 1424.38 681.318 1432.64 672.866C1433.98 671.498 1433.77 668.909 1432.68 667.487C1427.65 660.948 1422.61 654.41 1417.58 647.872C1414.13 643.384 1407.1 648.702 1410.57 653.207C1415.6 659.745 1420.64 666.283 1425.67 672.822L1425.7 667.443C1396.11 697.701 1366.42 728.062 1340.5 761.596C1333.28 770.927 1326.38 780.497 1319.87 790.331L1325.08 788.999C1318.33 786.093 1312.9 781.22 1309.08 774.961C1307.84 772.931 1304.66 772.791 1302.91 774.126C1300.86 775.689 1300.83 778.259 1302.07 780.296Z" fill="#A5CB00"/>
<path d="M1414.36 656.222C1426.43 645.988 1438.99 636.352 1452 627.347L1445.29 622.101C1439.04 638.755 1432.8 655.409 1426.55 672.063C1425.71 674.288 1426.59 676.876 1428.85 677.849C1430.95 678.758 1433.8 677.784 1434.64 675.55C1440.89 658.896 1447.13 642.242 1453.38 625.588C1454.94 621.428 1450.34 617.799 1446.67 620.341C1433.65 629.346 1421.09 638.982 1409.02 649.216C1407.21 650.753 1406.69 653.425 1408.18 655.387C1409.57 657.204 1412.53 657.767 1414.36 656.222Z" fill="#A5CB00"/>
<path d="M1431.93 638.87L1434.66 647.77C1435.2 649.528 1437.5 650.759 1439.27 650.462C1440.04 650.332 1440.76 650.042 1441.4 649.596C1442.19 649.051 1443.07 647.722 1443.09 646.738C1443.22 641.745 1443.35 636.751 1443.47 631.758C1443.5 630.528 1443.4 629.464 1442.62 628.445C1441.98 627.603 1440.83 626.866 1439.76 626.757C1438.61 626.639 1437.36 626.848 1436.44 627.609C1435.63 628.291 1434.78 629.351 1434.76 630.467C1434.63 635.46 1434.5 640.454 1434.38 645.447L1442.81 644.415L1440.08 635.515C1439.78 634.516 1438.68 633.548 1437.75 633.149C1436.75 632.716 1435.34 632.653 1434.33 633.121C1433.31 633.593 1432.37 634.373 1431.96 635.449C1431.52 636.613 1431.57 637.681 1431.93 638.87Z" fill="#A5CB00"/>
<path d="M1319.93 760.736C1322.97 765.696 1327.23 770.025 1332.15 773.138C1333.16 773.782 1334.16 774.191 1335.4 774.04C1336.47 773.909 1337.69 773.276 1338.33 772.382C1339 771.455 1339.43 770.292 1339.23 769.135C1339.05 768.05 1338.55 766.817 1337.58 766.202C1335.29 764.753 1333.18 763.055 1331.27 761.138L1332.06 761.938C1330.11 759.958 1328.39 757.77 1326.94 755.401C1326.4 754.515 1325.07 753.858 1324.08 753.712C1323 753.552 1321.62 753.853 1320.77 754.565C1319.91 755.281 1319.19 756.277 1319.08 757.422C1318.95 758.667 1319.28 759.674 1319.93 760.736Z" fill="#A5CB00"/>
<path d="M1329.87 744.839C1332.6 751.074 1337.38 756.063 1343.38 759.224C1344.35 759.732 1345.83 759.654 1346.8 759.253C1347.78 758.849 1348.79 757.931 1349.17 756.925C1350.08 754.55 1349.05 752.287 1346.87 751.138C1346.5 750.943 1346.14 750.74 1345.77 750.529L1346.74 751.104C1344.94 750.03 1343.29 748.741 1341.8 747.26L1342.59 748.061C1341.07 746.517 1339.75 744.799 1338.67 742.923L1339.23 743.913C1338.78 743.124 1338.38 742.315 1338.01 741.484C1337.09 739.376 1334.45 738.073 1332.26 739.09C1330.14 740.077 1328.88 742.579 1329.87 744.839Z" fill="#A5CB00"/>
<path d="M1339.66 735.183C1341.37 737.317 1343.31 739.304 1345.4 741.08C1347.49 742.869 1349.79 744.365 1352.18 745.728C1353.11 746.258 1354.66 746.144 1355.6 745.756C1356.58 745.353 1357.59 744.435 1357.97 743.428C1358.38 742.349 1358.5 741.087 1358 740.007L1357.43 739.017C1356.96 738.408 1356.38 737.95 1355.67 737.642C1355.47 737.524 1355.26 737.406 1355.06 737.285L1356.02 737.86C1353.27 736.22 1350.74 734.241 1348.48 731.967L1349.27 732.768C1348.35 731.838 1347.49 730.864 1346.67 729.848C1345.96 728.97 1344.93 728.326 1343.81 728.159C1342.73 727.999 1341.35 728.3 1340.49 729.012C1339.63 729.728 1338.92 730.724 1338.8 731.87C1338.69 733.031 1338.91 734.249 1339.66 735.183Z" fill="#A5CB00"/>
<path d="M1652.88 188.377C1630.68 189.31 1609.21 198.582 1593.25 214.049C1585.14 221.907 1577.38 231.926 1574.65 243.069C1571.95 254.041 1574.95 266.549 1584.72 273.081C1594.72 279.77 1609.73 275.259 1613.52 263.678C1614.53 260.592 1612.31 257.989 1609.67 256.892C1602.07 253.743 1593.96 257.985 1588.5 263.233C1583.53 268.018 1579.61 274.295 1576.62 280.476C1570.49 293.132 1567.61 307.401 1568.68 321.446C1569.29 329.486 1571.03 337.386 1574.12 344.841C1575.26 347.591 1577.78 349.553 1580.91 348.694C1583.51 347.979 1585.91 344.677 1584.76 341.908C1575.68 320.001 1578.56 294.386 1592.71 275.146C1594.51 272.694 1596.67 270.309 1599.25 268.66C1602.03 266.886 1603.99 266.395 1606.73 267.531L1602.88 260.745C1602.34 262.393 1603.16 260.338 1602.7 261.224C1602.5 261.628 1602.27 262.024 1602 262.393C1602.47 261.738 1601.94 262.438 1601.84 262.541C1601.53 262.87 1601.2 263.189 1600.85 263.475C1600.11 264.082 1601.86 262.908 1600.42 263.742C1600.1 263.927 1599.78 264.115 1599.45 264.286C1598.48 264.791 1599 264.497 1599.24 264.405C1598.62 264.647 1597.98 264.797 1597.35 264.971C1597.13 265.032 1595.94 265.21 1596.86 265.1C1596.49 265.145 1596.1 265.162 1595.73 265.171C1595.35 265.181 1594.97 265.173 1594.59 265.158C1592.88 265.091 1595.48 265.426 1593.81 265.069C1591.87 264.651 1591.25 264.361 1589.84 263.231C1587.13 261.071 1585.62 257.835 1584.9 254.168C1584.23 250.754 1585.02 246.104 1586.42 242.342C1589.48 234.106 1595.76 226.804 1602.09 220.867C1608.61 214.755 1616.17 209.848 1624.3 206.158C1633.3 202.08 1643.15 199.819 1652.88 199.41C1655.86 199.285 1658.4 196.964 1658.4 193.893C1658.4 191.002 1655.88 188.251 1652.88 188.377Z" fill="#A5CB00"/>
<path d="M1624.42 285.673C1612.87 291.009 1605.69 303.1 1604.64 315.522C1604.38 318.64 1604.64 321.794 1605.24 324.861C1605.87 328.093 1607.79 330.962 1608.38 334.147C1608.84 336.648 1607.53 339.296 1607.05 342.05C1606.32 346.262 1606.94 349.71 1609.66 353.084C1611.53 355.405 1615.52 355.032 1617.47 353.084C1619.76 350.79 1619.35 347.609 1617.47 345.282C1617.68 345.551 1617.71 345.63 1617.75 345.968C1617.75 345.994 1617.77 344.2 1617.69 344.983C1617.84 343.551 1618.35 342.107 1618.69 340.715C1619.49 337.421 1619.86 334.13 1618.91 330.823C1618.09 327.989 1616.65 325.428 1616.01 322.524C1615.58 320.57 1615.47 318.66 1615.63 316.13C1615.63 316.168 1615.79 314.385 1615.69 315.17C1615.77 314.567 1615.89 313.96 1616.01 313.365C1616.25 312.166 1616.57 310.981 1616.96 309.818C1617.6 307.875 1618.47 306.054 1619.8 303.959C1622.25 300.119 1625.56 297.246 1629.99 295.199C1632.7 293.949 1633.37 290.047 1631.97 287.652C1630.35 284.877 1627.14 284.418 1624.42 285.673Z" fill="#A5CB00"/>
<path d="M1484.86 324.256C1468.77 343.867 1468.69 373.069 1484.59 392.807C1486.46 395.129 1490.45 394.755 1492.4 392.807C1494.69 390.512 1494.27 387.334 1492.4 385.006C1480.57 370.331 1480.7 346.637 1492.67 332.057C1494.55 329.755 1494.92 326.509 1492.67 324.256C1490.72 322.308 1486.76 321.941 1484.86 324.256Z" fill="#A5CB00"/>
<path d="M1451.44 379.747C1449.71 396.081 1460.97 412.183 1476.43 417.098C1479.18 417.973 1482.58 416.071 1483.22 413.245C1483.91 410.234 1482.31 407.396 1479.36 406.459C1478.93 406.321 1478.5 406.179 1478.07 406.023C1477.93 405.972 1476.76 405.495 1477.46 405.797C1478.17 406.1 1477.01 405.581 1476.88 405.517C1476.47 405.32 1476.07 405.113 1475.67 404.897C1475.01 404.537 1474.36 404.149 1473.73 403.737C1473.35 403.489 1472.98 403.226 1472.61 402.97C1471.75 402.382 1472.96 403.292 1472.46 402.872C1471.24 401.842 1470.07 400.794 1468.99 399.615C1468.68 399.28 1468.38 398.938 1468.09 398.59C1468 398.481 1467.22 397.492 1467.67 398.082C1468.12 398.673 1467.37 397.658 1467.28 397.544C1467.02 397.171 1466.77 396.794 1466.52 396.411C1465.65 395.062 1464.96 393.647 1464.24 392.216C1463.95 391.625 1464.55 393.055 1464.18 392.069C1464.02 391.643 1463.86 391.22 1463.71 390.79C1463.47 390.075 1463.25 389.35 1463.06 388.619C1462.85 387.815 1462.67 387.003 1462.53 386.185C1462.43 385.581 1462.42 385.321 1462.5 386.084C1462.46 385.633 1462.4 385.185 1462.37 384.732C1462.26 383.068 1462.3 381.405 1462.48 379.746C1462.79 376.867 1459.72 374.106 1456.96 374.23C1453.71 374.375 1451.77 376.662 1451.44 379.747Z" fill="#A5CB00"/>
<path d="M319.218 736.98C286.265 740.167 250.912 745.096 225.4 768.218C214.385 778.201 205.533 791.403 202.06 805.97C198.487 820.958 200.397 837.911 210.685 849.924C221.897 863.017 243.724 864.128 254.113 849.518C255.639 847.372 255.182 843.271 253.088 841.574C236.54 828.168 214.854 833.606 197.099 841.525C179.102 849.553 159.471 861.377 155.042 882.181C152.927 892.113 154.552 902.87 161.587 910.542C167.248 916.715 176.24 920.342 184.599 919.463C189.28 918.971 193.591 917.284 197.175 914.19C202.248 909.809 202.782 902.044 196.645 898.284C192.813 895.937 187.427 895.56 183.04 895.684C178.523 895.811 173.946 896.666 169.722 898.279C149.901 905.846 136.145 925.718 139.25 947.134C139.759 950.641 144.208 952.566 147.318 951.712C151.083 950.678 152.408 947.166 151.898 943.649C151.153 938.511 152.577 932.108 155.274 927.133C158.276 921.594 162.529 917.037 167.753 913.769C173.175 910.377 178.752 908.611 184.897 908.792C186.622 908.842 186.911 908.853 188.366 909.146C189.268 909.328 189.706 909.458 189.736 909.443L190.025 909.604L188.953 903.944C188.625 904.049 188.191 904.694 187.9 904.92C188.658 904.333 187.013 905.4 186.781 905.528C186.502 905.683 186.209 905.836 185.915 905.959C186.052 905.901 186.692 905.656 185.986 905.88C185.27 906.107 184.55 906.296 183.812 906.441C184.87 906.233 183.037 906.488 182.66 906.496C181.896 906.513 181.13 906.485 180.37 906.409C181.385 906.51 179.802 906.288 179.497 906.218C178.733 906.045 177.986 905.821 177.242 905.577C176.923 905.473 176.602 905.36 176.292 905.232C176.938 905.499 176.255 905.2 176.006 905.073C174.934 904.526 173.187 903.46 172.677 903.045C172.306 902.744 170.374 900.763 170.096 900.375C166.68 895.617 166.629 888.733 168.425 882.845C172.871 868.26 187.723 860.359 200.657 854.255C207.923 850.827 215.989 847.751 223.867 846.713C230.865 845.791 238.311 846.387 243.813 850.844L242.788 842.901C243.089 842.477 240.754 844.902 241.25 844.523C240.704 844.939 240.093 845.296 239.491 845.625C239.529 845.605 237.51 846.493 238.52 846.108C235.722 847.174 234.293 847.304 231.155 847.059C227.365 846.764 222.71 844.178 219.74 840.424C212.466 831.23 212.267 818.15 215.206 807.516C222.162 782.348 245.57 766.074 269.702 758.661C285.783 753.721 302.53 751.703 319.218 750.089C322.743 749.748 325.776 747.321 325.776 743.535C325.776 740.254 322.764 736.637 319.218 736.98Z" fill="#A5CB00"/>
</g>
<defs>
<clipPath id="clip0_215_3">
<rect width="1920" height="1080" fill="white" transform="translate(0 0.63681)"/>
</clipPath>
</defs>
</svg>
