<svg width="15" height="15" viewBox="0 0 15 15" fill="none" xmlns="http://www.w3.org/2000/svg">
<path d="M4.2098 1.73632C5.19181 1.14811 6.31498 0.837272 7.45968 0.836914C8.41207 0.836353 9.35231 1.05076 10.2103 1.46417C11.0683 1.87757 11.8219 2.4793 12.415 3.2245C13.0081 3.9697 13.4253 4.83915 13.6355 5.76804C13.8458 6.69694 13.8437 7.66131 13.6294 8.58928C13.4151 9.51724 12.9941 10.3849 12.3977 11.1275C11.8014 11.8701 11.0452 12.4685 10.1854 12.8782C9.32562 13.2878 8.38445 13.4981 7.43207 13.4934C6.63719 13.4895 5.8516 13.3358 5.11601 13.042L1.68375 13.6135C1.28521 13.6799 0.959444 13.298 1.0878 12.9149L1.96406 10.2995C1.47118 9.43501 1.18808 8.46449 1.14052 7.46639C1.08604 6.32299 1.34272 5.18622 1.88322 4.17716C2.42371 3.1681 3.22779 2.32454 4.2098 1.73632Z" stroke="#ADADAD" stroke-width="1.60714" stroke-linecap="round" stroke-linejoin="round"/>
<path d="M5.15625 5.89331H10.3795" stroke="#ADADAD" stroke-width="1.60714" stroke-linecap="round" stroke-linejoin="round"/>
<path d="M5.15625 9.10742H9.10714" stroke="#ADADAD" stroke-width="1.60714" stroke-linecap="round" stroke-linejoin="round"/>
</svg>
