<svg width="62" height="63" viewBox="0 0 62 63" fill="none" xmlns="http://www.w3.org/2000/svg">
<path d="M31.0089 58.0715C48.0146 58.0715 57.5803 48.5058 57.5803 31.5C57.5803 14.4943 48.0146 4.92862 31.0089 4.92862C14.0032 4.92862 4.4375 14.4943 4.4375 31.5C4.4375 48.5058 14.0032 58.0715 31.0089 58.0715Z" fill="#A5CB00" stroke="#002916" stroke-width="3" stroke-linecap="round" stroke-linejoin="round"/>
<path d="M31.0078 4.92862L31.0078 58.0715" stroke="#002916" stroke-width="3" stroke-linecap="round" stroke-linejoin="round"/>
<path d="M10.0703 13.3208C15.4987 17.225 18.3895 23.3869 18.3895 31.5002C18.3895 39.6134 15.4987 45.7754 10.0703 49.6795" stroke="#002916" stroke-width="3" stroke-linecap="round" stroke-linejoin="round"/>
<path d="M52.0156 13.3208C46.5872 17.225 43.6964 23.3869 43.6964 31.5002C43.6964 39.6134 46.5872 45.7754 52.0156 49.6795" stroke="#002916" stroke-width="3" stroke-linecap="round" stroke-linejoin="round"/>
</svg>
