<svg width="62" height="62" viewBox="0 0 62 62" fill="none" xmlns="http://www.w3.org/2000/svg">
<path d="M20.5103 20.0207C30.6169 20.0207 36.3019 17.214 36.3019 12.2241C36.3019 11.0334 35.9781 9.96688 35.3477 9.03322C33.3367 6.05455 28.205 4.42758 20.5103 4.42758C10.4037 4.42758 4.71875 7.23435 4.71875 12.2241C4.71875 16.1948 8.31868 18.7832 14.882 19.6748C16.5665 19.9036 18.4462 20.0207 20.5103 20.0207Z" fill="#A5CB00"/>
<path d="M4.8267 11.4993C4.58913 14.6538 4.40625 18.8563 4.40625 22.1339C4.40625 26.3742 4.71232 30.5242 5.04693 34.5509C5.39924 38.7905 8.67797 42.3187 12.8898 42.917C13.6786 43.029 14.4733 43.1339 15.2733 43.2251" stroke="#002916" stroke-width="3" stroke-linecap="round" stroke-linejoin="round"/>
<path d="M14.016 31.8965C8.94306 31.5063 4.8656 28.4297 4.40625 24.6859" stroke="#002916" stroke-width="3" stroke-linecap="round"/>
<path d="M14.882 19.6748C8.31869 18.7832 4.71875 16.1948 4.71875 12.2241C4.71875 7.23435 10.4037 4.42758 20.5103 4.42758C28.205 4.42758 33.3367 6.05455 35.3477 9.03322" stroke="#002916" stroke-width="3" stroke-linecap="round" stroke-linejoin="round"/>
<path d="M33.593 56.9336C36.0835 57.2873 38.6321 57.5704 41.2253 57.5704C43.8185 57.5704 46.3671 57.2873 48.8576 56.9336C53.0695 56.3354 56.3483 52.8071 56.7006 48.5675C57.0352 44.5408 57.3412 40.3908 57.3412 36.1505C57.3412 32.5332 57.1185 28.9814 56.8453 25.5159H25.5298C25.2923 28.6704 25.1094 32.8729 25.1094 36.1505C25.1094 40.3908 25.4154 44.5408 25.7501 48.5675C26.1024 52.8071 29.3811 56.3353 33.593 56.9336Z" stroke="#002916" stroke-width="3" stroke-linejoin="round"/>
<path d="M57.3412 38.7025C56.8819 42.4463 52.8044 45.5229 47.7315 45.9131C45.5994 46.0771 43.4281 46.1962 41.2253 46.1962C39.0225 46.1962 36.8512 46.0771 34.7191 45.9131C29.6462 45.5229 25.5687 42.4463 25.1094 38.7025" stroke="#002916" stroke-width="3" stroke-linecap="round"/>
<path d="M41.2134 34.0373C51.32 34.0373 57.005 31.2306 57.005 26.2408C57.005 21.2509 51.32 18.4442 41.2134 18.4442C31.1068 18.4442 25.4219 21.2509 25.4219 26.2408C25.4219 31.2306 31.1068 34.0373 41.2134 34.0373Z" fill="#A5CB00" stroke="#002916" stroke-width="3" stroke-linecap="round" stroke-linejoin="round"/>
</svg>
