<svg width="62" height="63" viewBox="0 0 62 63" fill="none" xmlns="http://www.w3.org/2000/svg">
<path d="M29.3581 4.49283C20.3016 8.29793 11.3915 13.5876 5.05919 20.3618C3.81315 21.6948 4.81484 23.7496 6.63951 23.7496H55.3538C57.1785 23.7496 58.1802 21.6948 56.9341 20.3618C50.6018 13.5876 41.6918 8.29793 32.6352 4.49283C31.5868 4.05236 30.4065 4.05236 29.3581 4.49283Z" fill="#A5CB00" stroke="#002916" stroke-width="3" stroke-linecap="round" stroke-linejoin="round"/>
<path d="M13.2556 45.8931C8.10754 45.8931 5.61923 49.8826 4.76004 54.77C4.33657 57.1789 6.38118 59.1788 8.82701 59.1788H53.1127C55.5586 59.1788 57.6032 57.1789 57.1797 54.77C56.3205 49.8826 53.8322 45.8931 48.6842 45.8931H13.2556Z" stroke="#002916" stroke-width="3" stroke-linecap="round" stroke-linejoin="round"/>
<path d="M13.2812 45.8931V23.7502" stroke="#002916" stroke-width="3" stroke-linecap="round" stroke-linejoin="round"/>
<path d="M30.9688 45.8931V23.7502" stroke="#002916" stroke-width="3" stroke-linecap="round" stroke-linejoin="round"/>
<path d="M48.7031 45.8931V23.7502" stroke="#002916" stroke-width="3" stroke-linecap="round" stroke-linejoin="round"/>
</svg>
