<svg width="24" height="24" viewBox="0 0 24 24" fill="none" xmlns="http://www.w3.org/2000/svg">
<path d="M18.0766 6.65028C16.4069 5.44118 14.3769 4.53906 12.1875 4.53906C6.49206 4.53906 1.875 10.6439 1.875 12.3766C1.875 13.4793 3.7453 16.3532 6.57355 18.297" stroke="#79807C" stroke-width="2.475" stroke-linejoin="round"/>
<path d="M20.9279 9.36719C21.9244 10.6087 22.5006 11.7664 22.5006 12.3785C22.5006 14.1112 17.8835 20.216 12.1881 20.216C11.465 20.216 10.7592 20.1176 10.0781 19.9422" stroke="#79807C" stroke-width="2.475" stroke-linecap="round" stroke-linejoin="round"/>
<path d="M12.3241 8.04688C9.85832 8.04688 7.85938 10.0458 7.85938 12.5116C7.85938 13.8966 8.48993 15.1342 9.47962 15.9531L15.7455 9.64295C14.9265 8.66718 13.6978 8.04688 12.3241 8.04688Z" fill="#79807C" stroke="#79807C" stroke-width="2.475" stroke-linecap="round" stroke-linejoin="round"/>
<path d="M21.675 2.0625C14.9801 10.6384 10.6347 14.9374 1.875 21.8625" stroke="#79807C" stroke-width="2.475" stroke-linecap="round" stroke-linejoin="round"/>
</svg>
